<?xml version="1.0" encoding="iso-8859-1"?>
<!-- Generator: Adobe Illustrator 19.0.0, SVG Export Plug-In . SVG Version: 6.00 Build 0)  -->
<svg version="1.1" id="Layer_1" xmlns="http://www.w3.org/2000/svg" xmlns:xlink="http://www.w3.org/1999/xlink" x="0px" y="0px"
	 viewBox="0 0 512.002 512.002" style="enable-background:new 0 0 512.002 512.002;" xml:space="preserve">
<path fill="#ff0871" d="M442.987,490.517l-34.319-102.891c-2.123-6.365-8.08-10.657-14.788-10.657H271.573V219.686h123.593
	c8.61,0,15.589-6.979,15.589-15.589c0-8.61-6.979-15.589-15.589-15.589h-9.768c-26.903-20.994-42.873-52.611-42.873-85.201
	c0-8.61-6.979-15.589-15.589-15.589s-15.589,6.979-15.589,15.589c0,30.311,10.56,59.886,29.288,84.102h-69.063v-56.12
	c0-8.61-6.979-15.589-15.589-15.589c-8.61,0-15.589,6.979-15.589,15.589v56.12h-69.062c18.727-24.216,29.288-53.789,29.288-84.102
	c0-25.393-7.437-50.171-21.296-72.13h206.243c8.61,0,15.589-6.979,15.589-15.589S394.178,0,385.568,0H126.4
	c-8.61,0-15.589,6.979-15.589,15.589s6.979,15.589,15.589,15.589h13.89c19.096,20.866,29.153,45.691,29.153,72.13
	c0,32.59-15.969,64.208-42.873,85.201h-9.768c-8.61,0-15.589,6.979-15.589,15.589c0,8.61,6.979,15.589,15.589,15.589h123.593
	v157.283H118.088c-6.709,0-12.666,4.292-14.788,10.657L68.66,491.48c-1.585,4.755-0.789,9.98,2.142,14.046
	c2.929,4.066,7.635,6.476,12.647,6.476h345.073c0.009,0,0.019,0,0.031,0c8.61,0,15.589-6.979,15.589-15.589
	C444.141,494.325,443.731,492.336,442.987,490.517z M105.081,480.822l24.241-72.677h111.074v25.581
	c0,8.61,6.979,15.589,15.589,15.589c8.61,0,15.589-6.979,15.589-15.589v-25.581h111.074l24.241,72.677H105.081z"/>
</svg>
