<?xml version="1.0" encoding="windows-1252"?>
<!DOCTYPE svg PUBLIC "-//W3C//DTD SVG 1.1//EN" "http://www.w3.org/Graphics/SVG/1.1/DTD/svg11.dtd">
<svg version="1.1" id="Capa_1" xmlns="http://www.w3.org/2000/svg" xmlns:xlink="http://www.w3.org/1999/xlink" x="0px" y="0px" width="612.019px" height="612.02px" viewBox="0 0 612.019 612.02" style="enable-background:new 0 0 612.019 612.02;" xml:space="preserve">
    <g fill="#ff0871">
        <path d="M594.826,164.959L447.064,17.208C435.975,6.108,421.208,0,405.471,0c-15.727,0-30.503,6.108-41.603,17.218L17.212,363.874c-22.934,22.943-22.934,60.252-0.01,83.186l147.742,147.752c11.089,11.1,25.866,17.208,41.593,17.208c15.728,0,30.513-6.118,41.603-17.218l346.667-346.656C617.741,225.211,617.741,187.894,594.826,164.959z M567.078,220.417L220.411,567.083c-3.814,3.814-8.834,5.717-13.864,5.717c-5.03,0-10.05-1.912-13.865-5.717L44.94,419.341c-7.619-7.628-7.619-20.1,0-27.729l20.542-20.541l87.412,87.411c3.834,3.834,8.844,5.746,13.864,5.746s10.031-1.912,13.864-5.746c7.658-7.657,7.658-20.07,0-27.729L93.21,343.343l11.413-11.413l35.229,35.229c3.833,3.833,8.844,5.745,13.864,5.745s10.03-1.912,13.864-5.735c7.658-7.658,7.658-20.071,0-27.738l-35.22-35.23l17.924-17.923l35.219,35.22c3.834,3.833,8.844,5.745,13.864,5.745c5.021,0,10.031-1.912,13.864-5.745c7.658-7.658,7.658-20.071,0-27.729l-35.229-35.219l11.413-11.413l35.229,35.239c3.824,3.833,8.844,5.746,13.864,5.746c5.021,0,10.041-1.912,13.865-5.736c7.658-7.658,7.658-20.071,0-27.739l-35.229-35.239l11.393-11.393l87.413,87.412c3.834,3.834,8.844,5.746,13.864,5.746s10.03-1.912,13.864-5.746c7.657-7.658,7.657-20.071,0-27.729l-87.412-87.412l11.413-11.413l35.229,35.239c3.824,3.833,8.845,5.746,13.865,5.746c5.021,0,10.031-1.912,13.864-5.736c7.658-7.658,7.658-20.071,0-27.739l-35.229-35.239l17.924-17.924l35.239,35.229c3.834,3.824,8.844,5.736,13.864,5.736s10.03-1.912,13.864-5.746c7.658-7.658,7.658-20.071,0-27.738l-35.229-35.229l11.403-11.413l35.229,35.239c3.824,3.833,8.845,5.746,13.864,5.746c5.021,0,10.03-1.912,13.864-5.736c7.658-7.658,7.658-20.071,0-27.738L380.204,56.33l11.384-11.384c3.834-3.814,8.854-5.726,13.884-5.726c5.03,0,10.051,1.912,13.864,5.716l147.742,147.742C574.706,200.316,574.706,212.789,567.078,220.417z"/>
    </g>
</svg>
