<?xml version="1.0" encoding="iso-8859-1"?>
<!-- Generator: Adobe Illustrator 16.0.0, SVG Export Plug-In . SVG Version: 6.00 Build 0)  -->
<!DOCTYPE svg PUBLIC "-//W3C//DTD SVG 1.1//EN" "http://www.w3.org/Graphics/SVG/1.1/DTD/svg11.dtd">
<svg version="1.1" id="Capa_1" xmlns="http://www.w3.org/2000/svg" xmlns:xlink="http://www.w3.org/1999/xlink" x="0px" y="0px"
	 width="792px" height="792px" viewBox="0 0 792 792" style="enable-background:new 0 0 792 792;" xml:space="preserve">
<g fill="#ff0871">
	<path d="M499.326,70.728H292.687c-94.67,0-171.692,75.854-171.692,169.088v374.667h550.01V239.816
		C671.005,146.582,593.997,70.728,499.326,70.728z M643.936,587.816H148.078v-348c0-78.539,64.876-142.421,144.609-142.421
		h206.639c79.733,0,144.609,63.883,144.609,142.421V587.816z M524.235,0H267v26.667h257.25V0H524.235z M226.227,428.324
		c-28.318,0-51.348,22.681-51.348,50.556s23.03,50.556,51.348,50.556c28.305,0,51.334-22.681,51.334-50.556
		C277.575,451.005,254.532,428.324,226.227,428.324z M226.227,502.782c-13.38,0-24.265-10.723-24.265-23.889
		c0-13.18,10.884-23.889,24.265-23.889c13.381,0,24.265,10.723,24.265,23.889S239.608,502.782,226.227,502.782z M564.713,428.324
		c-28.318,0-51.349,22.681-51.349,50.556s23.03,50.556,51.349,50.556c28.304,0,51.334-22.681,51.334-50.556
		S593.017,428.324,564.713,428.324z M564.713,502.782c-13.381,0-24.266-10.723-24.266-23.889c0-13.18,10.885-23.889,24.266-23.889
		c13.38,0,24.265,10.723,24.265,23.889C588.964,492.06,578.093,502.782,564.713,502.782z M150.185,778.432L173.497,792
		l88.201-146.837l-23.312-13.568L150.185,778.432z M529.281,645.163L617.483,792l23.312-13.568l-88.201-146.837L529.281,645.163z
		 M598.573,244.54c0-47.657-39.377-86.43-87.772-86.43H280.166c-48.396,0-87.772,38.772-87.772,86.43v138.489h406.18V244.54z
		 M571.49,356.362H219.477V244.553c0-32.961,27.231-59.763,60.689-59.763h230.635c33.458,0,60.689,26.815,60.689,59.763V356.362
		L571.49,356.362z"/>
</g>
</svg>
