<?xml version="1.0" encoding="iso-8859-1"?>
<!-- Generator: Adobe Illustrator 19.0.0, SVG Export Plug-In . SVG Version: 6.00 Build 0)  -->
<svg version="1.1" id="Capa_1" xmlns="http://www.w3.org/2000/svg" xmlns:xlink="http://www.w3.org/1999/xlink" x="0px" y="0px"
	 viewBox="0 0 384 384" style="enable-background:new 0 0 384 384;" xml:space="preserve">
<circle style="fill:#E16F47;" cx="192" cy="192" r="88"/>
<g>
	<path style="fill:#1C3252;" d="M78.848,101.472c3.12,3.128,7.216,4.688,11.312,4.688s8.192-1.56,11.312-4.688
		c6.248-6.248,6.248-16.376,0-22.624l-22.64-22.64c-6.24-6.248-16.384-6.248-22.624,0c-6.248,6.248-6.248,16.376,0,22.624
		L78.848,101.472z"/>
	<path style="fill:#1C3252;" d="M16,208h32c8.832,0,16-7.168,16-16s-7.168-16-16-16H16c-8.832,0-16,7.168-16,16S7.168,208,16,208z"
		/>
	<path style="fill:#1C3252;" d="M78.832,327.792l22.64-22.64c6.248-6.248,6.248-16.376,0-22.624c-6.24-6.248-16.384-6.248-22.624,0
		l-22.64,22.64c-6.248,6.248-6.248,16.376,0,22.624c3.12,3.128,7.216,4.688,11.312,4.688S75.712,330.92,78.832,327.792z"/>
	<path style="fill:#1C3252;" d="M192,384c8.832,0,16-7.168,16-16v-32c0-8.832-7.168-16-16-16s-16,7.168-16,16v32
		C176,376.832,183.168,384,192,384z"/>
	<path style="fill:#1C3252;" d="M282.528,282.528c-6.248,6.248-6.248,16.376,0,22.624l22.64,22.64
		c3.12,3.128,7.216,4.688,11.312,4.688s8.192-1.56,11.312-4.688c6.248-6.248,6.248-16.376,0-22.624l-22.64-22.64
		C298.912,276.28,288.768,276.28,282.528,282.528z"/>
	<path style="fill:#1C3252;" d="M368,176h-32c-8.832,0-16,7.168-16,16s7.168,16,16,16h32c8.832,0,16-7.168,16-16
		S376.832,176,368,176z"/>
	<path style="fill:#1C3252;" d="M293.84,106.16c4.096,0,8.192-1.56,11.312-4.688l22.64-22.64c6.248-6.248,6.248-16.376,0-22.624
		c-6.24-6.248-16.384-6.248-22.624,0l-22.64,22.64c-6.248,6.248-6.248,16.376,0,22.624C285.648,104.6,289.744,106.16,293.84,106.16z
		"/>
	<path style="fill:#1C3252;" d="M192,64c8.832,0,16-7.168,16-16V16c0-8.832-7.168-16-16-16s-16,7.168-16,16v32
		C176,56.832,183.168,64,192,64z"/>
	<path style="fill:#1C3252;" d="M192,296c57.344,0,104-46.656,104-104S249.344,88,192,88S88,134.656,88,192S134.656,296,192,296z
		 M192,120c39.696,0,72,32.304,72,72s-32.304,72-72,72s-72-32.304-72-72S152.304,120,192,120z"/>
</g>
<g>
</g>
<g>
</g>
<g>
</g>
<g>
</g>
<g>
</g>
<g>
</g>
<g>
</g>
<g>
</g>
<g>
</g>
<g>
</g>
<g>
</g>
<g>
</g>
<g>
</g>
<g>
</g>
<g>
</g>
</svg>
