<?xml version="1.0" encoding="iso-8859-1"?>
<!-- Generator: Adobe Illustrator 19.0.0, SVG Export Plug-In . SVG Version: 6.00 Build 0)  -->
<svg version="1.1" id="Layer_1" xmlns="http://www.w3.org/2000/svg" xmlns:xlink="http://www.w3.org/1999/xlink" x="0px" y="0px"
	 viewBox="0 0 512 512" style="enable-background:new 0 0 512 512;" xml:space="preserve">
<g fill="#ff0871">
	<path d="M511.489,20.065C509.128,8.518,498.662,0,486.881,0h-76.96c-4.428,0-8.017,3.588-8.017,8.017
		c0,4.428,3.588,8.017,8.017,8.017h76.96c4.953,0,9.086,4.127,9.086,9.086v60.392H16.033V25.119c0-4.953,4.133-9.086,9.086-9.086
		h342.046c4.428,0,8.017-3.588,8.017-8.017c0-4.428-3.588-8.017-8.017-8.017H25.119C11.429,0,0,11.423,0,25.119v324.944
		c0,4.428,3.589,8.017,8.017,8.017c4.427,0,8.017-3.588,8.017-8.017V101.545h479.933v385.336c0,5.01-4.076,9.086-9.086,9.086
		H25.119c-5.01,0-9.086-4.076-9.086-9.086v-94.063c0-4.428-3.589-8.017-8.017-8.017c-4.427,0-8.017,3.588-8.017,8.017v94.063
		C0,500.732,11.268,512,25.119,512h461.762C500.732,512,512,500.732,512,486.881V25.119C512,23.422,511.829,21.721,511.489,20.065z
		"/>
	<path d="M67.875,25.653c-13.851,0-25.119,11.268-25.119,25.119c0,13.851,11.268,25.119,25.119,25.119s25.119-11.268,25.119-25.119
		C92.994,36.922,81.725,25.653,67.875,25.653z M67.875,59.858c-5.01,0-9.086-4.076-9.086-9.086c0-5.01,4.076-9.086,9.086-9.086
		c5.01,0,9.086,4.076,9.086,9.086C76.96,55.782,72.885,59.858,67.875,59.858z"/>
	<path d="M136.284,25.653c-13.851,0-25.119,11.268-25.119,25.119c0,13.851,11.268,25.119,25.119,25.119
		s25.119-11.268,25.119-25.119C161.403,36.922,150.135,25.653,136.284,25.653z M136.284,59.858c-5.01,0-9.086-4.076-9.086-9.086
		c0-5.01,4.076-9.086,9.086-9.086s9.086,4.076,9.086,9.086C145.37,55.782,141.294,59.858,136.284,59.858z"/>
	<path d="M204.693,25.653c-13.851,0-25.119,11.268-25.119,25.119c0,13.851,11.268,25.119,25.119,25.119
		s25.119-11.268,25.119-25.119C229.812,36.922,218.544,25.653,204.693,25.653z M204.693,59.858c-5.01,0-9.086-4.076-9.086-9.086
		c0-5.01,4.076-9.086,9.086-9.086s9.086,4.076,9.086,9.086C213.779,55.782,209.703,59.858,204.693,59.858z"/>
	<path d="M384.267,350.597H136.284c-4.427,0-8.017,3.588-8.017,8.017v34.205c0,4.428,3.589,8.017,8.017,8.017h247.983
		c4.428,0,8.017-3.588,8.017-8.017v-34.205C392.284,354.185,388.696,350.597,384.267,350.597z M376.251,384.802h-231.95V366.63
		h231.95V384.802z"/>
	<path d="M384.267,419.006H136.284c-4.427,0-8.017,3.588-8.017,8.017v34.205c0,4.428,3.589,8.017,8.017,8.017h247.983
		c4.428,0,8.017-3.588,8.017-8.017v-34.205C392.284,422.595,388.696,419.006,384.267,419.006z M376.251,453.211h-231.95V435.04
		h231.95V453.211z"/>
	<path d="M461.228,42.756h-17.102c-4.428,0-8.017,3.588-8.017,8.017c0,4.428,3.588,8.017,8.017,8.017h17.102
		c4.428,0,8.017-3.588,8.017-8.017C469.244,46.344,465.656,42.756,461.228,42.756z"/>
	<path d="M418.472,42.756H290.205c-4.428,0-8.017,3.588-8.017,8.017c0,4.428,3.588,8.017,8.017,8.017h128.267
		c4.428,0,8.017-3.588,8.017-8.017C426.489,46.344,422.9,42.756,418.472,42.756z"/>
	<path d="M307.307,196.676h-0.534v-26.188c0-23.281-18.941-42.221-42.221-42.221h-17.102c-23.281,0-42.221,18.941-42.221,42.221
		v8.551c0,4.428,3.589,8.017,8.017,8.017s8.017-3.588,8.017-8.017v-8.551c0-14.441,11.748-26.188,26.188-26.188h17.102
		c14.441,0,26.188,11.747,26.188,26.188v26.188h-86.046c-13.851,0-25.119,11.268-25.119,25.119v102.614
		c0,4.428,3.589,8.017,8.017,8.017h136.818c4.428,0,8.017-3.588,8.017-8.017V221.795
		C332.426,207.945,321.158,196.676,307.307,196.676z M316.393,316.393H195.608v-94.597c0-5.01,4.076-9.086,9.086-9.086h102.614
		c5.01,0,9.086,4.076,9.086,9.086V316.393z"/>
	<path d="M256,230.881c-13.851,0-25.119,11.268-25.119,25.119c0,11.048,7.172,20.446,17.102,23.8v18.956
		c0,4.428,3.589,8.017,8.017,8.017c4.428,0,8.017-3.588,8.017-8.017V279.8c9.93-3.354,17.102-12.752,17.102-23.8
		C281.119,242.149,269.851,230.881,256,230.881z M256,265.086c-5.01,0-9.086-4.076-9.086-9.086s4.076-9.086,9.086-9.086
		s9.086,4.076,9.086,9.086S261.01,265.086,256,265.086z"/>
</g>
</svg>
