<?xml version="1.0" encoding="iso-8859-1"?>
<!-- Generator: Adobe Illustrator 19.0.0, SVG Export Plug-In . SVG Version: 6.00 Build 0)  -->
<svg version="1.1" id="Layer_1" xmlns="http://www.w3.org/2000/svg" xmlns:xlink="http://www.w3.org/1999/xlink" x="0px" y="0px"
	 viewBox="0 0 512.001 512.001" style="enable-background:new 0 0 512.001 512.001;" xml:space="preserve">
<g fill="#ff0871">
	<path d="M503.465,302.519h-4.434v-31.039c0-14.247-9.209-26.376-21.982-30.772V119.33c0-20.173-16.411-36.584-36.584-36.584
		h-76.142c-4.715,0-8.535,3.821-8.535,8.535c0,4.714,3.82,8.535,8.535,8.535h76.142c10.76,0,19.514,8.754,19.514,19.514v119.612
		h-48.364c12.293-8.693,22.531-20.415,29.617-34.508c1.213-2.413,1.213-5.257,0-7.669c-7.248-14.415-18.173-26.79-31.592-35.786
		c-3.914-2.624-9.217-1.581-11.842,2.335c-2.625,3.915-1.58,9.217,2.336,11.842c9.771,6.553,17.926,15.293,23.781,25.447
		c-13.651,23.756-38.664,38.339-66.28,38.339c-27.618,0-52.631-14.584-66.282-38.342c13.651-23.759,38.666-38.342,66.282-38.342
		c7.693,0,15.281,1.138,22.553,3.38c4.509,1.389,9.282-1.138,10.671-5.641c1.39-4.504-1.136-9.283-5.641-10.671
		c-8.903-2.746-18.185-4.138-27.583-4.138c-35.566,0-67.596,19.764-83.596,51.578c-1.213,2.413-1.213,5.257,0,7.669
		c7.086,14.093,17.324,25.815,29.617,34.508h-95.312c12.293-8.693,22.531-20.415,29.618-34.508c1.213-2.413,1.213-5.257,0-7.669
		c-16-31.815-48.033-51.578-83.597-51.578c-35.564,0-67.598,19.764-83.597,51.578c-1.213,2.413-1.213,5.257,0,7.669
		c7.088,14.093,17.325,25.815,29.618,34.508H52.018V119.33c0-10.76,8.754-19.514,19.514-19.514h264.339
		c4.715,0,8.535-3.821,8.535-8.535c0-4.714-3.82-8.535-8.535-8.535H71.532c-20.173,0-36.584,16.411-36.584,36.584v121.381
		c-12.772,4.396-21.979,16.524-21.979,30.771v31.039H8.535c-4.714,0-8.535,3.822-8.535,8.535v63.577
		c0,4.714,3.821,8.535,8.535,8.535h29.828v37.553c0,4.714,3.821,8.535,8.535,8.535h46.088c4.714,0,8.535-3.822,8.535-8.535v-37.553
		h246.202c4.715,0,8.535-3.821,8.535-8.535c0-4.714-3.82-8.535-8.535-8.535H17.07v-46.507h59.344c4.714,0,8.535-3.822,8.535-8.535
		s-3.821-8.535-8.535-8.535H30.039v-31.039c0-8.529,6.94-15.469,15.468-15.469h420.984c8.529,0,15.469,6.94,15.469,15.469v31.039
		H104.865c-4.714,0-8.535,3.822-8.535,8.535s3.821,8.535,8.535,8.535H494.93v46.507H376.173c-4.715,0-8.535,3.821-8.535,8.535
		c0,4.714,3.82,8.535,8.535,8.535h34.306v37.553c0,4.714,3.82,8.535,8.535,8.535h46.088c4.715,0,8.535-3.822,8.535-8.535v-37.553
		h29.829c4.715,0,8.535-3.821,8.535-8.535v-63.577C512,306.341,508.18,302.519,503.465,302.519z M55.433,383.166h29.017v29.017
		H55.433V383.166z M88.082,200.599c13.651-23.759,38.666-38.342,66.283-38.342s52.631,14.583,66.283,38.342
		c-13.652,23.759-38.666,38.342-66.283,38.342S101.734,224.357,88.082,200.599z M456.566,412.184h-29.017v-29.017h29.017V412.184z"
		/>
</g>
</svg>
