<?xml version="1.0" encoding="iso-8859-1"?>
<!-- Generator: Adobe Illustrator 19.0.0, SVG Export Plug-In . SVG Version: 6.00 Build 0)  -->
<svg version="1.1" id="Capa_1" xmlns="http://www.w3.org/2000/svg" xmlns:xlink="http://www.w3.org/1999/xlink" x="0px" y="0px"
	 viewBox="0 0 512 512" style="enable-background:new 0 0 512 512;" xml:space="preserve">
<g fill="#ff0871">
	<path d="M498.819,85.607L426.394,13.18C417.895,4.68,406.594,0,394.574,0C385.635,0,145.766,0,135,0H45C20.187,0,0,20.187,0,45
		v422c0,24.813,20.187,45,45,45c22.168,0,404.583,0,422,0c24.813,0,45-20.187,45-45V117.426
		C512,105.407,507.319,94.106,498.819,85.607z M150,30h152v75c0,8.284,6.716,15,15,15s15-6.716,15-15V30h30v105
		c0,8.271-6.729,15-15,15H165c-8.271,0-15-6.729-15-15V30z M392,482H120V332h272V482z M392,302H120v-15c0-8.271,6.729-15,15-15h242
		c8.271,0,15,6.729,15,15V302z M482,467c0,8.271-6.729,15-15,15h-45V287c0-24.813-20.187-45-45-45H135c-24.813,0-45,20.187-45,45
		v195H45c-8.271,0-15-6.729-15-15V45c0-8.271,6.729-15,15-15h75v105c0,24.813,20.187,45,45,45h182c24.813,0,45-20.187,45-45V30
		h2.573c4.007,0,7.774,1.56,10.607,4.393l72.426,72.427c2.833,2.833,4.394,6.6,4.394,10.606V467z"/>
</g>
</svg>
