<?xml version="1.0" encoding="windows-1252"?>
<svg version="1.1" id="Capa_1" xmlns="http://www.w3.org/2000/svg" xmlns:xlink="http://www.w3.org/1999/xlink" x="0px" y="0px" viewBox="0 0 611.999 611.999" style="enable-background:new 0 0 611.999 611.999;" xml:space="preserve">
    <g fill="#ff0871">
        <path
            d="M577.401,122.399H250.191c3.561-9.875,5.334-18.702,5.334-26.542C255.524,43.002,212.522,0,159.669,0c-52.856,0-95.855,43.002-95.855,95.858c0,7.84,1.773,16.667,5.334,26.542H34.613c-9.59,0-17.364,7.775-17.364,17.364v453.921c0,0-1.145,17.43,16.842,18.314c0.99,0,543.31,0,543.31,0c9.592,0,17.365-7.775,17.365-17.364v-454.87C594.765,130.174,586.993,122.399,577.401,122.399z M159.669,34.729c33.706,0,61.126,27.423,61.126,61.129c0,21.842-32.479,68.765-61.126,102.728c-28.647-33.962-61.126-80.887-61.126-102.728C98.543,62.152,125.963,34.729,159.669,34.729z M51.977,157.128H86.38c5.61,9.255,59.654,78.615,60.482,79.519c3.286,3.592,7.933,5.638,12.806,5.638c4.869,0,9.516-2.046,12.806-5.638c0.828-0.904,54.869-70.264,60.479-79.519h81.221L51.977,419.325V157.128z M76.535,577.271l161.624-161.623L399.781,577.27H76.535V577.271z M448.896,577.271l-198.457-198.46c-6.784-6.781-17.777-6.781-24.558,0L51.977,552.713V468.44l311.312-311.312h84.276c0,0-154.991,155.014-154.984,155.017c-2.506,2.334-10.411,13.222,0.344,24.873c-0.001,0-0.003,0.003-0.004,0.006L533.167,577.27h-84.271V577.271z M404.332,249.476l74.918,74.921l-74.918,74.918l-74.921-74.918L404.332,249.476z M560.036,555.023l-131.15-131.147l87.199-87.202c6.784-6.781,6.784-17.774,0-24.558l-87.199-87.199l67.794-67.791h63.356V555.023z"/>
    </g>
</svg>
