<?xml version="1.0" encoding="iso-8859-1"?>
<!-- Generator: Adobe Illustrator 19.0.0, SVG Export Plug-In . SVG Version: 6.00 Build 0)  -->
<svg version="1.1" id="Capa_1" xmlns="http://www.w3.org/2000/svg" xmlns:xlink="http://www.w3.org/1999/xlink" x="0px" y="0px"
	 viewBox="0 0 384 384" style="enable-background:new 0 0 384 384;" xml:space="preserve">
<path style="fill:#83CFDF;" d="M280,85.68c48.64,0,88,38.08,88,85.12c0,47.12-39.36,85.2-88,85.2H88c-39.76,0-72-31.2-72-69.68
	c0-36.4,28.8-66.16,65.52-69.36c-1.04-5.12-1.52-10.4-1.52-15.76C80,54.08,119.36,16,168,16c44.4,0,81.12,31.84,87.12,73.2
	C262.96,86.88,271.36,85.68,280,85.68z"/>
<g>
	<path style="fill:#1C3252;" d="M280,69.68c-4.36,0-8.672,0.256-12.912,0.776C253.568,29.32,213.624,0,168,0
		C110.656,0,64,45.4,64,101.2c0,0.896,0.008,1.784,0.032,2.672C26.592,114.024,0,147.088,0,186.32C0,233.56,39.48,272,88,272h192
		c57.344,0,104-45.4,104-101.2C384,115.04,337.344,69.68,280,69.68z M280,240H88c-30.872,0-56-24.08-56-53.68
		c0-27.928,21.888-50.888,50.912-53.416c4.544-0.4,8.704-2.712,11.432-6.368c2.736-3.656,3.768-8.304,2.856-12.776
		c-0.8-3.896-1.2-8.12-1.2-12.56C96,63.04,128.296,32,168,32c35.72,0,66.36,25.576,71.28,59.496
		c0.672,4.592,3.296,8.672,7.208,11.176c3.904,2.512,8.712,3.176,13.168,1.872c6.424-1.896,13.264-2.864,20.344-2.864
		c39.704,0,72,31.008,72,69.12C352,208.96,319.704,240,280,240z"/>
	<path style="fill:#1C3252;" d="M88,296c-13.232,0-24,10.768-24,24s10.768,24,24,24s24-10.768,24-24S101.232,296,88,296z"/>
	<path style="fill:#1C3252;" d="M152,336c-13.232,0-24,10.768-24,24s10.768,24,24,24s24-10.768,24-24S165.232,336,152,336z"/>
	<path style="fill:#1C3252;" d="M216,296c-13.232,0-24,10.768-24,24s10.768,24,24,24s24-10.768,24-24S229.232,296,216,296z"/>
	<path style="fill:#1C3252;" d="M280,336c-13.232,0-24,10.768-24,24s10.768,24,24,24s24-10.768,24-24S293.232,336,280,336z"/>
</g>
<g>
</g>
<g>
</g>
<g>
</g>
<g>
</g>
<g>
</g>
<g>
</g>
<g>
</g>
<g>
</g>
<g>
</g>
<g>
</g>
<g>
</g>
<g>
</g>
<g>
</g>
<g>
</g>
<g>
</g>
</svg>
