<?xml version="1.0" encoding="iso-8859-1"?>
<!-- Generator: Adobe Illustrator 19.0.0, SVG Export Plug-In . SVG Version: 6.00 Build 0)  -->
<svg version="1.1" id="Layer_1" xmlns="http://www.w3.org/2000/svg" xmlns:xlink="http://www.w3.org/1999/xlink" x="0px" y="0px"
	 viewBox="0 0 511.998 511.998" style="enable-background:new 0 0 511.998 511.998;" xml:space="preserve">
<g fill="#ff0871">
	<path d="M424.15,0.095C423.595,0.034,423.034,0,422.463,0c-0.002,0-0.006,0-0.012,0h-0.059
		c-0.05,0-0.064,0-0.072,0l-1.854,0.002c-0.019,0-0.039-0.002-0.058-0.002c-0.011,0-0.02,0.002-0.031,0.002L90.506,0.263
		c-48.118,0-87.263,39.147-87.263,87.265c0,18.972,6.045,37.046,17.483,52.264c2.938,3.91,7.543,6.209,12.433,6.209h39.607v142.196
		c0,8.588,6.963,15.553,15.553,15.553s15.553-6.965,15.553-15.553V146.002h263c5.895,0,11.281-3.331,13.914-8.604
		c2.633-5.272,2.061-11.581-1.481-16.293c-7.355-9.789-11.243-21.399-11.243-33.579c0-31.26,23.362-55.837,53.359-56.395
		c31.095,0.544,56.229,25.991,56.229,57.213v335.31c0,31.201-25.099,56.635-56.165,57.212
		c-30.468-0.577-55.083-25.526-55.083-56.131c0-8.588-6.963-15.553-15.553-15.553c-8.59,0-15.553,6.965-15.553,15.553
		c0,21.368,7.722,40.971,20.521,56.157H179.679H90.506c-30.966,0-56.157-25.191-56.157-56.157c0-9.798,2.516-19.223,7.333-27.633
		h257.813c8.59,0,15.553-6.965,15.553-15.553s-6.963-15.553-15.553-15.553H33.367c-4.865,0-9.45,2.277-12.39,6.151
		c-11.601,15.29-17.734,33.473-17.734,52.588c0,48.118,39.147,87.263,87.263,87.263h89.172H420.41h2.149
		c0.577,0,1.145-0.036,1.705-0.098c46.931-2.027,84.492-40.827,84.492-88.248V88.346C508.754,40.886,471.133,2.064,424.15,0.095z
		 M341.351,114.896H41.526c-4.714-8.341-7.178-17.674-7.178-27.37c0-30.966,25.193-56.157,56.17-56.157l266.358-0.212
		c-12.893,15.73-19.92,35.495-19.92,56.37C336.956,96.953,338.447,106.155,341.351,114.896z"/>
	<path d="M224.282,230.954l11.609-11.609c6.073-6.073,6.073-15.922,0-21.997
		c-6.073-6.072-15.922-6.072-21.997,0l-11.609,11.609l-11.609-11.609c-6.073-6.072-15.922-6.072-21.997,0
		c-6.073,6.073-6.073,15.922,0,21.997l11.609,11.609l-11.609,11.609c-6.073,6.073-6.073,15.922,0,21.997
		c3.038,3.036,7.018,4.555,10.998,4.555s7.962-1.52,10.998-4.555l11.609-11.609l11.609,11.609c3.038,3.036,7.018,4.555,10.998,4.555
		c3.98,0,7.962-1.52,10.998-4.555c6.073-6.073,6.073-15.922,0-21.997L224.282,230.954z"/>
	<path d="M386.347,310.803l11.609-11.609c6.073-6.073,6.073-15.922,0-21.997
		c-6.073-6.072-15.922-6.072-21.997,0l-11.609,11.609l-11.609-11.609c-6.073-6.072-15.922-6.072-21.997,0
		c-6.073,6.073-6.073,15.922,0,21.997l11.609,11.609l-11.609,11.609c-6.073,6.073-6.073,15.922,0,21.997
		c3.038,3.036,7.017,4.555,10.997,4.555c3.98,0,7.962-1.52,10.998-4.555l11.609-11.609l11.609,11.609
		c3.038,3.036,7.018,4.555,10.998,4.555s7.962-1.52,10.998-4.555c6.073-6.073,6.073-15.922,0-21.997L386.347,310.803z"/>
</g>
</svg>
