<?xml version="1.0" encoding="iso-8859-1"?>
<!-- Generator: Adobe Illustrator 19.0.0, SVG Export Plug-In . SVG Version: 6.00 Build 0)  -->
<svg version="1.1" id="Layer_1" xmlns="http://www.w3.org/2000/svg" xmlns:xlink="http://www.w3.org/1999/xlink" x="0px" y="0px"
	 viewBox="0 0 512 512" style="enable-background:new 0 0 512 512;" xml:space="preserve">
<g fill="#ff0871">
	<path d="M455.828,440.379H347.929c27.389-10.951,48.357-26.522,64.359-45.36c65.428-9.791,94.74-63.816,94.74-113.537
		c0-35.246-19.627-64.674-45.028-69.82c0.002-0.267,0.005-0.534,0.007-0.8c0-4.414-1.766-8.828-5.297-12.359
		c-2.648-3.531-7.945-5.297-12.359-5.297H241.317H38.283c-4.414,0-8.828,1.766-12.359,5.297
		c-3.531,3.531-5.297,7.945-5.297,12.359c0.684,94.343,17.253,190.802,114.078,229.517H25.924
		c-12.359,0-22.952,10.593-22.952,22.952c0,10.593,7.062,18.538,20.303,21.186l111.228,8.828c4.414,0,5.297,1.766,6.179,3.531
		c4.414,8.828,13.241,14.124,22.952,14.124h146.538c9.71,0,18.538-5.297,21.186-14.124c0.883-1.766,2.648-3.531,6.179-3.531
		l120.938-8.828h0.883c12.359-2.648,19.421-10.593,19.421-21.186C478.779,450.972,469.069,440.379,455.828,440.379z
		 M488.49,281.483c0,34.428-15.89,75.917-60.028,90.924c26.483-43.255,31.779-96.221,33.545-142.124
		C477.014,235.579,488.49,256.766,488.49,281.483z M347.248,258.531l26.483,26.483v58.262h-52.966v-58.262L347.248,258.531z
		 M38.283,210.862h203.034h97.103v31.779l-32.662,32.662c-1.766,1.766-2.648,3.531-2.648,6.179v70.621
		c0,5.297,3.531,8.828,8.828,8.828h70.621c5.297,0,8.828-3.531,8.828-8.828v-70.621c0-2.648-0.883-4.414-2.648-6.179
		l-32.662-32.662v-31.779h88.276c-0.883,119.172-26.483,229.517-203.034,229.517S39.166,330.034,38.283,210.862z M458.476,466.862
		l-120.055,8.828c-8.828,0.883-16.772,5.297-20.303,13.241c-1.766,2.648-4.414,4.414-7.062,4.414H163.634
		c-2.648,0-5.297-1.766-7.062-4.414c-3.531-7.945-11.476-12.359-20.303-13.241l-111.228-8.828
		c-4.414-0.883-4.414-2.648-4.414-3.531c0-2.648,2.648-5.297,5.297-5.297h431.669c2.648,0,5.297,2.648,5.297,5.297
		C462.89,464.214,462.89,465.979,458.476,466.862z"/>
	<path d="M226.31,72.269c-13.241,13.241-20.303,26.483-20.303,40.607s7.062,28.248,20.303,42.372
		c1.766,1.766,3.531,2.648,6.179,2.648c1.766,0,4.414-0.883,6.179-2.648c3.531-3.531,3.531-8.828,0-12.359
		c-9.71-10.593-15.007-20.303-15.007-30.014s5.297-19.421,15.007-28.248c13.241-12.359,20.303-26.483,20.303-40.607
		c0-15.007-7.062-29.131-20.303-42.372c-3.531-3.531-8.828-3.531-12.359,0c-3.531,3.531-3.531,8.828,0,12.359
		c9.71,10.593,15.007,20.303,15.007,30.014S236.021,63.441,226.31,72.269z"/>
	<path d="M332.241,72.269C319,85.51,311.938,98.752,311.938,112.876s7.062,28.248,20.303,42.372
		c1.766,1.766,3.531,2.648,6.179,2.648c1.766,0,4.414-0.883,6.179-2.648c3.531-3.531,3.531-8.828,0-12.359
		c-9.71-10.593-15.007-20.303-15.007-30.014s5.297-19.421,15.007-28.248c13.241-12.359,20.303-26.483,20.303-40.607
		c0-15.007-7.062-29.131-20.303-42.372c-3.531-3.531-8.828-3.531-12.359,0c-3.531,3.531-3.531,8.828,0,12.359
		c9.71,10.593,15.007,20.303,15.007,30.014S341.952,63.441,332.241,72.269z"/>
	<path d="M138.034,72.269c-13.241,13.241-20.303,26.483-20.303,40.607s7.062,28.248,20.303,42.372
		c1.766,1.766,3.531,2.648,6.179,2.648c1.766,0,4.414-0.883,6.179-2.648c3.531-3.531,3.531-8.828,0-12.359
		c-9.71-10.593-15.007-20.303-15.007-30.014s5.297-19.421,15.007-28.248c13.241-12.359,20.303-26.483,20.303-40.607
		c0-15.007-7.062-29.131-20.303-42.372c-3.531-3.531-8.828-3.531-12.359,0c-3.531,3.531-3.531,8.828,0,12.359
		c9.71,10.593,15.007,20.303,15.007,30.014S147.745,63.441,138.034,72.269z"/>
	<path d="M190.117,396.241c-62.676-10.593-94.455-45.903-107.697-116.524c-0.883-4.414-6.179-7.945-10.593-7.062
		c-4.414,0.883-7.945,6.179-7.062,10.593c14.124,78.565,52.083,118.29,121.821,130.648c0.883,0,0.883,0,1.766,0
		c4.414,0,7.945-2.648,8.828-7.062C198.062,401.538,194.531,397.124,190.117,396.241z"/>
</g>
</svg>
