<?xml version="1.0" encoding="iso-8859-1"?>
<!-- Generator: Adobe Illustrator 19.0.0, SVG Export Plug-In . SVG Version: 6.00 Build 0)  -->
<svg version="1.1" id="Layer_1" xmlns="http://www.w3.org/2000/svg" xmlns:xlink="http://www.w3.org/1999/xlink" x="0px" y="0px"
	 viewBox="0 0 510.925 510.925" style="enable-background:new 0 0 510.925 510.925;" xml:space="preserve">
<g fill="#ff0871">
	<g>
		<path d="M486.4,138.662L283.927,64.19c-22.109-8.145-46.545-8.145-68.655,0L25.6,137.499C9.309,143.317,0,158.444,0,174.735
			s10.473,30.255,25.6,36.073l202.473,74.473c10.473,3.491,22.109,5.818,33.745,5.818s23.273-2.327,32.582-6.982l46.545-17.455
			c5.818-2.327,9.309-9.309,6.982-15.127c-2.327-5.818-9.309-9.309-15.127-6.982l-46.545,17.455
			c-15.127,5.818-32.582,5.818-50.036,0L33.745,188.699c-9.309-3.491-10.473-11.636-10.473-13.964s1.164-11.636,10.473-15.127
			l189.673-72.146c16.291-5.818,34.909-6.982,52.364,0l202.473,74.473c6.982,1.164,10.473,5.818,10.473,12.8
			s-4.655,12.8-11.636,15.127l-81.455,31.418l-123.345-50.036c-3.491-4.655-11.636-8.145-22.109-8.145
			c-12.8,0-23.273,5.818-23.273,11.636s9.309,10.473,20.945,11.636L384,241.062v144.291c-13.964,4.655-23.273,17.455-23.273,32.582
			c0,19.782,15.127,34.909,34.909,34.909c19.782,0,34.909-15.127,34.909-34.909c0-12.8-6.982-24.436-18.618-30.255
			c9.309-5.818,18.618-12.8,25.6-18.618c2.327-2.327,3.491-5.818,3.491-8.146v-93.091c0-6.982-4.655-11.636-11.636-11.636
			s-11.636,4.655-11.636,11.636v87.273c-3.491,3.491-6.982,5.818-11.636,8.146V242.226l77.964-29.091
			c16.291-5.818,26.764-20.945,26.764-37.236C512,158.444,501.527,144.48,486.4,138.662z M407.273,419.099
			c0,6.982-4.655,11.636-11.636,11.636c-6.982,0-11.636-4.655-11.636-11.636s4.655-11.636,11.636-11.636
			C402.618,407.462,407.273,412.117,407.273,419.099z"/>
	</g>
	<g>
		<path d="M336.291,407.462c-1.164-5.818-6.982-10.473-12.8-8.146c-23.273,5.818-46.545,8.146-67.491,8.146
			c-58.182,0-126.836-22.109-162.909-52.364v-87.273c0-6.982-4.655-11.636-11.636-11.636s-11.636,4.655-11.636,11.636v93.091
			c0,3.491,1.164,6.982,3.491,8.145C118.691,409.79,198.982,430.735,256,430.735c22.109,0,47.709-3.491,72.145-9.309
			C333.964,420.262,338.618,413.281,336.291,407.462z"/>
	</g>
</g>
<g>
</g>
<g>
</g>
<g>
</g>
<g>
</g>
<g>
</g>
<g>
</g>
<g>
</g>
<g>
</g>
<g>
</g>
<g>
</g>
<g>
</g>
<g>
</g>
<g>
</g>
<g>
</g>
<g>
</g>
</svg>
