<?xml version="1.0" encoding="iso-8859-1"?>
<!-- Generator: Adobe Illustrator 19.0.0, SVG Export Plug-In . SVG Version: 6.00 Build 0)  -->
<svg version="1.1" id="Layer_1" xmlns="http://www.w3.org/2000/svg" xmlns:xlink="http://www.w3.org/1999/xlink" x="0px" y="0px"
	 viewBox="0 0 512 512" style="enable-background:new 0 0 512 512;" xml:space="preserve">
<g fill="#ff0871">
	<path d="M352.188,112.219H327.64v-9.018h8.517c12.983,0,23.546-10.563,23.546-23.546v-56.11C359.703,10.563,349.14,0,336.157,0
		H175.843c-12.983,0-23.546,10.563-23.546,23.546v56.11c0,12.983,10.563,23.546,23.546,23.546h8.517v9.018h-24.548
		c-39.502,0-71.64,32.138-71.64,71.64v184.36c0,4.15,3.365,7.515,7.515,7.515s7.515-3.365,7.515-7.515V207.405h216.924
		c4.15,0,7.515-3.365,7.515-7.515c0-4.15-3.365-7.515-7.515-7.515H103.202v-8.517c0-31.215,25.396-56.611,56.611-56.611h32.063
		c4.15,0,7.515-3.365,7.515-7.515v-16.532h113.221v16.532c0,4.15,3.365,7.515,7.515,7.515h32.063
		c31.215,0,56.611,25.396,56.611,56.611v8.517h-56.611c-4.15,0-7.515,3.365-7.515,7.515c0,4.15,3.365,7.515,7.515,7.515h56.611
		v209.409H103.202v-16.532c0-4.15-3.365-7.515-7.515-7.515s-7.515,3.365-7.515,7.515v40.078c0,39.502,32.138,71.64,71.64,71.64
		h192.376c39.502,0,71.64-32.138,71.64-71.64V183.859C423.828,144.357,391.69,112.219,352.188,112.219z M175.843,88.172
		c-4.696,0-8.517-3.82-8.517-8.517v-56.11c0-4.696,3.82-8.517,8.517-8.517h160.313c4.696,0,8.517,3.82,8.517,8.517v56.11
		c0,4.696-3.82,8.517-8.517,8.517H175.843z M408.798,440.36c0,31.215-25.396,56.611-56.611,56.611H159.812
		c-31.215,0-56.611-25.396-56.611-56.611v-8.517h305.597V440.36z"/>

	<path d="M256,24.047c-4.15,0-7.515,3.365-7.515,7.515V71.64c0,4.15,3.365,7.515,7.515,7.515s7.515-3.365,7.515-7.515V31.562
		C263.515,27.412,260.15,24.047,256,24.047z"/>

	<path d="M288.063,24.047c-4.15,0-7.515,3.365-7.515,7.515V71.64c0,4.15,3.365,7.515,7.515,7.515s7.515-3.365,7.515-7.515V31.562
		C295.577,27.412,292.213,24.047,288.063,24.047z"/>

	<path d="M320.125,24.047c-4.15,0-7.515,3.365-7.515,7.515V71.64c0,4.15,3.365,7.515,7.515,7.515s7.515-3.365,7.515-7.515V31.562
		C327.64,27.412,324.275,24.047,320.125,24.047z"/>

	<path d="M223.937,24.047c-4.15,0-7.515,3.365-7.515,7.515V71.64c0,4.15,3.365,7.515,7.515,7.515s7.515-3.365,7.515-7.515V31.562
		C231.452,27.412,228.087,24.047,223.937,24.047z"/>

	<path d="M191.875,24.047c-4.15,0-7.515,3.365-7.515,7.515V71.64c0,4.15,3.365,7.515,7.515,7.515s7.515-3.365,7.515-7.515V31.562
		C199.389,27.412,196.025,24.047,191.875,24.047z"/>

	<path d="M312.11,288.564h-32.564V256c0-4.15-3.365-7.515-7.515-7.515h-32.063c-4.15,0-7.515,3.365-7.515,7.515v32.564H199.89
		c-4.15,0-7.515,3.365-7.515,7.515v32.063c0,4.15,3.365,7.515,7.515,7.515h32.564v32.564c0,4.15,3.365,7.515,7.515,7.515h32.063
		c4.15,0,7.515-3.365,7.515-7.515v-32.564h32.564c4.15,0,7.515-3.365,7.515-7.515v-32.063
		C319.624,291.928,316.26,288.564,312.11,288.564z M304.595,320.626h-32.564c-4.15,0-7.515,3.365-7.515,7.515v32.564h-17.033
		v-32.564c0-4.15-3.365-7.515-7.515-7.515h-32.564v-17.033h32.564c4.15,0,7.515-3.365,7.515-7.515v-32.564h17.033v32.564
		c0,4.15,3.365,7.515,7.515,7.515h32.564V320.626z"/>
</g>
</svg>
