<?xml version="1.0" encoding="iso-8859-1"?>
<!-- Generator: Adobe Illustrator 19.0.0, SVG Export Plug-In . SVG Version: 6.00 Build 0)  -->
<svg version="1.1" id="Capa_1" xmlns="http://www.w3.org/2000/svg" xmlns:xlink="http://www.w3.org/1999/xlink" x="0px" y="0px"
	 viewBox="0 0 512 512" style="enable-background:new 0 0 512 512;" xml:space="preserve">
<g fill="#ff0871">
	<path d="M473.012,222.815c4.199,0.001,7.604-3.404,7.604-7.603v-16.959h3.681c4.199,0,7.604-3.405,7.604-7.604V158.69
		c0-4.199-3.405-7.604-7.604-7.604h-3.681v-49.578c0-1.568-0.485-3.098-1.388-4.38l-37.189-52.776V7.923
		c0-4.164-3.208-7.795-7.37-7.919c-4.306-0.13-7.838,3.323-7.838,7.601v36.747l-37.188,52.777c-0.903,1.281-1.388,2.811-1.388,4.38
		v49.578h-3.681c-4.199,0-7.604,3.405-7.604,7.604v31.958c0,4.199,3.405,7.604,7.604,7.604h3.681v266.582h-3.681
		c-4.199,0-7.604,3.405-7.604,7.604v31.959c0,4.199,3.405,7.604,7.604,7.604h99.724c4.199,0,7.604-3.405,7.604-7.604v-31.958
		c0-4.199-3.405-7.604-7.604-7.604h-3.681V250.698c0-4.199-3.405-7.604-7.604-7.604s-7.604,3.405-7.604,7.604v214.137h-61.946
		V198.252h61.946v16.959C465.408,219.41,468.813,222.815,473.012,222.815z M403.461,103.918h0.001l30.972-43.955l30.973,43.955
		v47.168h-5.61v-20.987c0-2.353-1.09-4.575-2.951-6.014l-17.76-13.739c-2.739-2.119-6.566-2.119-9.305,0l-17.76,13.739
		c-1.861,1.44-2.951,3.661-2.951,6.014v20.987h-5.61V103.918z M444.591,133.83v17.256h-20.312V133.83l10.156-7.856L444.591,133.83z
		 M473.012,480.043h3.681v16.75h-84.517v-16.75h3.681H473.012z M392.178,183.044v-16.75h24.498h35.52h24.499v16.75H392.178z"/>

	<path d="M327.133,357.426l-26.032-20.138c-2.74-2.12-6.567-2.12-9.306,0l-26.032,20.138c-1.861,1.44-2.951,3.661-2.951,6.014
		v41.908c0,4.199,3.405,7.604,7.604,7.604h52.065c4.199,0,7.604-3.405,7.604-7.604V363.44
		C330.084,361.087,328.994,358.866,327.133,357.426z M278.018,397.744v-30.573l18.428-14.256l18.428,14.256v30.573H278.018z"/>

	<path d="M121.166,357.426l-26.032-20.138c-2.739-2.119-6.566-2.119-9.305,0l-26.032,20.138c-1.861,1.44-2.951,3.661-2.951,6.014
		v41.908c0,4.199,3.405,7.604,7.604,7.604h52.064c4.199,0,7.604-3.405,7.604-7.604V363.44
		C124.117,361.086,123.027,358.866,121.166,357.426z M108.909,397.744H72.053v-30.573l18.428-14.256l18.428,14.256V397.744z"/>

	<path d="M364.577,329.793l-33.761-33.455c4.379-5.942,10.793-16.074,14.414-28.468c0.089-0.306,0.16-0.618,0.211-0.933
		l2.571-16.089c0.059-0.37,0.09-0.745,0.094-1.12c0.104-9.953-2.235-19.472-6.965-28.32
		c-18.573-34.434-117.843-79.898-140.073-89.746v-13.106c24.534-3.093,44.706-20.994,50.381-45.645
		c0.726-3.153-0.624-6.421-3.363-8.143c-2.739-1.723-6.27-1.522-8.796,0.5c-6.569,5.254-14.487,8.031-22.899,8.031
		c-20.24,0-36.707-16.466-36.707-36.706c0-8.412,2.777-16.33,8.031-22.899c2.022-2.527,2.221-6.057,0.5-8.796
		c-1.723-2.739-4.992-4.089-8.143-3.363c-27.156,6.251-46.123,30.095-46.123,57.985c0,30.24,22.675,55.267,51.913,59.014v13.125
		c-9.791,4.372-33.924,15.411-59.237,28.991c-44.908,24.091-72.107,44.537-80.85,60.784c-4.715,8.822-7.054,18.341-6.951,28.295
		c0.004,0.375,0.035,0.75,0.094,1.121l2.571,16.089c0.051,0.315,0.121,0.627,0.21,0.933c3.622,12.396,10.035,22.527,14.414,28.469
		l-33.762,33.454c-1.441,1.427-2.252,3.372-2.252,5.401v169.201c0,4.199,3.405,7.604,7.604,7.604h331.522
		c4.199,0,7.604-3.405,7.604-7.604V335.194C366.828,333.165,366.017,331.221,364.577,329.793z M149.155,59.517
		c0-13.951,6.373-26.541,16.686-34.713c-0.901,3.848-1.366,7.805-1.366,11.787c0,28.625,23.288,51.914,51.915,51.914
		c3.982,0,7.94-0.465,11.787-1.366c-8.172,10.313-20.762,16.686-34.713,16.686C169.032,103.826,149.155,83.949,149.155,59.517z
		 M231.72,496.793h-76.513v-79.369l38.257-38.94l38.256,38.94V496.793z M351.622,496.793h-0.001H246.928v-82.48
		c0-1.993-0.783-3.907-2.18-5.329l-45.738-46.555c-0.752-0.766-1.628-1.417-2.622-1.822c-2.985-1.214-6.238-0.45-8.348,1.698
		l-45.861,46.68c-1.397,1.421-2.18,3.336-2.18,5.329v82.479H35.307V338.365l34.151-33.842h69.617c4.199,0,7.604-3.405,7.604-7.604
		s-3.405-7.604-7.604-7.604H69.887c-3.342-4.245-9.962-13.633-13.459-25.265l-2.401-15.024c0.008-7.263,1.697-13.949,5.149-20.405
		c14.384-26.73,98.984-68.206,134.256-83.7c8.272,3.657,34.773,15.615,62.709,30.781c22.744,12.347,62.292,35.641,71.602,52.902
		c3.462,6.475,5.151,13.161,5.159,20.423l-2.401,15.024c-3.498,11.636-10.122,21.026-13.459,25.265h-142.48
		c-4.199,0-7.604,3.405-7.604,7.604c0,4.199,3.405,7.604,7.604,7.604h142.909l34.151,33.842V496.793z"/>
</g>
</svg>
