<?xml version="1.0" encoding="iso-8859-1"?>
<!-- Generator: Adobe Illustrator 19.0.0, SVG Export Plug-In . SVG Version: 6.00 Build 0)  -->
<svg version="1.1" id="Capa_1" xmlns="http://www.w3.org/2000/svg" xmlns:xlink="http://www.w3.org/1999/xlink" x="0px" y="0px"
	 viewBox="0 0 512 512" style="enable-background:new 0 0 512 512;" xml:space="preserve">
<g fill="#ff0871">
	<path d="M487.837,24.164C472.254,8.582,451.537,0,429.5,0h-347C60.463,0,39.743,8.582,24.164,24.164C8.581,39.745,0,60.463,0,82.5
		v347c0,22.037,8.581,42.754,24.163,58.336C39.746,503.418,60.463,512,82.5,512h347c22.037,0,42.757-8.582,58.336-24.164
		C503.419,472.255,512,451.537,512,429.5v-347C512,60.463,503.419,39.746,487.837,24.164z M497,429.5
		c0,18.031-7.021,34.982-19.771,47.73C464.481,489.979,447.531,497,429.5,497h-347c-18.03,0-34.98-7.021-47.729-19.77
		C22.022,464.481,15,447.53,15,429.5v-347c0-18.031,7.021-34.982,19.771-47.73C47.519,22.021,64.469,15,82.5,15h347
		c18.03,0,34.98,7.021,47.729,19.77C489.978,47.519,497,64.47,497,82.5V429.5z"/>
	<path d="M466.623,45.377C456.708,35.461,443.524,30,429.5,29.999h-347c-14.023,0-27.208,5.462-37.124,15.379
		C35.46,55.292,29.999,68.476,29.999,82.5v158.854c0,4.142,3.357,7.5,7.5,7.5s7.5-3.358,7.5-7.5V82.5
		c0-10.017,3.9-19.433,10.983-26.515C63.065,48.901,72.483,45,82.5,45h347c10.017,0,19.434,3.901,26.516,10.984
		c7.083,7.083,10.984,16.5,10.985,26.517v347c0,10.017-3.9,19.433-10.983,26.515c-7.083,7.084-16.501,10.985-26.518,10.985h-347
		c-10.017,0-19.434-3.901-26.516-10.984c-7.083-7.083-10.984-16.5-10.985-26.517V271.353c0-4.142-3.357-7.5-7.5-7.5
		s-7.5,3.358-7.5,7.5V429.5c0.001,14.023,5.463,27.207,15.378,37.122C55.292,476.539,68.476,482,82.5,482.001h347
		c14.023,0,27.208-5.462,37.124-15.379c9.916-9.915,15.377-23.098,15.377-37.122V82.499C482,68.476,476.538,55.292,466.623,45.377z
		"/>
	<path d="M291,90H144c-4.143,0-7.5,3.358-7.5,7.5v317c0,4.142,3.357,7.5,7.5,7.5h60c4.143,0,7.5-3.358,7.5-7.5V315H291
		c62.032,0,112.5-50.467,112.5-112.5S353.032,90,291,90z M291,300h-87c-4.143,0-7.5,3.358-7.5,7.5V407h-45V105H291
		c53.762,0,97.5,43.738,97.5,97.5C388.5,256.262,344.762,300,291,300z"/>
	<path d="M291,150h-87c-4.143,0-7.5,3.358-7.5,7.5v90c0,4.142,3.357,7.5,7.5,7.5h87c28.948,0,52.5-23.552,52.5-52.5
		S319.948,150,291,150z M291,240h-79.5v-75H291c20.678,0,37.5,16.823,37.5,37.5S311.678,240,291,240z"/>
</g>
</svg>
