<?xml version="1.0" encoding="windows-1252"?>
<svg version="1.1" id="Capa_1" xmlns="http://www.w3.org/2000/svg" xmlns:xlink="http://www.w3.org/1999/xlink" x="0px" y="0px" viewBox="0 0 512 512" style="enable-background:new 0 0 512 512;" xml:space="preserve">
    <g fill="#ff0871">
        <g><path
            d="M132.5,135.02c-0.453-0.453-0.955-0.866-1.497-1.221c-0.532-0.354-1.103-0.66-1.703-0.906c-0.591-0.246-1.211-0.433-1.841-0.561c-1.27-0.256-2.57-0.256-3.84,0c-0.63,0.128-1.25,0.315-1.851,0.561c-0.591,0.246-1.162,0.551-1.694,0.906c-0.542,0.354-1.044,0.768-1.497,1.221c-0.453,0.453-0.866,0.955-1.221,1.497c-0.354,0.532-0.66,1.103-0.906,1.694c-0.246,0.601-0.443,1.221-0.561,1.851c-0.128,0.63-0.197,1.28-0.197,1.92c0,0.64,0.069,1.29,0.197,1.92c0.118,0.63,0.315,1.25,0.561,1.841c0.246,0.601,0.551,1.172,0.906,1.703c0.354,0.542,0.768,1.044,1.221,1.497c0.453,0.453,0.955,0.867,1.497,1.221c0.532,0.354,1.103,0.66,1.694,0.906c0.601,0.246,1.221,0.443,1.851,0.561c0.63,0.128,1.28,0.197,1.92,0.197s1.29-0.069,1.92-0.197c0.63-0.118,1.25-0.315,1.841-0.561c0.601-0.246,1.172-0.551,1.703-0.906c0.542-0.354,1.044-0.768,1.497-1.221c0.453-0.453,0.866-0.955,1.221-1.497c0.354-0.532,0.66-1.103,0.906-1.703c0.246-0.591,0.443-1.211,0.561-1.841c0.128-0.63,0.197-1.28,0.197-1.92C135.385,139.392,134.331,136.852,132.5,135.02z"/></g>
    </g>
    <g fill="#ff0871">
        <g><path
            d="M512,256c0-3.564-1.926-6.85-5.035-8.591l-72.571-40.64l72.571-40.64c3.109-1.741,5.035-5.026,5.035-8.591c0-3.564-1.926-6.85-5.035-8.591L260.811,11.102c-2.989-1.674-6.632-1.674-9.622,0L5.035,148.948C1.926,150.689,0,153.974,0,157.538c0,3.564,1.926,6.85,5.035,8.591l43.851,24.556c0.008,0.004,0.015,0.008,0.023,0.013l28.698,16.071l-72.571,40.64C1.926,249.151,0,252.436,0,256c0,3.564,1.926,6.85,5.035,8.591l72.571,40.64l-72.571,40.64C1.926,347.613,0,350.897,0,354.462c0,3.564,1.926,6.85,5.035,8.591l246.154,137.846c1.495,0.837,3.153,1.255,4.811,1.255s3.316-0.418,4.811-1.255l246.154-137.846c3.109-1.741,5.035-5.026,5.035-8.591c0-3.564-1.926-6.85-5.035-8.591l-72.571-40.64l72.571-40.64C510.074,262.85,512,259.564,512,256z M73.954,182.154l29.319-16.419c4.744-2.657,6.436-8.657,3.78-13.402c-2.657-4.745-8.657-6.436-13.402-3.78l-39.848,22.315l-23.806-13.331L256,30.978l226.003,126.56l-72.57,40.639c0,0-0.001,0-0.001,0.001L256,284.1l-153.431-85.921c0,0-0.001,0-0.001-0.001L73.954,182.154z M482.003,354.462L256,481.023L29.997,354.462l67.76-37.946l153.431,85.922c0.374,0.209,0.757,0.392,1.149,0.549c2.349,0.941,4.974,0.941,7.324,0c0.392-0.156,0.776-0.34,1.149-0.549l153.432-85.921L482.003,354.462z M409.433,296.639c0,0-0.001,0-0.001,0.001L256,382.561L102.569,296.64c0,0-0.001,0-0.001-0.001L29.997,256l67.76-37.946l83.101,46.536l70.224,39.325c0.008,0.005,0.017,0.01,0.026,0.014l0.081,0.045c0.158,0.089,0.324,0.154,0.485,0.232c0.207,0.101,0.409,0.211,0.621,0.297c0.014,0.006,0.028,0.014,0.041,0.02c0.265,0.106,0.535,0.183,0.803,0.265c0.117,0.035,0.229,0.083,0.348,0.114c0.376,0.099,0.754,0.171,1.134,0.224c0.035,0.005,0.071,0.016,0.106,0.021c0.42,0.054,0.842,0.084,1.261,0.084c0.003,0,0.006,0,0.009,0s0.006,0,0.009,0c0.419,0,0.841-0.03,1.261-0.084c0.039-0.005,0.077-0.017,0.115-0.022c0.376-0.053,0.752-0.124,1.124-0.223c0.121-0.031,0.236-0.081,0.356-0.117c0.266-0.082,0.532-0.157,0.794-0.262c0.001,0,0.001,0,0.002-0.001c0.015-0.006,0.029-0.015,0.042-0.021c0.208-0.084,0.405-0.192,0.607-0.29c0.166-0.081,0.337-0.148,0.499-0.238l0.084-0.047c0.007-0.004,0.014-0.008,0.021-0.012l70.226-39.326l83.101-46.536L482.003,256L409.433,296.639z"/></g>
    </g><g/><g/><g/><g/><g/><g/><g/><g/><g/><g/><g/><g/><g/><g/><g/></svg>
