
<svg xmlns="http://www.w3.org/2000/svg" version="1.1" xmlns:xlink="http://www.w3.org/1999/xlink" preserveAspectRatio="none" x="0px" y="0px" width="24px" height="24px" viewBox="0 0 24 24">
<defs>
<g id="Layer1_0_FILL">
<path fill="#ffffff" stroke="none" d="
M 12 24
Q 16.95 24 20.4 20.5 24 17 24 12 24 7.05 20.4 3.55 16.95 0 12 0 7 0 3.4 3.55 0 7.05 0 12 0 17 3.4 20.5 7 24 12 24
M 12 2
Q 16 2 19 4.95 22 7.9 22 12 22 16.15 19 19.05 16 22 12 22 8 22 5 19.05 2 16.15 2 12 2 7.9 5 4.95 8 2 12 2 Z"/>
</g>

<g id="Layer0_0_FILL">
<path fill="#ffffff" stroke="none" d="
M 5 11
L 1 11 1 13 5 13 5 11
M 23 13
L 23 11 19 11 19 13 23 13
M 13 19
L 11 19 11 23 13 23 13 19
M 13 1
L 11 1 11 5 13 5 13 1 Z"/>
</g>
</defs>

<g transform="matrix( 1, 0, 0, 1, 0,0) ">
<use xlink:href="#Layer1_0_FILL"/>
</g>

<g transform="matrix( 1, 0, 0, 1, 0,0) ">
<use xlink:href="#Layer0_0_FILL"/>
</g>
</svg>
