<?xml version="1.0" encoding="windows-1252"?>
<svg version="1.1" id="Capa_1" xmlns="http://www.w3.org/2000/svg" xmlns:xlink="http://www.w3.org/1999/xlink" x="0px" y="0px" viewBox="0 0 435.33 435.33" style="enable-background:new 0 0 435.33 435.33;" xml:space="preserve">
    <g fill="#ffffff"><path
        d="M96.473,415.421c-25.655,0-50.241-9.621-68.413-27.793c-37.413-37.413-37.413-98.343,0-135.757l82.309-82.309c37.413-37.413,98.343-37.413,135.757,0c16.034,16.034,25.655,37.413,27.793,60.93c1.069,8.552-6.414,16.034-14.965,17.103c-8.552,1.069-16.034-6.414-17.103-14.965c-1.069-14.965-7.483-29.931-18.172-40.62c-24.586-24.586-65.206-24.586-90.861,0l-82.309,82.309c-24.586,24.586-24.586,65.206,0,90.861c24.586,24.586,65.206,24.586,90.861,0l60.93-60.93c6.414-6.414,16.034-6.414,22.448,0c6.414,6.414,6.414,16.034,0,22.448l-60.93,60.93C146.713,405.8,122.127,415.421,96.473,415.421z"/><path
        d="M257.884,293.56c-25.655,0-50.241-9.621-68.413-27.793c-16.034-16.034-25.655-37.413-27.793-60.93c-1.069-8.552,6.414-16.034,14.965-17.103c8.552-1.069,16.034,6.414,17.103,14.965c1.069,14.965,7.483,29.931,18.172,40.62c11.758,11.758,27.793,18.172,44.896,18.172c17.103,0,33.137-6.414,44.896-18.172l82.309-82.309c24.586-24.586,24.586-65.206,0-90.861c-24.586-24.586-65.206-24.586-90.861,0l-60.93,60.93c-6.414,6.414-16.034,6.414-22.448,0s-6.414-16.034,0-22.448l60.93-60.93c18.172-18.172,42.758-27.793,68.413-27.793s50.241,9.621,68.413,27.793c18.172,18.172,27.793,42.758,27.793,68.413s-9.621,50.241-27.793,68.413l-82.309,82.309C308.125,283.94,283.539,293.56,257.884,293.56z"/></g>
</svg>
