<?xml version="1.0" encoding="iso-8859-1"?>
<!-- Generator: Adobe Illustrator 19.0.0, SVG Export Plug-In . SVG Version: 6.00 Build 0)  -->
<svg version="1.1" id="Layer_1" xmlns="http://www.w3.org/2000/svg" xmlns:xlink="http://www.w3.org/1999/xlink" x="0px" y="0px"
	 viewBox="0 0 512.002 512.002" style="enable-background:new 0 0 512.002 512.002;" xml:space="preserve">
<g fill="#ffffff">
	<path d="M114.581,364.728c-30.854,0-55.955-25.102-55.955-55.955s25.102-55.957,55.955-55.957
		s55.955,25.102,55.955,55.957S145.435,364.728,114.581,364.728z M114.581,281.398c-15.095,0-27.374,12.28-27.374,27.375
		c0,15.094,12.28,27.374,27.374,27.374s27.374-12.28,27.374-27.374C141.955,293.678,129.675,281.398,114.581,281.398z"/>
	<path d="M114.581,496.254c-3.47,0-6.937-1.256-9.671-3.77C100.627,488.548,0,395.063,0,308.409
		c0-12.161,1.899-24.143,5.646-35.612c2.451-7.503,10.522-11.598,18.022-9.146c7.503,2.451,11.597,10.519,9.146,18.022
		c-2.808,8.599-4.233,17.595-4.233,26.736c0,59.937,61.732,128.785,86.024,153.554c3.876-3.936,8.697-8.985,14.048-14.924
		c5.283-5.863,14.319-6.335,20.183-1.052c5.863,5.283,6.335,14.319,1.052,20.183c-14.492,16.087-25.212,25.928-25.66,26.339
		C121.498,495.005,118.04,496.254,114.581,496.254z"/>
	<path d="M177.017,422.944c-2.748,0-5.523-0.79-7.973-2.441c-6.545-4.41-8.276-13.292-3.866-19.837
		c23.491-34.862,35.401-65.902,35.401-92.258c0-47.421-38.579-86-86-86c-18.449,0-36.033,5.752-50.848,16.634
		c-6.359,4.672-15.304,3.304-19.977-3.058c-4.673-6.361-3.304-15.305,3.058-19.977c19.754-14.511,43.189-22.181,67.768-22.181
		c63.181,0,114.581,51.401,114.581,114.581c0,32.15-13.552,68.563-40.281,108.229C186.122,420.733,181.61,422.944,177.017,422.944z"
		/>
	<path d="M475.596,91.873l34.201-54.209c2.778-4.403,2.942-9.968,0.429-14.526
		c-2.515-4.559-7.308-7.39-12.514-7.39H329.595c-7.891,0-14.291,6.398-14.291,14.291v65.756v57.913v102.156
		c0,7.893,6.399,14.291,14.291,14.291s14.291-6.398,14.291-14.291v-87.865h153.825c5.206,0,9.999-2.831,12.514-7.39
		c2.514-4.559,2.351-10.124-0.429-14.527L475.596,91.873z M446.613,99.498l25.184,39.918H343.886V95.794V44.329h127.912
		l-25.184,39.918C443.672,88.905,443.672,94.838,446.613,99.498z"/>
	<path d="M339.34,496.254H184.336c-7.891,0-14.291-6.398-14.291-14.291s6.399-14.291,14.291-14.291h140.713
		v-51.985h-71.454c-7.891,0-14.291-6.398-14.291-14.291V324.57c0-7.893,6.399-14.291,14.291-14.291h83.682
		c7.891,0,14.291,6.398,14.291,14.291c0,7.893-6.399,14.291-14.291,14.291h-69.391v48.245h71.454
		c7.891,0,14.291,6.398,14.291,14.291v80.567C353.63,489.856,347.233,496.254,339.34,496.254z"/>
</g>
</svg>
