<?xml version="1.0" encoding="utf-8"?>
<!DOCTYPE svg PUBLIC "-//W3C//DTD SVG 1.1//EN" "http://www.w3.org/Graphics/SVG/1.1/DTD/svg11.dtd">
<svg xmlns="http://www.w3.org/2000/svg" xmlns:xlink="http://www.w3.org/1999/xlink" version="1.1" viewBox="0 0 512 512" enable-background="new 0 0 512 512" width="512px" height="512px">
  <g fill="#ffffff">
      <path d="M480.6,319c-11.3,0-20.4,9.1-20.4,20.4v120.7H51.8V339.4c0-11.3-9.1-20.4-20.4-20.4c-11.3,0-20.4,9.1-20.4,20.4v141.2    c0,11.3,9.1,20.4,20.4,20.4h449.2c11.3,0,20.4-9.1,20.4-20.4V339.4C501,328.1,491.9,319,480.6,319z"/>
      <path d="m146.2,170l89.4-89.3v259.1c0,11.3 9.1,20.4 20.4,20.4 11.3,0 20.4-9.1 20.4-20.4v-259.1l89.4,89.3c12.3,11.4 24.9,4 28.9,0 8-8 8-20.9 0-28.9l-124.3-124.1c-8-8-20.9-8-28.9,0l-124.1,124.1c-8,8-8,20.9 0,28.9 7.9,8 20.9,8 28.8,0z"/>
  </g>
</svg>
