<?xml version="1.0" encoding="iso-8859-1"?>
<!-- Generator: Adobe Illustrator 19.0.0, SVG Export Plug-In . SVG Version: 6.00 Build 0)  -->
<svg version="1.1" id="Layer_1" xmlns="http://www.w3.org/2000/svg" xmlns:xlink="http://www.w3.org/1999/xlink" x="0px" y="0px"
	 viewBox="0 0 512 512" style="enable-background:new 0 0 512 512;" xml:space="preserve">
<g fill="#ff0871">
	<path d="M469.635,128.432H360.032v-26.806c0-33.181-26.995-60.175-60.175-60.175h-87.713c-33.18,0-60.175,26.994-60.175,60.175
		v26.807H42.365C19.005,128.432,0,147.438,0,170.798v257.385c0,23.36,19.005,42.365,42.365,42.365h427.269
		c23.36,0,42.365-19.005,42.365-42.365V170.798C512,147.438,492.995,128.432,469.635,128.432z M172.367,101.627
		c0-21.933,17.844-39.777,39.777-39.777h87.713c21.933,0,39.777,17.844,39.777,39.777v26.807H172.367V101.627z M491.602,428.183
		c0,12.113-9.854,21.967-21.967,21.967H42.365c-12.113,0-21.967-9.854-21.967-21.967V170.798c0-12.113,9.854-21.967,21.967-21.967
		h427.269c12.113,0,21.967,9.854,21.967,21.967V428.183z"/>
	<path d="M369.211,251.225h-63.559v-63.559c0-5.633-4.567-10.199-10.199-10.199h-78.904c-5.632,0-10.199,4.566-10.199,10.199
		v63.559h-63.56c-5.632,0-10.199,4.566-10.199,10.199v78.904c0,5.633,4.567,10.199,10.199,10.199h63.559v63.56
		c0,5.633,4.567,10.199,10.199,10.199h78.904c5.632,0,10.199-4.566,10.199-10.199v-63.559h63.56
		c5.632,0,10.199-4.566,10.199-10.199v-78.904C379.41,255.791,374.843,251.225,369.211,251.225z M359.012,330.13h-63.559
		c-5.632,0-10.199,4.566-10.199,10.199v63.559h-58.506v-63.559c0-5.633-4.567-10.199-10.199-10.199h-63.56v-58.506h63.559
		c5.632,0,10.199-4.566,10.199-10.199v-63.56h58.506v63.559c0,5.633,4.567,10.199,10.199,10.199h63.56V330.13z"/>
	<path d="M159.108,162.167H87.713c-5.632,0-10.199,4.566-10.199,10.199c0,5.633,4.567,10.199,10.199,10.199h71.394
		c5.632,0,10.199-4.566,10.199-10.199C169.307,166.734,164.74,162.167,159.108,162.167z"/>
	<path d="M52.016,162.167h-5.1c-5.632,0-10.199,4.566-10.199,10.199c0,5.633,4.567,10.199,10.199,10.199h5.1
		c5.632,0,10.199-4.566,10.199-10.199C62.215,166.734,57.648,162.167,52.016,162.167z"/>
</g>
</svg>
