<?xml version="1.0" encoding="iso-8859-1"?>
<!-- Generator: Adobe Illustrator 19.0.0, SVG Export Plug-In . SVG Version: 6.00 Build 0)  -->
<svg version="1.1" id="Capa_1" xmlns="http://www.w3.org/2000/svg" xmlns:xlink="http://www.w3.org/1999/xlink" x="0px" y="0px"
	 viewBox="0 0 384 384" style="enable-background:new 0 0 384 384;" xml:space="preserve">
<path style="fill:#83CFDF;" d="M280,85.68c48.64,0,88,38.08,88,85.12c0,47.12-39.36,85.2-88,85.2h-64H104H88
	c-39.76,0-72-31.2-72-69.68c0-36.4,28.8-66.16,65.52-69.36c-1.04-5.12-1.52-10.4-1.52-15.76C80,54.08,119.36,16,168,16
	c44.4,0,81.12,31.84,87.12,73.2C262.96,86.88,271.36,85.68,280,85.68z"/>
<g>
	<path style="fill:#1C3252;" d="M256,336v32c0,8.832,7.168,16,16,16s16-7.168,16-16v-32c0-8.832-7.168-16-16-16S256,327.168,256,336
		z"/>
	<path style="fill:#1C3252;" d="M144,336v32c0,8.832,7.168,16,16,16s16-7.168,16-16v-32c0-8.832-7.168-16-16-16S144,327.168,144,336
		z"/>
	<path style="fill:#1C3252;" d="M88,272v24c0,8.832,7.168,16,16,16s16-7.168,16-16v-24h80v24c0,8.832,7.168,16,16,16s16-7.168,16-16
		v-24h48c57.344,0,104-45.4,104-101.2c0-55.76-46.656-101.12-104-101.12c-4.36,0-8.672,0.256-12.912,0.776
		C253.568,29.32,213.624,0,168,0C110.656,0,64,45.4,64,101.2c0,0.896,0.008,1.784,0.032,2.672C26.592,114.024,0,147.088,0,186.32
		C0,233.56,39.48,272,88,272z M82.912,132.904c4.544-0.4,8.704-2.712,11.432-6.368c2.736-3.656,3.768-8.304,2.856-12.776
		c-0.8-3.896-1.2-8.12-1.2-12.56C96,63.04,128.296,32,168,32c35.72,0,66.36,25.576,71.28,59.496
		c0.672,4.592,3.296,8.672,7.208,11.176c3.904,2.512,8.704,3.176,13.168,1.872c6.424-1.896,13.264-2.864,20.344-2.864
		c39.704,0,72,31.008,72,69.12c0,38.16-32.296,69.2-72,69.2H88c-30.872,0-56-24.08-56-53.68
		C32,158.392,53.888,135.432,82.912,132.904z"/>
</g>
<g>
</g>
<g>
</g>
<g>
</g>
<g>
</g>
<g>
</g>
<g>
</g>
<g>
</g>
<g>
</g>
<g>
</g>
<g>
</g>
<g>
</g>
<g>
</g>
<g>
</g>
<g>
</g>
<g>
</g>
</svg>
