<?xml version="1.0" encoding="iso-8859-1"?>
<!-- Generator: Adobe Illustrator 19.0.0, SVG Export Plug-In . SVG Version: 6.00 Build 0)  -->
<svg version="1.1" id="Capa_1" xmlns="http://www.w3.org/2000/svg" xmlns:xlink="http://www.w3.org/1999/xlink" x="0px" y="0px"
	 viewBox="0 0 384.001 384.001" style="enable-background:new 0 0 384.001 384.001;" xml:space="preserve">
<path style="fill:#E16F47;" d="M312,200c0,16.4-4.48,31.76-12.24,44.88c-9.92-26.32-36.48-45.12-67.76-45.12
	c-7.04,0-13.92,0.96-20.32,2.8c-4.24-28.56-27.2-51.44-56.72-57.12C171.04,125.04,196,112,224,112C272.64,112,312,151.36,312,200z"
	/>
<path style="fill:#83CFDF;" d="M299.76,244.88c2.72,7.2,4.24,14.88,4.24,22.96c0,37.68-32.24,68.16-72,68.16H74.88
	C42.4,336,16,311.04,16,280.24c0-29.12,23.6-52.96,53.6-55.44c-0.88-4.16-1.2-8.32-1.2-12.64c0-37.68,32.16-68.16,72-68.16
	c4.96,0,9.84,0.48,14.56,1.44c29.52,5.68,52.48,28.56,56.72,57.12c6.4-1.84,13.28-2.8,20.32-2.8
	C263.28,199.76,289.84,218.56,299.76,244.88z"/>
<g>
	<path style="fill:#1C3252;" d="M361.056,144c2.704,0,5.448-0.688,7.952-2.136l6.96-4c7.664-4.4,10.304-14.176,5.904-21.84
		c-4.408-7.664-14.2-10.304-21.84-5.896l-6.96,4c-7.664,4.4-10.304,14.176-5.904,21.84C350.128,141.12,355.512,144,361.056,144z"/>
	<path style="fill:#1C3252;" d="M292.024,90.272c2.512,1.448,5.256,2.136,7.96,2.136c5.536,0,10.928-2.88,13.88-8.024l4-6.96
		c4.408-7.664,1.768-17.44-5.888-21.848c-7.664-4.4-17.448-1.752-21.84,5.896l-4,6.96C281.728,76.08,284.368,85.864,292.024,90.272z
		"/>
	<path style="fill:#1C3252;" d="M224,72c8.832,0,16-7.168,16-16v-8c0-8.832-7.168-16-16-16s-16,7.168-16,16v8
		C208,64.832,215.168,72,224,72z"/>
	<path style="fill:#1C3252;" d="M74.88,352H232c48.52,0,88-37.752,88-84.16c0-7.216-0.984-14.376-2.92-21.376
		C324.232,232.096,328,216.192,328,200c0-57.344-46.656-104-104-104c-28.856,0-55.76,11.752-75.304,32.408
		c-2.744-0.248-5.512-0.408-8.296-0.408c-48.432,0-87.84,37.608-88,83.888C22.016,221.12,0,248.664,0,280.24
		C0,319.808,33.592,352,74.88,352z M296,200c0,3.224-0.216,6.432-0.64,9.608c-16.264-16.112-38.976-25.848-63.36-25.848
		c-2.888,0-5.76,0.136-8.592,0.392c-6.952-18.872-20.84-34.552-38.656-44.52C196.256,132.128,209.784,128,224,128
		C263.704,128,296,160.304,296,200z M70.92,240.744c4.576-0.376,8.776-2.704,11.512-6.392s3.776-8.376,2.816-12.872
		c-0.576-2.752-0.848-5.712-0.848-9.32c0-28.76,25.128-52.16,56-52.16c3.896,0,7.72,0.376,11.536,1.152
		c23.04,4.432,40.688,22.016,43.912,43.76c0.68,4.56,3.288,8.608,7.168,11.104s8.656,3.192,13.08,1.92
		c5.016-1.44,10.368-2.168,15.896-2.168c23.744,0,44.952,13.968,52.784,34.76c0.008,0,0.008,0.008,0.008,0.008
		C286.92,256.168,288,262,288,267.84c0,28.76-25.128,52.16-56,52.16H74.88C51.232,320,32,302.168,32,280.24
		C32,259.896,49.096,242.552,70.92,240.744z"/>
</g>
<g>
</g>
<g>
</g>
<g>
</g>
<g>
</g>
<g>
</g>
<g>
</g>
<g>
</g>
<g>
</g>
<g>
</g>
<g>
</g>
<g>
</g>
<g>
</g>
<g>
</g>
<g>
</g>
<g>
</g>
</svg>
