<?xml version="1.0" encoding="iso-8859-1"?>
<!-- Generator: Adobe Illustrator 16.0.0, SVG Export Plug-In . SVG Version: 6.00 Build 0)  -->
<!DOCTYPE svg PUBLIC "-//W3C//DTD SVG 1.1//EN" "http://www.w3.org/Graphics/SVG/1.1/DTD/svg11.dtd">
<svg version="1.1" id="Capa_1" xmlns="http://www.w3.org/2000/svg" xmlns:xlink="http://www.w3.org/1999/xlink" x="0px" y="0px"
	 width="612px" height="612px" viewBox="0 0 612 612" style="enable-background:new 0 0 612 612;" xml:space="preserve">
<g>
	<g id="Ellipse_4_copy_5">
		<g fill="#ffffff">
			<path d="M319.305,505.565c14.688,0,26.608-11.921,26.608-26.609c0-14.701-11.907-26.608-26.608-26.608
				c-14.702,0-26.609,11.907-26.609,26.608C292.696,493.645,304.603,505.565,319.305,505.565z M518.869,106.435
				c-14.701,0-26.608,11.908-26.608,26.609c0,14.688,11.907,26.609,26.608,26.609c14.688,0,26.609-11.921,26.609-26.609
				C545.479,118.342,533.571,106.435,518.869,106.435z M518.869,39.913c-46.911,0-85.6,34.711-92.065,79.826H185.196
				c-6.466-45.115-45.168-79.826-92.066-79.826C41.696,39.913,0,81.609,0,133.043s41.696,93.13,93.13,93.13
				c12.786,0,24.919-2.647,36.001-7.317L252.078,414.63c-16.019,16.71-25.904,39.341-25.904,64.326
				c0,51.436,41.696,93.131,93.131,93.131c51.435,0,93.13-41.695,93.13-93.131c0-51.435-41.695-93.13-93.13-93.13
				c-16.817,0-32.543,4.523-46.167,12.319L151.909,205.113c17.628-14.436,29.908-35.137,33.287-58.766h241.607
				c6.466,45.115,45.168,79.826,92.065,79.826c51.436,0,93.131-41.696,93.131-93.13S570.305,39.913,518.869,39.913z
				 M319.305,412.435c36.733,0,66.521,29.789,66.521,66.521c0,36.733-29.788,66.522-66.521,66.522s-66.522-29.789-66.522-66.522
				C252.783,442.21,282.571,412.435,319.305,412.435z M93.13,199.565c-36.733,0-66.521-29.789-66.521-66.522
				c0-36.747,29.788-66.522,66.521-66.522s66.522,29.775,66.522,66.522C159.652,169.777,129.864,199.565,93.13,199.565z
				 M518.869,199.565c-36.732,0-66.521-29.789-66.521-66.522c0-36.747,29.789-66.522,66.521-66.522
				c36.733,0,66.522,29.775,66.522,66.522C585.392,169.777,555.603,199.565,518.869,199.565z M93.13,106.435
				c-14.701,0-26.608,11.908-26.608,26.609c0,14.688,11.907,26.609,26.608,26.609c14.688,0,26.609-11.921,26.609-26.609
				C119.739,118.342,107.832,106.435,93.13,106.435z"/>
		</g>
	</g>
</g>
</svg>
