<?xml version="1.0" encoding="iso-8859-1"?>
<!-- Generator: Adobe Illustrator 19.0.0, SVG Export Plug-In . SVG Version: 6.00 Build 0)  -->
<svg version="1.1" id="Layer_1" xmlns="http://www.w3.org/2000/svg" xmlns:xlink="http://www.w3.org/1999/xlink" x="0px" y="0px"
	 viewBox="0 0 338.352 338.352" style="enable-background:new 0 0 338.352 338.352;" xml:space="preserve">
<g fill="#ff0871">
	<path d="M169.176,0C75.601,0,0,75.514,0,169.176s75.514,169.176,169.176,169.176s169.176-75.514,169.176-169.176
		S262.752,0,169.176,0z M169.176,315.731c-81.191,0-146.556-65.365-146.556-146.556S87.986,22.619,169.176,22.619
		s146.556,65.365,146.556,146.556S250.367,315.731,169.176,315.731z"/>
	<path d="M169.176,83.512c-34.919,0-64.248,29.328-64.248,65.365c0,6.795,4.472,11.267,11.267,11.267
		c6.794,0,11.267-4.472,11.267-11.267c0-23.652,19.179-42.831,41.713-42.831s41.713,19.179,41.713,41.713
		c0,23.652-18.062,41.713-41.713,41.713c-6.794,0-11.267,4.472-11.267,11.267v21.416c0,6.795,4.472,11.267,11.267,11.267
		c5.677,0,11.267-5.676,11.267-11.267V210.89c30.447-4.472,52.98-30.447,52.98-63.129
		C233.424,111.637,205.299,83.512,169.176,83.512z"/>
	<path d="M177.089,244.69c-4.558-4.472-11.267-4.472-15.825,0c-2.236,2.236-3.354,4.472-3.354,7.913
		c0,3.354,1.118,5.676,3.354,7.913c2.236,2.236,4.472,3.354,7.913,3.354s5.677-1.118,7.913-3.354
		c2.236-2.236,3.354-4.472,3.354-7.913C180.443,249.248,179.325,246.927,177.089,244.69z"/>
</g>
</svg>
