<?xml version="1.0" encoding="iso-8859-1"?>
<!-- Generator: Adobe Illustrator 19.0.0, SVG Export Plug-In . SVG Version: 6.00 Build 0)  -->
<svg version="1.1" id="Capa_1" xmlns="http://www.w3.org/2000/svg" xmlns:xlink="http://www.w3.org/1999/xlink" x="0px" y="0px"
	 viewBox="0 0 488.8 488.8" style="enable-background:new 0 0 488.8 488.8;" xml:space="preserve">
<g fill="#ff0871">
	<path d="M244.252,97.4c-56.4,0-102.2,45.9-102.2,102.2s45.8,102.3,102.2,102.3s102.2-45.9,102.2-102.2S300.652,97.4,244.252,97.4z
		 M244.252,277.4c-42.9,0-77.7-34.9-77.7-77.7s34.9-77.7,77.7-77.7s77.7,34.9,77.7,77.7S287.152,277.4,244.252,277.4z"/>
	<path d="M244.252,0c-2.3,0-4.7,0-7,0.1c-98.6,3.4-180.1,80-189.5,178.1c-1.8,19-0.9,38.1,2.6,56.3c0,0,0.3,2.3,1.4,6.6
		c3,13.5,7.5,26.6,13.2,38.8c20.3,48.1,64.8,122.2,161.4,202.4c5.1,4.2,11.5,6.5,18.1,6.5c6.6,0,13-2.3,18.1-6.5
		c96.5-80.1,141-154.3,161.2-202c5.8-12.5,10.3-25.7,13.3-39.1c0.6-2.4,1-4.4,1.3-6.3c2.4-12.3,3.6-24.9,3.6-37.5
		C441.752,88.6,353.152,0,244.252,0z M414.052,230.7c0,0.2-0.3,1.9-1,5c-2.7,11.8-6.6,23.3-11.8,34.7
		c-19.3,45.6-61.7,116.1-154.4,193c-0.9,0.7-1.8,0.9-2.5,0.9c-0.6,0-1.6-0.2-2.5-0.9c-92.7-77-135.2-147.5-154.6-193.4
		c-5.1-11-9-22.5-11.7-34.4c-0.6-2.6-0.9-4.2-1-4.7c0-0.2-0.1-0.4-0.1-0.6c-3.1-16.3-3.9-33.1-2.3-49.7c8.3-85.9,79.6-153,166-156
		c98.1-3.4,179.1,75.4,179.1,172.9C417.252,208.5,416.152,219.5,414.052,230.7z"/>
</g>
</svg>
