<?xml version="1.0" encoding="windows-1252"?>
<svg version="1.1" id="Capa_1" xmlns="http://www.w3.org/2000/svg" xmlns:xlink="http://www.w3.org/1999/xlink" x="0px" y="0px" viewBox="0 0 512.001 512.001" style="enable-background:new 0 0 512.001 512.001;" xml:space="preserve">
    <g fill="#ff0871">
        <g><circle cx="255.998" cy="135.999" r="15"/></g>
        <g>
            <path
                d="M465.999,331.998h-60.626L325.08,165.201c3.81-8.979,5.92-18.849,5.92-29.202c0-24.484-11.796-46.262-30-59.959V45c0-24.813-20.187-45-45-45c-24.813,0-45,20.187-45,45v31.041c-18.204,13.697-30,35.475-30,59.959c0,10.318,2.096,20.155,5.882,29.111l-80.28,166.888H46.002c-8.284,0-15,6.716-15,15s6.716,15,15,15h46.171L64.929,418.63l-0.259,0.57c-7.335,17.033-3.282,36.157,8.75,48.828l-10.906,22.405c-3.626,7.448-0.527,16.426,6.922,20.052c7.443,3.624,16.424,0.532,20.052-6.922l10.681-21.942c20.011,2.614,39.03-8.333,47.025-26.508l44.786-93.115H241v15c0,8.284,6.716,15,15,15c8.284,0,15-6.716,15-15v-15h48.981l44.83,93.135c7.98,18.117,26.965,29.104,47.021,26.488l10.681,21.941c3.627,7.449,12.602,10.547,20.053,6.921c7.448-3.625,10.548-12.604,6.922-20.052l-10.904-22.4c12.029-12.672,16.08-31.802,8.75-48.843l-0.126-0.292l-27.392-56.899h46.184c8.284,0,15-6.716,15-15S474.283,331.998,465.999,331.998z M241,45c0-8.271,6.729-15,15-15c8.271,0,15,6.729,15,15v17.509C266.152,61.521,261.136,61,256,61c-5.136,0-10.152,0.521-15,1.509V45z M256,90.999c24.813,0,45,20.187,45,45c0,24.75-20.086,44.894-44.813,44.995h-0.383c-24.723-0.107-44.804-20.248-44.804-44.995C211.001,111.186,231.187,90.999,256,90.999z M120.037,442.36l-0.258,0.565c-3.244,7.529-11.995,11.179-19.705,7.851c-7.519-3.242-11.046-11.935-7.951-19.473l33.339-69.306h33.228L120.037,442.36z M173.12,331.998h-33.226l67.034-139.354c7.547,6.547,16.401,11.618,26.124,14.75L173.12,331.998z M271,331.998v-15c0-8.284-6.716-15-15-15c-8.284,0-15,6.716-15,15v15h-34.592l49.548-103.013l49.584,103.013H271z M278.87,207.421c9.73-3.124,18.593-8.188,26.148-14.73l67.061,139.307h-33.252L278.87,207.421z M419.876,431.289c3.095,7.551-0.425,16.25-7.943,19.491c-7.686,3.318-16.459-0.303-19.715-7.846l-38.954-80.937h33.255L419.876,431.289z"/>
        </g>
    </g>
</svg>
