<?xml version="1.0" encoding="iso-8859-1"?>
<!-- Generator: Adobe Illustrator 19.0.0, SVG Export Plug-In . SVG Version: 6.00 Build 0)  -->
<svg version="1.1" id="Capa_1" xmlns="http://www.w3.org/2000/svg" xmlns:xlink="http://www.w3.org/1999/xlink" x="0px" y="0px"
	 viewBox="0 0 384 384" style="enable-background:new 0 0 384 384;" xml:space="preserve">
<path style="fill:#83CFDF;" d="M280,117.68c48.64,0,88,38.08,88,85.12c0,47.12-39.36,85.2-88,85.2H88c-39.76,0-72-31.2-72-69.68
	c0-36.4,28.8-66.16,65.52-69.36c-1.04-5.12-1.52-10.4-1.52-15.76C80,86.08,119.36,48,168,48c44.4,0,81.12,31.84,87.12,73.2
	C262.96,118.88,271.36,117.68,280,117.68z"/>
<path style="fill:#1C3252;" d="M280,101.68c-4.36,0-8.672,0.256-12.912,0.776C253.568,61.32,213.624,32,168,32
	C110.656,32,64,77.4,64,133.2c0,0.896,0.008,1.784,0.032,2.672C26.592,146.024,0,179.096,0,218.32C0,265.56,39.48,304,88,304
	c8.832,0,16-7.168,16-16s-7.168-16-16-16c-30.88,0-56-24.08-56-53.68c0-27.928,21.888-50.888,50.912-53.416
	c4.536-0.4,8.696-2.712,11.424-6.36c2.728-3.656,3.768-8.296,2.864-12.76c-0.8-3.928-1.2-8.16-1.2-12.584
	C96,95.04,128.304,64,168,64c35.72,0,66.36,25.576,71.28,59.496c0.672,4.592,3.296,8.672,7.208,11.176
	c3.912,2.504,8.712,3.168,13.168,1.872c6.424-1.896,13.264-2.864,20.344-2.864c39.704,0,72,31.008,72,69.12
	c0,38.16-32.296,69.2-72,69.2h-79.536l13.952-29.072c2.384-4.96,2.048-10.792-0.88-15.448c-2.92-4.656-8.032-7.48-13.536-7.48
	h-22.792l21.264-45.184c3.768-8,0.336-17.528-7.664-21.288c-8.008-3.768-17.536-0.328-21.288,7.664l-32,68
	c-2.336,4.96-1.968,10.76,0.968,15.384C141.424,249.2,146.52,252,152,252h22.568l-37,77.08c-3.824,7.968-0.464,17.52,7.504,21.344
	c2.24,1.072,4.592,1.576,6.92,1.576c5.96,0,11.68-3.344,14.44-9.08L185.104,304H280c57.344,0,104-45.4,104-101.2
	C384,147.04,337.344,101.68,280,101.68z"/>
<g>
</g>
<g>
</g>
<g>
</g>
<g>
</g>
<g>
</g>
<g>
</g>
<g>
</g>
<g>
</g>
<g>
</g>
<g>
</g>
<g>
</g>
<g>
</g>
<g>
</g>
<g>
</g>
<g>
</g>
</svg>
