
<svg xmlns="http://www.w3.org/2000/svg" version="1.1" xmlns:xlink="http://www.w3.org/1999/xlink" preserveAspectRatio="none" x="0px" y="0px" width="24px" height="24px" viewBox="0 0 24 24">
<defs>
<g id="Layer0_0_FILL">
<path fill="#ffffff" stroke="none" d="
M 24 24
L 24 16 20 16 20 20 16 20 16 24 24 24
M 4 16
L 0 16 0 24 8 24 8 20 4 20 4 16
M 24 8
L 24 0 16 0 16 4 20 4 20 8 24 8
M 8 4
L 8 0 0 0 0 8 4 8 4 4 8 4 Z"/>
</g>
</defs>

<g transform="matrix( 1, 0, 0, 1, 0,0) ">
<use xlink:href="#Layer0_0_FILL"/>
</g>
</svg>
