<?xml version="1.0" encoding="iso-8859-1"?>
<!-- Generator: Adobe Illustrator 19.0.0, SVG Export Plug-In . SVG Version: 6.00 Build 0)  -->
<svg version="1.1" id="Layer_1" xmlns="http://www.w3.org/2000/svg" xmlns:xlink="http://www.w3.org/1999/xlink" x="0px" y="0px"
	 viewBox="0 0 512.001 512.001" style="enable-background:new 0 0 512.001 512.001;" xml:space="preserve">
<path fill="#ff0871" d="M261.945,330.514c0,8.648,7.012,15.658,15.658,15.658s15.658-7.01,15.658-15.658V146.37h126.817
	c3.99,0,7.829-1.524,10.732-4.257l61.105-57.527c3.144-2.959,4.926-7.084,4.926-11.401s-1.782-8.441-4.926-11.401L430.809,4.257
	C427.906,1.524,424.067,0,420.077,0H277.603c-0.307,0-0.606,0.028-0.908,0.045h-58.595c-0.247,0-0.489,0.025-0.733,0.038
	C216.836,0.028,216.297,0,215.752,0H30.82C24.4,0,18.631,3.918,16.264,9.885c-2.366,5.967-0.852,12.774,3.822,17.174L69.08,73.185
	l-48.994,46.127c-4.674,4.401-6.188,11.208-3.822,17.174c2.367,5.967,8.136,9.885,14.556,9.885h117.604
	c8.646,0,15.658-7.01,15.658-15.658c0-8.648-7.012-15.658-15.658-15.658h-78.13l32.363-30.469c3.144-2.959,4.926-7.084,4.926-11.401
	c0-4.317-1.782-8.441-4.926-11.401L70.293,31.316H202.44v345.052h-93.096c-6.739,0-12.722,4.311-14.853,10.704L59.696,491.388
	c-1.592,4.774-0.792,10.024,2.15,14.108c2.944,4.084,7.669,6.504,12.703,6.504H421.15c0.013,0,0.023,0.002,0.033,0
	c8.646,0,15.658-7.01,15.658-15.658c0-2.095-0.412-4.095-1.159-5.92l-34.471-103.349c-2.131-6.393-8.116-10.704-14.853-10.704
	H233.757V31.361h28.187v99.351L261.945,330.514L261.945,330.514z M375.073,407.684l24.348,73H96.278l24.35-73h81.814v31.803
	c0,8.648,7.012,15.658,15.658,15.658c8.646,0,15.658-7.01,15.658-15.658v-31.803H375.073z M458.339,73.185l-44.473,41.869H293.26
	V31.316h120.605L458.339,73.185z"/>
</svg>
