<?xml version="1.0" encoding="iso-8859-1"?>
<!-- Generator: Adobe Illustrator 19.0.0, SVG Export Plug-In . SVG Version: 6.00 Build 0)  -->
<svg version="1.1" id="Layer_1" xmlns="http://www.w3.org/2000/svg" xmlns:xlink="http://www.w3.org/1999/xlink" x="0px" y="0px"
	 viewBox="0 0 512 512" style="enable-background:new 0 0 512 512;" xml:space="preserve">
<g fill="#ff0871">
	<path d="M256,234.276c-31.755,0-57.59-25.835-57.59-57.59s25.835-57.591,57.59-57.591
		s57.59,25.835,57.59,57.59S287.755,234.276,256,234.276z M256,147.538c-16.071,0-29.146,13.074-29.146,29.146
		s13.074,29.147,29.146,29.147c16.071,0,29.146-13.074,29.146-29.146S272.071,147.538,256,147.538z"/>
	<path d="M256,352.361c-3.452,0-6.903-1.25-9.624-3.752c-4.005-3.681-98.091-91.092-98.091-172.264
		c0-12.658,2.179-25.06,6.474-36.857c2.688-7.378,10.849-11.184,18.23-8.498c7.38,2.688,11.184,10.85,8.498,18.23
		c-3.157,8.668-4.757,17.795-4.757,27.123c0,54.928,56.306,118.276,79.299,141.852c5.78-5.898,13.651-14.29,22.168-24.411
		c5.057-6.012,14.029-6.784,20.039-1.725c6.01,5.059,6.781,14.029,1.724,20.039c-18.411,21.878-33.717,35.941-34.359,36.53
		C262.884,351.118,259.442,352.361,256,352.361z"/>
	<path d="M318.921,276.814c-2.61,0-5.249-0.717-7.615-2.221c-6.629-4.213-8.589-13.002-4.375-19.631
		c18.806-29.592,28.341-56.041,28.341-78.616c0-43.709-35.56-79.27-79.27-79.27c-17.007,0-33.213,5.302-46.868,15.333
		c-6.33,4.649-15.232,3.288-19.881-3.044c-4.651-6.329-3.288-15.231,3.042-19.881c18.571-13.642,40.602-20.853,63.708-20.853
		c59.393,0,107.715,48.321,107.715,107.715c0,28.065-11.028,59.647-32.778,93.872C328.228,274.482,323.624,276.814,318.921,276.814z
		"/>
	<path d="M358.4,0H62.578c-7.855,0-14.222,6.369-14.222,14.222v335.171c0,7.854,6.367,14.222,14.222,14.222
		S76.8,357.247,76.8,349.393V28.444h281.6c42.348,0,76.8,34.453,76.8,76.8v295.067c-9.287-5.821-20.254-9.2-32-9.2H62.578
		c-7.855,0-14.222,6.369-14.222,14.222v2.64c0,6.027,3.799,11.401,9.482,13.409c12.76,4.511,21.333,16.637,21.333,30.174
		s-8.573,25.663-21.333,30.174c-5.683,2.008-9.482,7.38-9.482,13.409v2.64c0,7.854,6.367,14.222,14.222,14.222H403.2
		c33.33,0,60.444-27.115,60.444-60.444V105.244C463.644,47.212,416.432,0,358.4,0z M403.2,483.556H98.426
		c5.87-9.395,9.189-20.423,9.189-32s-3.318-22.605-9.189-32H403.2c17.646,0,32,14.356,32,32S420.846,483.556,403.2,483.556z"/>
</g>
</svg>
