
<svg xmlns="http://www.w3.org/2000/svg" version="1.1" xmlns:xlink="http://www.w3.org/1999/xlink" preserveAspectRatio="none" x="0px" y="0px" width="24px" height="24px" viewBox="0 0 24 24">
<defs>
<g id="Layer0_0_FILL">
<path fill="#ff0871" stroke="none" d="
M 24 4
Q 24 2.35 22.85 1.15 21.65 0 20 0 18.35 0 17.15 1.15 16 2.35 16 4 15.9 6.55 20 12 24.1 6.55 24 4
M 21.4 2.55
Q 22 3.15 22 4 22 4.8 21.4 5.35 20.8 6 20 6 19.2 6 18.55 5.35 18 4.8 18 4 18 3.15 18.55 2.55 19.2 2 20 2 20.8 2 21.4 2.55
M 8 16
Q 8 14.35 6.85 13.15 5.65 12 4 12 2.35 12 1.15 13.15 0 14.35 0 16 -0.1 18.55 4 24 8.1 18.55 8 16
M 6 16
Q 6 16.8 5.4 17.35 4.8 18 4 18 3.2 18 2.55 17.35 2 16.8 2 16 2 15.15 2.55 14.55 3.2 14 4 14 4.8 14 5.4 14.55 6 15.15 6 16
M 12 12
Q 11.6 12 11.3 11.7 11 11.45 11 11 11 10.6 11.3 10.3 11.6 10 12 10
L 15 10 15 8 12 8
Q 10.75 8 9.9 8.85 9 9.75 9 11 9 12.25 9.9 13.1 10.75 14 12 14
L 16 14
Q 16.4 14 16.7 14.3 17 14.6 17 15 17 15.45 16.7 15.7 16.4 16 16 16
L 9 16 9 18 16 18
Q 17.25 18 18.1 17.1 19 16.25 19 15 19 13.75 18.1 12.85 17.25 12 16 12
L 12 12 Z"/>
</g>
</defs>

<g transform="matrix( 1, 0, 0, 1, 0,0) ">
<use xlink:href="#Layer0_0_FILL"/>
</g>
</svg>
