<?xml version="1.0" encoding="UTF-8" standalone="no"?>
<!DOCTYPE svg PUBLIC "-//W3C//DTD SVG 1.1//EN" "http://www.w3.org/Graphics/SVG/1.1/DTD/svg11.dtd">
<svg version="1.1" xmlns="http://www.w3.org/2000/svg" xmlns:xlink="http://www.w3.org/1999/xlink" preserveAspectRatio="xMidYMid meet" viewBox="0 0 640 640" width="512" height="512"><defs><path d="M480.64 42.92C431.6 14.3 378.07 0 320.01 0C261.95 0 208.41 14.3 159.38 42.92C110.35 71.53 71.54 110.34 42.92 159.37C14.3 208.4 0 261.95 0 320C0 378.06 14.31 431.59 42.92 480.63C71.53 529.65 110.35 568.47 159.38 597.08C208.41 625.69 261.95 640 320 640C378.06 640 431.61 625.69 480.63 597.08C529.66 568.48 568.48 529.65 597.09 480.63C625.7 431.6 640 378.05 640 320C640 261.94 625.7 208.4 597.09 159.37C568.48 110.35 529.66 71.53 480.64 42.92Z" id="a4pfxfjNPj"></path><path d="M331.89 231.83C331.89 228.08 328.85 225.04 325.09 225.04C321.34 225.04 318.3 228.08 318.3 231.83C318.3 252.12 318.3 414.46 318.3 434.76C318.3 438.51 321.34 441.55 325.09 441.55C328.85 441.55 331.89 438.51 331.89 434.76C331.89 394.17 331.89 252.12 331.89 231.83Z" id="a1lnVSLpnM"></path><path d="M477.74 168.02C453.74 159.71 426.53 150.29 398.31 150.29C365.66 150.29 345.74 164.6 334.78 176.6C330.68 181.09 327.5 185.59 325.09 189.58C322.69 185.59 319.51 181.09 315.41 176.6C304.45 164.6 284.53 150.29 251.88 150.29C223.66 150.29 196.45 159.71 172.45 168.02C153.49 174.58 135.59 180.78 121.22 180.78C117.46 180.78 114.42 183.83 114.42 187.58C114.42 214.95 114.42 433.94 114.42 461.31C114.42 465.06 117.46 468.1 121.22 468.1C137.87 468.1 156.83 461.54 176.89 454.59C199.88 446.63 225.94 437.61 251.88 437.61C274.11 437.61 292.11 444.97 305.37 459.49C307.9 462.26 312.2 462.46 314.97 459.93C317.74 457.4 317.94 453.1 315.41 450.33C304.45 438.32 284.53 424.02 251.88 424.02C223.66 424.02 196.45 433.44 172.44 441.75C156.37 447.32 141.06 452.62 128.01 454.1C128.01 428.1 128.01 220.04 128.01 194.04C142.96 192.61 159.51 186.88 176.89 180.86C199.88 172.9 225.94 163.88 251.88 163.88C304.32 163.88 318.04 205.53 318.6 207.28C319.47 210.13 322.11 212.08 325.09 212.08C328.08 212.08 330.71 210.13 331.59 207.28C331.72 206.84 345.53 163.88 398.31 163.88C424.24 163.88 450.3 172.9 473.3 180.86C490.68 186.88 507.23 192.61 522.17 194.04C522.17 220.04 522.17 428.1 522.17 454.1C509.13 452.62 493.81 447.32 477.74 441.75C453.74 433.44 426.53 424.02 398.31 424.02C365.66 424.02 345.74 438.32 334.78 450.33C332.25 453.1 332.44 457.4 335.21 459.93C337.99 462.46 342.28 462.27 344.81 459.49C358.08 444.97 376.07 437.61 398.31 437.61C424.24 437.61 450.3 446.63 473.3 454.59C493.36 461.54 512.31 468.11 528.97 468.11C532.72 468.11 535.76 465.06 535.76 461.31C535.76 433.94 535.76 214.95 535.76 187.58C535.76 183.83 532.72 180.78 528.97 180.78C514.6 180.78 496.7 174.58 477.74 168.02Z" id="c6nJqS668"></path><path d="M477.74 468.93C453.74 460.62 426.53 451.2 398.31 451.2C367.64 451.2 348.21 463.82 336.88 475.3C334.52 475.3 315.66 475.3 313.31 475.3C301.97 463.82 282.54 451.2 251.88 451.2C223.66 451.2 196.45 460.62 172.44 468.93C153.49 475.5 135.59 481.7 121.22 481.7C117.46 481.7 114.42 484.74 114.42 488.49C114.42 492.25 117.46 495.29 121.22 495.29C137.87 495.29 156.83 488.72 176.89 481.78C199.88 473.82 225.94 464.79 251.88 464.79C274.11 464.79 292.11 472.15 305.37 486.68C306.66 488.09 308.48 488.89 310.39 488.89C313.33 488.89 336.85 488.89 339.8 488.89C341.7 488.89 343.53 488.09 344.81 486.68C358.07 472.15 376.07 464.79 398.31 464.79C424.24 464.79 450.3 473.82 473.29 481.78C493.36 488.72 512.31 495.29 528.97 495.29C532.72 495.29 535.76 492.25 535.76 488.49C535.76 484.74 532.72 481.7 528.97 481.7C514.6 481.7 496.7 475.5 477.74 468.93Z" id="c6IwCzZtz"></path></defs><g><g><g><use xlink:href="#a4pfxfjNPj" opacity="1" fill="#ff0871" fill-opacity="1"></use><g><use xlink:href="#a4pfxfjNPj" opacity="1" fill-opacity="0" stroke="#000000" stroke-width="1" stroke-opacity="0"></use></g></g><g><use xlink:href="#a1lnVSLpnM" opacity="1" fill="#ffffff" fill-opacity="1"></use><g><use xlink:href="#a1lnVSLpnM" opacity="1" fill-opacity="0" stroke="#000000" stroke-width="1" stroke-opacity="0"></use></g></g><g><use xlink:href="#c6nJqS668" opacity="1" fill="#ffffff" fill-opacity="1"></use><g><use xlink:href="#c6nJqS668" opacity="1" fill-opacity="0" stroke="#000000" stroke-width="1" stroke-opacity="0"></use></g></g><g><use xlink:href="#c6IwCzZtz" opacity="1" fill="#ffffff" fill-opacity="1"></use><g><use xlink:href="#c6IwCzZtz" opacity="1" fill-opacity="0" stroke="#000000" stroke-width="1" stroke-opacity="0"></use></g></g></g></g></svg>
