<?xml version="1.0" encoding="UTF-8" standalone="no"?>
<!DOCTYPE svg PUBLIC "-//W3C//DTD SVG 1.1//EN" "http://www.w3.org/Graphics/SVG/1.1/DTD/svg11.dtd">
<svg version="1.1" xmlns="http://www.w3.org/2000/svg" xmlns:xlink="http://www.w3.org/1999/xlink" preserveAspectRatio="xMidYMid meet" viewBox="0 0 640 640" width="512" height="512"><defs><path d="M480.64 42.92C431.6 14.3 378.07 0 320.01 0C261.95 0 208.41 14.3 159.38 42.92C110.35 71.53 71.54 110.34 42.92 159.37C14.3 208.4 0 261.95 0 320C0 378.06 14.31 431.59 42.92 480.63C71.53 529.65 110.35 568.47 159.38 597.08C208.41 625.69 261.95 640 320 640C378.06 640 431.61 625.69 480.63 597.08C529.66 568.48 568.48 529.65 597.09 480.63C625.7 431.6 640 378.05 640 320C640 261.94 625.7 208.4 597.09 159.37C568.48 110.35 529.66 71.53 480.64 42.92Z" id="dd4Kq45f"></path><path d="M373.68 113.27L373.97 113.29L374.25 113.32L374.54 113.35L374.83 113.4L375.11 113.45L375.4 113.51L375.68 113.57L375.96 113.65L376.24 113.73L376.52 113.82L376.79 113.92L377.07 114.02L377.34 114.14L377.61 114.26L377.87 114.38L378.14 114.52L378.4 114.66L553.5 214.2L553.75 214.34L553.99 214.49L554.23 214.65L554.46 214.81L554.68 214.97L554.9 215.15L555.12 215.32L555.33 215.51L555.54 215.69L555.74 215.89L555.93 216.08L556.13 216.28L556.31 216.49L556.49 216.7L556.66 216.92L556.83 217.14L556.99 217.36L557.15 217.59L557.3 217.82L557.44 218.05L557.58 218.29L557.71 218.53L557.84 218.78L557.96 219.03L558.07 219.28L558.18 219.54L558.28 219.79L558.38 220.05L558.46 220.32L558.54 220.58L558.62 220.85L558.69 221.12L558.75 221.39L558.8 221.67L558.85 221.95L558.88 222.22L558.92 222.5L558.94 222.79L558.96 223.07L558.97 223.35L558.97 223.64L558.97 223.92L558.96 224.2L558.94 224.49L558.91 224.77L558.88 225.04L558.83 225.32L558.79 225.6L558.73 225.87L558.67 226.14L558.6 226.41L558.53 226.68L558.44 226.94L558.35 227.2L558.26 227.46L558.16 227.72L558.05 227.97L557.93 228.22L557.81 228.47L557.68 228.72L557.55 228.96L557.41 229.2L557.26 229.43L557.11 229.66L556.95 229.89L556.79 230.11L556.62 230.33L556.45 230.54L556.27 230.75L556.08 230.96L555.89 231.16L555.69 231.36L555.49 231.55L555.28 231.74L555.06 231.92L554.85 232.1L554.62 232.27L554.39 232.43L554.16 232.59L553.92 232.75L473.87 283.15L473.49 283.38L473.1 283.59L472.71 283.79L472.31 283.97L471.91 284.13L471.51 284.27L471.1 284.4L470.69 284.51L470.27 284.6L469.86 284.68L469.44 284.74L469.03 284.78L468.61 284.81L468.19 284.82L467.77 284.81L467.36 284.79L466.94 284.75L466.53 284.7L466.12 284.63L465.72 284.55L465.31 284.45L464.91 284.33L464.52 284.2L464.13 284.06L463.75 283.9L463.37 283.72L463 283.53L462.63 283.33L462.27 283.11L461.92 282.87L461.58 282.62L461.25 282.36L460.93 282.09L460.61 281.79L460.31 281.49L460.02 281.17L459.74 280.84L459.47 280.49L459.21 280.14L458.96 279.76L458.73 279.38L458.52 278.99L458.33 278.6L458.15 278.2L457.99 277.8L457.84 277.4L457.72 276.99L457.61 276.58L457.52 276.16L457.44 275.75L457.38 275.33L457.34 274.91L457.31 274.5L457.3 274.08L457.3 273.66L457.33 273.25L457.36 272.83L457.42 272.42L457.48 272.01L457.57 271.61L457.67 271.2L457.78 270.8L457.91 270.41L458.06 270.02L458.22 269.64L458.39 269.26L458.58 268.89L458.79 268.52L459.01 268.16L459.24 267.81L459.49 267.47L459.75 267.14L460.03 266.82L460.32 266.5L460.62 266.2L460.94 265.91L461.27 265.62L461.62 265.35L461.98 265.1L462.35 264.85L527.11 224.07L373.34 136.67L281.62 194.42L440.92 284.98L440.96 284.99L440.99 285.01L441.02 285.03L441.05 285.05L441.08 285.07L441.11 285.08L441.14 285.1L441.17 285.12L441.2 285.14L441.23 285.16L441.26 285.17L441.29 285.19L441.32 285.21L441.35 285.23L441.38 285.25L441.41 285.27L441.44 285.29L441.47 285.31L441.5 285.33L441.53 285.35L441.56 285.37L441.59 285.39L441.62 285.41L441.65 285.43L441.68 285.45L441.71 285.47L441.74 285.49L441.77 285.51L441.8 285.53L441.83 285.55L441.86 285.57L441.89 285.59L441.92 285.61L441.95 285.63L441.98 285.65L442 285.67L442.03 285.7L442.06 285.72L442.09 285.74L442.12 285.76L442.13 285.77L442.14 285.78L442.16 285.79L442.18 285.8L442.19 285.81L442.21 285.83L442.23 285.84L442.24 285.85L442.27 285.88L442.31 285.91L442.34 285.93L442.36 285.95L442.38 285.96L442.41 285.98L442.43 286L442.45 286.01L442.47 286.03L442.49 286.05L442.51 286.07L442.53 286.08L442.55 286.1L442.58 286.12L442.6 286.14L442.62 286.15L442.64 286.17L442.66 286.19L442.68 286.21L442.7 286.22L442.72 286.24L442.74 286.26L442.76 286.28L442.78 286.3L442.8 286.31L442.83 286.33L442.85 286.35L442.87 286.37L442.89 286.39L442.91 286.41L442.93 286.42L442.95 286.44L442.97 286.46L442.99 286.48L443.01 286.5L443.03 286.52L443.05 286.54L443.07 286.56L443.09 286.57L443.11 286.59L443.13 286.61L443.15 286.63L443.17 286.65L443.19 286.67L443.21 286.69L443.27 286.74L443.27 286.75L443.28 286.76L443.29 286.76L443.29 286.76L443.3 286.77L443.31 286.78L443.31 286.79L443.32 286.79L443.34 286.81L443.35 286.82L443.37 286.84L443.4 286.87L443.42 286.89L443.44 286.91L443.46 286.94L443.49 286.96L443.51 286.98L443.53 287.01L443.55 287.03L443.58 287.05L443.6 287.08L443.62 287.1L443.64 287.13L443.67 287.15L443.69 287.17L443.71 287.2L443.73 287.22L443.75 287.25L443.78 287.27L443.8 287.3L443.82 287.32L443.84 287.35L443.86 287.37L443.88 287.39L443.9 287.42L443.93 287.44L443.95 287.47L443.97 287.49L443.99 287.52L444.01 287.55L444.03 287.57L444.05 287.6L444.07 287.62L444.09 287.65L444.12 287.67L444.14 287.7L444.16 287.73L444.18 287.75L444.2 287.78L444.22 287.8L444.23 287.81L444.23 287.82L444.23 287.82L444.24 287.84L444.25 287.85L444.27 287.88L444.28 287.9L444.29 287.91L444.3 287.92L444.31 287.93L444.34 287.97L444.35 287.99L444.37 288.01L444.38 288.03L444.39 288.04L444.4 288.06L444.42 288.08L444.43 288.1L444.46 288.13L444.48 288.17L444.5 288.19L444.51 288.21L444.52 288.22L444.54 288.24L444.55 288.26L444.56 288.28L444.57 288.3L444.59 288.31L444.6 288.33L444.61 288.35L444.63 288.37L444.64 288.39L444.65 288.41L444.66 288.42L444.68 288.44L444.69 288.46L444.7 288.48L444.71 288.5L444.73 288.52L444.74 288.54L444.75 288.55L444.76 288.57L444.78 288.59L444.79 288.61L444.8 288.63L444.81 288.65L444.82 288.67L444.83 288.68L444.83 288.68L444.84 288.7L444.85 288.71L444.86 288.73L444.87 288.74L444.88 288.76L444.9 288.8L444.91 288.81L444.92 288.83L444.93 288.85L444.93 288.86L444.94 288.87L444.94 288.88L444.95 288.89L444.96 288.91L444.97 288.92L444.97 288.93L444.99 288.96L445.01 288.99L445.01 288.99L445.03 289.03L445.04 289.05L445.05 289.08L445.07 289.11L445.12 289.19L445.13 289.22L445.15 289.24L445.16 289.26L445.17 289.28L445.18 289.3L445.19 289.32L445.2 289.34L445.21 289.36L445.22 289.38L445.23 289.41L445.24 289.43L445.26 289.45L445.27 289.47L445.28 289.49L445.29 289.51L445.3 289.53L445.31 289.55L445.32 289.57L445.33 289.59L445.34 289.61L445.35 289.63L445.36 289.66L445.37 289.68L445.38 289.7L445.39 289.72L445.4 289.74L445.41 289.76L445.42 289.78L445.43 289.8L445.44 289.82L445.45 289.84L445.46 289.87L445.47 289.89L445.48 289.91L445.49 289.93L445.5 289.95L445.51 289.97L445.52 289.99L445.53 290.01L445.54 290.03L445.55 290.06L445.56 290.09L445.61 290.19L445.61 290.2L445.63 290.23L445.64 290.26L445.65 290.29L445.66 290.3L445.67 290.33L445.68 290.35L445.68 290.36L445.69 290.38L445.71 290.42L445.72 290.45L445.73 290.48L445.74 290.5L445.75 290.53L445.76 290.56L445.78 290.59L445.79 290.62L445.8 290.65L445.81 290.68L445.82 290.71L445.83 290.74L445.84 290.77L445.85 290.8L445.86 290.83L445.88 290.86L445.89 290.89L445.9 290.92L445.91 290.95L445.92 290.98L445.93 291.01L445.94 291.04L445.95 291.07L445.96 291.1L445.97 291.13L445.98 291.16L445.99 291.19L446 291.22L446.01 291.25L446.02 291.28L446.02 291.31L446.03 291.34L446.04 291.37L446.05 291.4L446.06 291.43L446.07 291.46L446.08 291.49L446.09 291.52L446.1 291.55L446.1 291.58L446.1 291.58L446.11 291.59L446.12 291.62L446.13 291.66L446.13 291.69L446.14 291.72L446.15 291.75L446.16 291.79L446.17 291.82L446.17 291.85L446.18 291.88L446.19 291.92L446.2 291.95L446.21 291.98L446.21 292.01L446.22 292.05L446.23 292.08L446.23 292.11L446.24 292.14L446.25 292.18L446.25 292.21L446.26 292.24L446.27 292.27L446.27 292.31L446.28 292.34L446.29 292.37L446.29 292.4L446.3 292.44L446.3 292.47L446.31 292.5L446.32 292.54L446.32 292.57L446.33 292.6L446.33 292.63L446.34 292.67L446.34 292.7L446.35 292.73L446.35 292.76L446.36 292.8L446.36 292.83L446.37 292.86L446.37 292.9L446.37 292.92L446.38 292.94L446.38 292.95L446.38 292.98L446.38 292.99L446.39 293.02L446.39 293.09L446.4 293.11L446.4 293.14L446.4 293.16L446.41 293.19L446.41 293.22L446.41 293.24L446.41 293.27L446.42 293.3L446.42 293.32L446.42 293.35L446.43 293.38L446.43 293.4L446.43 293.43L446.43 293.46L446.44 293.49L446.44 293.51L446.44 293.54L446.44 293.57L446.44 293.59L446.45 293.62L446.45 293.65L446.45 293.67L446.45 293.7L446.45 293.73L446.46 293.76L446.46 293.78L446.46 293.81L446.46 293.84L446.46 293.86L446.46 293.89L446.46 293.92L446.47 293.94L446.47 293.97L446.47 294L446.47 294.02L446.47 294.05L446.47 294.08L446.47 294.11L446.47 294.13L446.47 294.16L446.47 294.19L446.47 294.21L446.47 294.24L446.47 294.25L446.48 294.25L446.48 294.27L446.48 294.28L446.48 294.3L446.48 294.35L446.48 294.36L446.49 294.38L446.49 294.39L446.49 294.4L446.49 294.41L446.49 294.43L446.49 424.19L446.48 424.47L446.47 424.74L446.46 425.02L446.43 425.29L446.4 425.57L446.36 425.84L446.32 426.11L446.26 426.38L446.21 426.64L446.14 426.91L446.07 427.17L445.99 427.43L445.91 427.69L445.82 427.94L445.72 428.19L445.61 428.44L445.51 428.69L445.39 428.93L445.27 429.18L445.14 429.41L445.01 429.65L444.87 429.88L444.72 430.11L444.57 430.33L444.42 430.55L444.25 430.77L444.09 430.98L443.91 431.19L443.74 431.39L443.55 431.6L443.36 431.79L443.17 431.98L442.97 432.17L442.76 432.35L442.56 432.53L442.34 432.7L442.12 432.87L441.9 433.03L441.67 433.19L441.44 433.34L385.19 468.75L385.06 468.84L384.93 468.92L384.79 468.99L384.66 469.07L384.52 469.14L384.39 469.22L384.25 469.28L384.11 469.35L383.97 469.42L383.83 469.48L383.69 469.54L383.55 469.6L383.41 469.66L383.27 469.71L383.13 469.77L382.98 469.82L382.84 469.87L382.69 469.91L382.55 469.96L382.4 470L382.26 470.04L382.11 470.08L381.97 470.12L381.82 470.15L381.67 470.18L381.52 470.21L381.38 470.24L381.23 470.27L381.08 470.29L380.93 470.31L380.78 470.33L380.63 470.35L380.48 470.37L380.33 470.38L380.18 470.39L380.03 470.4L379.88 470.41L379.73 470.41L379.58 470.42L379.43 470.42L379.3 470.42L379.16 470.41L379.03 470.41L378.89 470.4L378.76 470.4L378.62 470.39L378.49 470.38L378.35 470.36L378.22 470.35L378.08 470.33L377.95 470.32L377.82 470.3L377.68 470.28L377.55 470.25L377.42 470.23L377.28 470.2L377.15 470.17L377.02 470.15L376.89 470.11L376.75 470.08L376.62 470.05L376.49 470.01L376.36 469.97L376.23 469.93L376.1 469.89L375.97 469.85L375.84 469.81L375.71 469.76L375.58 469.71L375.46 469.66L375.33 469.61L375.2 469.56L375.07 469.5L374.95 469.45L374.82 469.39L374.7 469.33L374.57 469.27L374.45 469.2L374.33 469.14L374.2 469.07L373.95 468.93L373.7 468.77L373.45 468.61L373.21 468.45L372.97 468.28L372.74 468.1L372.52 467.92L372.3 467.73L372.09 467.54L371.88 467.34L371.67 467.14L371.48 466.93L371.29 466.72L371.1 466.5L370.92 466.28L370.75 466.05L370.58 465.82L370.42 465.58L370.27 465.34L370.12 465.1L369.98 464.85L369.84 464.6L369.71 464.35L369.59 464.09L369.48 463.83L369.37 463.56L369.27 463.3L369.17 463.03L369.09 462.75L369.01 462.48L368.93 462.2L368.87 461.92L368.81 461.64L368.76 461.35L368.72 461.06L368.68 460.77L368.65 460.48L368.63 460.19L368.62 459.9L368.62 459.6L368.62 336.14L204.61 242.91L112.89 300.67L266.66 388.08L341.23 341.12L341.61 340.89L342 340.68L342.39 340.49L342.79 340.31L343.19 340.15L343.6 340L344 339.88L344.41 339.77L344.83 339.68L345.24 339.6L345.66 339.54L346.08 339.5L346.49 339.47L346.91 339.46L347.33 339.46L347.74 339.49L348.16 339.52L348.57 339.58L348.98 339.65L349.39 339.73L349.79 339.83L350.19 339.94L350.58 340.07L350.97 340.22L351.36 340.38L351.74 340.56L352.11 340.75L352.47 340.95L352.83 341.17L353.18 341.4L353.52 341.65L353.85 341.91L354.18 342.19L354.49 342.48L354.79 342.79L355.09 343.1L355.37 343.44L355.64 343.78L355.9 344.14L356.14 344.51L356.37 344.89L356.58 345.28L356.78 345.68L356.96 346.07L357.12 346.47L357.26 346.88L357.39 347.29L357.5 347.7L357.59 348.11L357.66 348.53L357.72 348.94L357.77 349.36L357.79 349.78L357.8 350.2L357.8 350.61L357.78 351.03L357.74 351.44L357.69 351.85L357.62 352.26L357.53 352.67L357.44 353.07L357.32 353.47L357.19 353.87L357.04 354.26L356.88 354.64L356.71 355.02L356.52 355.39L356.31 355.76L356.09 356.11L355.86 356.46L355.61 356.8L355.35 357.14L355.07 357.46L354.78 357.77L354.48 358.08L354.16 358.37L353.83 358.65L353.48 358.92L353.12 359.18L352.75 359.42L272.71 409.83L272.57 409.91L272.44 409.99L272.31 410.07L272.17 410.14L272.04 410.22L271.9 410.29L271.76 410.36L271.62 410.43L271.49 410.49L271.35 410.56L271.21 410.62L271.06 410.68L270.92 410.73L270.78 410.79L270.64 410.84L270.5 410.89L270.35 410.94L270.21 410.99L270.06 411.03L269.92 411.08L269.77 411.12L269.63 411.15L269.48 411.19L269.33 411.23L269.18 411.26L269.04 411.29L268.89 411.32L268.74 411.34L268.59 411.37L268.44 411.39L268.29 411.41L268.14 411.43L267.99 411.44L267.84 411.46L267.69 411.47L267.54 411.48L267.39 411.48L267.24 411.49L267.09 411.49L266.94 411.49L266.81 411.49L266.67 411.49L266.53 411.48L266.39 411.48L266.25 411.47L266.12 411.46L265.98 411.45L265.84 411.44L265.7 411.42L265.57 411.4L265.43 411.39L265.29 411.37L265.15 411.34L265.02 411.32L264.88 411.29L264.75 411.27L264.61 411.24L264.47 411.21L264.34 411.17L264.2 411.14L264.07 411.1L263.94 411.07L263.8 411.03L263.67 410.98L263.54 410.94L263.4 410.9L263.27 410.85L263.14 410.8L263.01 410.75L262.88 410.7L262.75 410.64L262.62 410.59L262.49 410.53L262.36 410.47L262.23 410.41L262.1 410.35L261.98 410.28L261.85 410.22L261.73 410.15L261.6 410.08L86.5 310.55L86.25 310.4L86.01 310.25L85.77 310.1L85.54 309.94L85.32 309.77L85.1 309.6L84.88 309.42L84.67 309.24L84.46 309.05L84.26 308.86L84.06 308.66L83.87 308.46L83.69 308.25L83.51 308.04L83.34 307.83L83.17 307.61L83.01 307.38L82.85 307.16L82.7 306.92L82.56 306.69L82.42 306.45L82.29 306.21L82.16 305.96L82.04 305.71L81.93 305.46L81.82 305.21L81.72 304.95L81.62 304.69L81.54 304.43L81.46 304.16L81.38 303.89L81.31 303.62L81.25 303.35L81.2 303.08L81.15 302.8L81.12 302.52L81.08 302.24L81.06 301.96L81.04 301.68L81.03 301.39L81.03 301.11L81.03 300.82L81.04 300.54L81.06 300.26L81.09 299.98L81.12 299.7L81.17 299.42L81.21 299.15L81.27 298.87L81.33 298.6L81.4 298.33L81.47 298.07L81.56 297.8L81.65 297.54L81.74 297.28L81.84 297.02L81.95 296.77L82.07 296.52L82.19 296.27L82.32 296.03L82.45 295.79L82.59 295.55L82.74 295.31L82.89 295.08L83.04 294.86L83.21 294.63L83.38 294.41L83.55 294.2L83.73 293.99L83.92 293.78L84.11 293.58L84.31 293.39L84.51 293.19L84.72 293.01L84.93 292.83L85.15 292.65L85.38 292.48L85.61 292.31L85.84 292.15L86.08 292L198.57 221.16L198.57 221.16L198.59 221.15L198.62 221.13L198.64 221.11L254.81 185.74L254.83 185.74L254.85 185.72L254.88 185.7L367.29 114.91L367.55 114.76L367.81 114.61L368.07 114.47L368.33 114.34L368.6 114.21L368.87 114.1L369.14 113.99L369.41 113.88L369.69 113.79L369.97 113.7L370.25 113.62L370.53 113.55L370.81 113.49L371.09 113.43L371.38 113.38L371.66 113.34L371.95 113.31L372.24 113.28L372.53 113.27L372.81 113.25L373.1 113.25L373.39 113.26L373.68 113.27ZM384.77 320.45L385.02 320.59L385.27 320.75L385.51 320.91L385.75 321.07L385.98 321.24L386.2 321.42L386.43 321.6L386.64 321.79L386.85 321.98L387.05 322.18L387.25 322.38L387.45 322.59L387.63 322.8L387.81 323.02L387.99 323.24L388.16 323.46L388.32 323.69L388.48 323.93L388.63 324.17L388.78 324.41L388.91 324.65L389.05 324.9L389.17 325.15L389.29 325.41L389.4 325.67L389.51 325.93L389.61 326.2L389.7 326.46L389.79 326.73L389.86 327.01L389.94 327.28L390 327.56L390.06 327.84L390.11 328.12L390.15 328.4L390.18 328.69L390.21 328.98L390.23 329.26L390.24 329.55L390.24 329.85L390.24 440.02L424.86 418.22L424.86 314.02L412.69 321.68L412.55 321.77L412.42 321.85L412.28 321.93L412.14 322L412.01 322.08L411.87 322.15L411.73 322.22L411.59 322.29L411.45 322.35L411.31 322.42L411.17 322.48L411.03 322.54L410.88 322.6L410.74 322.65L410.6 322.7L410.46 322.75L410.31 322.8L410.17 322.85L410.02 322.89L409.88 322.94L409.73 322.98L409.59 323.01L409.44 323.05L409.29 323.08L409.15 323.12L409 323.15L408.85 323.17L408.71 323.2L408.56 323.22L408.41 323.24L408.26 323.26L408.12 323.28L407.97 323.3L407.82 323.31L407.67 323.32L407.53 323.33L407.38 323.34L407.23 323.34L407.08 323.34L406.93 323.35L406.67 323.34L406.4 323.33L406.13 323.32L405.86 323.29L405.59 323.26L405.33 323.23L405.06 323.18L404.8 323.13L404.54 323.08L404.28 323.02L404.02 322.95L403.76 322.87L403.5 322.79L403.25 322.7L403 322.61L402.75 322.51L402.5 322.4L402.26 322.29L402.02 322.17L401.78 322.04L401.54 321.91L401.31 321.78L401.08 321.63L400.85 321.48L400.63 321.33L400.41 321.17L400.19 321L399.98 320.82L399.77 320.65L399.57 320.46L399.37 320.27L399.17 320.07L398.98 319.87L398.79 319.66L398.61 319.45L398.43 319.23L398.26 319L398.09 318.77L397.93 318.54L397.77 318.29L397.54 317.91L397.33 317.52L397.14 317.13L396.96 316.73L396.8 316.33L396.66 315.93L396.53 315.52L396.42 315.11L396.33 314.69L396.25 314.28L396.19 313.86L396.15 313.44L396.12 313.03L396.11 312.61L396.11 312.19L396.14 311.78L396.17 311.36L396.23 310.95L396.3 310.54L396.38 310.14L396.48 309.73L396.59 309.33L396.72 308.94L396.87 308.55L397.03 308.17L397.21 307.79L397.4 307.42L397.6 307.05L397.82 306.69L398.05 306.34L398.3 306L398.56 305.67L398.84 305.35L399.13 305.03L399.44 304.73L399.75 304.44L400.09 304.15L400.43 303.88L400.79 303.63L401.16 303.38L414.63 294.9L260.86 207.5L225.37 229.84L384.77 320.45Z" id="c1ZfcbeGEZ"></path><path d="M462.35 308.1C457.3 311.28 455.78 317.96 458.96 323.02C461.02 326.28 464.53 328.07 468.12 328.07C470.09 328.07 472.09 327.53 473.88 326.4C481.88 321.36 545.92 281.04 553.92 276C558.98 272.82 560.49 266.14 557.31 261.09C554.13 256.03 547.45 254.52 542.4 257.7C526.39 267.78 470.36 303.06 462.35 308.1Z" id="a1vr0i1or1"></path><path d="M266.66 431.33C164.97 373.53 108.48 341.42 97.18 335C92 332.05 85.39 333.86 82.44 339.06C79.49 344.25 81.3 350.85 86.5 353.8C104.01 363.75 244.09 443.38 261.6 453.33C263.26 454.28 265.1 454.75 266.94 454.75C268.95 454.75 270.95 454.19 272.7 453.08C280.71 448.04 344.75 407.72 352.75 402.68C357.8 399.5 359.32 392.82 356.14 387.77C352.96 382.71 346.28 381.19 341.23 384.38C331.29 390.64 306.43 406.29 266.66 431.33Z" id="b2RQDW1O8"></path><path d="M462.35 351.36C457.3 354.54 455.78 361.22 458.96 366.27C461.02 369.53 464.53 371.32 468.12 371.32C470.09 371.32 472.09 370.78 473.88 369.66C481.88 364.62 545.92 324.29 553.92 319.25C558.98 316.07 560.49 309.39 557.31 304.34C554.13 299.29 547.45 297.77 542.4 300.95C526.39 311.03 470.36 346.32 462.35 351.36Z" id="a664IPiOQk"></path><path d="M266.66 474.58C164.97 416.79 108.48 384.67 97.18 378.25C92 375.3 85.39 377.11 82.44 382.31C79.49 387.5 81.3 394.1 86.5 397.05C104.01 407.01 244.09 486.63 261.6 496.59C263.26 497.53 265.1 498 266.94 498C268.95 498 270.95 497.44 272.7 496.34C280.71 491.3 344.75 450.97 352.75 445.93C357.8 442.75 359.32 436.07 356.14 431.02C352.96 425.96 346.28 424.45 341.23 427.63C331.29 433.89 306.43 449.54 266.66 474.58Z" id="a1d2LKI0d"></path><path d="M462.35 394.61C457.3 397.79 455.78 404.47 458.96 409.52C461.02 412.79 464.53 414.57 468.12 414.57C470.09 414.57 472.09 414.04 473.88 412.91C481.88 407.87 545.92 367.55 553.92 362.51C558.98 359.32 560.49 352.65 557.31 347.59C554.13 342.54 547.45 341.02 542.4 344.21C526.39 354.29 470.36 389.57 462.35 394.61Z" id="e6Lv7bprj"></path><path d="M266.66 517.84C164.97 460.04 108.48 427.93 97.18 421.51C92 418.56 85.39 420.37 82.44 425.56C79.49 430.75 81.3 437.36 86.5 440.31C104.01 450.26 244.09 529.89 261.6 539.84C263.26 540.78 265.1 541.25 266.94 541.25C268.95 541.25 270.95 540.7 272.7 539.59C280.71 534.55 344.75 494.22 352.75 489.18C357.8 486 359.32 479.33 356.14 474.27C352.96 469.22 346.28 467.7 341.23 470.88C331.29 477.14 306.43 492.8 266.66 517.84Z" id="b1kPqRX46h"></path></defs><g><g><g><use xlink:href="#dd4Kq45f" opacity="1" fill="#ff0871" fill-opacity="1"></use><g><use xlink:href="#dd4Kq45f" opacity="1" fill-opacity="0" stroke="#000000" stroke-width="1" stroke-opacity="0"></use></g></g><g><use xlink:href="#c1ZfcbeGEZ" opacity="1" fill="#ffffff" fill-opacity="1"></use><g><use xlink:href="#c1ZfcbeGEZ" opacity="1" fill-opacity="0" stroke="#000000" stroke-width="1" stroke-opacity="0"></use></g></g><g><use xlink:href="#a1vr0i1or1" opacity="1" fill="#ffffff" fill-opacity="1"></use><g><use xlink:href="#a1vr0i1or1" opacity="1" fill-opacity="0" stroke="#000000" stroke-width="1" stroke-opacity="0"></use></g></g><g><use xlink:href="#b2RQDW1O8" opacity="1" fill="#ffffff" fill-opacity="1"></use><g><use xlink:href="#b2RQDW1O8" opacity="1" fill-opacity="0" stroke="#000000" stroke-width="1" stroke-opacity="0"></use></g></g><g><use xlink:href="#a664IPiOQk" opacity="1" fill="#ffffff" fill-opacity="1"></use><g><use xlink:href="#a664IPiOQk" opacity="1" fill-opacity="0" stroke="#000000" stroke-width="1" stroke-opacity="0"></use></g></g><g><use xlink:href="#a1d2LKI0d" opacity="1" fill="#ffffff" fill-opacity="1"></use><g><use xlink:href="#a1d2LKI0d" opacity="1" fill-opacity="0" stroke="#000000" stroke-width="1" stroke-opacity="0"></use></g></g><g><use xlink:href="#e6Lv7bprj" opacity="1" fill="#ffffff" fill-opacity="1"></use><g><use xlink:href="#e6Lv7bprj" opacity="1" fill-opacity="0" stroke="#000000" stroke-width="1" stroke-opacity="0"></use></g></g><g><use xlink:href="#b1kPqRX46h" opacity="1" fill="#ffffff" fill-opacity="1"></use><g><use xlink:href="#b1kPqRX46h" opacity="1" fill-opacity="0" stroke="#000000" stroke-width="1" stroke-opacity="0"></use></g></g></g></g></svg>
