<?xml version="1.0" encoding="UTF-8" standalone="no"?>
<!DOCTYPE svg PUBLIC "-//W3C//DTD SVG 1.1//EN" "http://www.w3.org/Graphics/SVG/1.1/DTD/svg11.dtd">
<svg version="1.1" xmlns="http://www.w3.org/2000/svg" xmlns:xlink="http://www.w3.org/1999/xlink" preserveAspectRatio="xMidYMid meet" viewBox="0 0 640 640" width="512" height="512"><defs><path d="M480.64 42.92C431.6 14.3 378.07 0 320.01 0C261.95 0 208.41 14.3 159.38 42.92C110.35 71.53 71.54 110.34 42.92 159.37C14.3 208.4 0 261.95 0 320C0 378.06 14.31 431.59 42.92 480.63C71.53 529.65 110.35 568.47 159.38 597.08C208.41 625.69 261.95 640 320 640C378.06 640 431.61 625.69 480.63 597.08C529.66 568.48 568.48 529.65 597.09 480.63C625.7 431.6 640 378.05 640 320C640 261.94 625.7 208.4 597.09 159.37C568.48 110.35 529.66 71.53 480.64 42.92Z" id="dd4Kq45f"></path><path d="M393.27 105.55L393.92 105.62L394.56 105.71L395.19 105.83L395.81 105.97L396.42 106.13L397.02 106.32L397.61 106.53L398.19 106.76L398.76 107.01L399.31 107.29L399.86 107.59L400.39 107.9L400.91 108.24L401.41 108.59L401.9 108.97L402.38 109.36L402.84 109.77L403.28 110.2L403.71 110.64L404.11 111.1L404.51 111.57L404.88 112.06L405.24 112.57L405.57 113.08L405.89 113.62L406.18 114.16L406.46 114.72L406.71 115.29L406.95 115.87L407.16 116.46L407.34 117.06L407.51 117.67L407.65 118.29L407.76 118.92L407.85 119.56L407.92 120.2L407.96 120.85L407.97 121.51L407.97 129.28L446.24 129.28L447.6 129.31L448.95 129.39L450.28 129.53L451.59 129.72L452.89 129.95L454.17 130.24L455.43 130.58L456.67 130.97L457.89 131.4L459.09 131.88L460.26 132.41L461.41 132.97L462.53 133.59L463.63 134.24L464.7 134.93L465.74 135.66L466.75 136.44L467.72 137.24L468.67 138.09L469.59 138.97L470.47 139.88L471.31 140.83L472.12 141.81L472.89 142.82L473.62 143.86L474.32 144.93L474.97 146.02L475.58 147.15L476.15 148.3L476.67 149.47L477.15 150.67L477.59 151.89L477.97 153.13L478.31 154.39L478.6 155.67L478.84 156.96L479.03 158.28L479.16 159.61L479.24 160.96L479.27 162.31L479.27 442.29L479.24 443.65L479.16 444.99L479.03 446.32L478.84 447.64L478.6 448.94L478.31 450.22L477.97 451.48L477.59 452.72L477.15 453.94L476.67 455.13L476.15 456.31L475.58 457.45L474.97 458.58L474.32 459.67L473.62 460.74L472.89 461.78L472.12 462.79L471.31 463.77L470.47 464.72L469.59 465.63L468.67 466.51L467.73 467.36L466.75 468.17L465.74 468.94L464.7 469.67L463.63 470.36L462.53 471.02L461.41 471.63L460.26 472.2L459.09 472.72L457.89 473.2L456.67 473.63L455.43 474.02L454.17 474.36L452.89 474.65L451.59 474.89L450.28 475.07L448.95 475.21L447.6 475.29L446.24 475.32L440.33 475.32L474.5 516.44L474.78 516.78L475.05 517.13L475.31 517.48L475.56 517.83L475.8 518.18L476.03 518.53L476.25 518.88L476.46 519.23L476.66 519.58L476.85 519.94L477.03 520.29L477.2 520.64L477.35 521L477.5 521.35L477.64 521.7L477.76 522.06L477.88 522.41L477.98 522.76L478.07 523.11L478.15 523.46L478.23 523.81L478.29 524.16L478.34 524.5L478.38 524.85L478.4 525.19L478.42 525.53L478.43 525.87L478.42 526.21L478.41 526.55L478.38 526.88L478.34 527.22L478.3 527.55L478.24 527.87L478.17 528.2L478.08 528.52L477.99 528.84L477.89 529.16L477.77 529.47L477.64 529.78L477.51 530.09L477.36 530.39L477.2 530.69L477.03 530.98L476.86 531.26L476.67 531.53L476.47 531.8L476.27 532.07L476.06 532.32L475.83 532.57L475.6 532.81L475.36 533.04L475.11 533.27L474.85 533.49L474.59 533.7L474.31 533.91L474.03 534.11L473.74 534.3L473.44 534.48L473.14 534.65L472.82 534.82L472.5 534.98L472.17 535.14L471.84 535.28L471.49 535.42L471.14 535.55L470.78 535.67L470.42 535.78L470.04 535.89L469.67 535.98L469.28 536.07L468.89 536.15L468.49 536.22L468.09 536.29L467.67 536.34L467.26 536.39L466.83 536.43L466.41 536.46L465.97 536.48L465.53 536.5L465.08 536.5L415.21 536.5L414.48 536.49L413.74 536.45L412.99 536.39L412.24 536.31L411.48 536.21L410.72 536.08L409.96 535.93L409.2 535.76L408.44 535.57L407.67 535.36L406.91 535.13L406.15 534.88L405.39 534.61L404.63 534.32L403.88 534.01L403.13 533.69L402.39 533.35L401.65 532.99L400.92 532.62L400.2 532.23L399.49 531.82L398.79 531.4L398.09 530.96L397.41 530.52L396.74 530.05L396.08 529.58L395.44 529.09L394.81 528.58L394.19 528.07L393.59 527.54L393.01 527.01L392.45 526.46L391.9 525.9L391.37 525.34L390.86 524.76L390.37 524.17L389.9 523.58L389.46 522.98L389.04 522.37L388.64 521.75L359.7 475.32L274.69 475.32L245.75 521.75L245.35 522.37L244.93 522.98L244.48 523.58L244.01 524.17L243.53 524.76L243.02 525.34L242.49 525.9L241.94 526.46L241.37 527.01L240.79 527.54L240.19 528.07L239.58 528.58L238.95 529.09L238.3 529.58L237.64 530.05L236.97 530.52L236.29 530.97L235.6 531.4L234.9 531.82L234.18 532.23L233.46 532.62L232.73 532.99L232 533.35L231.25 533.69L230.51 534.01L229.75 534.32L229 534.61L228.24 534.88L227.48 535.13L226.71 535.36L225.95 535.57L225.19 535.76L224.42 535.93L223.66 536.08L222.9 536.21L222.15 536.31L221.4 536.39L220.65 536.45L219.91 536.49L219.17 536.5L169.3 536.5L168.85 536.5L168.41 536.48L167.98 536.46L167.55 536.43L167.13 536.39L166.71 536.34L166.3 536.29L165.89 536.22L165.5 536.15L165.1 536.07L164.72 535.98L164.34 535.89L163.97 535.78L163.6 535.67L163.24 535.55L162.89 535.42L162.55 535.28L162.21 535.14L161.88 534.98L161.56 534.82L161.25 534.65L160.94 534.48L160.64 534.3L160.35 534.11L160.07 533.91L159.8 533.7L159.53 533.49L159.27 533.27L159.02 533.04L158.78 532.81L158.55 532.57L158.33 532.32L158.12 532.07L157.91 531.8L157.72 531.53L157.53 531.26L157.35 530.98L157.18 530.69L157.03 530.39L156.88 530.09L156.74 529.78L156.61 529.47L156.5 529.16L156.39 528.84L156.3 528.52L156.22 528.2L156.15 527.87L156.09 527.55L156.04 527.22L156 526.89L155.98 526.55L155.96 526.21L155.96 525.88L155.96 525.54L155.98 525.19L156.01 524.85L156.05 524.5L156.1 524.16L156.16 523.81L156.23 523.46L156.31 523.11L156.41 522.76L156.51 522.41L156.63 522.06L156.75 521.71L156.89 521.35L157.03 521L157.19 520.65L157.36 520.29L157.53 519.94L157.72 519.59L157.92 519.23L158.13 518.88L158.35 518.53L158.58 518.18L158.82 517.83L159.07 517.48L159.33 517.13L159.61 516.78L159.89 516.44L194.06 475.32L188.15 475.32L186.79 475.29L185.44 475.21L184.11 475.07L182.79 474.89L181.5 474.65L180.22 474.36L178.96 474.02L177.72 473.63L176.5 473.2L175.3 472.72L174.13 472.2L172.98 471.63L171.85 471.02L170.76 470.36L169.69 469.67L168.65 468.94L167.64 468.17L166.66 467.36L165.71 466.51L164.8 465.63L163.92 464.72L163.07 463.77L162.27 462.79L161.49 461.78L160.76 460.74L160.07 459.67L159.42 458.58L158.8 457.45L158.24 456.31L157.71 455.13L157.23 453.94L156.8 452.72L156.41 451.48L156.07 450.22L155.78 448.94L155.55 447.64L155.36 446.32L155.22 444.99L155.14 443.65L155.11 442.29L155.11 162.31L155.14 160.96L155.22 159.61L155.36 158.28L155.55 156.96L155.78 155.67L156.07 154.39L156.41 153.13L156.8 151.89L157.23 150.67L157.71 149.47L158.24 148.3L158.8 147.15L159.42 146.02L160.07 144.93L160.76 143.86L161.49 142.82L162.27 141.81L163.07 140.83L163.92 139.88L164.8 138.97L165.71 138.09L166.66 137.24L167.64 136.44L168.65 135.66L169.69 134.93L170.76 134.24L171.85 133.59L172.98 132.97L174.13 132.41L175.3 131.88L176.5 131.4L177.72 130.97L178.96 130.58L180.22 130.24L181.5 129.95L182.79 129.72L184.11 129.53L185.44 129.39L186.79 129.31L188.15 129.28L226.41 129.28L226.41 121.51L226.43 120.85L226.47 120.2L226.53 119.56L226.62 118.92L226.74 118.29L226.88 117.67L227.04 117.06L227.23 116.46L227.44 115.87L227.67 115.29L227.93 114.72L228.2 114.16L228.5 113.62L228.82 113.08L229.15 112.57L229.51 112.06L229.88 111.57L230.27 111.1L230.68 110.64L231.11 110.2L231.55 109.77L232.01 109.36L232.48 108.97L232.97 108.59L233.48 108.24L234 107.9L234.53 107.59L235.07 107.29L235.63 107.01L236.2 106.76L236.78 106.53L237.37 106.32L237.97 106.13L238.58 105.97L239.2 105.83L239.83 105.71L240.47 105.62L241.11 105.55L241.76 105.51L242.42 105.5L391.96 105.5L392.62 105.51L393.27 105.55ZM168.38 523.5L168.34 523.55L168.3 523.61L168.25 523.66L168.21 523.72L168.17 523.77L168.13 523.82L168.09 523.87L168.05 523.92L168.01 523.97L167.98 524.02L167.94 524.07L167.9 524.12L167.87 524.17L167.84 524.21L167.8 524.26L167.77 524.31L167.74 524.35L167.71 524.4L167.68 524.44L167.65 524.49L167.62 524.53L167.6 524.57L167.57 524.61L167.54 524.66L167.52 524.7L167.49 524.74L167.47 524.78L167.45 524.82L167.43 524.86L167.4 524.89L167.38 524.93L167.36 524.97L167.34 525L167.32 525.04L167.31 525.07L167.29 525.11L167.27 525.14L167.25 525.17L167.24 525.21L167.22 525.24L167.26 525.25L167.29 525.25L167.33 525.26L167.36 525.27L167.4 525.28L167.44 525.29L167.48 525.3L167.52 525.3L167.56 525.31L167.6 525.32L167.65 525.33L167.69 525.33L167.73 525.34L167.78 525.35L167.83 525.36L167.87 525.36L167.92 525.37L167.97 525.38L168.02 525.38L168.07 525.39L168.13 525.39L168.18 525.4L168.23 525.4L168.29 525.41L168.34 525.41L168.4 525.42L168.46 525.42L168.52 525.43L168.58 525.43L168.64 525.44L168.7 525.44L168.76 525.44L168.83 525.44L168.89 525.45L168.96 525.45L169.02 525.45L169.09 525.45L169.16 525.45L169.23 525.45L169.3 525.45L219.17 525.45L219.48 525.45L219.79 525.43L220.1 525.4L220.42 525.36L220.75 525.3L221.09 525.24L221.43 525.16L221.78 525.07L222.13 524.97L222.5 524.86L222.86 524.73L223.24 524.59L223.62 524.45L224.01 524.28L224.4 524.11L224.8 523.93L225.21 523.73L225.62 523.52L226.04 523.3L226.47 523.07L226.9 522.82L227.34 522.57L227.79 522.3L228.24 522.02L228.7 521.72L229.17 521.42L229.64 521.1L230.12 520.78L230.6 520.44L231.09 520.08L231.59 519.72L232.1 519.34L232.61 518.96L233.13 518.56L233.65 518.15L234.18 517.72L234.72 517.29L235.26 516.84L235.81 516.38L236.37 515.91L261.67 475.32L208.42 475.32L168.38 523.5ZM398.01 515.91L398.26 516.29L398.52 516.66L398.81 517.04L399.1 517.41L399.42 517.78L399.74 518.14L400.09 518.5L400.44 518.85L400.81 519.2L401.19 519.54L401.59 519.88L401.99 520.21L402.41 520.53L402.83 520.85L403.27 521.16L403.71 521.46L404.16 521.76L404.62 522.04L405.08 522.32L405.55 522.59L406.03 522.84L406.51 523.09L406.99 523.33L407.48 523.56L407.97 523.77L408.46 523.98L408.96 524.17L409.45 524.35L409.95 524.52L410.44 524.68L410.93 524.82L411.43 524.95L411.91 525.06L412.4 525.16L412.88 525.25L413.36 525.32L413.83 525.38L414.3 525.42L414.76 525.44L415.21 525.45L465.08 525.45L465.15 525.45L465.22 525.45L465.29 525.45L465.36 525.45L465.43 525.45L465.49 525.44L465.56 525.44L465.62 525.44L465.68 525.44L465.75 525.43L465.81 525.43L465.87 525.43L465.93 525.42L465.98 525.42L466.04 525.41L466.1 525.41L466.15 525.4L466.21 525.4L466.26 525.39L466.31 525.39L466.36 525.38L466.41 525.37L466.46 525.37L466.51 525.36L466.56 525.35L466.6 525.35L466.65 525.34L466.7 525.33L466.74 525.32L466.78 525.32L466.82 525.31L466.86 525.3L466.9 525.29L466.94 525.29L466.98 525.28L467.02 525.27L467.06 525.26L467.09 525.25L467.13 525.24L467.16 525.24L467.15 525.21L467.14 525.19L467.13 525.17L467.11 525.14L467.1 525.12L467.08 525.09L467.07 525.06L467.05 525.03L467.03 525L467.01 524.97L466.99 524.94L466.97 524.9L466.95 524.87L466.93 524.83L466.91 524.8L466.88 524.76L466.86 524.72L466.83 524.68L466.8 524.64L466.77 524.59L466.74 524.55L466.71 524.5L466.68 524.46L466.65 524.41L466.62 524.36L466.58 524.31L466.55 524.26L466.51 524.21L466.47 524.16L466.43 524.1L466.4 524.05L466.36 523.99L466.31 523.93L466.27 523.87L466.23 523.81L466.19 523.75L466.14 523.69L466.1 523.63L466.05 523.56L466 523.5L425.96 475.32L372.72 475.32L398.01 515.91ZM187.24 140.35L186.34 140.4L185.46 140.49L184.58 140.62L183.72 140.78L182.87 140.97L182.03 141.2L181.2 141.45L180.39 141.74L179.6 142.06L178.82 142.41L178.05 142.79L177.3 143.19L176.57 143.63L175.86 144.09L175.17 144.58L174.5 145.09L173.85 145.63L173.22 146.19L172.61 146.78L172.02 147.39L171.46 148.02L170.92 148.67L170.41 149.34L169.92 150.03L169.46 150.74L169.02 151.47L168.62 152.22L168.24 152.98L167.89 153.77L167.57 154.56L167.28 155.37L167.03 156.2L166.8 157.04L166.61 157.89L166.45 158.75L166.32 159.63L166.23 160.51L166.18 161.41L166.16 162.31L166.16 442.29L166.18 443.19L166.23 444.09L166.32 444.97L166.45 445.85L166.61 446.71L166.8 447.56L167.03 448.4L167.28 449.23L167.57 450.04L167.89 450.84L168.24 451.62L168.62 452.38L169.02 453.13L169.46 453.86L169.92 454.57L170.41 455.26L170.92 455.93L171.46 456.59L172.02 457.22L172.61 457.82L173.22 458.41L173.85 458.97L174.5 459.51L175.17 460.02L175.86 460.51L176.57 460.97L177.3 461.41L178.05 461.81L178.81 462.19L179.6 462.54L180.39 462.86L181.2 463.15L182.03 463.41L182.87 463.63L183.72 463.82L184.58 463.98L185.46 464.11L186.34 464.2L187.24 464.25L188.14 464.27L446.24 464.27L447.15 464.25L448.04 464.2L448.93 464.11L449.8 463.98L450.67 463.82L451.52 463.63L452.36 463.41L453.18 463.15L453.99 462.86L454.79 462.54L455.57 462.19L456.34 461.81L457.08 461.41L457.81 460.97L458.52 460.51L459.22 460.02L459.89 459.51L460.54 458.97L461.17 458.41L461.78 457.82L462.36 457.22L462.93 456.59L463.46 455.93L463.98 455.26L464.47 454.57L464.93 453.86L465.36 453.13L465.77 452.38L466.15 451.62L466.49 450.84L466.81 450.04L467.1 449.23L467.36 448.4L467.58 447.56L467.78 446.71L467.94 445.85L468.06 444.97L468.15 444.09L468.21 443.19L468.22 442.29L468.22 162.31L468.21 161.41L468.15 160.51L468.06 159.63L467.94 158.75L467.78 157.89L467.58 157.04L467.36 156.2L467.1 155.37L466.81 154.56L466.49 153.77L466.15 152.98L465.77 152.22L465.36 151.47L464.93 150.74L464.47 150.03L463.98 149.34L463.46 148.67L462.93 148.02L462.36 147.39L461.78 146.78L461.17 146.19L460.54 145.63L459.89 145.09L459.22 144.58L458.52 144.09L457.81 143.63L457.08 143.19L456.34 142.79L455.57 142.41L454.79 142.06L453.99 141.74L453.18 141.45L452.36 141.2L451.52 140.97L450.67 140.78L449.8 140.62L448.93 140.49L448.04 140.4L447.15 140.35L446.24 140.33L188.15 140.33L187.24 140.35ZM242.29 116.55L242.15 116.56L242.02 116.58L241.88 116.6L241.75 116.63L241.61 116.66L241.48 116.7L241.35 116.75L241.22 116.8L241.09 116.86L240.96 116.92L240.83 116.99L240.7 117.07L240.57 117.16L240.44 117.25L240.32 117.34L240.19 117.44L240.06 117.55L239.94 117.67L239.81 117.79L239.69 117.92L239.57 118.05L239.45 118.19L239.32 118.34L239.2 118.49L239.08 118.65L238.96 118.81L238.84 118.98L238.72 119.16L238.61 119.34L238.49 119.53L238.37 119.73L238.26 119.93L238.14 120.13L238.03 120.35L237.91 120.57L237.8 120.8L237.68 121.03L237.57 121.27L237.46 121.51L237.46 129.28L396.92 129.28L396.92 121.51L396.92 121.31L396.91 121.11L396.89 120.91L396.86 120.71L396.82 120.51L396.78 120.32L396.73 120.13L396.67 119.95L396.6 119.76L396.53 119.58L396.45 119.41L396.37 119.23L396.28 119.06L396.18 118.9L396.07 118.74L395.96 118.58L395.85 118.43L395.73 118.28L395.6 118.14L395.47 118L395.33 117.87L395.19 117.74L395.04 117.62L394.89 117.51L394.73 117.4L394.57 117.29L394.41 117.19L394.24 117.1L394.07 117.02L393.89 116.94L393.71 116.87L393.53 116.8L393.34 116.74L393.15 116.69L392.96 116.65L392.77 116.61L392.57 116.58L392.37 116.56L392.17 116.55L391.96 116.55L242.42 116.55L242.29 116.55Z" id="b8jjhcv5CO"></path><path d="M425.73 163.53L426.62 163.63L427.5 163.75L428.37 163.91L429.23 164.11L430.08 164.33L430.91 164.59L431.73 164.88L432.53 165.21L433.32 165.56L434.09 165.94L434.84 166.35L435.58 166.79L436.3 167.25L437 167.74L437.67 168.26L438.33 168.8L438.97 169.37L439.58 169.96L440.17 170.58L440.74 171.21L441.28 171.87L441.8 172.55L442.29 173.24L442.75 173.96L443.19 174.7L443.6 175.45L443.98 176.22L444.34 177.01L444.66 177.81L444.95 178.63L445.21 179.46L445.43 180.31L445.63 181.17L445.79 182.04L445.92 182.92L446.01 183.82L446.06 184.72L446.08 185.63L446.08 314.91L446.06 315.82L446.01 316.73L445.92 317.62L445.79 318.5L445.63 319.37L445.43 320.23L445.21 321.08L444.95 321.91L444.66 322.73L444.34 323.53L443.98 324.32L443.6 325.09L443.19 325.85L442.75 326.58L442.29 327.3L441.8 328L441.28 328.67L440.74 329.33L440.17 329.97L439.58 330.58L438.97 331.17L438.33 331.74L437.67 332.28L437 332.8L436.3 333.29L435.58 333.76L434.84 334.19L434.09 334.6L433.32 334.99L432.53 335.34L431.73 335.66L430.91 335.95L430.08 336.21L429.23 336.44L428.37 336.63L427.5 336.79L426.62 336.92L425.73 337.01L424.82 337.06L423.91 337.08L210.47 337.08L209.56 337.06L208.66 337.01L207.77 336.92L206.88 336.79L206.01 336.63L205.15 336.44L204.31 336.21L203.47 335.95L202.66 335.66L201.85 335.34L201.07 334.99L200.29 334.6L199.54 334.19L198.8 333.76L198.09 333.29L197.39 332.8L196.71 332.28L196.05 331.74L195.42 331.17L194.8 330.58L194.21 329.97L193.65 329.33L193.1 328.67L192.59 328L192.1 327.3L191.63 326.58L191.19 325.85L190.78 325.09L190.4 324.32L190.05 323.53L189.73 322.73L189.44 321.91L189.18 321.08L188.95 320.23L188.75 319.37L188.59 318.5L188.47 317.62L188.38 316.73L188.32 315.82L188.3 314.91L188.3 185.63L188.32 184.72L188.38 183.81L188.47 182.92L188.59 182.04L188.75 181.17L188.95 180.31L189.18 179.46L189.44 178.63L189.73 177.81L190.05 177.01L190.4 176.22L190.78 175.45L191.19 174.7L191.63 173.96L192.1 173.24L192.59 172.55L193.1 171.87L193.65 171.21L194.21 170.58L194.8 169.96L195.42 169.37L196.05 168.8L196.71 168.26L197.39 167.74L198.09 167.25L198.8 166.79L199.54 166.35L200.29 165.94L201.07 165.56L201.85 165.21L202.66 164.88L203.47 164.59L204.31 164.33L205.15 164.11L206.01 163.91L206.88 163.75L207.77 163.63L208.66 163.53L209.56 163.48L210.47 163.46L423.91 163.46L424.82 163.48L425.73 163.53ZM210.02 174.52L209.56 174.55L209.11 174.59L208.67 174.66L208.24 174.74L207.8 174.83L207.38 174.95L206.96 175.08L206.55 175.22L206.15 175.39L205.75 175.56L205.37 175.75L204.99 175.96L204.62 176.18L204.26 176.41L203.91 176.66L203.57 176.92L203.24 177.19L202.92 177.48L202.61 177.77L202.32 178.08L202.03 178.4L201.76 178.73L201.5 179.07L201.25 179.42L201.02 179.78L200.8 180.15L200.6 180.52L200.4 180.91L200.23 181.31L200.07 181.71L199.92 182.12L199.79 182.54L199.68 182.96L199.58 183.39L199.5 183.83L199.43 184.27L199.39 184.72L199.36 185.17L199.35 185.63L199.35 314.91L199.36 315.37L199.39 315.82L199.43 316.27L199.5 316.71L199.58 317.15L199.68 317.58L199.79 318.01L199.92 318.42L200.07 318.83L200.23 319.24L200.4 319.63L200.6 320.02L200.8 320.4L201.02 320.77L201.25 321.13L201.5 321.48L201.76 321.82L202.03 322.15L202.32 322.46L202.61 322.77L202.92 323.07L203.24 323.35L203.57 323.63L203.91 323.88L204.26 324.13L204.62 324.36L204.99 324.58L205.37 324.79L205.75 324.98L206.15 325.16L206.55 325.32L206.96 325.47L207.38 325.6L207.8 325.71L208.24 325.81L208.67 325.89L209.11 325.95L209.56 326L210.02 326.02L210.47 326.03L423.91 326.03L424.22 326.03L424.52 326.01L424.82 325.97L425.12 325.92L425.42 325.86L425.72 325.78L426.02 325.69L426.32 325.59L426.61 325.47L426.9 325.34L427.2 325.19L427.49 325.03L427.77 324.86L428.06 324.67L428.35 324.47L428.63 324.25L428.92 324.02L429.2 323.78L429.48 323.52L429.76 323.25L430.03 322.97L430.31 322.67L430.58 322.36L430.86 322.03L431.13 321.69L431.4 321.33L431.67 320.97L431.93 320.58L432.2 320.19L432.47 319.78L432.73 319.35L432.99 318.92L433.25 318.46L433.51 318L433.77 317.52L434.02 317.03L434.28 316.52L434.53 316L434.78 315.46L435.03 314.91L435.03 185.63L435.02 185.17L434.99 184.72L434.95 184.27L434.89 183.83L434.81 183.39L434.71 182.96L434.59 182.54L434.46 182.12L434.32 181.71L434.16 181.31L433.98 180.91L433.79 180.53L433.58 180.15L433.36 179.78L433.13 179.42L432.88 179.07L432.62 178.73L432.35 178.4L432.07 178.08L431.77 177.77L431.46 177.48L431.14 177.19L430.81 176.92L430.47 176.66L430.12 176.41L429.76 176.18L429.39 175.96L429.02 175.75L428.63 175.56L428.23 175.39L427.83 175.22L427.42 175.08L427 174.95L426.58 174.83L426.15 174.74L425.71 174.66L425.27 174.59L424.82 174.55L424.37 174.52L423.91 174.51L210.47 174.51L210.02 174.52Z" id="anwbojFqb"></path><path d="M244.15 368.55L245.51 368.69L246.85 368.88L248.18 369.13L249.49 369.42L250.78 369.77L252.05 370.16L253.29 370.61L254.51 371.1L255.71 371.63L256.89 372.21L258.04 372.84L259.16 373.5L260.25 374.21L261.31 374.96L262.35 375.75L263.35 376.58L264.31 377.44L265.25 378.34L266.15 379.27L267.01 380.24L267.84 381.24L268.63 382.28L269.38 383.34L270.08 384.43L270.75 385.55L271.38 386.7L271.96 387.87L272.49 389.07L272.98 390.3L273.43 391.54L273.82 392.81L274.17 394.1L274.46 395.41L274.71 396.73L274.9 398.08L275.04 399.44L275.12 400.82L275.15 402.2L275.12 403.59L275.04 404.97L274.9 406.33L274.71 407.68L274.46 409L274.17 410.31L273.82 411.6L273.43 412.87L272.98 414.11L272.49 415.34L271.96 416.54L271.38 417.71L270.75 418.86L270.08 419.98L269.38 421.07L268.63 422.13L267.84 423.17L267.01 424.17L266.15 425.14L265.25 426.07L264.31 426.97L263.35 427.83L262.35 428.66L261.31 429.45L260.25 430.2L259.16 430.91L258.04 431.57L256.89 432.2L255.71 432.78L254.51 433.31L253.29 433.8L252.04 434.25L250.78 434.64L249.49 434.99L248.18 435.28L246.85 435.53L245.51 435.72L244.15 435.86L242.77 435.94L241.38 435.97L239.99 435.94L238.62 435.86L237.26 435.72L235.91 435.53L234.59 435.28L233.28 434.99L231.99 434.64L230.72 434.25L229.48 433.8L228.25 433.31L227.05 432.78L225.88 432.2L224.73 431.57L223.61 430.91L222.52 430.2L221.45 429.45L220.42 428.66L219.42 427.83L218.45 426.97L217.52 426.07L216.62 425.14L215.75 424.17L214.93 423.17L214.14 422.13L213.39 421.07L212.68 419.98L212.02 418.86L211.39 417.71L210.81 416.54L210.27 415.34L209.78 414.11L209.34 412.87L208.95 411.6L208.6 410.31L208.3 409L208.06 407.68L207.87 406.33L207.73 404.97L207.64 403.59L207.62 402.2L207.64 400.82L207.73 399.44L207.87 398.08L208.06 396.73L208.3 395.41L208.6 394.1L208.95 392.81L209.34 391.54L209.78 390.3L210.27 389.07L210.81 387.87L211.39 386.7L212.02 385.55L212.68 384.43L213.39 383.34L214.14 382.28L214.93 381.24L215.75 380.24L216.62 379.27L217.52 378.34L218.45 377.44L219.42 376.58L220.42 375.75L221.45 374.96L222.52 374.21L223.61 373.5L224.73 372.84L225.88 372.21L227.05 371.63L228.25 371.1L229.48 370.61L230.72 370.16L231.99 369.77L233.28 369.42L234.59 369.13L235.91 368.88L237.26 368.69L238.62 368.55L239.99 368.47L241.38 368.44L242.77 368.47L244.15 368.55ZM238.74 379.64L237.45 379.83L236.18 380.09L234.94 380.42L233.73 380.81L232.55 381.27L231.4 381.8L230.29 382.38L229.21 383.03L228.18 383.73L227.18 384.48L226.23 385.29L225.33 386.15L224.47 387.05L223.66 388L222.91 389L222.21 390.03L221.56 391.11L220.98 392.22L220.45 393.37L219.99 394.55L219.6 395.76L219.27 397L219.01 398.27L218.82 399.56L218.7 400.87L218.67 402.2L218.7 403.54L218.82 404.85L219.01 406.14L219.27 407.41L219.6 408.65L219.99 409.86L220.45 411.04L220.98 412.19L221.56 413.3L222.21 414.37L222.91 415.41L223.66 416.4L224.47 417.36L225.33 418.26L226.23 419.12L227.18 419.92L228.18 420.68L229.21 421.38L230.29 422.02L231.4 422.61L232.55 423.13L233.73 423.6L234.94 423.99L236.18 424.32L237.45 424.58L238.74 424.77L240.05 424.88L241.38 424.92L242.72 424.88L244.03 424.77L245.32 424.58L246.59 424.32L247.83 423.99L249.04 423.6L250.22 423.13L251.37 422.61L252.48 422.02L253.55 421.38L254.59 420.68L255.58 419.92L256.53 419.12L257.44 418.26L258.3 417.36L259.1 416.4L259.86 415.41L260.56 414.37L261.2 413.3L261.79 412.19L262.31 411.04L262.77 409.86L263.17 408.65L263.5 407.41L263.76 406.14L263.95 404.85L264.06 403.54L264.1 402.2L264.06 400.87L263.95 399.56L263.76 398.27L263.5 397L263.17 395.76L262.77 394.55L262.31 393.37L261.79 392.22L261.2 391.11L260.56 390.03L259.86 389L259.1 388L258.3 387.05L257.44 386.15L256.53 385.29L255.58 384.48L254.59 383.73L253.55 383.03L252.48 382.38L251.37 381.8L250.22 381.27L249.04 380.81L247.83 380.42L246.59 380.09L245.32 379.83L244.03 379.64L242.72 379.52L241.38 379.49L240.05 379.52L238.74 379.64Z" id="a5pq2yySo"></path><path d="M395.77 368.55L397.13 368.69L398.47 368.88L399.8 369.13L401.1 369.42L402.39 369.77L403.66 370.16L404.91 370.61L406.13 371.1L407.33 371.63L408.5 372.21L409.65 372.84L410.77 373.5L411.87 374.21L412.93 374.96L413.96 375.75L414.96 376.58L415.93 377.44L416.87 378.34L417.77 379.27L418.63 380.24L419.46 381.24L420.24 382.28L420.99 383.34L421.7 384.43L422.37 385.55L422.99 386.7L423.57 387.87L424.11 389.07L424.6 390.3L425.04 391.54L425.44 392.81L425.78 394.1L426.08 395.41L426.32 396.73L426.52 398.08L426.65 399.44L426.74 400.82L426.77 402.2L426.74 403.59L426.65 404.97L426.52 406.33L426.32 407.68L426.08 409L425.78 410.31L425.44 411.6L425.04 412.87L424.6 414.11L424.11 415.34L423.57 416.54L422.99 417.71L422.37 418.86L421.7 419.98L420.99 421.07L420.24 422.13L419.46 423.17L418.63 424.17L417.77 425.14L416.87 426.07L415.93 426.97L414.96 427.83L413.96 428.66L412.93 429.45L411.87 430.2L410.77 430.91L409.65 431.57L408.5 432.2L407.33 432.78L406.13 433.31L404.91 433.8L403.66 434.25L402.39 434.64L401.1 434.99L399.8 435.28L398.47 435.53L397.13 435.72L395.77 435.86L394.39 435.94L393 435.97L391.61 435.94L390.23 435.86L388.87 435.72L387.53 435.53L386.2 435.28L384.9 434.99L383.61 434.64L382.34 434.25L381.09 433.8L379.87 433.31L378.67 432.78L377.5 432.2L376.35 431.57L375.23 430.91L374.13 430.2L373.07 429.45L372.04 428.66L371.04 427.83L370.07 426.97L369.13 426.07L368.24 425.14L367.37 424.17L366.55 423.17L365.76 422.13L365.01 421.07L364.3 419.98L363.63 418.86L363.01 417.71L362.43 416.54L361.89 415.34L361.4 414.11L360.96 412.87L360.56 411.6L360.22 410.31L359.92 409L359.68 407.68L359.48 406.33L359.35 404.97L359.26 403.59L359.23 402.2L359.26 400.82L359.35 399.44L359.48 398.08L359.68 396.73L359.92 395.41L360.22 394.1L360.56 392.81L360.96 391.54L361.4 390.3L361.89 389.07L362.43 387.87L363.01 386.7L363.63 385.55L364.3 384.43L365.01 383.34L365.76 382.28L366.55 381.24L367.37 380.24L368.24 379.27L369.13 378.34L370.07 377.44L371.04 376.58L372.04 375.75L373.07 374.96L374.13 374.21L375.23 373.5L376.35 372.84L377.5 372.21L378.67 371.63L379.87 371.1L381.09 370.61L382.34 370.16L383.61 369.77L384.9 369.42L386.2 369.13L387.53 368.88L388.87 368.69L390.23 368.55L391.61 368.47L393 368.44L394.39 368.47L395.77 368.55ZM390.35 379.64L389.06 379.83L387.8 380.09L386.56 380.42L385.35 380.81L384.17 381.27L383.02 381.8L381.91 382.38L380.83 383.03L379.79 383.73L378.8 384.48L377.85 385.29L376.94 386.15L376.09 387.05L375.28 388L374.52 389L373.82 390.03L373.18 391.11L372.6 392.22L372.07 393.37L371.61 394.55L371.21 395.76L370.88 397L370.62 398.27L370.44 399.56L370.32 400.87L370.28 402.2L370.32 403.54L370.44 404.85L370.62 406.14L370.88 407.41L371.21 408.65L371.61 409.86L372.07 411.04L372.6 412.19L373.18 413.3L373.82 414.37L374.52 415.41L375.28 416.4L376.09 417.36L376.94 418.26L377.85 419.12L378.8 419.92L379.79 420.68L380.83 421.38L381.91 422.02L383.02 422.61L384.17 423.13L385.35 423.6L386.56 423.99L387.8 424.32L389.06 424.58L390.35 424.77L391.67 424.88L393 424.92L394.33 424.88L395.65 424.77L396.94 424.58L398.2 424.32L399.44 423.99L400.65 423.6L401.83 423.13L402.98 422.61L404.09 422.02L405.17 421.38L406.21 420.68L407.2 419.92L408.15 419.12L409.06 418.26L409.91 417.36L410.72 416.4L411.48 415.41L412.18 414.37L412.82 413.3L413.41 412.19L413.93 411.04L414.39 409.86L414.79 408.65L415.12 407.41L415.38 406.14L415.57 404.85L415.68 403.54L415.72 402.2L415.68 400.87L415.57 399.56L415.38 398.27L415.12 397L414.79 395.76L414.39 394.55L413.93 393.37L413.41 392.22L412.82 391.11L412.18 390.03L411.48 389L410.72 388L409.91 387.05L409.06 386.15L408.15 385.29L407.2 384.48L406.21 383.73L405.17 383.03L404.09 382.38L402.98 381.8L401.83 381.27L400.65 380.81L399.44 380.42L398.2 380.09L396.94 379.83L395.65 379.64L394.33 379.52L393 379.49L391.67 379.52L390.35 379.64Z" id="iakSibAUr"></path></defs><g><g><g><use xlink:href="#dd4Kq45f" opacity="1" fill="#ff0871" fill-opacity="1"></use><g><use xlink:href="#dd4Kq45f" opacity="1" fill-opacity="0" stroke="#000000" stroke-width="1" stroke-opacity="0"></use></g></g><g><use xlink:href="#b8jjhcv5CO" opacity="1" fill="#ffffff" fill-opacity="1"></use><g><use xlink:href="#b8jjhcv5CO" opacity="1" fill-opacity="0" stroke="#000000" stroke-width="1" stroke-opacity="0"></use></g></g><g><use xlink:href="#anwbojFqb" opacity="1" fill="#ffffff" fill-opacity="1"></use><g><use xlink:href="#anwbojFqb" opacity="1" fill-opacity="0" stroke="#000000" stroke-width="1" stroke-opacity="0"></use></g></g><g><use xlink:href="#a5pq2yySo" opacity="1" fill="#ffffff" fill-opacity="1"></use><g><use xlink:href="#a5pq2yySo" opacity="1" fill-opacity="0" stroke="#000000" stroke-width="1" stroke-opacity="0"></use></g></g><g><use xlink:href="#iakSibAUr" opacity="1" fill="#ffffff" fill-opacity="1"></use><g><use xlink:href="#iakSibAUr" opacity="1" fill-opacity="0" stroke="#000000" stroke-width="1" stroke-opacity="0"></use></g></g></g></g></svg>
