<?xml version="1.0" encoding="UTF-8" standalone="no"?>
<!DOCTYPE svg PUBLIC "-//W3C//DTD SVG 1.1//EN" "http://www.w3.org/Graphics/SVG/1.1/DTD/svg11.dtd">
<svg version="1.1" xmlns="http://www.w3.org/2000/svg" xmlns:xlink="http://www.w3.org/1999/xlink" preserveAspectRatio="xMidYMid meet" viewBox="0 0 640 640" width="512" height="512"><defs><path d="M480.64 42.92C431.6 14.3 378.07 0 320.01 0C261.95 0 208.41 14.3 159.38 42.92C110.35 71.53 71.54 110.34 42.92 159.37C14.3 208.4 0 261.95 0 320C0 378.06 14.31 431.59 42.92 480.63C71.53 529.65 110.35 568.47 159.38 597.08C208.41 625.69 261.95 640 320 640C378.06 640 431.61 625.69 480.63 597.08C529.66 568.48 568.48 529.65 597.09 480.63C625.7 431.6 640 378.05 640 320C640 261.94 625.7 208.4 597.09 159.37C568.48 110.35 529.66 71.53 480.64 42.92Z" id="a1lAOeqWm0"></path><path d="M381.48 148.76L381.83 148.79L382.18 148.84L382.53 148.91L382.87 148.99L383.21 149.08L383.54 149.18L383.87 149.3L384.19 149.42L384.5 149.57L384.81 149.72L385.11 149.88L385.4 150.06L385.69 150.24L385.97 150.44L386.24 150.65L386.5 150.86L386.75 151.09L387 151.32L387.24 151.57L387.46 151.82L387.68 152.09L387.89 152.36L388.08 152.63L388.27 152.92L388.44 153.21L388.61 153.51L388.76 153.82L388.9 154.14L389.03 154.46L389.14 154.78L389.25 155.11L389.34 155.45L389.42 155.79L389.48 156.14L389.53 156.49L389.57 156.85L389.59 157.21L389.6 157.57L389.6 272.5L389.59 272.86L389.57 273.22L389.53 273.58L389.48 273.93L389.42 274.28L389.34 274.62L389.25 274.95L389.14 275.29L389.03 275.61L388.9 275.93L388.76 276.25L388.61 276.55L388.44 276.85L388.27 277.15L388.08 277.43L387.89 277.71L387.68 277.98L387.46 278.24L387.24 278.5L387 278.74L386.75 278.98L386.5 279.21L386.24 279.42L385.97 279.63L385.69 279.83L385.4 280.01L385.11 280.19L384.81 280.35L384.5 280.5L384.19 280.64L383.87 280.77L383.54 280.89L383.21 280.99L382.87 281.08L382.53 281.16L382.18 281.22L381.83 281.27L381.48 281.31L381.12 281.33L380.76 281.34L221.62 281.34L221.26 281.33L220.9 281.31L220.54 281.27L220.19 281.22L219.84 281.16L219.5 281.08L219.16 280.99L218.83 280.89L218.51 280.77L218.19 280.64L217.87 280.5L217.56 280.35L217.26 280.19L216.97 280.01L216.68 279.83L216.41 279.63L216.14 279.42L215.87 279.21L215.62 278.98L215.37 278.74L215.14 278.5L214.91 278.24L214.7 277.98L214.49 277.71L214.29 277.43L214.11 277.15L213.93 276.85L213.77 276.55L213.62 276.25L213.48 275.93L213.35 275.61L213.23 275.29L213.13 274.95L213.04 274.62L212.96 274.28L212.89 273.93L212.84 273.58L212.81 273.22L212.79 272.86L212.78 272.5L212.78 157.57L212.79 157.21L212.81 156.85L212.84 156.49L212.89 156.14L212.96 155.79L213.04 155.45L213.13 155.11L213.23 154.78L213.35 154.46L213.48 154.14L213.62 153.82L213.77 153.51L213.93 153.21L214.11 152.92L214.29 152.63L214.49 152.36L214.7 152.09L214.91 151.82L215.14 151.57L215.37 151.32L215.62 151.09L215.87 150.86L216.14 150.65L216.41 150.44L216.68 150.24L216.97 150.06L217.26 149.88L217.56 149.72L217.87 149.57L218.19 149.42L218.51 149.3L218.83 149.18L219.16 149.08L219.5 148.99L219.84 148.91L220.19 148.84L220.54 148.79L220.9 148.76L221.26 148.73L221.62 148.73L380.76 148.73L381.12 148.73L381.48 148.76ZM230.46 263.66L371.92 263.66L371.92 166.41L230.46 166.41L230.46 263.66Z" id="ac47qjgui"></path><path d="M150.89 511.2C146.03 511.2 142.05 515.18 142.05 520.04C142.05 524.9 146.03 528.88 150.89 528.88C180.95 528.88 421.42 528.88 451.48 528.88C456.35 528.88 460.32 524.9 460.32 520.04C460.32 515.18 456.35 511.2 451.48 511.2C391.37 511.2 180.95 511.2 150.89 511.2Z" id="b4reABH2t"></path><path d="M393.22 104.67L395 104.85L396.76 105.1L398.5 105.42L400.22 105.81L401.9 106.26L403.56 106.78L405.2 107.36L406.8 108L408.37 108.7L409.91 109.46L411.41 110.28L412.88 111.15L414.31 112.08L415.7 113.06L417.05 114.09L418.36 115.17L419.63 116.3L420.85 117.47L422.03 118.7L423.16 119.96L424.24 121.27L425.27 122.63L426.25 124.02L427.18 125.45L428.05 126.92L428.86 128.42L429.62 129.96L430.33 131.53L430.97 133.13L431.55 134.76L432.06 136.42L432.52 138.11L432.9 139.82L433.22 141.56L433.47 143.32L433.65 145.1L433.76 146.91L433.8 148.73L433.8 299.02L449.63 299.02L450.65 299.04L451.69 299.1L452.72 299.2L453.75 299.33L454.78 299.5L455.8 299.71L456.82 299.96L457.84 300.24L458.84 300.56L459.84 300.91L460.83 301.29L461.8 301.71L462.76 302.17L463.7 302.65L464.63 303.17L465.53 303.72L466.42 304.3L467.29 304.91L468.13 305.55L468.95 306.23L469.75 306.93L470.51 307.66L471.25 308.41L471.96 309.2L472.64 310.01L473.28 310.85L473.89 311.72L474.46 312.61L475 313.52L475.5 314.46L475.95 315.43L476.37 316.41L476.74 317.43L477.07 318.46L477.35 319.51L477.58 320.59L477.76 321.69L477.9 322.81L477.98 323.94L478 325.1L478 440.47L478.01 440.78L478.02 441.09L478.04 441.4L478.06 441.71L478.09 442.02L478.13 442.33L478.18 442.65L478.24 442.96L478.3 443.26L478.37 443.57L478.46 443.88L478.54 444.18L478.64 444.48L478.75 444.77L478.86 445.06L478.99 445.34L479.12 445.62L479.26 445.9L479.41 446.16L479.57 446.42L479.74 446.67L479.92 446.92L480.12 447.15L480.32 447.38L480.53 447.59L480.75 447.8L480.98 447.99L481.22 448.17L481.47 448.35L481.73 448.51L482.01 448.65L482.29 448.79L482.59 448.91L482.9 449.01L483.22 449.1L483.55 449.18L483.89 449.24L484.24 449.28L484.61 449.31L484.99 449.32L504.53 449.32L504.89 449.31L505.25 449.29L505.61 449.25L505.96 449.2L506.3 449.14L506.65 449.06L506.98 448.97L507.31 448.86L507.64 448.75L507.96 448.62L508.27 448.48L508.58 448.33L508.88 448.16L509.18 447.99L509.46 447.8L509.74 447.6L510.01 447.4L510.27 447.18L510.53 446.95L510.77 446.72L511.01 446.47L511.23 446.22L511.45 445.96L511.66 445.69L511.85 445.41L512.04 445.12L512.21 444.83L512.38 444.53L512.53 444.22L512.67 443.91L512.8 443.59L512.92 443.26L513.02 442.93L513.11 442.59L513.19 442.25L513.25 441.9L513.3 441.55L513.34 441.2L513.36 440.84L513.37 440.47L513.37 307.86L495.69 307.86L494.96 307.85L494.24 307.8L493.53 307.73L492.83 307.63L492.14 307.5L491.45 307.35L490.78 307.16L490.11 306.96L489.46 306.72L488.82 306.47L488.19 306.19L487.58 305.88L486.98 305.55L486.39 305.2L485.82 304.83L485.26 304.44L484.72 304.03L484.2 303.59L483.69 303.14L483.2 302.67L482.73 302.18L482.28 301.67L481.84 301.15L481.43 300.61L481.04 300.05L480.66 299.48L480.31 298.89L479.99 298.29L479.68 297.67L479.4 297.05L479.14 296.41L478.91 295.75L478.7 295.09L478.52 294.42L478.37 293.73L478.24 293.04L478.14 292.34L478.06 291.63L478.02 290.91L478.01 290.18L478.01 247.75L478.01 247.31L478.04 246.88L478.08 246.45L478.14 246.03L478.22 245.61L478.32 245.2L478.42 244.8L478.55 244.4L478.69 244.01L478.84 243.63L479.01 243.25L479.19 242.88L479.39 242.52L479.6 242.17L479.82 241.82L480.06 241.49L480.31 241.17L480.57 240.85L480.84 240.55L481.12 240.25L481.42 239.97L481.72 239.7L482.03 239.44L482.36 239.19L482.69 238.95L483.04 238.73L483.39 238.52L483.75 238.33L484.12 238.14L484.5 237.97L484.88 237.82L485.27 237.68L485.67 237.56L486.07 237.45L486.48 237.35L486.9 237.28L487.32 237.22L487.75 237.17L488.18 237.15L488.61 237.14L513.37 237.14L513.36 236.66L513.34 236.2L513.31 235.74L513.27 235.29L513.21 234.84L513.14 234.4L513.06 233.96L512.96 233.53L512.86 233.11L512.74 232.69L512.61 232.27L512.46 231.85L512.31 231.44L512.14 231.03L511.96 230.62L511.77 230.21L511.57 229.8L511.36 229.4L511.13 228.99L510.89 228.58L510.65 228.17L510.39 227.76L510.12 227.35L509.84 226.94L509.54 226.52L509.24 226.1L508.93 225.68L508.6 225.25L508.27 224.82L507.92 224.38L507.57 223.94L507.2 223.49L506.83 223.03L506.44 222.57L506.04 222.1L505.64 221.63L505.22 221.14L504.79 220.65L504.36 220.14L503.91 219.63L478.18 189.93L477.85 189.52L477.55 189.1L477.27 188.67L477.03 188.22L476.81 187.77L476.62 187.3L476.46 186.83L476.32 186.35L476.21 185.87L476.13 185.38L476.08 184.89L476.05 184.39L476.05 183.9L476.08 183.41L476.14 182.91L476.22 182.43L476.33 181.94L476.47 181.47L476.63 181L476.82 180.53L477.04 180.08L477.28 179.64L477.55 179.21L477.85 178.79L478.17 178.39L478.52 178.01L478.9 177.64L479.3 177.29L479.73 176.96L480.18 176.65L480.66 176.36L481.17 176.1L481.7 175.86L482.26 175.65L482.84 175.46L483.45 175.3L484.08 175.18L484.74 175.08L485.43 175.02L486.14 174.99L486.26 174.98L486.38 174.98L486.5 174.98L486.61 174.98L486.73 174.99L486.85 175L486.96 175.01L487.08 175.03L487.2 175.04L487.31 175.06L487.42 175.09L487.54 175.11L487.65 175.14L487.76 175.17L487.87 175.21L487.98 175.24L488.09 175.28L488.2 175.33L488.31 175.37L488.42 175.42L488.52 175.47L488.63 175.52L488.73 175.57L488.83 175.63L488.93 175.69L489.03 175.75L489.13 175.81L489.23 175.88L489.33 175.95L489.42 176.02L489.52 176.09L489.61 176.17L489.7 176.24L489.79 176.32L489.88 176.4L489.96 176.49L490.05 176.57L490.13 176.66L490.21 176.75L490.29 176.84L517.35 208.05L517.83 208.61L518.32 209.17L518.81 209.74L519.3 210.31L519.79 210.89L520.28 211.47L520.77 212.06L521.25 212.65L521.73 213.25L522.21 213.86L522.69 214.48L523.15 215.1L523.62 215.73L524.07 216.37L524.52 217.02L524.96 217.68L525.39 218.34L525.81 219.02L526.22 219.71L526.62 220.4L527.01 221.11L527.38 221.83L527.74 222.56L528.09 223.31L528.42 224.06L528.73 224.83L529.03 225.61L529.31 226.41L529.57 227.22L529.82 228.04L530.04 228.88L530.25 229.73L530.43 230.6L530.59 231.48L530.73 232.38L530.84 233.3L530.93 234.23L531 235.18L531.04 236.15L531.05 237.14L531.05 440.47L531.03 441.57L530.96 442.65L530.85 443.73L530.7 444.78L530.51 445.83L530.28 446.86L530.01 447.87L529.7 448.87L529.35 449.85L528.97 450.81L528.55 451.75L528.1 452.68L527.61 453.58L527.08 454.46L526.53 455.32L525.94 456.15L525.32 456.96L524.68 457.75L524 458.51L523.29 459.24L522.56 459.94L521.8 460.62L521.01 461.27L520.2 461.89L519.37 462.47L518.51 463.03L517.63 463.55L516.73 464.04L515.81 464.5L514.86 464.92L513.9 465.3L512.92 465.65L511.92 465.96L510.91 466.23L509.88 466.46L508.84 466.65L507.78 466.8L506.71 466.91L505.62 466.98L504.53 467L484.99 467L483.94 466.98L482.91 466.91L481.89 466.81L480.88 466.66L479.89 466.48L478.92 466.25L477.97 465.99L477.03 465.69L476.11 465.35L475.21 464.98L474.32 464.57L473.46 464.13L472.62 463.65L471.8 463.14L471.01 462.59L470.23 462.02L469.49 461.41L468.76 460.77L468.06 460.1L467.39 459.41L466.74 458.68L466.12 457.93L465.52 457.15L464.96 456.34L464.42 455.51L463.92 454.65L463.44 453.77L462.99 452.87L462.58 451.94L462.2 451L461.85 450.03L461.54 449.04L461.26 448.03L461.02 447L460.81 445.95L460.63 444.89L460.5 443.81L460.4 442.71L460.34 441.6L460.32 440.47L460.32 325.1L460.31 324.78L460.28 324.47L460.24 324.15L460.17 323.84L460.09 323.52L459.98 323.21L459.86 322.9L459.73 322.6L459.58 322.3L459.41 322L459.23 321.71L459.03 321.42L458.82 321.13L458.6 320.85L458.36 320.58L458.11 320.31L457.85 320.05L457.58 319.8L457.29 319.55L457 319.31L456.69 319.08L456.38 318.86L456.05 318.64L455.72 318.44L455.38 318.24L455.03 318.06L454.68 317.88L454.32 317.72L453.95 317.56L453.57 317.42L453.19 317.29L452.81 317.17L452.42 317.06L452.03 316.97L451.63 316.89L451.24 316.82L450.84 316.77L450.43 316.73L450.03 316.71L449.63 316.7L433.8 316.7L433.8 492.9L433.79 493.55L433.75 494.18L433.68 494.77L433.59 495.33L433.47 495.86L433.33 496.36L433.16 496.83L432.96 497.28L432.74 497.7L432.5 498.09L432.23 498.46L431.93 498.81L431.61 499.13L431.27 499.43L430.91 499.72L430.52 499.97L430.1 500.21L429.67 500.44L429.21 500.64L428.73 500.82L428.23 500.99L427.7 501.15L427.15 501.29L426.58 501.41L425.99 501.52L425.38 501.62L424.75 501.71L424.09 501.79L423.42 501.86L422.72 501.91L422.01 501.96L421.27 502.01L420.52 502.04L419.75 502.07L418.95 502.1L418.14 502.12L417.31 502.14L416.46 502.16L415.59 502.17L414.7 502.18L414.22 502.19L413.72 502.2L413.21 502.2L412.7 502.21L412.18 502.22L411.64 502.22L411.1 502.23L410.56 502.24L410 502.24L409.44 502.25L408.87 502.25L408.29 502.26L407.7 502.27L407.11 502.27L406.51 502.28L405.91 502.28L405.29 502.29L404.67 502.29L404.04 502.3L403.41 502.3L402.77 502.31L402.13 502.31L401.47 502.32L400.82 502.32L400.15 502.33L399.48 502.33L398.81 502.33L398.13 502.34L397.44 502.34L396.75 502.34L396.06 502.35L395.36 502.35L394.65 502.35L393.94 502.35L393.23 502.36L392.51 502.36L391.79 502.36L391.06 502.36L390.33 502.36L389.6 502.36L212.78 502.36L212.05 502.36L211.33 502.36L210.6 502.36L209.89 502.36L209.17 502.36L208.46 502.35L207.76 502.35L207.05 502.35L206.35 502.35L205.66 502.34L204.97 502.34L204.29 502.34L203.61 502.34L202.93 502.33L202.26 502.33L201.6 502.32L200.94 502.32L200.29 502.31L199.64 502.31L199 502.3L198.36 502.3L197.73 502.29L197.11 502.29L196.5 502.28L195.89 502.28L195.29 502.27L194.69 502.27L194.1 502.26L193.52 502.25L192.95 502.25L192.38 502.24L191.83 502.24L191.28 502.23L190.74 502.22L190.2 502.22L189.68 502.21L189.16 502.2L188.66 502.2L188.16 502.19L187.67 502.18L186.78 502.16L185.92 502.14L185.07 502.12L184.24 502.1L183.42 502.07L182.63 502.05L181.86 502.01L181.1 501.97L180.37 501.93L179.65 501.88L178.96 501.82L178.28 501.75L177.63 501.67L177 501.58L176.38 501.48L175.79 501.37L175.22 501.25L174.68 501.11L174.15 500.96L173.65 500.79L173.17 500.61L172.71 500.41L172.27 500.19L171.86 499.95L171.47 499.69L171.1 499.41L170.76 499.11L170.44 498.79L170.15 498.45L169.88 498.08L169.63 497.69L169.41 497.27L169.22 496.82L169.05 496.35L168.91 495.85L168.79 495.32L168.69 494.76L168.63 494.17L168.59 493.55L168.57 492.9L168.57 148.73L168.61 146.91L168.72 145.1L168.9 143.32L169.15 141.56L169.47 139.82L169.86 138.11L170.31 136.42L170.83 134.76L171.41 133.13L172.05 131.53L172.75 129.96L173.51 128.42L174.33 126.92L175.2 125.45L176.13 124.02L177.11 122.63L178.14 121.27L179.22 119.96L180.35 118.7L181.53 117.47L182.75 116.3L184.02 115.17L185.33 114.09L186.68 113.06L188.07 112.08L189.5 111.15L190.97 110.28L192.47 109.46L194.01 108.7L195.58 108L197.18 107.36L198.81 106.78L200.47 106.26L202.16 105.81L203.87 105.42L205.61 105.1L207.37 104.85L209.15 104.67L210.96 104.56L212.78 104.52L389.6 104.52L391.42 104.56L393.22 104.67ZM211.68 122.23L210.6 122.29L209.53 122.4L208.47 122.55L207.43 122.74L206.4 122.97L205.38 123.24L204.38 123.55L203.4 123.9L202.44 124.29L201.5 124.7L200.58 125.16L199.68 125.65L198.8 126.17L197.94 126.73L197.1 127.31L196.29 127.93L195.51 128.58L194.75 129.26L194.01 129.96L193.31 130.7L192.63 131.46L191.98 132.24L191.37 133.05L190.78 133.89L190.22 134.74L189.7 135.62L189.21 136.53L188.76 137.45L188.34 138.39L187.95 139.35L187.61 140.33L187.3 141.33L187.03 142.34L186.79 143.37L186.6 144.42L186.45 145.48L186.34 146.55L186.28 147.63L186.26 148.73L186.26 484.5L186.7 484.51L187.15 484.52L187.62 484.52L188.1 484.53L188.59 484.53L189.09 484.54L189.6 484.55L190.13 484.55L190.66 484.56L191.21 484.57L191.77 484.57L192.34 484.58L192.92 484.58L193.51 484.59L194.11 484.6L194.73 484.6L195.35 484.61L195.99 484.61L196.64 484.62L197.3 484.62L197.97 484.63L198.65 484.63L199.34 484.64L200.04 484.64L200.76 484.65L201.48 484.65L202.22 484.65L202.97 484.66L203.73 484.66L204.49 484.66L205.27 484.67L206.07 484.67L206.87 484.67L207.68 484.67L208.5 484.67L209.34 484.68L210.18 484.68L211.04 484.68L211.9 484.68L212.78 484.68L389.6 484.68L390.19 484.68L390.78 484.68L391.38 484.68L391.98 484.68L392.58 484.68L393.19 484.67L393.8 484.67L394.42 484.67L395.04 484.67L395.66 484.67L396.29 484.67L396.92 484.66L397.56 484.66L398.2 484.66L398.84 484.65L399.48 484.65L400.13 484.65L400.79 484.64L401.45 484.64L402.11 484.63L402.77 484.63L403.44 484.63L404.11 484.62L404.79 484.62L405.47 484.61L406.15 484.6L406.84 484.6L407.53 484.59L408.23 484.59L408.93 484.58L409.63 484.57L410.33 484.57L411.04 484.56L411.76 484.55L412.48 484.54L413.2 484.54L413.92 484.53L414.65 484.52L415.38 484.51L416.12 484.5L416.12 148.73L416.1 147.63L416.03 146.55L415.92 145.48L415.77 144.42L415.58 143.37L415.35 142.34L415.08 141.33L414.77 140.33L414.42 139.35L414.04 138.39L413.62 137.45L413.16 136.53L412.68 135.62L412.15 134.74L411.6 133.89L411.01 133.05L410.39 132.24L409.74 131.46L409.07 130.7L408.36 129.96L407.63 129.26L406.87 128.58L406.08 127.93L405.27 127.31L404.44 126.73L403.58 126.17L402.7 125.65L401.8 125.16L400.88 124.7L399.93 124.29L398.97 123.9L397.99 123.55L396.99 123.24L395.98 122.97L394.95 122.74L393.91 122.55L392.85 122.4L391.78 122.29L390.69 122.23L389.6 122.2L212.78 122.2L211.68 122.23ZM495.69 290.18L513.37 290.18L513.37 254.82L495.69 254.82L495.69 290.18Z" id="a8LplkF6b"></path></defs><g><g><g><use xlink:href="#a1lAOeqWm0" opacity="1" fill="#ff0871" fill-opacity="1"></use><g><use xlink:href="#a1lAOeqWm0" opacity="1" fill-opacity="0" stroke="#000000" stroke-width="1" stroke-opacity="0"></use></g></g><g><use xlink:href="#ac47qjgui" opacity="1" fill="#ffffff" fill-opacity="1"></use><g><use xlink:href="#ac47qjgui" opacity="1" fill-opacity="0" stroke="#000000" stroke-width="1" stroke-opacity="0"></use></g></g><g><use xlink:href="#b4reABH2t" opacity="1" fill="#ffffff" fill-opacity="1"></use><g><use xlink:href="#b4reABH2t" opacity="1" fill-opacity="0" stroke="#000000" stroke-width="1" stroke-opacity="0"></use></g></g><g><use xlink:href="#a8LplkF6b" opacity="1" fill="#ffffff" fill-opacity="1"></use><g><use xlink:href="#a8LplkF6b" opacity="1" fill-opacity="0" stroke="#000000" stroke-width="1" stroke-opacity="0"></use></g></g></g></g></svg>
