<svg xmlns="http://www.w3.org/2000/svg" version="1.1" xmlns:xlink="http://www.w3.org/1999/xlink" preserveAspectRatio="none" x="0px" y="0px" width="200px" height="200px" viewBox="0 0 200 200">
<defs>
<g id="Layer0_0_FILL">
<path fill="#FFFFFF" stroke="none" fill-opacity="0.8" d=" M 170.65 170.7 Q 200 141.4 200 100 200 58.6 170.65 29.3 141.4 0 100 0 58.6 0 29.25 29.3 0 58.6 0 100 0 141.4 29.25 170.7 58.6 200 100 200 141.4 200 170.65 170.7 Z"/>
</g>

<path id="Layer0_0_1_STROKES" stroke="#000000" stroke-width="2" stroke-linejoin="round" stroke-linecap="round" fill="none" d=" M 200 100 Q 200 141.4 170.65 170.7 141.4 200 100 200 58.6 200 29.25 170.7 0 141.4 0 100 0 58.6 29.25 29.3 58.6 0 100 0 141.4 0 170.65 29.3 200 58.6 200 100 Z"/>
</defs>

<g transform="matrix( 1, 0, 0, 1, 0,0) ">
<use xlink:href="#Layer0_0_FILL"/>

<use xlink:href="#Layer0_0_1_STROKES"/>
</g>
</svg>
