<?xml version="1.0" encoding="UTF-8" standalone="no"?>
<!DOCTYPE svg PUBLIC "-//W3C//DTD SVG 1.1//EN" "http://www.w3.org/Graphics/SVG/1.1/DTD/svg11.dtd">
<svg version="1.1" xmlns="http://www.w3.org/2000/svg" xmlns:xlink="http://www.w3.org/1999/xlink" preserveAspectRatio="xMidYMid meet" viewBox="0 0 640 640" width="512" height="512"><defs><path d="M480.64 42.92C431.6 14.3 378.07 0 320.01 0C261.95 0 208.41 14.3 159.38 42.92C110.35 71.53 71.54 110.34 42.92 159.37C14.3 208.4 0 261.95 0 320C0 378.06 14.31 431.59 42.92 480.63C71.53 529.65 110.35 568.47 159.38 597.08C208.41 625.69 261.95 640 320 640C378.06 640 431.61 625.69 480.63 597.08C529.66 568.48 568.48 529.65 597.09 480.63C625.7 431.6 640 378.05 640 320C640 261.94 625.7 208.4 597.09 159.37C568.48 110.35 529.66 71.53 480.64 42.92Z" id="b6pyRPVDo"></path><path d="M267.46 456.73L268.91 456.88L270.35 457.09L271.77 457.35L273.17 457.66L274.55 458.03L275.9 458.46L277.24 458.93L278.54 459.46L279.83 460.03L281.08 460.65L282.31 461.32L283.51 462.03L284.68 462.79L285.82 463.59L286.92 464.43L287.99 465.32L289.03 466.24L290.03 467.2L290.99 468.2L291.91 469.24L292.8 470.31L293.64 471.41L294.44 472.55L295.2 473.72L295.91 474.92L296.58 476.15L297.2 477.4L297.77 478.68L298.3 479.99L298.77 481.33L299.2 482.68L299.57 484.06L299.88 485.46L300.14 486.88L300.35 488.32L300.5 489.77L300.59 491.24L300.62 492.73L300.59 494.22L300.5 495.69L300.35 497.14L300.14 498.58L299.88 500L299.57 501.4L299.2 502.78L298.77 504.13L298.3 505.47L297.77 506.77L297.2 508.06L296.58 509.31L295.91 510.54L295.2 511.74L294.44 512.91L293.64 514.05L292.8 515.15L291.91 516.22L290.99 517.26L290.03 518.26L289.03 519.22L287.99 520.14L286.92 521.03L285.82 521.87L284.68 522.67L283.51 523.43L282.31 524.14L281.08 524.81L279.83 525.43L278.55 526L277.24 526.53L275.9 527L274.55 527.42L273.17 527.79L271.77 528.11L270.35 528.37L268.91 528.58L267.46 528.73L265.99 528.82L264.5 528.85L263.01 528.82L261.54 528.73L260.09 528.58L258.65 528.37L257.23 528.11L255.83 527.79L254.45 527.42L253.1 527L251.76 526.53L250.46 526L249.17 525.43L247.92 524.81L246.69 524.14L245.49 523.43L244.32 522.67L243.18 521.87L242.08 521.03L241.01 520.14L239.97 519.22L238.97 518.26L238.01 517.26L237.09 516.22L236.2 515.15L235.36 514.05L234.56 512.91L233.8 511.74L233.09 510.54L232.42 509.31L231.8 508.06L231.23 506.77L230.7 505.47L230.23 504.13L229.81 502.78L229.44 501.4L229.12 500L228.86 498.58L228.65 497.14L228.5 495.69L228.41 494.22L228.38 492.73L228.41 491.24L228.5 489.77L228.65 488.32L228.86 486.88L229.12 485.46L229.44 484.06L229.81 482.68L230.23 481.33L230.7 479.99L231.23 478.68L231.8 477.4L232.42 476.15L233.09 474.92L233.8 473.72L234.56 472.55L235.36 471.41L236.2 470.31L237.09 469.24L238.01 468.2L238.97 467.2L239.97 466.24L241.01 465.32L242.08 464.43L243.18 463.59L244.32 462.79L245.49 462.03L246.69 461.32L247.92 460.65L249.17 460.03L250.46 459.46L251.76 458.93L253.1 458.46L254.45 458.03L255.83 457.66L257.23 457.35L258.65 457.09L260.09 456.88L261.54 456.73L263.01 456.64L264.5 456.61L265.99 456.64L267.46 456.73ZM261.92 476.99L260.67 477.24L259.46 477.59L258.3 478.03L257.18 478.56L256.1 479.17L255.09 479.86L254.13 480.62L253.23 481.45L252.39 482.35L251.63 483.31L250.94 484.33L250.33 485.4L249.81 486.52L249.36 487.69L249.01 488.9L248.76 490.14L248.6 491.42L248.55 492.73L248.6 494.03L248.76 495.31L249.01 496.56L249.36 497.76L249.81 498.93L250.33 500.05L250.94 501.12L251.63 502.14L252.39 503.1L253.23 504L254.13 504.83L255.09 505.6L256.1 506.29L257.18 506.9L258.3 507.42L259.46 507.86L260.67 508.21L261.92 508.47L263.19 508.63L264.5 508.68L265.81 508.63L267.08 508.47L268.33 508.21L269.54 507.86L270.7 507.42L271.82 506.9L272.9 506.29L273.91 505.6L274.88 504.83L275.77 504L276.61 503.1L277.37 502.14L278.06 501.12L278.67 500.05L279.2 498.93L279.64 497.76L279.99 496.56L280.24 495.31L280.4 494.03L280.45 492.73L280.4 491.42L280.24 490.14L279.99 488.9L279.64 487.69L279.2 486.53L278.67 485.4L278.06 484.33L277.37 483.31L276.61 482.35L275.77 481.45L274.88 480.62L273.91 479.86L272.9 479.17L271.82 478.56L270.7 478.03L269.54 477.59L268.33 477.24L267.08 476.99L265.81 476.83L264.5 476.78L263.19 476.83L261.92 476.99Z" id="aLhor1qJi"></path><path d="M394.14 456.73L395.6 456.88L397.03 457.09L398.45 457.35L399.85 457.66L401.23 458.03L402.59 458.46L403.92 458.93L405.23 459.46L406.51 460.03L407.77 460.65L408.99 461.32L410.19 462.03L411.36 462.79L412.5 463.59L413.6 464.43L414.67 465.32L415.71 466.24L416.71 467.2L417.67 468.2L418.6 469.24L419.48 470.31L420.32 471.41L421.12 472.55L421.88 473.72L422.59 474.92L423.26 476.15L423.88 477.4L424.46 478.68L424.98 479.99L425.46 481.33L425.88 482.68L426.25 484.06L426.56 485.46L426.83 486.88L427.03 488.32L427.18 489.77L427.27 491.24L427.3 492.73L427.27 494.22L427.18 495.69L427.03 497.14L426.83 498.58L426.57 500L426.25 501.4L425.88 502.78L425.46 504.13L424.98 505.47L424.46 506.77L423.88 508.06L423.26 509.31L422.6 510.54L421.88 511.74L421.12 512.91L420.32 514.05L419.48 515.15L418.6 516.22L417.67 517.26L416.71 518.26L415.71 519.22L414.67 520.14L413.6 521.03L412.5 521.87L411.36 522.67L410.19 523.43L409 524.14L407.77 524.81L406.51 525.43L405.23 526L403.92 526.53L402.59 527L401.23 527.42L399.85 527.79L398.45 528.11L397.03 528.37L395.6 528.58L394.14 528.73L392.67 528.82L391.18 528.85L389.7 528.82L388.23 528.73L386.77 528.58L385.33 528.37L383.91 528.11L382.51 527.79L381.14 527.42L379.78 527L378.45 526.53L377.14 526L375.86 525.43L374.6 524.81L373.37 524.14L372.17 523.43L371 522.67L369.87 521.87L368.76 521.03L367.69 520.14L366.66 519.22L365.66 518.26L364.7 517.26L363.77 516.22L362.89 515.15L362.04 514.05L361.24 512.91L360.49 511.74L359.77 510.54L359.1 509.31L358.48 508.06L357.91 506.77L357.39 505.47L356.91 504.13L356.49 502.78L356.12 501.4L355.8 500L355.54 498.58L355.34 497.14L355.19 495.69L355.1 494.22L355.07 492.73L355.1 491.24L355.19 489.77L355.34 488.32L355.54 486.88L355.8 485.46L356.12 484.06L356.49 482.68L356.91 481.33L357.39 479.99L357.91 478.68L358.48 477.4L359.1 476.15L359.77 474.92L360.49 473.72L361.24 472.55L362.04 471.41L362.89 470.31L363.77 469.24L364.7 468.2L365.66 467.2L366.66 466.24L367.69 465.32L368.76 464.43L369.87 463.59L371 462.79L372.17 462.03L373.37 461.32L374.6 460.65L375.86 460.03L377.14 459.46L378.45 458.93L379.78 458.46L381.14 458.03L382.51 457.66L383.91 457.35L385.33 457.09L386.77 456.88L388.23 456.73L389.7 456.64L391.18 456.61L392.67 456.64L394.14 456.73ZM388.6 476.99L387.36 477.24L386.15 477.59L384.98 478.03L383.86 478.56L382.79 479.17L381.77 479.86L380.81 480.62L379.91 481.45L379.08 482.35L378.31 483.31L377.63 484.33L377.02 485.4L376.49 486.52L376.05 487.69L375.7 488.9L375.44 490.14L375.29 491.42L375.23 492.73L375.29 494.03L375.44 495.31L375.7 496.56L376.05 497.76L376.49 498.93L377.02 500.05L377.63 501.12L378.31 502.14L379.08 503.1L379.91 504L380.81 504.83L381.77 505.6L382.79 506.29L383.86 506.9L384.98 507.42L386.15 507.86L387.36 508.21L388.6 508.47L389.88 508.63L391.18 508.68L392.49 508.63L393.77 508.47L395.01 508.21L396.22 507.86L397.39 507.42L398.51 506.9L399.58 506.29L400.6 505.6L401.56 504.83L402.46 504L403.29 503.1L404.05 502.14L404.74 501.12L405.35 500.05L405.88 498.93L406.32 497.76L406.67 496.56L406.93 495.31L407.08 494.03L407.13 492.73L407.08 491.42L406.93 490.14L406.67 488.9L406.32 487.69L405.88 486.53L405.35 485.4L404.74 484.33L404.05 483.31L403.29 482.35L402.46 481.45L401.56 480.62L400.6 479.86L399.58 479.17L398.51 478.56L397.39 478.03L396.22 477.59L395.01 477.24L393.77 476.99L392.49 476.83L391.18 476.78L389.88 476.83L388.6 476.99Z" id="dCItOVB0"></path><path d="M255.58 266.46C250.01 266.46 245.5 270.98 245.5 276.55C245.5 282.11 250.02 286.63 255.58 286.63C270.03 286.63 385.63 286.63 400.08 286.63C405.64 286.63 410.16 282.11 410.16 276.55C410.16 270.98 405.64 266.46 400.08 266.46C371.18 266.46 270.03 266.46 255.58 266.46Z" id="a3mKcFVAiz"></path><path d="M263.45 318.82C257.88 318.82 253.37 323.34 253.37 328.91C253.37 334.47 257.88 338.99 263.45 338.99C276.32 338.99 379.33 338.99 392.21 338.99C397.78 338.99 402.29 334.47 402.29 328.91C402.29 323.34 397.78 318.82 392.21 318.82C366.46 318.82 276.32 318.82 263.45 318.82Z" id="acGgr2s4U"></path><path d="M103.28 148.88L103.67 148.93L104.07 148.99L104.46 149.06L104.85 149.15L105.25 149.26L105.64 149.38L106.02 149.53L106.41 149.68L150.66 168.89L151.11 169.09L151.55 169.31L151.99 169.53L152.42 169.76L152.84 170L153.26 170.25L153.66 170.51L154.07 170.78L154.46 171.06L154.85 171.35L155.23 171.64L155.6 171.95L155.96 172.26L156.32 172.58L156.67 172.91L157.01 173.25L157.34 173.6L157.66 173.95L157.98 174.31L158.28 174.68L158.58 175.05L158.87 175.44L159.15 175.82L159.42 176.22L159.68 176.62L159.93 177.03L160.17 177.45L160.41 177.87L160.63 178.29L160.84 178.72L161.04 179.16L161.23 179.61L161.42 180.05L161.59 180.51L161.75 180.96L161.9 181.43L162.04 181.89L162.16 182.37L162.28 182.84L162.38 183.32L168.73 214.11L482.8 214.11L483.25 214.12L483.71 214.13L484.16 214.16L484.61 214.19L485.06 214.24L485.51 214.29L485.95 214.36L486.39 214.43L486.83 214.52L487.27 214.61L487.7 214.71L488.13 214.82L488.56 214.95L488.98 215.08L489.41 215.22L489.82 215.37L490.24 215.53L490.65 215.69L491.05 215.87L491.46 216.06L491.85 216.25L492.25 216.45L492.64 216.66L493.02 216.89L493.4 217.11L493.77 217.35L494.14 217.6L494.51 217.85L494.87 218.12L495.22 218.39L495.57 218.67L495.91 218.95L496.25 219.25L496.58 219.55L496.9 219.86L497.22 220.18L497.53 220.51L497.84 220.85L498.14 221.19L498.43 221.54L498.71 221.89L498.99 222.26L499.26 222.62L499.51 222.99L499.76 223.37L500 223.75L500.23 224.14L500.45 224.53L500.67 224.92L500.87 225.32L501.06 225.72L501.25 226.12L501.42 226.53L501.59 226.94L501.75 227.36L501.89 227.78L502.03 228.2L502.16 228.62L502.28 229.05L502.39 229.48L502.49 229.91L502.58 230.34L502.67 230.77L502.74 231.21L502.8 231.65L502.85 232.09L502.89 232.53L502.93 232.98L502.95 233.42L502.96 233.87L502.97 234.31L502.96 234.76L502.95 235.21L502.92 235.66L502.88 236.1L502.84 236.55L502.78 237L502.71 237.45L502.64 237.9L502.55 238.34L474.35 375.24L474.19 375.93L474.01 376.62L473.81 377.29L473.58 377.96L473.34 378.61L473.07 379.25L472.78 379.88L472.47 380.49L472.14 381.1L471.79 381.69L471.42 382.27L471.03 382.83L470.63 383.38L470.2 383.91L469.76 384.43L469.31 384.93L468.83 385.42L468.34 385.89L467.84 386.35L467.32 386.78L466.79 387.2L466.24 387.61L465.68 387.99L465.11 388.35L464.52 388.7L463.93 389.03L463.32 389.33L462.7 389.62L462.07 389.89L461.43 390.13L460.78 390.35L460.12 390.56L459.46 390.74L458.78 390.89L458.1 391.03L457.41 391.14L456.72 391.22L456.01 391.28L455.31 391.32L454.6 391.33L205.24 391.33L211.17 420.14L452.73 420.14L453.14 420.15L453.56 420.18L453.96 420.22L454.36 420.27L454.76 420.35L455.15 420.43L455.54 420.54L455.92 420.66L456.29 420.79L456.65 420.93L457.01 421.09L457.36 421.27L457.7 421.45L458.04 421.65L458.37 421.86L458.68 422.09L458.99 422.32L459.29 422.57L459.58 422.83L459.86 423.09L460.13 423.37L460.38 423.66L460.63 423.96L460.87 424.27L461.09 424.59L461.3 424.91L461.5 425.25L461.69 425.59L461.86 425.94L462.02 426.3L462.17 426.67L462.3 427.04L462.42 427.42L462.52 427.8L462.61 428.19L462.68 428.59L462.74 428.99L462.78 429.4L462.8 429.81L462.81 430.22L462.8 430.64L462.78 431.05L462.74 431.46L462.68 431.86L462.61 432.26L462.52 432.65L462.42 433.03L462.3 433.41L462.17 433.78L462.02 434.15L461.86 434.51L461.69 434.86L461.5 435.2L461.3 435.54L461.09 435.86L460.87 436.18L460.63 436.49L460.38 436.79L460.13 437.08L459.86 437.35L459.58 437.62L459.29 437.88L458.99 438.13L458.68 438.36L458.37 438.59L458.04 438.8L457.7 439L457.36 439.18L457.01 439.36L456.65 439.52L456.29 439.66L455.92 439.79L455.54 439.91L455.15 440.01L454.76 440.1L454.36 440.18L453.96 440.23L453.56 440.27L453.14 440.3L452.73 440.31L211.17 440.31L210.46 440.29L209.75 440.26L209.05 440.2L208.36 440.11L207.67 440L206.99 439.86L206.31 439.71L205.65 439.53L204.99 439.33L204.34 439.1L203.7 438.86L203.07 438.59L202.45 438.31L201.84 438L201.24 437.67L200.66 437.33L200.09 436.96L199.53 436.58L198.98 436.18L198.45 435.76L197.93 435.32L197.42 434.87L196.93 434.39L196.46 433.91L196 433.4L195.56 432.88L195.14 432.35L194.73 431.8L194.35 431.24L193.98 430.66L193.63 430.07L193.3 429.47L192.99 428.85L192.7 428.22L192.43 427.58L192.18 426.93L191.96 426.27L191.76 425.59L191.58 424.91L191.42 424.21L142.63 187.39L98.38 168.18L98 168.01L97.63 167.82L97.28 167.62L96.93 167.41L96.59 167.18L96.27 166.95L95.96 166.7L95.66 166.44L95.37 166.17L95.09 165.89L94.83 165.6L94.58 165.3L94.34 165L94.11 164.68L93.89 164.36L93.69 164.02L93.5 163.69L93.33 163.34L93.16 162.99L93.01 162.63L92.88 162.27L92.76 161.9L92.65 161.53L92.56 161.15L92.48 160.77L92.41 160.39L92.37 160L92.33 159.62L92.31 159.22L92.31 158.83L92.32 158.44L92.35 158.04L92.39 157.65L92.45 157.26L92.52 156.86L92.61 156.47L92.72 156.08L92.85 155.69L92.99 155.3L93.14 154.92L93.32 154.54L93.5 154.17L93.7 153.81L93.92 153.47L94.14 153.13L94.38 152.81L94.63 152.5L94.88 152.2L95.15 151.91L95.43 151.63L95.72 151.37L96.02 151.11L96.33 150.87L96.64 150.65L96.97 150.43L97.3 150.23L97.64 150.04L97.98 149.86L98.33 149.7L98.69 149.55L99.05 149.42L99.42 149.3L99.79 149.19L100.17 149.1L100.55 149.02L100.93 148.95L101.32 148.9L101.71 148.87L102.1 148.85L102.49 148.85L102.88 148.86L103.28 148.88ZM454.6 371.17L482.8 234.28L172.88 234.28L201.08 371.17L454.6 371.17Z" id="c3zoUd5g9b"></path></defs><g><g><g><use xlink:href="#b6pyRPVDo" opacity="1" fill="#ff0871" fill-opacity="1"></use><g><use xlink:href="#b6pyRPVDo" opacity="1" fill-opacity="0" stroke="#000000" stroke-width="1" stroke-opacity="0"></use></g></g><g><use xlink:href="#aLhor1qJi" opacity="1" fill="#ffffff" fill-opacity="1"></use><g><use xlink:href="#aLhor1qJi" opacity="1" fill-opacity="0" stroke="#000000" stroke-width="1" stroke-opacity="0"></use></g></g><g><use xlink:href="#dCItOVB0" opacity="1" fill="#ffffff" fill-opacity="1"></use><g><use xlink:href="#dCItOVB0" opacity="1" fill-opacity="0" stroke="#000000" stroke-width="1" stroke-opacity="0"></use></g></g><g><use xlink:href="#a3mKcFVAiz" opacity="1" fill="#ffffff" fill-opacity="1"></use><g><use xlink:href="#a3mKcFVAiz" opacity="1" fill-opacity="0" stroke="#000000" stroke-width="1" stroke-opacity="0"></use></g></g><g><use xlink:href="#acGgr2s4U" opacity="1" fill="#ffffff" fill-opacity="1"></use><g><use xlink:href="#acGgr2s4U" opacity="1" fill-opacity="0" stroke="#000000" stroke-width="1" stroke-opacity="0"></use></g></g><g><use xlink:href="#c3zoUd5g9b" opacity="1" fill="#ffffff" fill-opacity="1"></use><g><use xlink:href="#c3zoUd5g9b" opacity="1" fill-opacity="0" stroke="#000000" stroke-width="1" stroke-opacity="0"></use></g></g></g></g></svg>
