<?xml version="1.0" encoding="UTF-8" standalone="no"?>
<!DOCTYPE svg PUBLIC "-//W3C//DTD SVG 1.1//EN" "http://www.w3.org/Graphics/SVG/1.1/DTD/svg11.dtd">
<svg version="1.1" xmlns="http://www.w3.org/2000/svg" xmlns:xlink="http://www.w3.org/1999/xlink" preserveAspectRatio="xMidYMid meet" viewBox="0 0 640 640" width="512" height="512"><defs><path d="M480.64 42.92C431.6 14.3 378.07 0 320.01 0C261.95 0 208.41 14.3 159.38 42.92C110.35 71.53 71.54 110.34 42.92 159.37C14.3 208.4 0 261.95 0 320C0 378.06 14.31 431.59 42.92 480.63C71.53 529.65 110.35 568.47 159.38 597.08C208.41 625.69 261.95 640 320 640C378.06 640 431.61 625.69 480.63 597.08C529.66 568.48 568.48 529.65 597.09 480.63C625.7 431.6 640 378.05 640 320C640 261.94 625.7 208.4 597.09 159.37C568.48 110.35 529.66 71.53 480.64 42.92Z" id="b6pyRPVDo"></path><path d="M464.11 120.78L465.42 120.85L466.73 120.94L468.03 121.05L469.32 121.19L470.61 121.35L471.89 121.54L473.17 121.76L474.44 122L475.7 122.26L476.96 122.55L478.21 122.86L479.45 123.2L480.68 123.56L481.9 123.94L483.12 124.35L484.33 124.78L485.53 125.24L486.72 125.71L487.89 126.22L489.06 126.74L490.22 127.29L491.37 127.86L492.51 128.46L493.64 129.07L494.75 129.71L495.85 130.37L496.95 131.06L498.03 131.77L499.09 132.5L500.15 133.25L501.19 134.02L502.21 134.81L503.23 135.63L504.23 136.47L505.21 137.33L506.18 138.21L507.14 139.11L508.08 140.03L509.01 140.97L509.91 141.93L510.79 142.9L511.65 143.89L512.49 144.89L513.3 145.9L514.1 146.93L514.87 147.97L515.62 149.02L516.35 150.09L517.06 151.17L517.74 152.26L518.4 153.37L519.04 154.48L519.66 155.61L520.25 156.74L520.83 157.89L521.37 159.05L521.9 160.22L522.4 161.4L522.88 162.59L523.34 163.79L523.77 164.99L524.18 166.21L524.56 167.44L524.92 168.67L525.26 169.91L525.57 171.16L525.86 172.41L526.12 173.68L526.36 174.95L526.57 176.22L526.76 177.51L526.93 178.79L527.07 180.09L527.18 181.39L527.27 182.69L527.33 184L527.37 185.32L527.38 186.63L527.38 463.83L527.37 465.15L527.33 466.46L527.27 467.77L527.18 469.07L527.07 470.37L526.93 471.67L526.76 472.96L526.57 474.24L526.36 475.52L526.12 476.79L525.86 478.05L525.57 479.3L525.26 480.55L524.92 481.79L524.56 483.03L524.18 484.25L523.77 485.47L523.34 486.67L522.88 487.87L522.4 489.06L521.9 490.24L521.37 491.41L520.83 492.57L520.25 493.72L519.66 494.86L519.04 495.98L518.4 497.1L517.74 498.2L517.06 499.29L516.35 500.37L515.62 501.44L514.87 502.49L514.1 503.53L513.3 504.56L512.49 505.57L511.65 506.57L510.79 507.56L509.91 508.53L509 509.49L508.08 510.43L507.14 511.35L506.18 512.25L505.21 513.13L504.23 513.99L503.23 514.83L502.21 515.65L501.19 516.44L500.15 517.22L499.09 517.97L498.03 518.7L496.95 519.4L495.85 520.09L494.75 520.75L493.64 521.39L492.51 522.01L491.37 522.6L490.22 523.17L489.06 523.72L487.9 524.24L486.72 524.75L485.53 525.23L484.33 525.68L483.12 526.11L481.91 526.52L480.68 526.91L479.45 527.27L478.21 527.6L476.96 527.91L475.7 528.2L474.44 528.47L473.17 528.7L471.89 528.92L470.61 529.11L469.32 529.27L468.03 529.41L466.73 529.53L465.42 529.62L464.11 529.68L462.8 529.72L461.48 529.73L184.29 529.73L182.97 529.72L181.66 529.68L180.35 529.62L179.04 529.53L177.74 529.41L176.45 529.27L175.16 529.11L173.88 528.92L172.6 528.7L171.33 528.47L170.07 528.2L168.81 527.91L167.56 527.6L166.32 527.27L165.09 526.91L163.86 526.52L162.65 526.11L161.44 525.68L160.24 525.23L159.05 524.75L157.87 524.24L156.71 523.72L155.55 523.17L154.4 522.6L153.26 522.01L152.13 521.39L151.02 520.75L149.92 520.09L148.82 519.4L147.74 518.7L146.68 517.97L145.62 517.22L144.58 516.44L143.55 515.65L142.54 514.83L141.54 513.99L140.56 513.13L139.58 512.25L138.63 511.35L137.69 510.43L136.76 509.49L135.86 508.53L134.98 507.56L134.12 506.57L133.28 505.57L132.47 504.56L131.67 503.53L130.9 502.49L130.15 501.44L129.42 500.37L128.71 499.29L128.03 498.2L127.37 497.1L126.73 495.98L126.11 494.85L125.52 493.72L124.94 492.57L124.4 491.41L123.87 490.24L123.37 489.06L122.89 487.87L122.43 486.67L122 485.47L121.59 484.25L121.21 483.03L120.85 481.79L120.51 480.55L120.2 479.3L119.91 478.05L119.65 476.78L119.41 475.52L119.2 474.24L119.01 472.96L118.84 471.67L118.7 470.37L118.59 469.07L118.5 467.77L118.44 466.46L118.4 465.15L118.38 463.83L118.38 186.63L118.4 185.32L118.44 184L118.5 182.69L118.59 181.39L118.7 180.09L118.84 178.79L119.01 177.51L119.2 176.22L119.41 174.95L119.65 173.68L119.91 172.41L120.2 171.16L120.51 169.91L120.85 168.67L121.21 167.44L121.59 166.21L122 164.99L122.43 163.79L122.89 162.59L123.37 161.4L123.87 160.22L124.4 159.05L124.94 157.89L125.52 156.74L126.11 155.61L126.73 154.48L127.37 153.36L128.03 152.26L128.71 151.17L129.42 150.09L130.15 149.02L130.9 147.97L131.67 146.93L132.47 145.9L133.28 144.89L134.12 143.89L134.98 142.9L135.86 141.93L136.76 140.97L137.69 140.03L138.63 139.11L139.58 138.21L140.56 137.33L141.54 136.47L142.54 135.63L143.55 134.81L144.58 134.02L145.62 133.25L146.68 132.5L147.74 131.77L148.82 131.06L149.91 130.37L151.02 129.71L152.13 129.07L153.26 128.46L154.4 127.86L155.55 127.29L156.7 126.74L157.87 126.22L159.05 125.71L160.24 125.24L161.44 124.78L162.65 124.35L163.86 123.94L165.09 123.56L166.32 123.2L167.56 122.86L168.81 122.55L170.07 122.26L171.33 122L172.6 121.76L173.88 121.54L175.16 121.35L176.45 121.19L177.74 121.05L179.04 120.94L180.35 120.85L181.66 120.78L182.97 120.74L184.29 120.73L461.48 120.73L462.8 120.74L464.11 120.78ZM183.21 132.72L182.13 132.76L181.06 132.81L180 132.88L178.93 132.97L177.87 133.09L176.82 133.22L175.77 133.38L174.73 133.55L173.69 133.75L172.65 133.96L171.63 134.2L170.6 134.45L169.59 134.73L168.58 135.02L167.58 135.34L166.58 135.67L165.59 136.03L164.61 136.4L163.64 136.79L162.68 137.2L161.72 137.63L160.77 138.08L159.83 138.55L158.9 139.03L157.98 139.54L157.07 140.06L156.16 140.6L155.27 141.16L154.39 141.74L153.52 142.34L152.65 142.95L151.8 143.59L150.96 144.24L150.13 144.9L149.31 145.59L148.51 146.29L147.71 147.01L146.93 147.75L146.16 148.51L145.41 149.28L144.67 150.06L143.95 150.85L143.24 151.66L142.56 152.48L141.89 153.31L141.24 154.15L140.61 155L139.99 155.86L139.4 156.73L138.82 157.62L138.26 158.51L137.72 159.41L137.19 160.33L136.69 161.25L136.2 162.18L135.73 163.12L135.29 164.07L134.86 165.02L134.44 165.99L134.05 166.96L133.68 167.94L133.33 168.93L132.99 169.92L132.68 170.93L132.38 171.93L132.11 172.95L131.85 173.97L131.62 175L131.4 176.03L131.21 177.07L131.03 178.12L130.88 179.16L130.74 180.22L130.63 181.28L130.53 182.34L130.46 183.41L130.41 184.48L130.38 185.56L130.37 186.63L130.37 463.83L130.38 464.91L130.41 465.98L130.46 467.05L130.53 468.12L130.63 469.18L130.74 470.24L130.88 471.3L131.03 472.35L131.21 473.39L131.4 474.43L131.62 475.46L131.85 476.49L132.11 477.51L132.38 478.53L132.68 479.54L132.99 480.54L133.33 481.53L133.68 482.52L134.05 483.5L134.44 484.47L134.86 485.44L135.29 486.39L135.73 487.34L136.2 488.28L136.69 489.21L137.19 490.14L137.72 491.05L138.26 491.95L138.82 492.84L139.4 493.73L139.99 494.6L140.61 495.46L141.24 496.31L141.89 497.15L142.56 497.98L143.24 498.8L143.95 499.61L144.67 500.4L145.41 501.19L146.16 501.96L146.93 502.71L147.71 503.45L148.51 504.17L149.31 504.87L150.13 505.56L150.96 506.23L151.8 506.88L152.65 507.51L153.52 508.12L154.39 508.72L155.27 509.3L156.17 509.86L157.07 510.4L157.98 510.92L158.9 511.43L159.83 511.91L160.77 512.38L161.72 512.83L162.68 513.26L163.64 513.67L164.62 514.06L165.6 514.44L166.58 514.79L167.58 515.12L168.58 515.44L169.59 515.73L170.6 516.01L171.63 516.26L172.65 516.5L173.69 516.71L174.73 516.91L175.77 517.08L176.82 517.24L177.87 517.37L178.93 517.49L180 517.58L181.06 517.65L182.13 517.71L183.21 517.74L184.29 517.75L461.48 517.75L462.56 517.74L463.64 517.71L464.71 517.65L465.77 517.58L466.84 517.49L467.9 517.37L468.95 517.24L470 517.08L471.04 516.91L472.08 516.71L473.12 516.5L474.14 516.26L475.17 516.01L476.18 515.73L477.19 515.44L478.19 515.12L479.19 514.79L480.17 514.44L481.15 514.06L482.13 513.67L483.09 513.26L484.05 512.83L485 512.38L485.94 511.91L486.87 511.43L487.79 510.92L488.7 510.4L489.6 509.86L490.5 509.3L491.38 508.72L492.25 508.12L493.12 507.51L493.97 506.88L494.81 506.23L495.64 505.56L496.46 504.87L497.26 504.17L498.06 503.45L498.84 502.71L499.61 501.96L500.11 501.44L500.62 500.89L501.11 500.33L501.6 499.74L502.08 499.13L502.56 498.5L503.03 497.85L503.5 497.17L503.96 496.47L504.42 495.75L504.86 495.01L505.31 494.25L505.75 493.46L506.18 492.65L506.6 491.82L507.02 490.97L507.44 490.09L507.85 489.19L508.25 488.27L508.65 487.33L509.04 486.37L509.43 485.38L509.81 484.37L510.18 483.34L510.55 482.29L510.92 481.21L511.27 480.12L511.63 479L511.97 477.85L512.31 476.69L512.65 475.5L512.98 474.29L513.3 473.06L513.62 471.81L513.93 470.54L514.23 469.24L514.54 467.92L514.83 466.58L515.12 465.21L515.4 463.83L515.4 186.63L515.39 185.56L515.36 184.48L515.31 183.41L515.23 182.34L515.14 181.28L515.03 180.22L514.89 179.17L514.74 178.12L514.56 177.07L514.37 176.03L514.15 175L513.92 173.97L513.66 172.95L513.39 171.93L513.09 170.93L512.78 169.92L512.44 168.93L512.09 167.94L511.72 166.96L511.32 165.99L510.91 165.02L510.48 164.07L510.04 163.12L509.57 162.18L509.08 161.25L508.58 160.33L508.05 159.41L507.51 158.51L506.95 157.62L506.37 156.73L505.78 155.86L505.16 155L504.53 154.15L503.88 153.31L503.21 152.48L502.53 151.66L501.82 150.85L501.1 150.06L500.36 149.28L499.61 148.51L498.84 147.75L498.06 147.01L497.26 146.29L496.46 145.59L495.64 144.9L494.81 144.24L493.97 143.59L493.12 142.95L492.25 142.34L491.38 141.74L490.5 141.16L489.6 140.6L488.7 140.06L487.79 139.54L486.87 139.03L485.94 138.55L485 138.08L484.05 137.63L483.09 137.2L482.13 136.79L481.15 136.4L480.17 136.03L479.19 135.67L478.19 135.34L477.19 135.02L476.18 134.73L475.17 134.45L474.14 134.2L473.12 133.96L472.08 133.75L471.04 133.55L470 133.38L468.95 133.22L467.9 133.09L466.84 132.97L465.77 132.88L464.71 132.81L463.63 132.76L462.56 132.72L461.48 132.71L184.29 132.71L183.21 132.72Z" id="h2JGY5jrb3"></path><path d="M461.48 144.69C433.76 144.69 212.01 144.69 184.29 144.69C173.09 144.69 162.55 149.06 154.63 156.98C146.71 164.9 142.35 175.43 142.35 186.63C142.35 199.32 142.35 300.84 142.35 313.53C142.35 316.84 145.03 319.52 148.34 319.52C151.65 319.52 154.33 316.84 154.33 313.53C154.33 300.84 154.33 199.32 154.33 186.63C154.33 178.63 157.45 171.11 163.1 165.45C168.76 159.79 176.29 156.68 184.29 156.68C212.01 156.68 433.76 156.68 461.48 156.68C469.48 156.68 477.01 159.79 482.66 165.45C488.32 171.11 491.44 178.63 491.44 186.63C491.44 214.35 491.44 436.11 491.44 463.83C491.44 471.83 488.32 479.35 482.66 485.01C477.01 490.67 469.48 493.78 461.48 493.78C433.76 493.78 212.01 493.78 184.29 493.78C176.29 493.78 168.76 490.67 163.11 485.01C157.45 479.35 154.33 471.83 154.33 463.83C154.33 451.19 154.33 350.13 154.33 337.5C154.33 334.19 151.65 331.5 148.34 331.5C145.03 331.5 142.35 334.19 142.35 337.5C142.35 350.13 142.35 451.19 142.35 463.83C142.35 475.03 146.71 485.56 154.63 493.48C162.55 501.4 173.09 505.77 184.29 505.77C212.01 505.77 433.76 505.77 461.48 505.77C472.68 505.77 483.22 501.4 491.14 493.48C499.06 485.56 503.42 475.03 503.42 463.83C503.42 436.11 503.42 214.35 503.42 186.63C503.42 175.43 499.06 164.9 491.14 156.98C483.22 149.06 472.68 144.7 461.48 144.69Z" id="a2u2Fun3Vd"></path><path d="M358.2 192.92L361.82 193.29L365.4 193.8L368.93 194.45L372.41 195.24L375.84 196.16L379.22 197.21L382.53 198.39L385.79 199.7L388.98 201.13L392.11 202.67L395.16 204.33L398.15 206.11L401.05 207.99L403.88 209.99L406.63 212.09L409.3 214.28L411.87 216.58L414.36 218.98L416.75 221.46L419.05 224.04L421.25 226.7L423.35 229.45L425.34 232.28L427.23 235.19L429 238.17L430.67 241.23L432.21 244.35L433.64 247.55L434.94 250.8L436.12 254.12L437.17 257.49L438.1 260.92L438.88 264.4L439.53 267.94L440.04 271.51L440.41 275.13L440.64 278.79L440.71 282.49L440.64 286.19L440.41 289.85L440.04 293.47L439.53 297.05L438.88 300.58L438.1 304.06L437.17 307.49L436.12 310.87L434.94 314.19L433.64 317.44L432.21 320.63L430.67 323.76L429 326.81L427.23 329.8L425.34 332.7L423.35 335.53L421.25 338.28L419.05 340.95L416.75 343.52L414.36 346.01L411.87 348.4L409.3 350.7L406.63 352.9L403.88 355L401.05 356.99L398.15 358.88L395.16 360.65L392.11 362.32L388.98 363.86L385.79 365.29L382.53 366.59L379.22 367.77L375.84 368.82L372.41 369.75L368.93 370.53L365.4 371.18L361.82 371.69L358.2 372.06L354.54 372.29L350.84 372.36L287.34 372.36L287.34 451.85L287.33 452.09L287.32 452.34L287.29 452.58L287.26 452.82L287.22 453.05L287.16 453.28L287.1 453.51L287.03 453.74L286.95 453.96L286.87 454.18L286.77 454.39L286.67 454.6L286.56 454.8L286.44 455L286.31 455.19L286.18 455.38L286.04 455.57L285.89 455.74L285.74 455.92L285.58 456.08L285.42 456.24L285.24 456.39L285.07 456.54L284.88 456.68L284.7 456.81L284.5 456.94L284.3 457.06L284.1 457.17L283.89 457.27L283.68 457.37L283.46 457.45L283.24 457.53L283.01 457.6L282.79 457.66L282.55 457.71L282.32 457.76L282.08 457.79L281.84 457.82L281.59 457.83L281.35 457.84L233.42 457.84L233.17 457.83L232.92 457.82L232.68 457.79L232.44 457.76L232.21 457.71L231.98 457.66L231.75 457.6L231.52 457.53L231.3 457.45L231.08 457.37L230.87 457.27L230.66 457.17L230.46 457.06L230.26 456.94L230.07 456.81L229.88 456.68L229.69 456.54L229.52 456.39L229.34 456.24L229.18 456.08L229.02 455.92L228.87 455.74L228.72 455.57L228.58 455.38L228.45 455.19L228.32 455L228.2 454.8L228.09 454.6L227.99 454.39L227.9 454.18L227.81 453.96L227.73 453.74L227.66 453.51L227.6 453.28L227.55 453.05L227.5 452.82L227.47 452.58L227.44 452.34L227.43 452.09L227.42 451.85L227.42 198.62L227.43 198.37L227.44 198.13L227.47 197.88L227.5 197.64L227.55 197.41L227.6 197.18L227.66 196.95L227.73 196.72L227.81 196.5L227.9 196.28L227.99 196.07L228.09 195.86L228.2 195.66L228.32 195.46L228.45 195.27L228.58 195.08L228.72 194.9L228.87 194.72L229.02 194.55L229.18 194.38L229.34 194.22L229.52 194.07L229.69 193.92L229.88 193.78L230.07 193.65L230.26 193.52L230.46 193.4L230.66 193.29L230.87 193.19L231.08 193.1L231.3 193.01L231.52 192.93L231.75 192.86L231.98 192.8L232.21 192.75L232.44 192.7L232.68 192.67L232.92 192.65L233.17 192.63L233.42 192.63L350.84 192.63L354.54 192.7L358.2 192.92ZM239.41 445.85L275.35 445.85L275.35 366.37L275.36 366.12L275.37 365.88L275.4 365.64L275.43 365.4L275.48 365.16L275.53 364.93L275.59 364.7L275.66 364.48L275.74 364.26L275.83 364.04L275.92 363.83L276.02 363.62L276.13 363.41L276.25 363.21L276.38 363.02L276.51 362.83L276.65 362.65L276.8 362.47L276.95 362.3L277.11 362.13L277.27 361.97L277.45 361.82L277.62 361.67L277.81 361.54L278 361.4L278.19 361.28L278.39 361.16L278.59 361.05L278.8 360.95L279.01 360.85L279.23 360.76L279.45 360.68L279.68 360.61L279.91 360.55L280.14 360.5L280.37 360.46L280.61 360.42L280.85 360.4L281.1 360.38L281.35 360.38L350.84 360.38L354.05 360.31L357.22 360.12L360.36 359.8L363.46 359.36L366.52 358.79L369.54 358.11L372.51 357.31L375.44 356.4L378.31 355.38L381.13 354.25L383.9 353.01L386.61 351.67L389.25 350.23L391.84 348.69L394.36 347.06L396.81 345.33L399.19 343.51L401.5 341.61L403.74 339.62L405.89 337.54L407.97 335.39L409.96 333.15L411.86 330.84L413.68 328.46L415.41 326.01L417.04 323.49L418.58 320.9L420.02 318.26L421.36 315.55L422.6 312.78L423.73 309.96L424.75 307.09L425.66 304.16L426.46 301.19L427.14 298.17L427.71 295.11L428.15 292.01L428.47 288.87L428.66 285.7L428.73 282.49L428.66 279.29L428.47 276.11L428.15 272.98L427.71 269.88L427.14 266.82L426.46 263.8L425.66 260.83L424.75 257.9L423.73 255.03L422.6 252.21L421.36 249.44L420.02 246.73L418.58 244.08L417.04 241.5L415.41 238.98L413.68 236.52L411.86 234.14L409.96 231.83L407.97 229.6L405.89 227.45L403.74 225.37L401.5 223.38L399.19 221.47L396.81 219.65L394.36 217.93L391.84 216.29L389.25 214.75L386.61 213.31L383.9 211.97L381.13 210.74L378.31 209.61L375.44 208.58L372.51 207.67L369.54 206.88L366.52 206.19L363.46 205.63L360.36 205.19L357.22 204.87L354.05 204.67L350.84 204.61L239.41 204.61L239.41 445.85Z" id="aDCuXOs8f"></path><path d="M354.28 240.69L355.97 240.87L357.64 241.1L359.28 241.41L360.91 241.78L362.51 242.21L364.09 242.7L365.63 243.25L367.15 243.86L368.64 244.52L370.1 245.24L371.53 246.02L372.92 246.85L374.28 247.73L375.6 248.66L376.88 249.64L378.12 250.66L379.32 251.74L380.48 252.85L381.6 254.01L382.67 255.22L383.7 256.46L384.68 257.74L385.61 259.06L386.49 260.42L387.32 261.81L388.09 263.24L388.82 264.7L389.48 266.18L390.09 267.7L390.64 269.25L391.13 270.83L391.56 272.43L391.93 274.05L392.23 275.7L392.47 277.37L392.64 279.06L392.75 280.77L392.78 282.49L392.75 284.22L392.64 285.93L392.47 287.62L392.23 289.29L391.93 290.93L391.56 292.56L391.13 294.16L390.64 295.73L390.09 297.28L389.48 298.8L388.82 300.29L388.09 301.75L387.32 303.18L386.49 304.57L385.61 305.93L384.68 307.25L383.7 308.53L382.67 309.77L381.6 310.97L380.48 312.13L379.32 313.25L378.12 314.32L376.88 315.35L375.6 316.33L374.28 317.26L372.92 318.14L371.53 318.97L370.1 319.74L368.64 320.47L367.15 321.13L365.63 321.74L364.09 322.29L362.51 322.78L360.91 323.21L359.28 323.58L357.64 323.88L355.97 324.12L354.28 324.29L352.57 324.4L350.84 324.43L281.35 324.43L281.1 324.43L280.85 324.41L280.61 324.39L280.37 324.35L280.14 324.31L279.91 324.26L279.68 324.2L279.45 324.13L279.23 324.05L279.01 323.96L278.8 323.87L278.59 323.76L278.39 323.65L278.19 323.53L278 323.41L277.81 323.28L277.62 323.14L277.45 322.99L277.27 322.84L277.11 322.68L276.95 322.51L276.8 322.34L276.65 322.16L276.51 321.98L276.38 321.79L276.25 321.6L276.13 321.4L276.02 321.19L275.92 320.99L275.83 320.77L275.74 320.56L275.66 320.33L275.59 320.11L275.53 319.88L275.48 319.65L275.43 319.41L275.4 319.17L275.37 318.93L275.36 318.69L275.35 318.44L275.35 246.55L275.36 246.3L275.37 246.05L275.4 245.81L275.43 245.57L275.48 245.34L275.53 245.11L275.59 244.88L275.66 244.65L275.74 244.43L275.83 244.21L275.92 244L276.02 243.79L276.13 243.59L276.25 243.39L276.38 243.2L276.51 243.01L276.65 242.82L276.8 242.65L276.95 242.48L277.11 242.31L277.27 242.15L277.45 242L277.62 241.85L277.81 241.71L278 241.58L278.19 241.45L278.39 241.33L278.59 241.22L278.8 241.12L279.01 241.03L279.23 240.94L279.45 240.86L279.68 240.79L279.91 240.73L280.14 240.68L280.37 240.63L280.61 240.6L280.85 240.57L281.1 240.56L281.35 240.55L350.84 240.55L352.57 240.59L354.28 240.69ZM287.34 312.45L350.84 312.45L352.08 312.42L353.3 312.35L354.5 312.23L355.7 312.06L356.87 311.84L358.03 311.58L359.18 311.27L360.3 310.92L361.41 310.53L362.49 310.09L363.56 309.62L364.6 309.1L365.62 308.55L366.61 307.95L367.58 307.33L368.52 306.66L369.44 305.96L370.33 305.23L371.19 304.46L372.02 303.67L372.81 302.84L373.58 301.98L374.31 301.09L375.01 300.17L375.68 299.23L376.31 298.26L376.9 297.27L377.45 296.25L377.97 295.21L378.44 294.14L378.88 293.06L379.27 291.95L379.62 290.83L379.93 289.68L380.19 288.52L380.41 287.35L380.58 286.15L380.7 284.95L380.77 283.73L380.8 282.49L380.77 281.26L380.7 280.04L380.58 278.83L380.41 277.64L380.19 276.46L379.93 275.3L379.62 274.16L379.27 273.04L378.88 271.93L378.44 270.84L377.97 269.78L377.45 268.74L376.9 267.72L376.31 266.73L375.68 265.76L375.01 264.81L374.31 263.9L373.58 263.01L372.81 262.15L372.02 261.32L371.19 260.52L370.33 259.76L369.44 259.02L368.52 258.32L367.58 257.66L366.61 257.03L365.62 256.44L364.6 255.89L363.56 255.37L362.49 254.9L361.41 254.46L360.3 254.07L359.18 253.72L358.03 253.41L356.87 253.15L355.7 252.93L354.5 252.76L353.3 252.64L352.08 252.56L350.84 252.54L287.34 252.54L287.34 312.45Z" id="b2I6y88cyR"></path></defs><g><g><g><use xlink:href="#b6pyRPVDo" opacity="1" fill="#ff0871" fill-opacity="1"></use><g><use xlink:href="#b6pyRPVDo" opacity="1" fill-opacity="0" stroke="#000000" stroke-width="1" stroke-opacity="0"></use></g></g><g><use xlink:href="#h2JGY5jrb3" opacity="1" fill="#ffffff" fill-opacity="1"></use><g><use xlink:href="#h2JGY5jrb3" opacity="1" fill-opacity="0" stroke="#000000" stroke-width="1" stroke-opacity="0"></use></g></g><g><use xlink:href="#a2u2Fun3Vd" opacity="1" fill="#ffffff" fill-opacity="1"></use><g><use xlink:href="#a2u2Fun3Vd" opacity="1" fill-opacity="0" stroke="#000000" stroke-width="1" stroke-opacity="0"></use></g></g><g><use xlink:href="#aDCuXOs8f" opacity="1" fill="#ffffff" fill-opacity="1"></use><g><use xlink:href="#aDCuXOs8f" opacity="1" fill-opacity="0" stroke="#000000" stroke-width="1" stroke-opacity="0"></use></g></g><g><use xlink:href="#b2I6y88cyR" opacity="1" fill="#ffffff" fill-opacity="1"></use><g><use xlink:href="#b2I6y88cyR" opacity="1" fill-opacity="0" stroke="#000000" stroke-width="1" stroke-opacity="0"></use></g></g></g></g></svg>
