<?xml version="1.0" encoding="UTF-8" standalone="no"?>
<!DOCTYPE svg PUBLIC "-//W3C//DTD SVG 1.1//EN" "http://www.w3.org/Graphics/SVG/1.1/DTD/svg11.dtd">
<svg version="1.1" xmlns="http://www.w3.org/2000/svg" xmlns:xlink="http://www.w3.org/1999/xlink" preserveAspectRatio="xMidYMid meet" viewBox="0 0 640 640" width="512" height="512"><defs><path d="M480.64 42.92C431.6 14.3 378.07 0 320.01 0C261.95 0 208.41 14.3 159.38 42.92C110.35 71.53 71.54 110.34 42.92 159.37C14.3 208.4 0 261.95 0 320C0 378.06 14.31 431.59 42.92 480.63C71.53 529.65 110.35 568.47 159.38 597.08C208.41 625.69 261.95 640 320 640C378.06 640 431.61 625.69 480.63 597.08C529.66 568.48 568.48 529.65 597.09 480.63C625.7 431.6 640 378.05 640 320C640 261.94 625.7 208.4 597.09 159.37C568.48 110.35 529.66 71.53 480.64 42.92Z" id="b6pyRPVDo"></path><path d="M317.77 150.7L319.41 150.77L321.05 150.87L322.68 151L324.32 151.16L325.95 151.34L327.58 151.56L329.2 151.8L330.83 152.07L332.44 152.38L334.06 152.71L335.66 153.06L337.27 153.45L338.86 153.87L340.46 154.31L342.04 154.79L343.62 155.29L345.19 155.82L346.75 156.38L537.04 226.37L538.09 226.79L539.13 227.25L540.16 227.73L541.16 228.23L542.15 228.77L543.12 229.33L544.06 229.92L544.99 230.53L545.89 231.17L546.78 231.84L547.64 232.53L548.47 233.24L549.29 233.98L550.07 234.74L550.84 235.52L551.58 236.33L552.29 237.15L552.97 238L553.63 238.87L554.26 239.77L554.86 240.68L555.43 241.61L555.97 242.56L556.48 243.53L556.96 244.52L557.41 245.53L557.83 246.56L558.21 247.6L558.56 248.67L558.87 249.74L559.15 250.84L559.4 251.95L559.61 253.08L559.78 254.22L559.91 255.38L560.01 256.55L560.07 257.73L560.09 258.93L560.06 260.14L560 261.36L559.98 262.51L559.93 263.65L559.84 264.79L559.71 265.92L559.55 267.04L559.35 268.15L559.12 269.26L558.86 270.36L558.56 271.45L558.23 272.52L557.86 273.59L557.46 274.64L557.03 275.68L556.57 276.71L556.08 277.72L555.56 278.72L555 279.7L554.42 280.67L553.81 281.62L553.17 282.55L552.5 283.47L551.8 284.36L551.07 285.23L550.32 286.09L549.54 286.92L548.73 287.73L547.89 288.52L547.03 289.28L546.15 290.02L545.24 290.74L544.3 291.43L543.34 292.09L542.36 292.73L541.36 293.33L540.33 293.91L539.27 294.46L538.2 294.98L537.1 295.47L535.99 295.93L534.85 296.36L461.58 323.7L461.58 437.43L461.9 437.27L462.23 437.1L462.54 436.94L462.86 436.77L463.17 436.61L463.48 436.44L463.78 436.28L464.08 436.11L464.38 435.94L464.67 435.77L464.96 435.6L465.25 435.43L465.53 435.26L465.82 435.09L466.1 434.91L466.37 434.74L466.65 434.56L466.92 434.38L467.19 434.2L467.46 434.01L467.72 433.83L467.99 433.64L468.25 433.45L468.51 433.26L468.77 433.06L469.02 432.87L469.28 432.67L469.53 432.46L469.78 432.26L470.04 432.05L470.29 431.84L470.54 431.62L470.79 431.4L471.03 431.18L471.28 430.96L471.53 430.73L471.78 430.5L472.02 430.26L472.27 430.02L472.51 429.78L472.51 347.76L472.52 347.27L472.55 346.79L472.59 346.32L472.64 345.86L472.71 345.4L472.8 344.96L472.9 344.53L473.02 344.1L473.15 343.69L473.3 343.28L473.46 342.89L473.64 342.5L473.83 342.13L474.03 341.77L474.24 341.41L474.47 341.07L474.72 340.74L474.97 340.43L475.24 340.12L475.52 339.83L475.81 339.55L476.12 339.28L476.44 339.02L476.77 338.78L477.11 338.55L477.46 338.34L477.82 338.13L478.19 337.94L478.58 337.77L478.97 337.61L479.38 337.46L479.79 337.33L480.22 337.21L480.65 337.11L481.1 337.02L481.55 336.95L482.01 336.89L482.48 336.85L482.96 336.83L483.45 336.82L483.94 336.83L484.42 336.85L484.89 336.89L485.35 336.95L485.8 337.02L486.25 337.11L486.68 337.21L487.11 337.33L487.52 337.46L487.93 337.61L488.32 337.77L488.71 337.94L489.08 338.13L489.44 338.34L489.79 338.55L490.13 338.78L490.46 339.02L490.78 339.28L491.08 339.55L491.38 339.83L491.66 340.12L491.93 340.43L492.18 340.74L492.43 341.07L492.66 341.41L492.87 341.77L493.07 342.13L493.26 342.5L493.44 342.89L493.6 343.28L493.75 343.69L493.88 344.1L494 344.52L494.1 344.96L494.18 345.4L494.26 345.86L494.31 346.32L494.35 346.79L494.38 347.27L494.39 347.76L494.39 435.24L494.38 435.41L494.38 435.58L494.37 435.75L494.35 435.93L494.33 436.11L494.31 436.3L494.28 436.48L494.25 436.67L494.22 436.86L494.18 437.06L494.14 437.25L494.09 437.45L494.04 437.65L493.98 437.85L493.92 438.05L493.86 438.25L493.79 438.46L493.72 438.66L493.64 438.87L493.56 439.07L493.48 439.28L493.39 439.48L493.3 439.69L493.2 439.89L493.1 440.09L493 440.3L492.89 440.5L492.78 440.7L492.66 440.89L492.54 441.09L492.41 441.28L492.29 441.47L492.15 441.66L492.01 441.85L491.87 442.03L491.73 442.21L491.58 442.39L491.42 442.56L491.27 442.73L491.1 442.9L490.61 443.31L490.1 443.73L489.59 444.15L489.07 444.57L488.55 445L488.01 445.43L487.47 445.86L486.92 446.29L486.37 446.73L485.81 447.17L485.24 447.61L484.67 448.06L484.09 448.5L483.5 448.95L482.92 449.4L482.32 449.85L481.72 450.3L481.12 450.75L480.51 451.2L479.9 451.65L479.28 452.1L478.66 452.55L478.03 453L477.4 453.45L476.77 453.9L476.14 454.35L475.5 454.79L474.86 455.24L474.22 455.68L473.57 456.13L472.93 456.57L472.28 457L471.63 457.44L470.97 457.87L470.32 458.3L469.67 458.73L469.01 459.15L468.36 459.57L467.7 459.99L467.05 460.4L467.86 460.82L468.65 461.26L469.43 461.72L470.19 462.2L470.94 462.7L471.66 463.21L472.37 463.75L473.06 464.3L473.74 464.87L474.39 465.46L475.03 466.06L475.65 466.68L476.25 467.31L476.83 467.96L477.39 468.63L477.93 469.3L478.45 470L478.95 470.7L479.43 471.42L479.89 472.15L480.34 472.9L480.76 473.65L481.16 474.42L481.53 475.2L481.89 475.99L482.23 476.79L482.54 477.6L482.83 478.42L483.1 479.25L483.35 480.08L483.57 480.93L483.77 481.78L483.95 482.64L484.11 483.51L484.24 484.38L484.35 485.26L484.43 486.14L484.49 487.04L484.53 487.93L484.54 488.83L484.52 490.22L484.44 491.59L484.31 492.94L484.13 494.27L483.9 495.58L483.62 496.87L483.29 498.14L482.92 499.38L482.5 500.6L482.03 501.8L481.52 502.97L480.97 504.12L480.38 505.23L479.74 506.32L479.06 507.38L478.35 508.41L477.59 509.41L476.8 510.37L475.97 511.31L475.11 512.21L474.21 513.07L473.28 513.9L472.31 514.69L471.31 515.44L470.29 516.16L469.23 516.84L468.14 517.47L467.02 518.07L465.88 518.62L464.7 519.13L463.51 519.59L462.29 520.01L461.04 520.39L459.77 520.71L458.48 520.99L457.17 521.22L455.84 521.4L454.49 521.53L453.12 521.61L451.74 521.64L450.35 521.61L448.98 521.53L447.63 521.4L446.3 521.22L444.99 520.99L443.7 520.71L442.43 520.39L441.18 520.01L439.96 519.59L438.77 519.13L437.59 518.62L436.45 518.07L435.33 517.47L434.24 516.84L433.18 516.16L432.16 515.44L431.16 514.69L430.19 513.9L429.26 513.07L428.36 512.21L427.5 511.31L426.67 510.37L425.88 509.41L425.12 508.41L424.41 507.38L423.73 506.32L423.09 505.23L422.5 504.12L421.95 502.97L421.44 501.8L420.97 500.6L420.55 499.38L420.18 498.14L419.85 496.87L419.57 495.58L419.34 494.27L419.16 492.94L419.03 491.59L418.95 490.22L418.93 488.83L418.94 487.77L418.99 486.72L419.07 485.67L419.19 484.64L419.33 483.61L419.5 482.6L419.71 481.6L419.94 480.61L420.21 479.63L420.5 478.66L420.82 477.71L421.17 476.77L421.55 475.85L421.96 474.94L422.39 474.05L422.85 473.17L423.33 472.31L423.84 471.47L424.38 470.64L424.94 469.83L425.53 469.04L426.14 468.27L426.77 467.52L427.43 466.78L428.11 466.07L428.82 465.38L429.54 464.71L430.29 464.07L431.06 463.44L431.85 462.84L432.66 462.26L433.49 461.71L434.34 461.18L435.2 460.68L436.09 460.2L437 459.75L437.92 459.32L438.86 458.92L439.82 458.55L440.8 458.21L440.8 322.61L312.85 271.21L312.03 271.12L311.23 271.02L310.43 270.91L309.64 270.78L308.86 270.65L308.1 270.5L307.34 270.34L306.6 270.17L305.88 270L305.16 269.81L304.46 269.61L303.78 269.4L303.11 269.18L302.45 268.95L301.82 268.71L301.2 268.46L300.6 268.2L300.01 267.94L299.45 267.66L298.91 267.38L298.38 267.09L297.88 266.79L297.4 266.48L296.95 266.17L296.51 265.85L296.1 265.52L295.71 265.18L295.35 264.84L295.01 264.49L294.7 264.13L294.42 263.77L294.16 263.4L293.93 263.03L293.73 262.65L293.56 262.27L293.42 261.88L293.31 261.48L293.23 261.08L293.18 260.68L293.17 260.27L293.18 259.86L293.24 259.45L293.33 259.04L293.45 258.64L293.61 258.23L293.8 257.83L294.03 257.43L294.29 257.03L294.57 256.64L294.89 256.26L295.24 255.87L295.62 255.5L296.02 255.13L296.45 254.76L296.91 254.41L297.4 254.06L297.91 253.72L298.45 253.39L299.01 253.07L299.59 252.75L300.2 252.45L300.82 252.16L301.47 251.88L302.14 251.61L302.83 251.35L303.54 251.11L304.26 250.88L305.01 250.66L305.77 250.46L306.55 250.27L307.34 250.1L308.14 249.95L308.96 249.81L309.8 249.69L310.64 249.58L311.5 249.49L312.37 249.43L313.25 249.38L314.14 249.35L315.04 249.34L315.77 249.34L316.5 249.36L317.21 249.39L317.92 249.43L318.62 249.48L319.31 249.55L319.99 249.62L320.66 249.71L321.32 249.81L321.98 249.92L322.62 250.03L323.25 250.16L323.87 250.3L324.47 250.45L325.07 250.6L325.66 250.77L326.23 250.94L326.8 251.13L327.35 251.32L327.89 251.52L328.41 251.73L328.93 251.95L329.43 252.17L329.92 252.41L330.4 252.65L330.86 252.89L331.31 253.15L331.74 253.41L332.16 253.67L332.57 253.95L332.96 254.23L333.34 254.51L333.7 254.81L334.05 255.1L334.38 255.4L334.7 255.71L335 256.02L335.29 256.34L335.56 256.66L335.82 256.99L451.74 304.01L528.29 274.49L528.78 274.32L529.26 274.13L529.73 273.94L530.19 273.73L530.64 273.52L531.09 273.29L531.52 273.05L531.94 272.8L532.36 272.54L532.76 272.27L533.16 271.98L533.54 271.69L533.92 271.39L534.28 271.08L534.63 270.76L534.97 270.43L535.3 270.09L535.62 269.74L535.92 269.38L536.22 269.02L536.5 268.65L536.77 268.27L537.02 267.88L537.26 267.48L537.49 267.08L537.71 266.66L537.91 266.25L538.1 265.82L538.28 265.39L538.44 264.95L538.58 264.51L538.72 264.06L538.83 263.6L538.94 263.14L539.02 262.68L539.09 262.2L539.15 261.73L539.19 261.25L539.22 260.76L539.22 260.27L539.22 259.78L539.2 259.3L539.17 258.83L539.12 258.37L539.07 257.91L539 257.47L538.92 257.03L538.83 256.6L538.73 256.19L538.61 255.78L538.48 255.38L538.34 254.99L538.18 254.6L538.02 254.23L537.84 253.87L537.65 253.52L537.45 253.17L537.23 252.84L537 252.52L536.76 252.21L536.51 251.9L536.25 251.61L535.97 251.33L535.68 251.06L535.38 250.8L535.06 250.55L534.74 250.31L534.4 250.08L534.05 249.87L533.69 249.66L533.31 249.47L532.92 249.28L532.52 249.11L532.11 248.95L531.69 248.8L531.25 248.67L530.8 248.54L530.34 248.43L529.87 248.33L529.38 248.24L339.1 178.25L337.86 177.77L336.63 177.32L335.39 176.9L334.15 176.51L332.9 176.14L331.65 175.8L330.4 175.49L329.15 175.21L327.89 174.95L326.64 174.71L325.38 174.51L324.13 174.32L322.87 174.17L321.61 174.03L320.35 173.93L319.1 173.84L317.84 173.78L316.59 173.74L315.33 173.73L314.08 173.74L312.83 173.77L311.58 173.83L310.34 173.9L309.1 174L307.86 174.12L306.62 174.26L305.39 174.42L304.17 174.6L302.94 174.8L301.73 175.02L300.51 175.26L299.31 175.52L298.11 175.8L296.91 176.1L295.72 176.41L294.54 176.75L293.36 177.1L292.2 177.46L291.04 177.85L289.88 178.25L111.63 246.05L110.99 246.31L110.37 246.59L109.79 246.88L109.23 247.19L108.69 247.52L108.19 247.86L107.7 248.21L107.25 248.58L106.81 248.96L106.4 249.35L106.01 249.75L105.64 250.16L105.3 250.57L104.97 250.99L104.67 251.42L104.38 251.85L104.12 252.28L103.87 252.71L103.64 253.14L103.43 253.57L103.23 254L103.05 254.43L102.88 254.85L102.73 255.27L102.59 255.68L102.47 256.08L102.36 256.47L102.26 256.86L102.17 257.23L102.09 257.59L102.03 257.93L101.97 258.27L101.92 258.58L101.88 258.88L101.85 259.17L101.83 259.43L101.81 259.67L101.8 259.89L101.79 260.09L101.79 260.27L101.79 260.44L101.8 260.64L101.81 260.85L101.83 261.08L101.85 261.33L101.88 261.59L101.92 261.87L101.97 262.16L102.03 262.47L102.09 262.78L102.17 263.11L102.26 263.45L102.36 263.8L102.47 264.16L102.59 264.52L102.73 264.89L102.88 265.27L103.05 265.65L103.23 266.03L103.43 266.42L103.64 266.81L103.87 267.2L104.12 267.6L104.38 267.99L104.67 268.38L104.97 268.76L105.3 269.15L105.64 269.53L106.01 269.9L106.4 270.27L106.81 270.63L107.25 270.98L107.7 271.32L108.19 271.66L108.69 271.98L109.23 272.29L109.79 272.59L110.37 272.87L110.99 273.14L111.63 273.39L301.91 342.29L303.14 342.69L304.37 343.07L305.6 343.43L306.83 343.77L308.06 344.08L309.29 344.38L310.51 344.66L311.74 344.91L312.96 345.15L314.18 345.37L315.4 345.56L316.62 345.74L317.83 345.89L319.04 346.02L320.25 346.13L321.46 346.23L322.66 346.3L323.86 346.35L325.06 346.38L326.25 346.39L327.43 346.38L328.62 346.35L329.8 346.3L330.97 346.23L332.14 346.13L333.3 346.02L334.46 345.89L335.61 345.74L336.76 345.56L337.9 345.37L339.04 345.15L340.16 344.91L341.29 344.66L342.4 344.38L343.51 344.08L344.61 343.77L345.7 343.43L346.79 343.07L347.87 342.69L348.94 342.29L392.68 325.89L393.09 325.73L393.51 325.6L393.93 325.48L394.35 325.39L394.77 325.32L395.2 325.26L395.62 325.22L396.05 325.2L396.48 325.2L396.9 325.22L397.33 325.25L397.75 325.31L398.17 325.37L398.59 325.46L399.01 325.56L399.42 325.68L399.83 325.81L400.23 325.96L400.63 326.12L401.02 326.3L401.41 326.49L401.79 326.69L402.16 326.91L402.52 327.15L402.88 327.39L403.23 327.65L403.57 327.92L403.9 328.21L404.22 328.5L404.52 328.81L404.82 329.13L405.1 329.46L405.38 329.8L405.64 330.15L405.88 330.51L406.12 330.88L406.33 331.26L406.54 331.64L406.73 332.04L406.9 332.45L407.05 332.86L407.19 333.28L407.3 333.69L407.39 334.12L407.47 334.54L407.52 334.96L407.56 335.39L407.58 335.82L407.58 336.24L407.56 336.67L407.53 337.09L407.48 337.52L407.41 337.94L407.33 338.36L407.22 338.77L407.11 339.18L406.98 339.59L406.83 340L406.67 340.39L406.49 340.79L406.3 341.17L406.09 341.55L405.87 341.93L405.64 342.29L405.39 342.65L405.13 342.99L404.86 343.33L404.58 343.66L404.28 343.98L403.98 344.29L403.66 344.59L403.33 344.87L402.99 345.14L402.64 345.4L402.28 345.65L401.91 345.88L401.53 346.1L401.14 346.3L400.74 346.49L400.34 346.66L356.59 363.07L355.93 363.39L355.26 363.71L354.59 364.02L353.91 364.32L353.21 364.61L352.52 364.89L351.81 365.16L351.1 365.43L350.38 365.69L349.66 365.94L348.92 366.18L348.19 366.42L347.45 366.64L346.7 366.86L345.94 367.07L345.18 367.27L344.42 367.46L343.65 367.65L342.88 367.82L342.1 367.99L341.32 368.15L340.54 368.3L339.75 368.45L338.96 368.58L338.16 368.71L337.36 368.83L336.56 368.94L335.76 369.04L334.95 369.13L334.14 369.22L333.33 369.3L332.52 369.37L331.7 369.43L330.89 369.48L330.07 369.53L329.25 369.56L328.43 369.59L327.61 369.61L326.79 369.63L325.97 369.63L325.15 369.63L324.33 369.61L323.51 369.59L322.69 369.57L321.87 369.53L321.06 369.49L320.24 369.44L319.42 369.38L318.6 369.31L317.79 369.24L316.97 369.16L316.16 369.07L315.35 368.97L314.54 368.87L313.73 368.77L312.92 368.65L312.11 368.53L311.31 368.4L310.51 368.27L309.71 368.13L308.91 367.98L308.11 367.83L307.32 367.67L306.52 367.5L305.74 367.33L304.95 367.16L304.16 366.98L303.38 366.79L302.6 366.6L301.83 366.4L301.06 366.2L300.29 365.99L299.52 365.78L298.76 365.56L298 365.34L297.24 365.11L296.49 364.88L295.74 364.65L295 364.41L294.26 364.16L103.97 294.17L102.92 293.75L101.87 293.3L100.85 292.82L99.85 292.31L98.86 291.77L97.89 291.21L96.94 290.63L96.01 290.02L95.1 289.38L94.22 288.72L93.35 288.04L92.51 287.33L91.69 286.6L90.89 285.85L90.11 285.08L89.36 284.29L88.64 283.47L87.94 282.64L87.26 281.78L86.61 280.91L85.99 280.02L85.4 279.11L84.83 278.19L84.29 277.24L83.78 276.28L83.3 275.31L82.85 274.32L82.42 273.31L82.03 272.29L81.68 271.26L81.35 270.21L81.05 269.15L80.79 268.08L80.56 266.99L80.37 265.9L80.2 264.79L80.08 263.68L79.99 262.55L79.93 261.41L79.92 260.27L79.93 259.12L79.98 257.98L80.06 256.85L80.18 255.72L80.32 254.6L80.5 253.48L80.71 252.37L80.95 251.28L81.22 250.19L81.52 249.11L81.85 248.05L82.22 246.99L82.61 245.95L83.04 244.93L83.49 243.91L83.97 242.91L84.49 241.93L85.03 240.96L85.6 240.01L86.2 239.08L86.83 238.17L87.49 237.27L88.18 236.4L88.89 235.55L89.63 234.71L90.4 233.9L91.2 233.12L92.03 232.35L92.88 231.61L93.76 230.9L94.66 230.21L95.59 229.55L96.55 228.91L97.53 228.3L98.54 227.72L99.58 227.17L100.64 226.65L101.73 226.16L102.84 225.7L103.97 225.28L282.23 156.38L283.79 155.82L285.36 155.29L286.94 154.79L288.52 154.31L290.11 153.87L291.71 153.45L293.31 153.06L294.92 152.71L296.54 152.38L298.15 152.07L299.78 151.8L301.4 151.56L303.03 151.34L304.66 151.16L306.3 151L307.93 150.87L309.57 150.77L311.21 150.7L312.85 150.65L314.49 150.64L316.13 150.65L317.77 150.7ZM448.87 479.29L447.57 479.66L446.36 480.17L445.26 480.81L444.26 481.57L443.38 482.45L442.62 483.45L441.98 484.55L441.47 485.76L441.1 487.06L440.88 488.45L440.8 489.93L440.88 491.4L441.1 492.79L441.47 494.09L441.98 495.3L442.62 496.4L443.38 497.4L444.26 498.28L445.26 499.04L446.36 499.68L447.57 500.19L448.87 500.56L450.26 500.78L451.74 500.86L453.21 500.78L454.6 500.56L455.9 500.19L457.11 499.68L458.21 499.04L459.21 498.28L460.09 497.4L460.85 496.4L461.49 495.3L462 494.09L462.37 492.79L462.59 491.4L462.67 489.93L462.59 488.45L462.37 487.06L462 485.76L461.49 484.55L460.85 483.45L460.09 482.45L459.21 481.57L458.21 480.81L457.11 480.17L455.9 479.66L454.6 479.29L453.21 479.07L451.74 478.99L450.26 479.07L448.87 479.29Z" id="d72oAXxOgB"></path><path d="M383.93 471.33C362.06 476.8 340.19 478.99 320.5 478.99C265.83 478.99 201.3 458.21 167.4 429.78C167.4 421.57 167.4 355.96 167.4 347.76C167.4 341.2 163.03 336.82 156.47 336.82C149.91 336.82 145.53 341.2 145.53 347.76C145.53 356.51 145.53 426.5 145.53 435.24C145.53 438.53 146.63 441.81 148.81 442.9C191.46 481.18 266.92 500.86 320.5 500.86C341.28 500.86 365.34 497.58 388.31 492.11C393.78 491.02 398.15 484.46 395.96 478.99C394.87 473.52 389.4 469.15 383.93 471.33Z" id="e3awWYwxAm"></path></defs><g><g><g><use xlink:href="#b6pyRPVDo" opacity="1" fill="#ff0871" fill-opacity="1"></use><g><use xlink:href="#b6pyRPVDo" opacity="1" fill-opacity="0" stroke="#000000" stroke-width="1" stroke-opacity="0"></use></g></g><g><use xlink:href="#d72oAXxOgB" opacity="1" fill="#ffffff" fill-opacity="1"></use><g><use xlink:href="#d72oAXxOgB" opacity="1" fill-opacity="0" stroke="#000000" stroke-width="1" stroke-opacity="0"></use></g></g><g><use xlink:href="#e3awWYwxAm" opacity="1" fill="#ffffff" fill-opacity="1"></use><g><use xlink:href="#e3awWYwxAm" opacity="1" fill-opacity="0" stroke="#000000" stroke-width="1" stroke-opacity="0"></use></g></g></g></g></svg>
