<?xml version="1.0" encoding="UTF-8" standalone="no"?>
<!DOCTYPE svg PUBLIC "-//W3C//DTD SVG 1.1//EN" "http://www.w3.org/Graphics/SVG/1.1/DTD/svg11.dtd">
<svg version="1.1" xmlns="http://www.w3.org/2000/svg" xmlns:xlink="http://www.w3.org/1999/xlink" preserveAspectRatio="xMidYMid meet" viewBox="0 0 640 640" width="512" height="512"><defs><path d="M480.64 42.92C431.6 14.3 378.07 0 320.01 0C261.95 0 208.41 14.3 159.38 42.92C110.35 71.53 71.54 110.34 42.92 159.37C14.3 208.4 0 261.95 0 320C0 378.06 14.31 431.59 42.92 480.63C71.53 529.65 110.35 568.47 159.38 597.08C208.41 625.69 261.95 640 320 640C378.06 640 431.61 625.69 480.63 597.08C529.66 568.48 568.48 529.65 597.09 480.63C625.7 431.6 640 378.05 640 320C640 261.94 625.7 208.4 597.09 159.37C568.48 110.35 529.66 71.53 480.64 42.92Z" id="f17upiHqVo"></path><path d="M391.85 92.85L392.65 92.93L393.45 93.05L394.23 93.19L395 93.36L395.77 93.57L396.51 93.8L397.25 94.06L397.97 94.35L398.68 94.67L399.38 95.01L400.06 95.38L400.72 95.78L401.36 96.2L401.99 96.64L402.6 97.11L403.19 97.59L403.77 98.1L404.32 98.64L404.85 99.19L405.36 99.76L405.85 100.35L406.32 100.96L406.76 101.59L407.18 102.24L407.57 102.9L407.94 103.58L408.28 104.27L408.6 104.98L408.89 105.7L409.15 106.44L409.39 107.19L409.59 107.95L409.77 108.72L409.91 109.51L410.02 110.3L410.11 111.11L410.16 111.92L410.17 112.74L410.17 160.3L410.16 161.12L410.11 161.94L410.02 162.74L409.91 163.54L409.77 164.32L409.59 165.09L409.39 165.86L409.15 166.61L408.89 167.34L408.6 168.06L408.28 168.77L407.94 169.47L407.57 170.15L407.18 170.81L406.76 171.45L406.32 172.08L405.85 172.69L405.36 173.29L404.85 173.86L404.32 174.41L403.77 174.94L403.19 175.45L402.6 175.94L401.99 176.41L401.36 176.85L400.72 177.27L400.06 177.66L399.38 178.03L398.68 178.37L397.97 178.69L397.25 178.98L396.51 179.24L395.77 179.48L395 179.68L394.23 179.86L393.45 180L392.65 180.11L391.85 180.2L391.03 180.25L390.21 180.26L382.99 180.26L382.99 187.91L403.8 187.91L406.3 187.96L408.78 188.11L411.22 188.36L413.64 188.7L416.03 189.14L418.38 189.67L420.7 190.3L422.98 191.01L425.22 191.8L427.42 192.69L429.57 193.65L431.69 194.69L433.75 195.82L435.77 197.02L437.73 198.29L439.64 199.64L441.5 201.06L443.3 202.54L445.04 204.1L446.72 205.71L448.34 207.39L449.89 209.13L451.38 210.94L452.8 212.79L454.14 214.7L455.42 216.67L456.62 218.68L457.74 220.75L458.79 222.86L459.75 225.02L460.63 227.22L461.43 229.46L462.14 231.74L462.76 234.06L463.29 236.41L463.73 238.8L464.08 241.21L464.33 243.66L464.48 246.13L464.53 248.63L464.53 466.06L464.48 468.56L464.33 471.03L464.08 473.48L463.73 475.89L463.29 478.28L462.76 480.63L462.14 482.95L461.43 485.23L460.63 487.47L459.75 489.67L458.79 491.83L457.74 493.94L456.62 496.01L455.42 498.02L454.14 499.99L452.8 501.9L451.38 503.76L449.89 505.56L448.34 507.3L446.72 508.98L445.04 510.59L443.3 512.15L441.5 513.63L439.64 515.05L437.73 516.4L435.77 517.67L433.75 518.87L431.69 520L429.57 521.04L427.42 522L425.22 522.89L422.98 523.68L420.7 524.39L418.38 525.02L416.03 525.55L413.64 525.99L411.22 526.33L408.78 526.58L406.3 526.73L403.8 526.78L240.73 526.78L238.23 526.73L235.75 526.58L233.31 526.33L230.89 525.99L228.5 525.55L226.15 525.02L223.83 524.39L221.55 523.68L219.31 522.89L217.11 522L214.96 521.04L212.84 520L210.78 518.87L208.76 517.67L206.8 516.4L204.89 515.05L203.03 513.63L201.23 512.15L199.49 510.59L197.81 508.98L196.19 507.3L194.64 505.56L193.15 503.76L191.73 501.9L190.39 499.99L189.11 498.02L187.91 496.01L186.79 493.94L185.74 491.83L184.78 489.67L183.9 487.47L183.1 485.23L182.39 482.95L181.77 480.63L181.24 478.28L180.8 475.89L180.45 473.48L180.2 471.03L180.05 468.56L180 466.06L180 432.09L180.01 431.82L180.02 431.56L180.05 431.31L180.08 431.05L180.13 430.8L180.19 430.55L180.25 430.31L180.32 430.07L180.41 429.84L180.5 429.61L180.6 429.38L180.71 429.16L180.83 428.94L180.95 428.73L181.09 428.52L181.23 428.32L181.38 428.13L181.53 427.94L181.7 427.76L181.87 427.58L182.04 427.41L182.22 427.25L182.41 427.09L182.61 426.94L182.81 426.8L183.01 426.67L183.23 426.54L183.44 426.43L183.66 426.32L183.89 426.22L184.12 426.12L184.36 426.04L184.6 425.97L184.84 425.9L185.09 425.84L185.34 425.8L185.59 425.76L185.85 425.74L186.11 425.72L186.37 425.71L186.63 425.72L186.89 425.74L187.15 425.76L187.4 425.8L187.65 425.84L187.9 425.9L188.14 425.97L188.38 426.04L188.62 426.12L188.85 426.22L189.08 426.32L189.3 426.43L189.51 426.54L189.73 426.67L189.93 426.8L190.13 426.94L190.33 427.09L190.52 427.25L190.7 427.41L190.87 427.58L191.04 427.76L191.21 427.94L191.36 428.13L191.51 428.32L191.65 428.52L191.79 428.73L191.91 428.94L192.03 429.16L192.14 429.38L192.24 429.61L192.33 429.84L192.42 430.07L192.49 430.31L192.56 430.55L192.61 430.8L192.66 431.05L192.69 431.31L192.72 431.56L192.74 431.82L192.74 432.09L192.74 446.1L451.79 446.1L451.79 268.59L403.8 268.59L403.54 268.59L403.28 268.57L403.02 268.54L402.77 268.51L402.52 268.46L402.27 268.41L402.03 268.34L401.79 268.27L401.56 268.18L401.32 268.09L401.1 267.99L400.88 267.88L400.66 267.76L400.45 267.64L400.24 267.5L400.04 267.36L399.85 267.21L399.66 267.06L399.48 266.9L399.3 266.73L399.13 266.55L398.97 266.37L398.81 266.18L398.66 265.98L398.52 265.78L398.39 265.58L398.26 265.37L398.14 265.15L398.03 264.93L397.93 264.7L397.84 264.47L397.76 264.23L397.68 264L397.62 263.75L397.56 263.51L397.52 263.25L397.48 263L397.45 262.74L397.44 262.48L397.43 262.22L397.44 261.96L397.45 261.7L397.48 261.44L397.52 261.19L397.56 260.94L397.62 260.69L397.68 260.45L397.76 260.21L397.84 259.97L397.93 259.74L398.03 259.52L398.14 259.29L398.26 259.08L398.39 258.87L398.52 258.66L398.66 258.46L398.81 258.26L398.97 258.08L399.13 257.89L399.3 257.72L399.48 257.55L399.66 257.38L399.85 257.23L400.04 257.08L400.24 256.94L400.45 256.81L400.66 256.68L400.88 256.56L401.1 256.45L401.32 256.35L401.56 256.26L401.79 256.18L402.03 256.1L402.27 256.04L402.52 255.98L402.77 255.93L403.02 255.9L403.28 255.87L403.54 255.86L403.8 255.85L451.79 255.85L451.79 248.63L451.75 246.66L451.63 244.7L451.44 242.77L451.16 240.86L450.82 238.97L450.39 237.11L449.9 235.28L449.34 233.48L448.71 231.71L448.01 229.97L447.25 228.27L446.43 226.6L445.54 224.97L444.59 223.37L443.58 221.82L442.52 220.31L441.4 218.84L440.23 217.42L439 216.04L437.72 214.72L436.39 213.44L435.02 212.21L433.59 211.04L432.13 209.92L430.62 208.85L429.06 207.84L427.47 206.9L425.84 206.01L424.17 205.18L422.46 204.42L420.73 203.73L418.96 203.1L417.15 202.53L415.32 202.04L413.46 201.62L411.58 201.27L409.67 201L407.73 200.8L405.78 200.69L403.8 200.65L376.62 200.65L376.36 200.64L376.1 200.62L375.85 200.6L375.59 200.56L375.34 200.52L375.09 200.46L374.85 200.39L374.61 200.32L374.38 200.24L374.14 200.14L373.92 200.04L373.7 199.93L373.48 199.82L373.27 199.69L373.06 199.56L372.86 199.42L372.67 199.27L372.48 199.11L372.3 198.95L372.12 198.78L371.95 198.6L371.79 198.42L371.63 198.23L371.48 198.04L371.34 197.84L371.21 197.63L371.08 197.42L370.97 197.2L370.86 196.98L370.75 196.75L370.66 196.52L370.58 196.29L370.5 196.05L370.44 195.81L370.38 195.56L370.34 195.31L370.3 195.05L370.28 194.8L370.26 194.54L370.25 194.28L370.25 180.26L274.28 180.26L274.28 194.28L274.27 194.54L274.26 194.8L274.23 195.05L274.2 195.31L274.15 195.56L274.09 195.81L274.03 196.05L273.95 196.29L273.87 196.52L273.78 196.75L273.68 196.98L273.57 197.2L273.45 197.42L273.32 197.63L273.19 197.84L273.05 198.04L272.9 198.23L272.74 198.42L272.58 198.6L272.41 198.78L272.24 198.95L272.05 199.11L271.86 199.27L271.67 199.42L271.47 199.56L271.26 199.69L271.05 199.82L270.84 199.93L270.61 200.04L270.39 200.14L270.16 200.24L269.92 200.32L269.68 200.39L269.44 200.46L269.19 200.52L268.94 200.56L268.69 200.6L268.43 200.62L268.17 200.64L267.91 200.65L240.73 200.65L238.75 200.69L236.8 200.8L234.87 201L232.96 201.27L231.07 201.62L229.21 202.04L227.38 202.53L225.58 203.1L223.81 203.73L222.07 204.42L220.36 205.18L218.69 206.01L217.06 206.9L215.47 207.84L213.92 208.85L212.41 209.92L210.94 211.04L209.52 212.21L208.14 213.44L206.81 214.72L205.53 216.04L204.31 217.42L203.13 218.84L202.01 220.31L200.95 221.82L199.94 223.37L198.99 224.97L198.11 226.6L197.28 228.27L196.52 229.97L195.82 231.71L195.19 233.48L194.63 235.28L194.14 237.11L193.72 238.97L193.37 240.86L193.1 242.77L192.9 244.7L192.78 246.66L192.74 248.63L192.74 255.85L376.62 255.85L376.89 255.86L377.15 255.87L377.4 255.9L377.66 255.93L377.91 255.98L378.15 256.04L378.4 256.1L378.64 256.18L378.87 256.26L379.1 256.35L379.33 256.45L379.55 256.56L379.77 256.68L379.98 256.81L380.19 256.94L380.39 257.08L380.58 257.23L380.77 257.38L380.95 257.55L381.13 257.72L381.3 257.89L381.46 258.08L381.62 258.26L381.76 258.46L381.91 258.66L382.04 258.87L382.17 259.08L382.28 259.29L382.39 259.52L382.49 259.74L382.59 259.97L382.67 260.21L382.74 260.45L382.81 260.69L382.86 260.94L382.91 261.19L382.95 261.44L382.97 261.7L382.99 261.96L382.99 262.22L382.99 262.48L382.97 262.74L382.95 263L382.91 263.25L382.86 263.51L382.81 263.75L382.74 264L382.67 264.23L382.59 264.47L382.49 264.7L382.39 264.93L382.28 265.15L382.17 265.37L382.04 265.58L381.91 265.78L381.76 265.98L381.62 266.18L381.46 266.37L381.3 266.55L381.13 266.73L380.95 266.9L380.77 267.06L380.58 267.21L380.39 267.36L380.19 267.5L379.98 267.64L379.77 267.76L379.55 267.88L379.33 267.99L379.1 268.09L378.87 268.18L378.64 268.27L378.4 268.34L378.15 268.41L377.91 268.46L377.66 268.51L377.4 268.54L377.15 268.57L376.89 268.59L376.62 268.59L192.74 268.59L192.74 404.91L192.74 405.17L192.72 405.43L192.69 405.69L192.66 405.94L192.61 406.19L192.56 406.44L192.49 406.68L192.42 406.92L192.33 407.16L192.24 407.39L192.14 407.61L192.03 407.83L191.91 408.05L191.79 408.26L191.65 408.47L191.51 408.67L191.36 408.86L191.21 409.05L191.04 409.24L190.87 409.41L190.7 409.58L190.52 409.74L190.33 409.9L190.13 410.05L189.93 410.19L189.73 410.32L189.51 410.45L189.3 410.57L189.08 410.68L188.85 410.78L188.62 410.87L188.38 410.95L188.14 411.03L187.9 411.09L187.65 411.15L187.4 411.19L187.15 411.23L186.89 411.26L186.63 411.27L186.37 411.28L186.11 411.27L185.85 411.26L185.59 411.23L185.34 411.19L185.09 411.15L184.84 411.09L184.6 411.03L184.36 410.95L184.12 410.87L183.89 410.78L183.66 410.68L183.44 410.57L183.23 410.45L183.01 410.32L182.81 410.19L182.61 410.05L182.41 409.9L182.22 409.74L182.04 409.58L181.87 409.41L181.7 409.24L181.53 409.05L181.38 408.86L181.23 408.67L181.09 408.47L180.95 408.26L180.83 408.05L180.71 407.83L180.6 407.61L180.5 407.39L180.41 407.16L180.32 406.92L180.25 406.68L180.19 406.44L180.13 406.19L180.08 405.94L180.05 405.69L180.02 405.43L180.01 405.17L180 404.91L180 248.63L180.05 246.13L180.2 243.66L180.45 241.21L180.8 238.8L181.24 236.41L181.77 234.06L182.39 231.74L183.1 229.46L183.9 227.22L184.78 225.02L185.74 222.86L186.79 220.75L187.91 218.69L189.11 216.67L190.39 214.7L191.73 212.79L193.15 210.94L194.64 209.14L196.19 207.39L197.81 205.71L199.49 204.1L201.23 202.54L203.03 201.06L204.89 199.64L206.8 198.29L208.76 197.02L210.78 195.82L212.84 194.7L214.96 193.65L217.11 192.69L219.31 191.81L221.55 191.01L223.83 190.3L226.15 189.68L228.5 189.14L230.89 188.7L233.31 188.36L235.75 188.11L238.23 187.96L240.73 187.91L261.54 187.91L261.54 180.26L254.32 180.26L253.5 180.25L252.68 180.2L251.88 180.12L251.08 180L250.3 179.86L249.53 179.68L248.76 179.48L248.02 179.24L247.28 178.98L246.56 178.69L245.85 178.38L245.15 178.03L244.47 177.66L243.81 177.27L243.17 176.85L242.54 176.41L241.93 175.94L241.34 175.45L240.76 174.94L240.21 174.41L239.68 173.86L239.17 173.29L238.68 172.69L238.21 172.08L237.77 171.46L237.35 170.81L236.96 170.15L236.59 169.47L236.25 168.77L235.93 168.07L235.64 167.34L235.38 166.61L235.14 165.86L234.94 165.09L234.76 164.32L234.62 163.54L234.51 162.74L234.42 161.94L234.37 161.13L234.36 160.3L234.36 112.74L234.37 111.92L234.42 111.11L234.51 110.3L234.62 109.51L234.76 108.73L234.94 107.95L235.14 107.19L235.38 106.44L235.64 105.7L235.93 104.98L236.25 104.27L236.59 103.58L236.96 102.9L237.35 102.24L237.77 101.59L238.21 100.96L238.68 100.35L239.17 99.76L239.68 99.19L240.21 98.64L240.76 98.1L241.34 97.59L241.93 97.11L242.54 96.64L243.17 96.2L243.81 95.78L244.47 95.38L245.15 95.01L245.85 94.67L246.56 94.35L247.28 94.06L248.02 93.8L248.76 93.57L249.53 93.36L250.3 93.19L251.08 93.05L251.88 92.93L252.68 92.85L253.5 92.8L254.32 92.78L390.21 92.78L391.03 92.8L391.85 92.85ZM192.74 466.06L192.78 468.03L192.9 469.99L193.1 471.92L193.37 473.83L193.72 475.72L194.14 477.58L194.63 479.41L195.19 481.21L195.82 482.98L196.52 484.72L197.28 486.42L198.1 488.09L198.99 489.72L199.94 491.32L200.95 492.87L202.01 494.38L203.13 495.85L204.31 497.27L205.53 498.65L206.81 499.97L208.14 501.25L209.52 502.48L210.94 503.65L212.41 504.77L213.92 505.84L215.47 506.84L217.06 507.79L218.69 508.68L220.36 509.51L222.07 510.27L223.81 510.96L225.58 511.59L227.38 512.16L229.21 512.65L231.07 513.07L232.95 513.41L234.86 513.69L236.8 513.88L238.75 514L240.73 514.04L403.8 514.04L405.12 514.01L406.43 513.92L407.74 513.77L409.04 513.56L410.34 513.29L411.63 512.96L412.91 512.57L414.19 512.12L415.46 511.61L416.72 511.04L417.98 510.42L419.23 509.73L420.48 508.98L421.72 508.17L422.95 507.3L424.18 506.37L425.4 505.38L426.62 504.33L427.83 503.22L429.03 502.05L430.23 500.82L431.42 499.53L432.6 498.18L433.78 496.77L434.95 495.3L436.12 493.77L437.28 492.18L438.43 490.53L439.58 488.82L440.72 487.05L441.85 485.22L442.98 483.33L444.1 481.38L445.22 479.37L446.33 477.3L447.43 475.17L448.53 472.99L449.62 470.74L450.71 468.43L451.79 466.06L451.79 458.84L192.74 458.84L192.74 466.06ZM254.02 105.53L253.73 105.55L253.43 105.58L253.15 105.62L252.86 105.67L252.58 105.73L252.31 105.81L252.04 105.89L251.77 105.99L251.51 106.09L251.25 106.2L251 106.33L250.76 106.46L250.52 106.61L250.28 106.76L250.06 106.92L249.84 107.09L249.62 107.26L249.41 107.45L249.21 107.64L249.02 107.84L248.84 108.05L248.66 108.26L248.49 108.48L248.33 108.71L248.18 108.94L248.04 109.18L247.9 109.43L247.78 109.68L247.67 109.93L247.56 110.2L247.47 110.46L247.38 110.73L247.31 111.01L247.24 111.29L247.19 111.57L247.15 111.86L247.12 112.15L247.1 112.44L247.1 112.74L247.1 160.3L247.1 160.5L247.12 160.7L247.14 160.9L247.17 161.09L247.21 161.29L247.26 161.48L247.32 161.67L247.39 161.87L247.46 162.06L247.55 162.25L247.64 162.44L247.75 162.63L247.86 162.81L247.98 163L248.11 163.19L248.25 163.37L248.4 163.55L248.56 163.74L248.73 163.92L248.9 164.1L249.09 164.28L249.28 164.46L249.48 164.64L249.7 164.81L249.92 164.99L250.15 165.17L250.39 165.34L250.64 165.51L250.89 165.69L251.16 165.86L251.43 166.03L251.72 166.2L252.01 166.37L252.31 166.53L252.63 166.7L252.95 166.87L253.27 167.03L253.61 167.2L253.96 167.36L254.32 167.52L390.21 167.52L390.51 167.52L390.8 167.5L391.09 167.47L391.38 167.43L391.67 167.38L391.95 167.31L392.22 167.24L392.49 167.15L392.76 167.06L393.02 166.95L393.28 166.84L393.53 166.72L393.77 166.58L394.01 166.44L394.25 166.29L394.47 166.13L394.69 165.96L394.91 165.78L395.12 165.6L395.31 165.41L395.51 165.21L395.69 165L395.87 164.79L396.04 164.56L396.2 164.34L396.35 164.1L396.49 163.86L396.62 163.62L396.75 163.37L396.86 163.11L396.97 162.85L397.06 162.58L397.15 162.31L397.22 162.04L397.28 161.76L397.34 161.47L397.38 161.19L397.41 160.89L397.43 160.6L397.43 160.3L397.43 112.74L397.43 112.44L397.41 112.15L397.38 111.86L397.34 111.57L397.28 111.29L397.22 111.01L397.15 110.73L397.06 110.46L396.97 110.2L396.86 109.93L396.75 109.68L396.62 109.43L396.49 109.18L396.35 108.94L396.2 108.71L396.04 108.48L395.87 108.26L395.69 108.05L395.51 107.84L395.31 107.64L395.11 107.45L394.91 107.26L394.69 107.09L394.47 106.92L394.25 106.76L394.01 106.61L393.77 106.46L393.53 106.33L393.28 106.2L393.02 106.09L392.76 105.99L392.49 105.89L392.22 105.81L391.94 105.73L391.67 105.67L391.38 105.62L391.09 105.58L390.8 105.55L390.51 105.53L390.21 105.52L254.32 105.52L254.02 105.53Z" id="c2d3nZ9ABh"></path><path d="M315.89 119.54C315.89 122.93 315.89 150.11 315.89 153.51C315.89 157.03 318.75 159.88 322.27 159.88C325.78 159.88 328.64 157.03 328.64 153.51C328.64 150.11 328.64 122.93 328.64 119.54C328.64 116.02 325.78 113.17 322.27 113.17C318.75 113.17 315.89 116.02 315.89 119.54Z" id="adD1pRNvN"></path><path d="M343.07 119.54C343.07 122.93 343.07 150.11 343.07 153.51C343.07 157.03 345.93 159.88 349.44 159.88C352.96 159.88 355.81 157.03 355.81 153.51C355.81 150.11 355.81 122.93 355.81 119.54C355.81 116.02 352.96 113.17 349.44 113.17C345.93 113.17 343.07 116.02 343.07 119.54Z" id="e3UnznEXr"></path><path d="M370.25 119.54C370.25 122.93 370.25 150.11 370.25 153.51C370.25 157.03 373.1 159.88 376.62 159.88C380.14 159.88 382.99 157.03 382.99 153.51C382.99 150.11 382.99 122.93 382.99 119.54C382.99 116.02 380.14 113.17 376.62 113.17C373.1 113.17 370.25 116.02 370.25 119.54Z" id="f44kNIXRP"></path><path d="M288.72 119.54C288.72 122.93 288.72 150.11 288.72 153.51C288.72 157.03 291.57 159.88 295.09 159.88C298.6 159.88 301.46 157.03 301.46 153.51C301.46 150.11 301.46 122.93 301.46 119.54C301.46 116.02 298.6 113.17 295.09 113.17C291.57 113.17 288.72 116.02 288.72 119.54Z" id="amcdTFAbe"></path><path d="M261.54 119.54C261.54 122.93 261.54 150.11 261.54 153.51C261.54 157.03 264.39 159.88 267.91 159.88C271.43 159.88 274.28 157.03 274.28 153.51C274.28 150.11 274.28 122.93 274.28 119.54C274.28 116.02 271.43 113.17 267.91 113.17C264.39 113.17 261.54 116.02 261.54 119.54Z" id="dppWyUEzK"></path><path d="M336.38 303.43L336.63 303.46L336.89 303.5L337.14 303.54L337.38 303.6L337.63 303.66L337.87 303.74L338.1 303.82L338.33 303.91L338.56 304.02L338.78 304.12L339 304.24L339.21 304.37L339.42 304.5L339.62 304.64L339.81 304.79L340 304.95L340.18 305.11L340.36 305.28L340.53 305.46L340.69 305.64L340.85 305.83L341 306.02L341.14 306.22L341.27 306.43L341.4 306.64L341.51 306.86L341.62 307.08L341.72 307.3L341.82 307.53L341.9 307.77L341.97 308.01L342.04 308.25L342.1 308.5L342.14 308.75L342.18 309L342.2 309.26L342.22 309.52L342.22 309.78L342.22 337.39L369.83 337.39L370.09 337.39L370.35 337.41L370.61 337.43L370.86 337.47L371.11 337.52L371.36 337.57L371.6 337.64L371.84 337.71L372.08 337.79L372.31 337.89L372.53 337.99L372.76 338.1L372.97 338.22L373.18 338.34L373.39 338.47L373.59 338.62L373.79 338.76L373.97 338.92L374.16 339.08L374.33 339.25L374.5 339.43L374.67 339.61L374.82 339.8L374.97 339.99L375.11 340.19L375.24 340.4L375.37 340.61L375.49 340.83L375.6 341.05L375.7 341.28L375.79 341.51L375.87 341.74L375.95 341.98L376.01 342.23L376.07 342.47L376.12 342.72L376.15 342.98L376.18 343.23L376.19 343.49L376.2 343.76L376.2 370.94L376.19 371.2L376.18 371.46L376.15 371.71L376.12 371.97L376.07 372.22L376.01 372.47L375.95 372.71L375.87 372.95L375.79 373.18L375.7 373.41L375.6 373.64L375.49 373.86L375.37 374.08L375.25 374.29L375.11 374.5L374.97 374.7L374.82 374.89L374.67 375.08L374.5 375.26L374.33 375.44L374.16 375.61L373.97 375.77L373.79 375.93L373.59 376.08L373.39 376.22L373.18 376.35L372.97 376.48L372.76 376.59L372.54 376.7L372.31 376.8L372.08 376.9L371.84 376.98L371.6 377.05L371.36 377.12L371.11 377.18L370.86 377.22L370.61 377.26L370.35 377.28L370.09 377.3L369.83 377.31L342.23 377.31L342.23 404.91L342.22 405.17L342.2 405.43L342.18 405.69L342.14 405.94L342.1 406.19L342.04 406.44L341.98 406.68L341.9 406.92L341.82 407.16L341.72 407.39L341.62 407.61L341.51 407.84L341.4 408.05L341.27 408.26L341.14 408.47L341 408.67L340.85 408.87L340.69 409.05L340.53 409.24L340.36 409.41L340.18 409.58L340 409.74L339.81 409.9L339.62 410.05L339.42 410.19L339.21 410.32L339 410.45L338.78 410.57L338.56 410.68L338.33 410.78L338.1 410.87L337.87 410.95L337.63 411.03L337.39 411.09L337.14 411.15L336.89 411.2L336.63 411.23L336.38 411.26L336.12 411.27L335.86 411.28L308.68 411.28L308.41 411.27L308.15 411.26L307.9 411.23L307.64 411.2L307.39 411.15L307.15 411.09L306.9 411.03L306.66 410.95L306.43 410.87L306.2 410.78L305.97 410.68L305.75 410.57L305.53 410.45L305.32 410.32L305.11 410.19L304.91 410.05L304.72 409.9L304.53 409.74L304.35 409.58L304.17 409.41L304 409.24L303.84 409.05L303.68 408.87L303.53 408.67L303.39 408.47L303.26 408.26L303.13 408.05L303.02 407.84L302.91 407.61L302.81 407.39L302.71 407.16L302.63 406.92L302.56 406.68L302.49 406.44L302.43 406.19L302.39 405.94L302.35 405.69L302.33 405.43L302.31 405.17L302.31 404.91L302.31 377.31L274.7 377.31L274.44 377.3L274.18 377.28L273.92 377.26L273.67 377.22L273.42 377.18L273.17 377.12L272.93 377.05L272.69 376.98L272.45 376.9L272.22 376.8L272 376.7L271.77 376.59L271.56 376.48L271.35 376.35L271.14 376.22L270.94 376.08L270.74 375.93L270.56 375.77L270.37 375.61L270.2 375.44L270.03 375.26L269.86 375.08L269.71 374.89L269.56 374.7L269.42 374.5L269.29 374.29L269.16 374.08L269.04 373.86L268.93 373.64L268.83 373.41L268.74 373.18L268.66 372.95L268.58 372.71L268.52 372.47L268.46 372.22L268.41 371.97L268.38 371.71L268.35 371.46L268.34 371.2L268.33 370.94L268.33 343.76L268.34 343.49L268.35 343.23L268.38 342.98L268.41 342.72L268.46 342.47L268.52 342.23L268.58 341.98L268.66 341.74L268.74 341.51L268.83 341.28L268.93 341.05L269.04 340.83L269.16 340.61L269.29 340.4L269.42 340.2L269.56 339.99L269.71 339.8L269.86 339.61L270.03 339.43L270.2 339.25L270.37 339.08L270.56 338.92L270.74 338.76L270.94 338.62L271.14 338.47L271.35 338.34L271.56 338.22L271.77 338.1L272 337.99L272.22 337.89L272.45 337.79L272.69 337.71L272.93 337.64L273.17 337.57L273.42 337.52L273.67 337.47L273.92 337.43L274.18 337.41L274.44 337.39L274.7 337.39L302.3 337.39L302.3 309.78L302.31 309.52L302.33 309.26L302.35 309L302.39 308.75L302.43 308.5L302.49 308.25L302.55 308.01L302.63 307.77L302.71 307.53L302.81 307.3L302.91 307.08L303.02 306.86L303.13 306.64L303.26 306.43L303.39 306.22L303.53 306.02L303.68 305.83L303.84 305.64L304 305.46L304.17 305.28L304.35 305.11L304.53 304.95L304.72 304.79L304.91 304.64L305.11 304.5L305.32 304.37L305.53 304.24L305.75 304.12L305.97 304.02L306.2 303.91L306.43 303.82L306.66 303.74L306.9 303.66L307.14 303.6L307.39 303.54L307.64 303.5L307.9 303.46L308.15 303.43L308.41 303.42L308.67 303.41L335.85 303.41L336.12 303.42L336.38 303.43ZM315.05 343.76L315.04 344.02L315.02 344.28L315 344.54L314.96 344.79L314.92 345.04L314.86 345.29L314.79 345.53L314.72 345.77L314.64 346L314.54 346.24L314.44 346.46L314.33 346.68L314.22 346.9L314.09 347.11L313.96 347.32L313.82 347.52L313.67 347.71L313.51 347.9L313.35 348.08L313.18 348.26L313 348.43L312.82 348.59L312.63 348.75L312.44 348.9L312.24 349.04L312.03 349.17L311.82 349.3L311.6 349.41L311.38 349.52L311.15 349.63L310.92 349.72L310.69 349.8L310.45 349.88L310.21 349.94L309.96 350L309.71 350.04L309.45 350.08L309.2 350.1L308.94 350.12L308.67 350.13L281.07 350.13L281.07 364.56L308.67 364.56L308.94 364.57L309.2 364.59L309.45 364.61L309.71 364.65L309.96 364.69L310.21 364.75L310.45 364.81L310.69 364.89L310.92 364.97L311.15 365.06L311.38 365.17L311.6 365.28L311.82 365.39L312.03 365.52L312.24 365.65L312.44 365.79L312.63 365.94L312.82 366.1L313 366.26L313.18 366.43L313.35 366.61L313.51 366.79L313.67 366.98L313.82 367.17L313.96 367.37L314.09 367.58L314.22 367.79L314.33 368.01L314.44 368.23L314.54 368.45L314.64 368.69L314.72 368.92L314.79 369.16L314.86 369.4L314.92 369.65L314.96 369.9L315 370.15L315.02 370.41L315.04 370.67L315.05 370.93L315.05 398.54L329.48 398.54L329.48 370.93L329.49 370.67L329.5 370.41L329.53 370.15L329.57 369.9L329.61 369.65L329.67 369.4L329.73 369.16L329.81 368.92L329.89 368.69L329.98 368.45L330.09 368.23L330.19 368.01L330.31 367.79L330.44 367.58L330.57 367.37L330.71 367.17L330.86 366.98L331.02 366.79L331.18 366.61L331.35 366.43L331.53 366.26L331.71 366.1L331.9 365.94L332.09 365.79L332.29 365.65L332.5 365.52L332.71 365.39L332.93 365.28L333.15 365.17L333.37 365.06L333.61 364.97L333.84 364.89L334.08 364.81L334.32 364.75L334.57 364.69L334.82 364.65L335.07 364.61L335.33 364.59L335.59 364.57L335.85 364.56L363.46 364.56L363.46 350.13L335.85 350.13L335.59 350.12L335.33 350.1L335.07 350.08L334.82 350.04L334.57 350L334.32 349.94L334.08 349.88L333.84 349.8L333.61 349.72L333.37 349.63L333.15 349.52L332.93 349.41L332.71 349.3L332.5 349.17L332.29 349.04L332.09 348.9L331.9 348.75L331.71 348.59L331.53 348.43L331.35 348.26L331.18 348.08L331.02 347.9L330.86 347.71L330.71 347.52L330.57 347.32L330.44 347.11L330.31 346.9L330.19 346.68L330.09 346.46L329.98 346.24L329.89 346L329.81 345.77L329.73 345.53L329.67 345.29L329.61 345.04L329.57 344.79L329.53 344.54L329.5 344.28L329.49 344.02L329.48 343.76L329.48 316.15L315.05 316.15L315.05 343.76Z" id="a4F7ci8qkb"></path></defs><g><g><g><use xlink:href="#f17upiHqVo" opacity="1" fill="#ff0871" fill-opacity="1"></use><g><use xlink:href="#f17upiHqVo" opacity="1" fill-opacity="0" stroke="#000000" stroke-width="1" stroke-opacity="0"></use></g></g><g><use xlink:href="#c2d3nZ9ABh" opacity="1" fill="#ffffff" fill-opacity="1"></use><g><use xlink:href="#c2d3nZ9ABh" opacity="1" fill-opacity="0" stroke="#000000" stroke-width="1" stroke-opacity="0"></use></g><g><use xlink:href="#c2d3nZ9ABh" opacity="1" fill-opacity="0" stroke="#000000" stroke-width="1" stroke-opacity="0"></use></g><g><use xlink:href="#c2d3nZ9ABh" opacity="1" fill-opacity="0" stroke="#000000" stroke-width="1" stroke-opacity="0"></use></g></g><g><use xlink:href="#adD1pRNvN" opacity="1" fill="#ffffff" fill-opacity="1"></use><g><use xlink:href="#adD1pRNvN" opacity="1" fill-opacity="0" stroke="#000000" stroke-width="1" stroke-opacity="0"></use></g><g><use xlink:href="#adD1pRNvN" opacity="1" fill-opacity="0" stroke="#000000" stroke-width="1" stroke-opacity="0"></use></g><g><use xlink:href="#adD1pRNvN" opacity="1" fill-opacity="0" stroke="#000000" stroke-width="1" stroke-opacity="0"></use></g></g><g><use xlink:href="#e3UnznEXr" opacity="1" fill="#ffffff" fill-opacity="1"></use><g><use xlink:href="#e3UnznEXr" opacity="1" fill-opacity="0" stroke="#000000" stroke-width="1" stroke-opacity="0"></use></g><g><use xlink:href="#e3UnznEXr" opacity="1" fill-opacity="0" stroke="#000000" stroke-width="1" stroke-opacity="0"></use></g><g><use xlink:href="#e3UnznEXr" opacity="1" fill-opacity="0" stroke="#000000" stroke-width="1" stroke-opacity="0"></use></g></g><g><use xlink:href="#f44kNIXRP" opacity="1" fill="#ffffff" fill-opacity="1"></use><g><use xlink:href="#f44kNIXRP" opacity="1" fill-opacity="0" stroke="#000000" stroke-width="1" stroke-opacity="0"></use></g><g><use xlink:href="#f44kNIXRP" opacity="1" fill-opacity="0" stroke="#000000" stroke-width="1" stroke-opacity="0"></use></g><g><use xlink:href="#f44kNIXRP" opacity="1" fill-opacity="0" stroke="#000000" stroke-width="1" stroke-opacity="0"></use></g></g><g><use xlink:href="#amcdTFAbe" opacity="1" fill="#ffffff" fill-opacity="1"></use><g><use xlink:href="#amcdTFAbe" opacity="1" fill-opacity="0" stroke="#000000" stroke-width="1" stroke-opacity="0"></use></g><g><use xlink:href="#amcdTFAbe" opacity="1" fill-opacity="0" stroke="#000000" stroke-width="1" stroke-opacity="0"></use></g><g><use xlink:href="#amcdTFAbe" opacity="1" fill-opacity="0" stroke="#000000" stroke-width="1" stroke-opacity="0"></use></g></g><g><use xlink:href="#dppWyUEzK" opacity="1" fill="#ffffff" fill-opacity="1"></use><g><use xlink:href="#dppWyUEzK" opacity="1" fill-opacity="0" stroke="#000000" stroke-width="1" stroke-opacity="0"></use></g><g><use xlink:href="#dppWyUEzK" opacity="1" fill-opacity="0" stroke="#000000" stroke-width="1" stroke-opacity="0"></use></g><g><use xlink:href="#dppWyUEzK" opacity="1" fill-opacity="0" stroke="#000000" stroke-width="1" stroke-opacity="0"></use></g></g><g><use xlink:href="#a4F7ci8qkb" opacity="1" fill="#ffffff" fill-opacity="1"></use><g><use xlink:href="#a4F7ci8qkb" opacity="1" fill-opacity="0" stroke="#000000" stroke-width="1" stroke-opacity="0"></use></g><g><use xlink:href="#a4F7ci8qkb" opacity="1" fill-opacity="0" stroke="#000000" stroke-width="1" stroke-opacity="0"></use></g><g><use xlink:href="#a4F7ci8qkb" opacity="1" fill-opacity="0" stroke="#000000" stroke-width="1" stroke-opacity="0"></use></g></g></g></g></svg>
