<?xml version="1.0" encoding="UTF-8" standalone="no"?>
<!DOCTYPE svg PUBLIC "-//W3C//DTD SVG 1.1//EN" "http://www.w3.org/Graphics/SVG/1.1/DTD/svg11.dtd">
<svg version="1.1" xmlns="http://www.w3.org/2000/svg" xmlns:xlink="http://www.w3.org/1999/xlink" preserveAspectRatio="xMidYMid meet" viewBox="0 0 640 640" width="512" height="512"><defs><path d="M480.64 42.92C431.6 14.3 378.07 0 320.01 0C261.95 0 208.41 14.3 159.38 42.92C110.35 71.53 71.54 110.34 42.92 159.37C14.3 208.4 0 261.95 0 320C0 378.06 14.31 431.59 42.92 480.63C71.53 529.65 110.35 568.47 159.38 597.08C208.41 625.69 261.95 640 320 640C378.06 640 431.61 625.69 480.63 597.08C529.66 568.48 568.48 529.65 597.09 480.63C625.7 431.6 640 378.05 640 320C640 261.94 625.7 208.4 597.09 159.37C568.48 110.35 529.66 71.53 480.64 42.92Z" id="b6Gh9C3CBX"></path><path d="M364.21 127.94L366.19 128.14L368.15 128.42L370.08 128.78L371.98 129.21L373.86 129.71L375.7 130.28L377.51 130.93L379.29 131.64L381.04 132.42L382.75 133.27L384.42 134.18L386.05 135.15L387.64 136.18L389.19 137.27L390.69 138.41L392.14 139.62L393.55 140.87L394.91 142.18L396.22 143.54L397.48 144.95L398.68 146.4L399.83 147.91L400.92 149.45L401.95 151.04L402.92 152.67L403.83 154.34L404.67 156.05L405.45 157.8L406.16 159.58L406.81 161.39L407.38 163.24L407.89 165.11L408.32 167.01L408.67 168.94L408.95 170.9L409.15 172.88L409.28 174.88L409.32 176.9L409.32 198.79L498.8 198.79L500.22 198.81L501.63 198.9L503.02 199.04L504.4 199.24L505.76 199.49L507.1 199.79L508.42 200.15L509.72 200.55L511 201.01L512.25 201.51L513.48 202.06L514.68 202.65L515.86 203.29L517 203.97L518.12 204.7L519.21 205.47L520.27 206.28L521.29 207.12L522.29 208.01L523.24 208.93L524.16 209.88L525.05 210.88L525.9 211.9L526.7 212.96L527.47 214.05L528.2 215.17L528.88 216.32L529.52 217.49L530.11 218.69L530.66 219.92L531.16 221.18L531.62 222.45L532.02 223.75L532.38 225.07L532.68 226.41L532.93 227.77L533.13 229.15L533.27 230.54L533.36 231.95L533.38 233.37L533.38 443.5L533.36 444.92L533.27 446.33L533.13 447.72L532.93 449.1L532.68 450.46L532.38 451.8L532.02 453.12L531.62 454.42L531.16 455.7L530.66 456.95L530.11 458.18L529.52 459.38L528.88 460.56L528.2 461.7L527.47 462.82L526.7 463.91L525.9 464.97L525.05 465.99L524.16 466.99L523.24 467.94L522.29 468.87L521.29 469.75L520.27 470.6L519.21 471.4L518.12 472.17L517 472.9L515.85 473.58L514.68 474.22L513.48 474.81L512.25 475.36L510.99 475.87L509.72 476.32L508.42 476.72L507.1 477.08L505.76 477.38L504.4 477.63L503.02 477.83L501.63 477.97L500.22 478.06L498.8 478.09L149.97 478.09L148.55 478.06L147.14 477.97L145.75 477.83L144.37 477.63L143.01 477.38L141.67 477.08L140.35 476.72L139.05 476.32L137.77 475.87L136.52 475.36L135.29 474.81L134.09 474.22L132.91 473.58L131.77 472.9L130.65 472.17L129.56 471.4L128.5 470.6L127.48 469.75L126.48 468.87L125.53 467.94L124.61 466.99L123.72 465.99L122.87 464.97L122.07 463.91L121.3 462.82L120.57 461.7L119.89 460.56L119.25 459.38L118.66 458.18L118.11 456.95L117.6 455.7L117.15 454.42L116.75 453.12L116.39 451.8L116.09 450.46L115.84 449.1L115.64 447.72L115.5 446.33L115.41 444.92L115.38 443.5L115.38 233.37L115.41 231.95L115.5 230.54L115.64 229.15L115.84 227.77L116.09 226.41L116.39 225.07L116.75 223.75L117.15 222.45L117.6 221.18L118.11 219.92L118.66 218.69L119.25 217.49L119.89 216.32L120.57 215.17L121.3 214.05L122.07 212.96L122.87 211.9L123.72 210.88L124.61 209.88L125.53 208.93L126.48 208.01L127.48 207.12L128.5 206.28L129.56 205.47L130.65 204.7L131.77 203.98L132.91 203.29L134.09 202.65L135.29 202.06L136.52 201.51L137.77 201.01L139.05 200.55L140.35 200.15L141.67 199.79L143.01 199.49L144.37 199.24L145.75 199.04L147.14 198.9L148.55 198.82L149.97 198.79L239.45 198.79L239.45 176.9L239.49 174.88L239.62 172.88L239.82 170.9L240.1 168.94L240.45 167.01L240.88 165.11L241.39 163.24L241.96 161.39L242.61 159.58L243.32 157.8L244.1 156.05L244.95 154.34L245.85 152.67L246.82 151.04L247.86 149.45L248.94 147.91L250.09 146.4L251.29 144.95L252.55 143.54L253.86 142.18L255.22 140.87L256.63 139.62L258.08 138.41L259.59 137.27L261.13 136.18L262.72 135.15L264.35 134.18L266.02 133.27L267.73 132.42L269.48 131.64L271.26 130.93L273.07 130.28L274.91 129.71L276.79 129.21L278.69 128.78L280.62 128.42L282.58 128.14L284.56 127.94L286.56 127.82L288.58 127.78L360.19 127.78L362.21 127.82L364.21 127.94ZM149.23 215.45L148.5 215.5L147.78 215.57L147.07 215.67L146.36 215.8L145.67 215.96L144.98 216.14L144.31 216.35L143.65 216.59L143 216.85L142.36 217.14L141.74 217.44L141.13 217.78L140.53 218.13L139.95 218.51L139.39 218.9L138.84 219.32L138.31 219.76L137.79 220.22L137.3 220.7L136.82 221.19L136.36 221.71L135.92 222.24L135.5 222.79L135.1 223.35L134.73 223.93L134.37 224.53L134.04 225.14L133.73 225.76L133.45 226.4L133.19 227.05L132.95 227.71L132.74 228.38L132.56 229.07L132.4 229.76L132.27 230.47L132.17 231.18L132.1 231.9L132.05 232.63L132.04 233.37L132.04 443.5L132.05 444.24L132.1 444.97L132.17 445.69L132.27 446.4L132.4 447.11L132.56 447.8L132.74 448.49L132.95 449.16L133.19 449.82L133.45 450.47L133.73 451.11L134.04 451.73L134.37 452.34L134.73 452.94L135.1 453.52L135.5 454.08L135.92 454.63L136.36 455.16L136.82 455.68L137.3 456.17L137.79 456.65L138.31 457.11L138.84 457.55L139.39 457.97L139.95 458.37L140.53 458.74L141.13 459.1L141.74 459.43L142.36 459.74L143 460.02L143.65 460.28L144.31 460.52L144.98 460.73L145.67 460.91L146.36 461.07L147.07 461.2L147.78 461.3L148.5 461.37L149.23 461.42L149.97 461.43L498.8 461.43L499.29 461.42L499.78 461.39L500.27 461.33L500.76 461.25L501.24 461.15L501.72 461.03L502.2 460.88L502.68 460.72L503.16 460.52L503.63 460.31L504.1 460.08L504.57 459.82L505.03 459.54L505.49 459.24L505.96 458.91L506.41 458.56L506.87 458.19L507.32 457.8L507.78 457.39L508.23 456.95L508.67 456.49L509.12 456.01L509.56 455.5L510 454.98L510.44 454.43L510.87 453.86L511.31 453.26L511.74 452.65L512.17 452.01L512.59 451.34L513.02 450.66L513.44 449.96L513.86 449.23L514.28 448.48L514.69 447.7L515.1 446.91L515.51 446.09L515.92 445.25L516.33 444.38L516.73 443.5L516.73 233.37L516.72 232.63L516.67 231.9L516.6 231.18L516.5 230.47L516.37 229.76L516.21 229.07L516.03 228.38L515.82 227.71L515.58 227.05L515.32 226.4L515.04 225.76L514.73 225.14L514.4 224.53L514.04 223.93L513.66 223.35L513.27 222.79L512.85 222.24L512.41 221.71L511.95 221.19L511.47 220.7L510.98 220.22L510.46 219.76L509.93 219.32L509.38 218.9L508.82 218.51L508.24 218.13L507.64 217.78L507.03 217.44L506.41 217.14L505.77 216.85L505.12 216.59L504.46 216.35L503.79 216.14L503.1 215.96L502.41 215.8L501.7 215.67L500.99 215.57L500.27 215.5L499.54 215.45L498.8 215.44L149.97 215.44L149.23 215.45ZM287.69 144.45L286.8 144.51L285.91 144.61L285.03 144.75L284.16 144.94L283.28 145.16L282.42 145.42L281.55 145.73L280.69 146.07L279.84 146.46L278.98 146.88L278.14 147.35L277.29 147.86L276.46 148.41L275.62 149L274.79 149.62L273.96 150.29L273.14 151L272.32 151.76L271.51 152.55L270.7 153.38L269.89 154.25L269.09 155.17L268.29 156.12L267.5 157.11L266.71 158.15L265.93 159.22L265.15 160.34L264.37 161.5L263.6 162.7L262.83 163.93L262.07 165.21L261.31 166.53L260.55 167.89L259.8 169.29L259.05 170.73L258.31 172.21L257.57 173.74L256.84 175.3L256.11 176.9L256.11 198.79L392.66 198.79L392.66 176.9L392.64 175.57L392.56 174.24L392.42 172.93L392.24 171.64L392 170.37L391.72 169.11L391.39 167.87L391.01 166.65L390.58 165.45L390.11 164.27L389.59 163.12L389.03 161.99L388.43 160.89L387.79 159.81L387.11 158.76L386.39 157.74L385.63 156.74L384.84 155.78L384.01 154.85L383.14 153.95L382.24 153.09L381.31 152.26L380.35 151.46L379.36 150.7L378.33 149.98L377.28 149.3L376.21 148.66L375.1 148.06L373.97 147.5L372.82 146.98L371.64 146.51L370.44 146.09L369.22 145.71L367.98 145.37L366.73 145.09L365.45 144.85L364.16 144.67L362.85 144.54L361.53 144.46L360.19 144.43L288.58 144.43L287.69 144.45Z" id="a1X6OERSh"></path><path d="M357.28 238.84L357.61 238.88L357.95 238.93L358.27 238.99L358.6 239.06L358.91 239.14L359.23 239.24L359.53 239.35L359.84 239.47L360.13 239.6L360.42 239.75L360.7 239.9L360.98 240.06L361.25 240.24L361.51 240.42L361.77 240.62L362.01 240.82L362.25 241.03L362.48 241.26L362.7 241.49L362.92 241.72L363.12 241.97L363.31 242.23L363.5 242.49L363.67 242.76L363.84 243.03L363.99 243.32L364.13 243.61L364.27 243.9L364.39 244.2L364.5 244.51L364.59 244.82L364.68 245.14L364.75 245.47L364.81 245.79L364.86 246.12L364.89 246.46L364.91 246.8L364.92 247.14L364.92 299.03L416.81 299.03L417.15 299.04L417.49 299.06L417.83 299.09L418.16 299.14L418.49 299.2L418.81 299.27L419.13 299.36L419.44 299.46L419.75 299.57L420.05 299.69L420.35 299.82L420.64 299.96L420.92 300.12L421.2 300.28L421.47 300.45L421.73 300.64L421.98 300.83L422.23 301.04L422.47 301.25L422.7 301.47L422.92 301.7L423.13 301.94L423.34 302.19L423.53 302.44L423.72 302.7L423.89 302.97L424.05 303.25L424.21 303.53L424.35 303.82L424.48 304.12L424.6 304.42L424.71 304.73L424.81 305.04L424.9 305.36L424.97 305.68L425.03 306.01L425.08 306.34L425.11 306.68L425.13 307.02L425.14 307.36L425.14 371.78L425.13 372.12L425.11 372.46L425.08 372.79L425.03 373.13L424.97 373.45L424.9 373.78L424.81 374.09L424.71 374.41L424.6 374.72L424.48 375.02L424.35 375.31L424.21 375.6L424.05 375.89L423.89 376.16L423.72 376.43L423.53 376.69L423.34 376.95L423.13 377.19L422.92 377.43L422.7 377.66L422.47 377.89L422.23 378.1L421.98 378.3L421.73 378.5L421.47 378.68L421.2 378.85L420.92 379.02L420.64 379.17L420.35 379.32L420.05 379.45L419.75 379.57L419.44 379.68L419.13 379.78L418.81 379.86L418.49 379.93L418.16 379.99L417.83 380.04L417.49 380.07L417.15 380.1L416.81 380.1L364.92 380.1L364.92 431.99L364.91 432.33L364.89 432.67L364.86 433.01L364.81 433.34L364.75 433.67L364.68 433.99L364.59 434.31L364.5 434.62L364.39 434.93L364.27 435.23L364.13 435.53L363.99 435.82L363.84 436.1L363.67 436.38L363.5 436.65L363.31 436.91L363.12 437.16L362.92 437.41L362.7 437.65L362.48 437.88L362.25 438.1L362.01 438.31L361.77 438.52L361.51 438.71L361.25 438.9L360.98 439.07L360.7 439.23L360.42 439.39L360.13 439.53L359.83 439.66L359.53 439.78L359.23 439.89L358.91 439.99L358.59 440.08L358.27 440.15L357.94 440.21L357.61 440.26L357.28 440.29L356.94 440.31L356.59 440.32L292.18 440.32L291.83 440.31L291.49 440.29L291.16 440.26L290.83 440.21L290.5 440.15L290.18 440.08L289.86 439.99L289.54 439.89L289.24 439.78L288.94 439.66L288.64 439.53L288.35 439.39L288.07 439.23L287.79 439.07L287.52 438.9L287.26 438.71L287 438.52L286.76 438.31L286.52 438.1L286.29 437.88L286.07 437.65L285.85 437.41L285.65 437.16L285.46 436.91L285.27 436.65L285.1 436.38L284.93 436.1L284.78 435.82L284.64 435.53L284.5 435.23L284.38 434.93L284.27 434.62L284.18 434.31L284.09 433.99L284.02 433.67L283.96 433.34L283.91 433.01L283.88 432.67L283.86 432.33L283.85 431.99L283.85 380.1L231.96 380.1L231.62 380.09L231.28 380.07L230.94 380.04L230.61 379.99L230.28 379.93L229.96 379.86L229.64 379.77L229.33 379.68L229.02 379.57L228.72 379.45L228.42 379.32L228.13 379.17L227.85 379.02L227.57 378.85L227.3 378.68L227.04 378.5L226.79 378.3L226.54 378.1L226.3 377.88L226.07 377.66L225.85 377.43L225.64 377.19L225.43 376.95L225.24 376.69L225.06 376.43L224.88 376.16L224.72 375.88L224.56 375.6L224.42 375.31L224.29 375.02L224.17 374.71L224.06 374.41L223.96 374.09L223.87 373.78L223.8 373.45L223.74 373.13L223.69 372.79L223.66 372.46L223.64 372.12L223.63 371.78L223.63 307.36L223.64 307.02L223.66 306.68L223.69 306.34L223.74 306.01L223.8 305.68L223.87 305.36L223.96 305.04L224.06 304.73L224.17 304.42L224.29 304.12L224.42 303.82L224.56 303.53L224.72 303.25L224.88 302.97L225.06 302.7L225.24 302.44L225.43 302.19L225.64 301.94L225.85 301.7L226.07 301.47L226.3 301.25L226.54 301.04L226.79 300.83L227.04 300.64L227.3 300.45L227.57 300.28L227.85 300.12L228.13 299.96L228.42 299.82L228.72 299.69L229.02 299.57L229.33 299.46L229.64 299.36L229.96 299.27L230.28 299.2L230.61 299.14L230.94 299.09L231.28 299.06L231.62 299.04L231.96 299.03L283.85 299.03L283.85 247.14L283.86 246.8L283.88 246.46L283.91 246.12L283.96 245.79L284.02 245.47L284.09 245.14L284.18 244.82L284.27 244.51L284.38 244.2L284.5 243.9L284.64 243.61L284.78 243.32L284.93 243.03L285.1 242.76L285.27 242.49L285.46 242.23L285.65 241.97L285.85 241.72L286.07 241.49L286.29 241.26L286.52 241.03L286.76 240.82L287.01 240.62L287.26 240.42L287.52 240.24L287.79 240.06L288.07 239.9L288.35 239.75L288.64 239.6L288.94 239.47L289.24 239.35L289.55 239.24L289.86 239.14L290.18 239.06L290.5 238.99L290.83 238.93L291.16 238.88L291.49 238.84L291.83 238.82L292.18 238.82L356.59 238.82L356.94 238.82L357.28 238.84ZM300.5 307.36L300.5 307.7L300.48 308.04L300.44 308.38L300.39 308.71L300.33 309.04L300.26 309.36L300.18 309.68L300.08 309.99L299.97 310.3L299.85 310.6L299.72 310.9L299.57 311.19L299.42 311.47L299.25 311.75L299.08 312.02L298.9 312.28L298.7 312.53L298.5 312.78L298.29 313.02L298.06 313.25L297.83 313.47L297.59 313.68L297.35 313.89L297.09 314.08L296.83 314.26L296.56 314.44L296.29 314.6L296 314.76L295.71 314.9L295.42 315.03L295.12 315.15L294.81 315.26L294.49 315.36L294.18 315.44L293.85 315.52L293.53 315.58L293.19 315.62L292.86 315.66L292.52 315.68L292.18 315.69L240.29 315.69L240.29 363.45L292.18 363.45L292.52 363.46L292.86 363.48L293.2 363.51L293.53 363.56L293.85 363.62L294.18 363.69L294.5 363.78L294.81 363.87L295.12 363.98L295.42 364.1L295.71 364.24L296 364.38L296.29 364.53L296.56 364.7L296.83 364.87L297.09 365.06L297.35 365.25L297.6 365.45L297.83 365.67L298.06 365.89L298.29 366.12L298.5 366.36L298.7 366.6L298.9 366.86L299.08 367.12L299.26 367.39L299.42 367.67L299.57 367.95L299.72 368.24L299.85 368.53L299.97 368.84L300.08 369.14L300.18 369.46L300.26 369.77L300.33 370.1L300.39 370.43L300.44 370.76L300.48 371.09L300.5 371.43L300.5 371.78L300.5 423.66L348.27 423.66L348.27 371.78L348.28 371.43L348.3 371.09L348.33 370.76L348.38 370.43L348.44 370.1L348.51 369.77L348.6 369.46L348.69 369.14L348.8 368.84L348.92 368.53L349.05 368.24L349.2 367.95L349.35 367.67L349.52 367.39L349.69 367.12L349.87 366.86L350.07 366.6L350.27 366.36L350.49 366.12L350.71 365.89L350.94 365.67L351.18 365.45L351.42 365.25L351.68 365.06L351.94 364.87L352.21 364.7L352.49 364.53L352.77 364.38L353.06 364.24L353.35 364.1L353.66 363.98L353.96 363.87L354.28 363.78L354.59 363.69L354.92 363.62L355.24 363.56L355.58 363.51L355.91 363.48L356.25 363.46L356.59 363.45L408.48 363.45L408.48 315.69L356.59 315.69L356.25 315.68L355.91 315.66L355.58 315.62L355.24 315.58L354.92 315.52L354.59 315.44L354.28 315.36L353.96 315.26L353.65 315.15L353.35 315.03L353.06 314.9L352.77 314.76L352.48 314.6L352.21 314.44L351.94 314.26L351.68 314.08L351.42 313.88L351.18 313.68L350.94 313.47L350.71 313.25L350.48 313.02L350.27 312.78L350.07 312.53L349.87 312.28L349.69 312.01L349.52 311.74L349.35 311.47L349.2 311.19L349.05 310.9L348.92 310.6L348.8 310.3L348.69 309.99L348.59 309.68L348.51 309.36L348.44 309.04L348.38 308.71L348.33 308.38L348.3 308.04L348.27 307.7L348.27 307.36L348.27 255.47L300.5 255.47L300.5 307.36Z" id="e3m8OTnbh"></path><path d="M186.99 226.33C182.4 226.33 178.67 230.05 178.67 234.65C178.67 239.25 182.4 242.98 186.99 242.98C192.82 242.98 239.45 242.98 245.28 242.98C249.88 242.98 253.61 239.25 253.61 234.65C253.61 230.05 249.88 226.33 245.28 226.33C233.62 226.33 192.82 226.33 186.99 226.33Z" id="c1QO9SoysT"></path><path d="M153.69 226.33C149.09 226.33 145.36 230.05 145.36 234.65C145.36 239.25 149.09 242.98 153.69 242.98C154.1 242.98 157.43 242.98 157.85 242.98C162.45 242.98 166.18 239.25 166.18 234.65C166.18 230.05 162.45 226.33 157.85 226.33C157.02 226.33 154.1 226.33 153.69 226.33Z" id="gZkxyZgg"></path></defs><g><g><g><use xlink:href="#b6Gh9C3CBX" opacity="1" fill="#ff0871" fill-opacity="1"></use><g><use xlink:href="#b6Gh9C3CBX" opacity="1" fill-opacity="0" stroke="#000000" stroke-width="1" stroke-opacity="0"></use></g></g><g><use xlink:href="#a1X6OERSh" opacity="1" fill="#ffffff" fill-opacity="1"></use><g><use xlink:href="#a1X6OERSh" opacity="1" fill-opacity="0" stroke="#000000" stroke-width="1" stroke-opacity="0"></use></g></g><g><use xlink:href="#e3m8OTnbh" opacity="1" fill="#ffffff" fill-opacity="1"></use><g><use xlink:href="#e3m8OTnbh" opacity="1" fill-opacity="0" stroke="#000000" stroke-width="1" stroke-opacity="0"></use></g></g><g><use xlink:href="#c1QO9SoysT" opacity="1" fill="#ffffff" fill-opacity="1"></use><g><use xlink:href="#c1QO9SoysT" opacity="1" fill-opacity="0" stroke="#000000" stroke-width="1" stroke-opacity="0"></use></g></g><g><use xlink:href="#gZkxyZgg" opacity="1" fill="#ffffff" fill-opacity="1"></use><g><use xlink:href="#gZkxyZgg" opacity="1" fill-opacity="0" stroke="#000000" stroke-width="1" stroke-opacity="0"></use></g></g></g></g></svg>
