<?xml version="1.0" encoding="UTF-8" standalone="no"?>
<!DOCTYPE svg PUBLIC "-//W3C//DTD SVG 1.1//EN" "http://www.w3.org/Graphics/SVG/1.1/DTD/svg11.dtd">
<svg version="1.1" xmlns="http://www.w3.org/2000/svg" xmlns:xlink="http://www.w3.org/1999/xlink" preserveAspectRatio="xMidYMid meet" viewBox="0 0 640 640" width="512" height="512"><defs><path d="M480.64 42.92C431.6 14.3 378.07 0 320.01 0C261.95 0 208.41 14.3 159.38 42.92C110.35 71.53 71.54 110.34 42.92 159.37C14.3 208.4 0 261.95 0 320C0 378.06 14.31 431.59 42.92 480.63C71.53 529.65 110.35 568.47 159.38 597.08C208.41 625.69 261.95 640 320 640C378.06 640 431.61 625.69 480.63 597.08C529.66 568.48 568.48 529.65 597.09 480.63C625.7 431.6 640 378.05 640 320C640 261.94 625.7 208.4 597.09 159.37C568.48 110.35 529.66 71.53 480.64 42.92Z" id="a4pfxfjNPj"></path><path d="M393.48 168.84L393.79 168.87L394.1 168.92L394.41 168.98L394.71 169.04L395.01 169.12L395.3 169.21L395.59 169.32L395.87 169.43L396.14 169.55L396.42 169.69L396.68 169.83L396.94 169.98L397.19 170.15L397.44 170.32L397.67 170.5L397.9 170.69L398.13 170.89L398.34 171.1L398.55 171.31L398.75 171.53L398.94 171.77L399.12 172L399.29 172.25L399.46 172.5L399.61 172.76L399.75 173.02L399.89 173.29L400.01 173.57L400.12 173.85L400.22 174.14L400.32 174.43L400.4 174.73L400.46 175.03L400.52 175.34L400.56 175.65L400.6 175.96L400.62 176.28L400.62 176.6L400.62 176.92L400.6 177.24L400.56 177.55L400.52 177.86L400.46 178.17L400.4 178.47L400.32 178.77L400.22 179.06L400.12 179.35L400.01 179.63L399.89 179.91L399.75 180.18L399.61 180.44L399.46 180.7L399.29 180.95L399.12 181.2L398.94 181.44L398.75 181.67L398.55 181.89L398.34 182.1L398.13 182.31L397.9 182.51L397.67 182.7L397.44 182.88L397.19 183.05L396.94 183.22L396.68 183.37L396.42 183.52L396.14 183.65L395.87 183.77L395.59 183.89L395.3 183.99L395.01 184.08L394.71 184.16L394.41 184.23L394.1 184.28L393.79 184.33L393.48 184.36L393.16 184.38L392.84 184.38L151.77 184.38L151.04 184.4L150.32 184.44L149.6 184.52L148.89 184.62L148.19 184.75L147.5 184.9L146.82 185.08L146.15 185.29L145.5 185.53L144.85 185.78L144.22 186.07L143.6 186.37L143 186.7L142.41 187.05L141.83 187.43L141.27 187.82L140.73 188.24L140.2 188.67L139.69 189.13L139.2 189.6L138.72 190.09L138.27 190.6L137.83 191.13L137.42 191.68L137.02 192.24L136.65 192.81L136.3 193.4L135.97 194.01L135.66 194.63L135.38 195.26L135.12 195.9L134.89 196.56L134.68 197.23L134.5 197.91L134.34 198.6L134.21 199.3L134.11 200.01L134.04 200.72L133.99 201.45L133.98 202.18L133.98 311.26L178.09 311.26L177.25 310.66L176.42 310.05L175.6 309.43L174.78 308.8L173.97 308.16L173.17 307.51L172.38 306.85L171.59 306.18L170.82 305.5L170.05 304.81L169.28 304.11L168.53 303.4L167.79 302.68L167.05 301.95L166.32 301.21L165.6 300.46L164.89 299.7L164.18 298.94L163.49 298.16L162.8 297.37L162.13 296.58L161.46 295.77L160.8 294.96L160.15 294.14L159.51 293.31L158.88 292.47L158.26 291.62L157.64 290.76L157.04 289.89L156.45 289.02L155.86 288.13L155.29 287.24L154.73 286.34L154.18 285.43L153.63 284.51L153.1 283.58L152.58 282.65L152.07 281.7L151.57 280.75L151.08 279.79L151 279.63L150.92 279.46L150.85 279.29L150.78 279.12L150.71 278.95L150.65 278.78L150.6 278.6L150.55 278.43L150.5 278.26L150.45 278.08L150.42 277.9L150.38 277.73L150.35 277.55L150.32 277.37L150.3 277.19L150.28 277.01L150.27 276.83L150.26 276.65L150.25 276.47L150.25 276.29L150.25 276.11L150.26 275.94L150.27 275.76L150.28 275.58L150.3 275.4L150.32 275.22L150.35 275.04L150.38 274.86L150.42 274.69L150.45 274.51L150.5 274.33L150.55 274.16L150.6 273.98L150.65 273.81L150.71 273.64L150.78 273.47L150.85 273.3L150.92 273.13L151 272.96L151.08 272.8L152.2 270.64L153.37 268.53L154.6 266.46L155.88 264.43L157.21 262.45L158.59 260.51L160.02 258.61L161.49 256.76L163.02 254.96L164.58 253.21L166.19 251.5L167.85 249.84L169.54 248.23L171.28 246.67L173.06 245.17L174.87 243.71L176.73 242.3L178.62 240.95L180.54 239.65L182.5 238.4L184.5 237.21L186.52 236.07L188.58 234.99L190.67 233.96L192.79 232.99L194.93 232.08L197.1 231.23L199.3 230.44L201.52 229.7L203.77 229.03L206.04 228.42L208.33 227.87L210.64 227.38L212.97 226.95L215.32 226.59L217.69 226.29L220.08 226.06L222.47 225.9L224.89 225.79L227.31 225.76L229.74 225.79L232.15 225.9L234.55 226.06L236.94 226.29L239.3 226.59L241.65 226.95L243.98 227.38L246.3 227.87L248.59 228.42L250.86 229.03L253.1 229.7L255.33 230.44L257.52 231.23L259.7 232.08L261.84 232.99L263.96 233.96L266.04 234.99L268.1 236.07L270.13 237.21L272.12 238.4L274.08 239.65L276.01 240.95L277.9 242.3L279.75 243.71L281.57 245.16L283.34 246.67L285.08 248.23L286.78 249.84L288.43 251.5L290.04 253.21L291.61 254.96L293.13 256.76L294.61 258.61L296.04 260.51L297.41 262.45L298.75 264.43L300.02 266.46L301.25 268.53L302.43 270.64L303.55 272.8L303.63 272.96L303.71 273.13L303.78 273.3L303.85 273.47L303.91 273.64L303.97 273.81L304.03 273.98L304.08 274.16L304.13 274.33L304.17 274.51L304.21 274.69L304.25 274.86L304.28 275.04L304.3 275.22L304.33 275.4L304.35 275.58L304.36 275.76L304.37 275.93L304.38 276.11L304.38 276.29L304.38 276.47L304.37 276.65L304.36 276.83L304.35 277.01L304.33 277.19L304.3 277.37L304.28 277.55L304.25 277.73L304.21 277.9L304.17 278.08L304.13 278.26L304.08 278.43L304.03 278.6L303.97 278.78L303.91 278.95L303.85 279.12L303.78 279.29L303.71 279.46L303.63 279.63L303.55 279.79L303.06 280.75L302.56 281.7L302.05 282.65L301.53 283.58L300.99 284.51L300.45 285.43L299.9 286.34L299.34 287.24L298.76 288.13L298.18 289.02L297.59 289.89L296.98 290.76L296.37 291.62L295.75 292.47L295.12 293.31L294.48 294.14L293.83 294.96L293.17 295.77L292.5 296.58L291.83 297.37L291.14 298.16L290.44 298.94L289.74 299.7L289.03 300.46L288.31 301.21L287.58 301.95L286.84 302.68L286.1 303.4L285.34 304.11L284.58 304.81L283.81 305.5L283.03 306.18L282.25 306.85L281.45 307.51L280.65 308.16L279.85 308.8L279.03 309.43L278.21 310.05L277.38 310.66L276.54 311.26L363.46 311.26L362.62 310.66L361.79 310.05L360.97 309.43L360.15 308.8L359.35 308.16L358.54 307.51L357.75 306.85L356.97 306.18L356.19 305.5L355.42 304.81L354.66 304.11L353.9 303.4L353.16 302.68L352.42 301.95L351.69 301.21L350.97 300.46L350.26 299.7L349.55 298.94L348.86 298.16L348.17 297.37L347.5 296.58L346.83 295.77L346.17 294.96L345.52 294.14L344.88 293.31L344.25 292.47L343.63 291.62L343.02 290.76L342.41 289.89L341.82 289.02L341.24 288.13L340.66 287.24L340.1 286.34L339.55 285.43L339.01 284.51L338.47 283.58L337.95 282.65L337.44 281.7L336.94 280.75L336.45 279.79L336.37 279.63L336.29 279.46L336.22 279.29L336.15 279.12L336.09 278.95L336.03 278.78L335.97 278.6L335.92 278.43L335.87 278.26L335.83 278.08L335.79 277.9L335.75 277.73L335.72 277.55L335.7 277.37L335.67 277.19L335.65 277.01L335.64 276.83L335.63 276.65L335.62 276.47L335.62 276.29L335.62 276.11L335.63 275.94L335.64 275.76L335.65 275.58L335.67 275.4L335.7 275.22L335.72 275.04L335.75 274.86L335.79 274.69L335.83 274.51L335.87 274.33L335.92 274.16L335.97 273.98L336.03 273.81L336.09 273.64L336.15 273.47L336.22 273.3L336.29 273.13L336.37 272.96L336.45 272.8L337.57 270.64L338.75 268.53L339.98 266.46L341.25 264.43L342.58 262.45L343.96 260.51L345.39 258.61L346.87 256.76L348.39 254.96L349.96 253.21L351.57 251.5L353.22 249.84L354.92 248.23L356.65 246.67L358.43 245.17L360.25 243.71L362.1 242.3L363.99 240.95L365.92 239.65L367.88 238.4L369.87 237.21L371.9 236.07L373.95 234.99L376.04 233.96L378.16 232.99L380.3 232.08L382.48 231.23L384.67 230.44L386.9 229.7L389.14 229.03L391.41 228.42L393.7 227.87L396.01 227.38L398.35 226.95L400.7 226.59L403.06 226.29L405.45 226.06L407.85 225.9L410.26 225.79L412.69 225.76L413.33 225.76L413.97 225.77L414.61 225.78L415.25 225.8L415.89 225.82L416.53 225.85L417.17 225.88L417.81 225.91L418.45 225.95L419.09 226L419.73 226.05L420.36 226.1L421 226.16L421.64 226.23L422.27 226.29L422.9 226.37L423.54 226.45L424.17 226.53L424.8 226.62L425.43 226.71L426.06 226.81L426.69 226.91L427.32 227.01L427.95 227.12L428.57 227.24L429.2 227.36L429.82 227.49L430.45 227.62L431.07 227.75L431.69 227.89L432.31 228.03L432.93 228.18L433.55 228.33L434.16 228.49L434.78 228.65L435.39 228.82L436.01 228.99L436.62 229.17L437.23 229.35L437.84 229.53L438.14 229.64L438.44 229.75L438.73 229.87L439.02 230L439.29 230.15L439.56 230.3L439.82 230.47L440.07 230.64L440.32 230.82L440.56 231.01L440.78 231.21L441 231.42L441.21 231.63L441.41 231.86L441.61 232.09L441.79 232.32L441.96 232.57L442.13 232.82L442.28 233.07L442.43 233.33L442.56 233.6L442.69 233.87L442.8 234.15L442.9 234.43L443 234.72L443.08 235L443.15 235.3L443.21 235.59L443.26 235.89L443.29 236.19L443.32 236.49L443.33 236.8L443.33 237.1L443.32 237.41L443.3 237.72L443.26 238.03L443.21 238.34L443.15 238.65L443.07 238.96L442.98 239.27L442.88 239.57L442.77 239.87L442.65 240.16L442.52 240.44L442.37 240.72L442.22 240.99L442.05 241.25L441.88 241.5L441.7 241.74L441.51 241.98L441.31 242.21L441.1 242.43L440.89 242.64L440.66 242.84L440.43 243.03L440.2 243.22L439.95 243.39L439.7 243.55L439.45 243.71L439.19 243.85L438.92 243.99L438.65 244.11L438.37 244.23L438.09 244.33L437.81 244.42L437.52 244.5L437.22 244.57L436.93 244.63L436.63 244.68L436.33 244.72L436.03 244.74L435.72 244.76L435.42 244.76L435.11 244.75L434.8 244.72L434.49 244.68L434.18 244.64L433.87 244.57L433.56 244.5L433.25 244.41L432.76 244.26L432.26 244.11L431.76 243.97L431.25 243.83L430.75 243.69L430.25 243.56L429.75 243.43L429.24 243.3L428.73 243.18L428.23 243.07L427.72 242.95L427.21 242.84L426.7 242.74L426.19 242.63L425.68 242.54L425.17 242.44L424.66 242.35L424.14 242.26L423.63 242.18L423.11 242.1L422.6 242.03L422.08 241.96L421.56 241.89L421.05 241.82L420.53 241.76L420.01 241.71L419.49 241.66L418.97 241.61L418.45 241.56L417.93 241.52L417.4 241.49L416.88 241.45L416.36 241.42L415.84 241.4L415.31 241.38L414.79 241.36L414.26 241.35L413.74 241.34L413.21 241.33L412.69 241.33L410.8 241.35L408.93 241.43L407.06 241.55L405.21 241.72L403.37 241.94L401.54 242.21L399.72 242.52L397.92 242.88L396.14 243.29L394.37 243.74L392.61 244.24L390.88 244.79L389.16 245.37L387.46 246L385.78 246.68L384.11 247.4L382.47 248.16L380.86 248.96L379.26 249.8L377.69 250.69L376.14 251.61L374.61 252.58L373.11 253.58L371.64 254.63L370.2 255.71L368.78 256.83L367.39 257.99L366.03 259.19L364.7 260.42L363.39 261.69L362.13 263L360.89 264.34L359.68 265.71L358.51 267.13L357.38 268.57L356.28 270.05L355.21 271.56L354.18 273.11L353.19 274.68L352.24 276.29L353.19 277.9L354.18 279.48L355.21 281.03L356.28 282.54L357.38 284.02L358.51 285.46L359.68 286.87L360.89 288.25L362.13 289.59L363.39 290.9L364.69 292.17L366.03 293.4L367.39 294.6L368.78 295.76L370.2 296.88L371.64 297.96L373.11 299.01L374.61 300.01L376.14 300.98L377.69 301.9L379.26 302.79L380.86 303.63L382.47 304.43L384.11 305.19L385.77 305.91L387.46 306.58L389.16 307.21L390.88 307.8L392.61 308.35L394.37 308.84L396.14 309.3L397.92 309.7L399.72 310.06L401.54 310.38L403.37 310.65L405.21 310.87L407.06 311.04L408.93 311.16L410.8 311.24L412.69 311.26L414.57 311.24L416.44 311.16L418.31 311.04L420.16 310.87L422 310.65L423.83 310.38L425.65 310.06L427.45 309.7L429.23 309.3L431 308.84L432.76 308.35L434.5 307.8L436.21 307.22L437.91 306.58L439.6 305.91L441.26 305.19L442.9 304.43L444.51 303.63L446.11 302.79L447.68 301.9L449.23 300.98L450.76 300.01L452.26 299.01L453.73 297.96L455.17 296.88L456.59 295.76L457.98 294.6L459.34 293.4L460.67 292.17L461.98 290.9L463.24 289.59L464.48 288.25L465.68 286.88L466.86 285.46L467.99 284.02L469.09 282.54L470.16 281.03L471.19 279.48L472.18 277.91L473.13 276.3L472.73 275.6L472.31 274.92L471.89 274.24L471.47 273.56L471.03 272.89L470.59 272.22L470.14 271.56L469.68 270.9L469.21 270.25L468.74 269.6L468.26 268.96L467.77 268.33L467.28 267.7L466.78 267.08L466.27 266.46L465.76 265.85L465.23 265.24L464.7 264.64L464.17 264.05L463.63 263.46L463.08 262.88L462.52 262.31L461.96 261.74L461.39 261.17L460.81 260.62L460.23 260.07L459.64 259.52L459.05 258.99L458.45 258.46L457.84 257.94L457.23 257.42L456.61 256.91L455.98 256.41L455.35 255.91L454.71 255.42L454.07 254.94L453.42 254.47L452.77 254L452.11 253.54L451.44 253.09L451.18 252.91L450.93 252.71L450.68 252.51L450.45 252.3L450.23 252.09L450.01 251.86L449.81 251.63L449.62 251.39L449.44 251.15L449.27 250.9L449.11 250.64L448.96 250.38L448.82 250.11L448.69 249.84L448.57 249.56L448.46 249.28L448.36 249L448.28 248.71L448.2 248.42L448.14 248.13L448.09 247.84L448.05 247.54L448.02 247.24L448 246.95L447.99 246.65L448 246.35L448.01 246.05L448.04 245.75L448.08 245.45L448.13 245.15L448.2 244.85L448.27 244.56L448.36 244.26L448.46 243.97L448.57 243.68L448.69 243.4L448.83 243.11L448.98 242.84L449.14 242.56L449.31 242.29L449.5 242.03L449.69 241.78L449.89 241.53L450.1 241.3L450.32 241.08L450.54 240.86L450.77 240.66L451.01 240.47L451.26 240.29L451.51 240.12L451.76 239.95L452.03 239.8L452.29 239.66L452.56 239.54L452.84 239.42L453.12 239.31L453.4 239.21L453.69 239.13L453.98 239.05L454.27 238.99L454.57 238.94L454.86 238.9L455.16 238.87L455.46 238.85L455.76 238.84L456.06 238.85L456.36 238.86L456.66 238.89L456.96 238.93L457.26 238.98L457.55 239.05L457.85 239.12L458.14 239.21L458.43 239.31L458.72 239.42L459.01 239.54L459.29 239.68L459.57 239.83L459.84 239.99L460.11 240.16L461.03 240.78L461.93 241.42L462.83 242.06L463.71 242.71L464.59 243.38L465.46 244.06L466.32 244.75L467.17 245.44L468.01 246.15L468.85 246.87L469.67 247.6L470.48 248.34L471.29 249.09L472.08 249.86L472.86 250.63L473.64 251.41L474.4 252.2L475.15 253L475.9 253.81L476.63 254.63L477.35 255.45L478.06 256.29L478.76 257.14L479.45 257.99L480.13 258.86L480.8 259.73L481.45 260.61L482.1 261.5L482.73 262.4L483.35 263.31L483.96 264.22L484.56 265.14L485.15 266.07L485.72 267.01L486.29 267.96L486.84 268.91L487.38 269.87L487.91 270.84L488.42 271.81L488.92 272.8L489 272.96L489.08 273.13L489.15 273.3L489.22 273.47L489.29 273.64L489.35 273.81L489.4 273.98L489.45 274.16L489.5 274.33L489.54 274.51L489.58 274.68L489.62 274.86L489.65 275.04L489.68 275.22L489.7 275.4L489.72 275.57L489.73 275.75L489.74 275.93L489.75 276.11L489.75 276.29L489.75 276.47L489.74 276.65L489.73 276.83L489.72 277.01L489.7 277.19L489.68 277.37L489.65 277.55L489.62 277.72L489.58 277.9L489.54 278.08L489.5 278.25L489.45 278.43L489.4 278.6L489.35 278.78L489.29 278.95L489.22 279.12L489.15 279.29L489.08 279.46L489 279.62L488.92 279.79L488.43 280.75L487.93 281.7L487.42 282.65L486.9 283.58L486.37 284.51L485.82 285.43L485.27 286.34L484.71 287.24L484.14 288.13L483.55 289.01L482.96 289.89L482.36 290.76L481.75 291.62L481.12 292.46L480.49 293.31L479.85 294.14L479.2 294.96L478.54 295.77L477.88 296.58L477.2 297.37L476.51 298.16L475.82 298.93L475.11 299.7L474.4 300.46L473.68 301.21L472.95 301.95L472.22 302.68L471.47 303.4L470.72 304.11L469.95 304.81L469.18 305.5L468.41 306.18L467.62 306.85L466.83 307.51L466.03 308.16L465.22 308.8L464.4 309.43L463.58 310.05L462.75 310.66L461.91 311.26L506.02 311.26L506.02 202.18L506 201.45L505.96 200.72L505.89 200.01L505.79 199.3L505.66 198.6L505.5 197.91L505.32 197.23L505.11 196.56L504.88 195.9L504.62 195.26L504.34 194.63L504.03 194.01L503.7 193.4L503.35 192.81L502.98 192.24L502.58 191.68L502.16 191.13L501.73 190.6L501.27 190.09L500.8 189.6L500.31 189.13L499.8 188.67L499.27 188.24L498.73 187.82L498.17 187.43L497.59 187.05L497 186.7L496.39 186.37L495.78 186.07L495.14 185.78L494.5 185.53L493.84 185.29L493.17 185.08L492.49 184.9L491.8 184.75L491.11 184.62L490.4 184.52L489.68 184.44L488.96 184.4L488.22 184.38L418.78 184.38L418.46 184.38L418.15 184.36L417.83 184.33L417.52 184.28L417.22 184.23L416.91 184.16L416.62 184.08L416.32 183.99L416.04 183.89L415.75 183.77L415.48 183.65L415.21 183.52L414.94 183.37L414.68 183.22L414.43 183.05L414.19 182.88L413.95 182.7L413.72 182.51L413.5 182.31L413.28 182.1L413.07 181.89L412.87 181.67L412.68 181.44L412.5 181.2L412.33 180.95L412.17 180.7L412.01 180.44L411.87 180.18L411.74 179.91L411.61 179.63L411.5 179.35L411.4 179.06L411.31 178.77L411.23 178.47L411.16 178.17L411.1 177.86L411.06 177.55L411.03 177.24L411.01 176.92L411 176.6L411.01 176.28L411.03 175.96L411.06 175.65L411.1 175.34L411.16 175.03L411.23 174.73L411.31 174.43L411.4 174.14L411.5 173.85L411.61 173.57L411.74 173.29L411.87 173.02L412.01 172.76L412.17 172.5L412.33 172.25L412.5 172L412.68 171.77L412.87 171.53L413.07 171.31L413.28 171.1L413.5 170.89L413.72 170.69L413.95 170.5L414.19 170.32L414.43 170.15L414.68 169.98L414.94 169.83L415.21 169.69L415.48 169.55L415.75 169.43L416.04 169.32L416.32 169.21L416.62 169.12L416.91 169.04L417.22 168.98L417.52 168.92L417.83 168.87L418.15 168.84L418.46 168.82L418.78 168.82L488.22 168.82L489.6 168.84L490.95 168.93L492.3 169.06L493.63 169.25L494.94 169.5L496.23 169.79L497.5 170.13L498.76 170.52L499.99 170.96L501.2 171.44L502.38 171.97L503.54 172.55L504.68 173.16L505.78 173.82L506.86 174.52L507.91 175.26L508.93 176.04L509.92 176.86L510.88 177.71L511.8 178.6L512.69 179.52L513.54 180.48L514.36 181.47L515.14 182.49L515.88 183.54L516.58 184.62L517.24 185.73L517.86 186.86L518.43 188.02L518.96 189.21L519.44 190.41L519.88 191.65L520.27 192.9L520.61 194.17L520.91 195.46L521.15 196.78L521.34 198.1L521.47 199.45L521.56 200.81L521.59 202.18L521.59 312.87L522.45 313.18L523.31 313.52L524.15 313.89L524.98 314.28L525.79 314.69L526.59 315.13L527.37 315.6L528.14 316.08L528.9 316.59L529.63 317.12L530.35 317.67L531.05 318.24L531.74 318.84L532.4 319.45L533.05 320.09L533.67 320.74L534.28 321.41L534.87 322.1L535.43 322.81L535.98 323.53L536.5 324.27L537 325.03L537.48 325.81L537.93 326.6L538.36 327.4L538.77 328.22L539.15 329.05L539.5 329.9L539.83 330.76L540.14 331.63L540.42 332.51L540.67 333.41L540.89 334.32L541.08 335.23L541.25 336.16L541.39 337.1L541.49 338.04L541.57 339L541.62 339.96L541.63 340.93L541.63 369.24L545.68 369.24L546 369.25L546.31 369.26L546.63 369.3L546.94 369.34L547.24 369.4L547.55 369.47L547.84 369.54L548.14 369.64L548.42 369.74L548.71 369.85L548.98 369.97L549.25 370.11L549.52 370.25L549.78 370.41L550.03 370.57L550.27 370.74L550.51 370.92L550.74 371.11L550.96 371.31L551.18 371.52L551.39 371.73L551.59 371.96L551.78 372.19L551.96 372.43L552.13 372.67L552.29 372.92L552.45 373.18L552.59 373.45L552.72 373.72L552.85 373.99L552.96 374.28L553.06 374.56L553.15 374.86L553.23 375.15L553.3 375.46L553.36 375.76L553.4 376.07L553.43 376.39L553.45 376.7L553.46 377.02L553.46 435L553.45 435.32L553.43 435.64L553.4 435.96L553.36 436.27L553.3 436.57L553.23 436.87L553.15 437.17L553.06 437.46L552.96 437.75L552.85 438.03L552.73 438.31L552.59 438.58L552.45 438.85L552.29 439.1L552.13 439.36L551.96 439.6L551.78 439.84L551.59 440.07L551.39 440.29L551.18 440.51L550.97 440.71L550.74 440.91L550.51 441.1L550.27 441.29L550.03 441.46L549.78 441.62L549.52 441.77L549.25 441.92L548.98 442.05L548.71 442.18L548.42 442.29L548.14 442.39L547.84 442.48L547.55 442.56L547.25 442.63L546.94 442.69L546.63 442.73L546.32 442.76L546 442.78L545.68 442.79L518.47 442.79L518.47 477.03L518.47 477.35L518.45 477.67L518.42 477.99L518.37 478.3L518.32 478.6L518.25 478.9L518.17 479.2L518.08 479.49L517.98 479.78L517.86 480.06L517.74 480.34L517.61 480.61L517.46 480.87L517.31 481.13L517.14 481.38L516.97 481.63L516.79 481.87L516.6 482.1L516.4 482.32L516.19 482.54L515.98 482.74L515.76 482.94L515.53 483.13L515.29 483.31L515.04 483.49L514.79 483.65L514.53 483.8L514.27 483.95L514 484.08L513.72 484.21L513.44 484.32L513.15 484.42L512.86 484.51L512.56 484.59L512.26 484.66L511.95 484.72L511.64 484.76L511.33 484.79L511.01 484.81L510.69 484.82L468.66 484.82L468.34 484.81L468.02 484.79L467.71 484.76L467.4 484.72L467.09 484.66L466.79 484.59L466.49 484.51L466.2 484.42L465.91 484.32L465.63 484.21L465.35 484.08L465.08 483.95L464.82 483.8L464.56 483.65L464.31 483.49L464.06 483.32L463.83 483.13L463.59 482.94L463.37 482.74L463.16 482.54L462.95 482.32L462.75 482.1L462.56 481.87L462.38 481.63L462.21 481.39L462.04 481.13L461.89 480.88L461.75 480.61L461.61 480.34L461.49 480.06L461.38 479.78L461.27 479.49L461.18 479.2L461.1 478.9L461.03 478.6L460.98 478.3L460.93 477.99L460.9 477.67L460.88 477.35L460.88 477.03L460.88 442.79L429.59 442.79L429.27 442.78L428.95 442.76L428.64 442.73L428.33 442.69L428.02 442.63L427.72 442.56L427.42 442.48L427.13 442.39L426.84 442.29L426.56 442.18L426.28 442.05L426.01 441.92L425.75 441.77L425.49 441.62L425.24 441.46L424.99 441.29L424.76 441.1L424.53 440.91L424.3 440.71L424.09 440.51L423.88 440.29L423.68 440.07L423.49 439.84L423.31 439.6L423.14 439.36L422.97 439.1L422.82 438.85L422.68 438.58L422.54 438.31L422.42 438.03L422.31 437.75L422.2 437.46L422.11 437.17L422.03 436.87L421.97 436.57L421.91 436.27L421.87 435.96L421.83 435.64L421.81 435.32L421.81 435L421.81 434.68L421.83 434.37L421.87 434.05L421.91 433.74L421.97 433.43L422.03 433.13L422.11 432.84L422.2 432.54L422.31 432.26L422.42 431.97L422.54 431.7L422.68 431.43L422.82 431.16L422.97 430.9L423.14 430.65L423.31 430.41L423.49 430.17L423.68 429.94L423.88 429.71L424.09 429.5L424.3 429.29L424.53 429.09L424.76 428.9L424.99 428.72L425.24 428.55L425.49 428.39L425.75 428.23L426.01 428.09L426.28 427.95L426.56 427.83L426.84 427.72L427.13 427.62L427.42 427.53L427.72 427.45L428.02 427.38L428.33 427.32L428.64 427.28L428.95 427.25L429.27 427.23L429.59 427.22L537.89 427.22L537.89 384.81L182.17 384.81L181.85 384.8L181.53 384.78L181.22 384.75L180.91 384.71L180.6 384.65L180.3 384.58L180 384.5L179.71 384.41L179.42 384.31L179.14 384.2L178.87 384.07L178.59 383.94L178.33 383.8L178.07 383.64L177.82 383.48L177.57 383.31L177.34 383.12L177.11 382.93L176.88 382.74L176.67 382.53L176.46 382.31L176.26 382.09L176.07 381.86L175.89 381.62L175.72 381.38L175.55 381.12L175.4 380.87L175.26 380.6L175.12 380.33L175 380.05L174.89 379.77L174.79 379.48L174.69 379.19L174.61 378.89L174.55 378.59L174.49 378.29L174.45 377.98L174.41 377.66L174.39 377.35L174.39 377.02L174.39 376.7L174.41 376.39L174.45 376.07L174.49 375.76L174.55 375.46L174.61 375.15L174.69 374.86L174.79 374.56L174.89 374.28L175 373.99L175.12 373.72L175.26 373.45L175.4 373.18L175.55 372.92L175.72 372.67L175.89 372.43L176.07 372.19L176.26 371.96L176.46 371.74L176.67 371.52L176.88 371.31L177.11 371.11L177.34 370.92L177.57 370.74L177.82 370.57L178.07 370.41L178.33 370.25L178.59 370.11L178.87 369.98L179.14 369.85L179.42 369.74L179.71 369.64L180 369.55L180.3 369.47L180.6 369.4L180.91 369.34L181.22 369.3L181.53 369.27L181.85 369.25L182.17 369.24L526.06 369.24L526.06 340.93L526.05 340.35L526.02 339.78L525.96 339.21L525.88 338.65L525.78 338.1L525.65 337.55L525.51 337.01L525.34 336.48L525.16 335.96L524.95 335.45L524.73 334.95L524.49 334.46L524.23 333.98L523.95 333.51L523.65 333.05L523.34 332.61L523.01 332.18L522.66 331.76L522.3 331.35L521.93 330.96L521.54 330.59L521.13 330.23L520.71 329.88L520.28 329.55L519.84 329.24L519.38 328.94L518.91 328.67L518.43 328.4L517.94 328.16L517.44 327.94L516.93 327.73L516.41 327.55L515.88 327.38L515.34 327.24L514.8 327.11L514.24 327.01L513.68 326.93L513.11 326.87L512.54 326.84L511.96 326.83L128.04 326.83L127.46 326.84L126.89 326.87L126.32 326.93L125.76 327.01L125.2 327.11L124.65 327.24L124.12 327.38L123.59 327.55L123.07 327.73L122.56 327.94L122.05 328.16L121.56 328.4L121.08 328.67L120.62 328.94L120.16 329.24L119.72 329.55L119.28 329.88L118.87 330.23L118.46 330.59L118.07 330.96L117.69 331.35L117.33 331.76L116.99 332.18L116.66 332.61L116.35 333.05L116.05 333.51L115.77 333.98L115.51 334.46L115.27 334.95L115.04 335.45L114.84 335.96L114.65 336.48L114.49 337.01L114.34 337.55L114.22 338.1L114.12 338.65L114.04 339.21L113.98 339.78L113.95 340.35L113.93 340.93L113.93 369.24L156.23 369.24L156.55 369.25L156.86 369.27L157.18 369.3L157.49 369.34L157.79 369.4L158.1 369.47L158.39 369.55L158.69 369.64L158.97 369.74L159.26 369.85L159.53 369.98L159.8 370.11L160.07 370.25L160.33 370.41L160.58 370.57L160.82 370.74L161.06 370.92L161.29 371.11L161.51 371.31L161.73 371.52L161.94 371.74L162.14 371.96L162.33 372.19L162.51 372.43L162.68 372.67L162.84 372.92L163 373.18L163.14 373.45L163.27 373.72L163.4 373.99L163.51 374.28L163.61 374.56L163.7 374.86L163.78 375.15L163.85 375.46L163.91 375.76L163.95 376.07L163.98 376.39L164 376.7L164.01 377.02L164 377.35L163.98 377.66L163.95 377.98L163.91 378.29L163.85 378.59L163.78 378.89L163.7 379.19L163.61 379.48L163.51 379.77L163.4 380.05L163.27 380.33L163.14 380.6L163 380.87L162.84 381.12L162.68 381.38L162.51 381.62L162.33 381.86L162.14 382.09L161.94 382.31L161.73 382.53L161.51 382.74L161.29 382.93L161.06 383.12L160.82 383.31L160.58 383.48L160.33 383.64L160.07 383.8L159.8 383.94L159.53 384.07L159.26 384.2L158.97 384.31L158.69 384.41L158.39 384.5L158.1 384.58L157.79 384.65L157.49 384.71L157.18 384.75L156.86 384.78L156.55 384.8L156.23 384.81L102.11 384.81L102.11 427.22L403.65 427.22L403.97 427.23L404.28 427.25L404.6 427.28L404.91 427.32L405.22 427.38L405.52 427.45L405.81 427.53L406.11 427.62L406.39 427.72L406.68 427.83L406.95 427.95L407.22 428.09L407.49 428.23L407.75 428.39L408 428.55L408.24 428.72L408.48 428.9L408.71 429.09L408.94 429.29L409.15 429.5L409.36 429.71L409.56 429.94L409.75 430.17L409.93 430.41L410.1 430.65L410.26 430.9L410.42 431.16L410.56 431.43L410.7 431.7L410.82 431.97L410.93 432.26L411.03 432.54L411.12 432.84L411.2 433.13L411.27 433.43L411.33 433.74L411.37 434.05L411.4 434.37L411.42 434.68L411.43 435L411.42 435.32L411.4 435.64L411.37 435.96L411.33 436.27L411.27 436.57L411.2 436.87L411.12 437.17L411.03 437.46L410.93 437.75L410.82 438.03L410.7 438.31L410.56 438.58L410.42 438.85L410.26 439.1L410.1 439.36L409.93 439.6L409.75 439.84L409.56 440.07L409.36 440.29L409.15 440.51L408.94 440.71L408.71 440.91L408.48 441.1L408.24 441.29L408 441.46L407.75 441.62L407.49 441.77L407.22 441.92L406.95 442.05L406.68 442.18L406.39 442.29L406.11 442.39L405.81 442.48L405.52 442.56L405.22 442.63L404.91 442.69L404.6 442.73L404.28 442.76L403.97 442.78L403.65 442.79L179.12 442.79L179.12 477.03L179.12 477.35L179.1 477.67L179.06 477.99L179.02 478.3L178.96 478.6L178.9 478.9L178.82 479.2L178.73 479.49L178.62 479.78L178.51 480.06L178.39 480.34L178.25 480.61L178.11 480.87L177.96 481.13L177.79 481.38L177.62 481.63L177.44 481.87L177.25 482.1L177.05 482.32L176.84 482.54L176.63 482.74L176.4 482.94L176.17 483.13L175.94 483.31L175.69 483.49L175.44 483.65L175.18 483.8L174.92 483.95L174.65 484.08L174.37 484.21L174.09 484.32L173.8 484.42L173.51 484.51L173.21 484.59L172.91 484.66L172.6 484.72L172.29 484.76L171.98 484.79L171.66 484.81L171.34 484.82L129.31 484.82L128.99 484.81L128.67 484.79L128.36 484.76L128.05 484.72L127.74 484.66L127.44 484.59L127.14 484.51L126.85 484.42L126.56 484.32L126.28 484.21L126 484.08L125.73 483.95L125.47 483.8L125.21 483.65L124.96 483.49L124.71 483.32L124.47 483.13L124.24 482.94L124.02 482.74L123.8 482.54L123.6 482.32L123.4 482.1L123.21 481.87L123.03 481.63L122.85 481.39L122.69 481.13L122.54 480.88L122.39 480.61L122.26 480.34L122.14 480.06L122.02 479.78L121.92 479.49L121.83 479.2L121.75 478.9L121.68 478.6L121.63 478.3L121.58 477.99L121.55 477.67L121.53 477.35L121.53 477.03L121.53 442.79L94.32 442.79L94 442.78L93.69 442.76L93.37 442.73L93.06 442.69L92.75 442.63L92.45 442.56L92.16 442.48L91.86 442.39L91.58 442.29L91.29 442.18L91.02 442.05L90.75 441.92L90.48 441.77L90.22 441.62L89.97 441.46L89.73 441.29L89.49 441.1L89.26 440.91L89.03 440.71L88.82 440.51L88.61 440.29L88.41 440.07L88.22 439.84L88.04 439.6L87.87 439.36L87.71 439.1L87.55 438.85L87.41 438.58L87.28 438.31L87.15 438.03L87.04 437.75L86.94 437.46L86.85 437.17L86.77 436.87L86.7 436.57L86.64 436.27L86.6 435.96L86.57 435.64L86.55 435.32L86.54 435L86.54 377.02L86.55 376.7L86.57 376.39L86.6 376.07L86.64 375.76L86.7 375.46L86.77 375.15L86.85 374.86L86.94 374.56L87.04 374.28L87.15 373.99L87.28 373.72L87.41 373.45L87.55 373.18L87.71 372.92L87.87 372.67L88.04 372.43L88.22 372.19L88.41 371.96L88.61 371.74L88.82 371.52L89.03 371.31L89.26 371.11L89.49 370.92L89.73 370.74L89.97 370.57L90.22 370.41L90.48 370.25L90.75 370.11L91.02 369.98L91.29 369.85L91.58 369.74L91.86 369.64L92.16 369.55L92.45 369.47L92.75 369.4L93.06 369.34L93.37 369.3L93.69 369.27L94 369.25L94.32 369.24L98.37 369.24L98.37 340.93L98.38 339.96L98.43 339L98.51 338.05L98.61 337.1L98.75 336.16L98.92 335.24L99.11 334.32L99.33 333.41L99.58 332.52L99.86 331.63L100.17 330.76L100.5 329.9L100.85 329.06L101.23 328.22L101.64 327.4L102.07 326.6L102.52 325.81L103 325.04L103.5 324.28L104.02 323.54L104.57 322.81L105.13 322.1L105.72 321.41L106.32 320.74L106.95 320.09L107.6 319.45L108.26 318.84L108.94 318.25L109.65 317.67L110.37 317.12L111.1 316.59L111.85 316.08L112.62 315.6L113.41 315.14L114.21 314.7L115.02 314.28L115.85 313.89L116.69 313.53L117.54 313.19L118.41 312.87L118.41 202.18L118.44 200.81L118.52 199.45L118.66 198.1L118.85 196.78L119.09 195.46L119.38 194.17L119.72 192.9L120.11 191.65L120.55 190.41L121.04 189.21L121.57 188.02L122.14 186.86L122.76 185.73L123.42 184.62L124.12 183.54L124.86 182.49L125.64 181.47L126.45 180.48L127.3 179.52L128.19 178.6L129.12 177.71L130.07 176.86L131.06 176.04L132.08 175.26L133.13 174.52L134.21 173.82L135.32 173.16L136.45 172.55L137.61 171.97L138.8 171.44L140.01 170.96L141.24 170.52L142.49 170.13L143.77 169.79L145.06 169.5L146.37 169.25L147.7 169.06L149.04 168.93L150.4 168.84L151.77 168.82L392.84 168.82L393.16 168.82L393.48 168.84ZM476.44 469.25L502.91 469.25L502.91 442.79L476.44 442.79L476.44 469.25ZM137.09 469.25L163.55 469.25L163.55 442.79L137.09 442.79L137.09 469.25ZM223.55 241.43L221.69 241.55L219.84 241.72L218 241.94L216.17 242.21L214.35 242.52L212.55 242.88L210.76 243.29L208.99 243.74L207.24 244.24L205.5 244.78L203.78 245.37L202.08 246L200.4 246.68L198.74 247.39L197.1 248.15L195.48 248.96L193.89 249.8L192.31 250.68L190.76 251.61L189.24 252.58L187.74 253.58L186.27 254.62L184.82 255.71L183.4 256.83L182.01 257.99L180.65 259.19L179.32 260.42L178.02 261.69L176.75 262.99L175.52 264.34L174.31 265.71L173.14 267.12L172.01 268.57L170.9 270.05L169.84 271.56L168.81 273.11L167.82 274.68L166.87 276.29L167.82 277.9L168.81 279.48L169.84 281.02L170.9 282.54L172.01 284.02L173.14 285.46L174.31 286.87L175.52 288.25L176.75 289.59L178.02 290.9L179.32 292.17L180.65 293.4L182.01 294.6L183.4 295.76L184.82 296.88L186.27 297.96L187.74 299.01L189.24 300.01L190.77 300.98L192.31 301.9L193.89 302.79L195.48 303.63L197.1 304.43L198.74 305.19L200.4 305.91L202.08 306.58L203.78 307.21L205.5 307.8L207.24 308.34L208.99 308.84L210.76 309.3L212.55 309.7L214.35 310.06L216.17 310.38L218 310.65L219.84 310.86L221.69 311.04L223.55 311.16L225.43 311.23L227.31 311.26L229.2 311.23L231.07 311.16L232.94 311.04L234.79 310.86L236.63 310.65L238.46 310.38L240.27 310.06L242.08 309.7L243.86 309.3L245.63 308.84L247.39 308.34L249.12 307.8L250.84 307.21L252.54 306.58L254.22 305.91L255.89 305.19L257.53 304.43L259.14 303.63L260.74 302.79L262.31 301.9L263.86 300.98L265.39 300.01L266.89 299.01L268.36 297.96L269.8 296.88L271.22 295.76L272.61 294.6L273.97 293.4L275.3 292.17L276.6 290.9L277.87 289.59L279.11 288.25L280.31 286.87L281.49 285.46L282.62 284.02L283.72 282.54L284.79 281.02L285.82 279.48L286.81 277.9L287.76 276.29L286.81 274.68L285.82 273.11L284.79 271.56L283.72 270.05L282.62 268.57L281.49 267.12L280.31 265.71L279.11 264.34L277.87 262.99L276.6 261.69L275.3 260.42L273.97 259.19L272.61 257.99L271.22 256.83L269.8 255.71L268.36 254.62L266.89 253.58L265.39 252.58L263.86 251.61L262.31 250.68L260.74 249.8L259.14 248.96L257.53 248.15L255.89 247.39L254.22 246.68L252.54 246L250.84 245.37L249.12 244.78L247.39 244.24L245.63 243.74L243.86 243.29L242.08 242.88L240.27 242.52L238.46 242.21L236.63 241.94L234.79 241.72L232.94 241.55L231.07 241.43L229.2 241.35L227.31 241.33L225.43 241.35L223.55 241.43Z" id="f3ZplrRltv"></path></defs><g><g><g><use xlink:href="#a4pfxfjNPj" opacity="1" fill="#ff0871" fill-opacity="1"></use><g><use xlink:href="#a4pfxfjNPj" opacity="1" fill-opacity="0" stroke="#000000" stroke-width="1" stroke-opacity="0"></use></g></g><g><use xlink:href="#f3ZplrRltv" opacity="1" fill="#ffffff" fill-opacity="1"></use><g><use xlink:href="#f3ZplrRltv" opacity="1" fill-opacity="0" stroke="#000000" stroke-width="1" stroke-opacity="0"></use></g></g></g></g></svg>
