<?xml version="1.0" encoding="UTF-8" standalone="no"?>
<!DOCTYPE svg PUBLIC "-//W3C//DTD SVG 1.1//EN" "http://www.w3.org/Graphics/SVG/1.1/DTD/svg11.dtd">
<svg version="1.1" xmlns="http://www.w3.org/2000/svg" xmlns:xlink="http://www.w3.org/1999/xlink" preserveAspectRatio="xMidYMid meet" viewBox="0 0 640 640" width="512" height="512"><defs><path d="M480.64 42.92C431.6 14.3 378.07 0 320.01 0C261.95 0 208.41 14.3 159.38 42.92C110.35 71.53 71.54 110.34 42.92 159.37C14.3 208.4 0 261.95 0 320C0 378.06 14.31 431.59 42.92 480.63C71.53 529.65 110.35 568.47 159.38 597.08C208.41 625.69 261.95 640 320 640C378.06 640 431.61 625.69 480.63 597.08C529.66 568.48 568.48 529.65 597.09 480.63C625.7 431.6 640 378.05 640 320C640 261.94 625.7 208.4 597.09 159.37C568.48 110.35 529.66 71.53 480.64 42.92Z" id="b6pyRPVDo"></path><path d="M454.16 113.32L454.39 113.35L454.63 113.38L454.85 113.42L455.08 113.47L455.3 113.53L455.52 113.6L455.73 113.67L455.94 113.76L456.15 113.85L456.35 113.95L456.55 114.06L456.74 114.18L456.93 114.3L457.11 114.43L457.29 114.57L457.46 114.72L457.63 114.87L457.79 115.02L457.95 115.19L458.1 115.36L458.24 115.53L458.37 115.71L458.51 115.9L458.63 116.09L458.75 116.28L458.86 116.48L458.96 116.69L459.05 116.89L459.14 117.1L459.22 117.32L459.29 117.54L459.36 117.76L459.42 117.99L459.46 118.21L459.5 118.45L459.54 118.68L459.56 118.91L459.57 119.15L459.58 119.39L459.58 147.35L488.12 187.86L488.17 187.94L488.22 188.01L488.27 188.09L488.32 188.16L488.37 188.24L488.41 188.32L488.46 188.39L488.5 188.47L488.54 188.55L488.58 188.63L488.62 188.71L488.66 188.79L488.69 188.88L488.73 188.96L488.76 189.04L488.8 189.12L488.83 189.21L488.86 189.29L488.89 189.38L488.91 189.46L488.94 189.55L488.97 189.63L488.99 189.72L489.01 189.8L489.03 189.89L489.05 189.98L489.07 190.06L489.09 190.15L489.1 190.24L489.12 190.33L489.13 190.42L489.14 190.51L489.15 190.59L489.16 190.68L489.17 190.77L489.18 190.86L489.18 190.95L489.18 191.04L489.19 191.13L489.19 191.22L489.19 229.28L492.01 229.28L492.25 229.28L492.49 229.3L492.73 229.32L492.96 229.35L493.19 229.4L493.42 229.45L493.64 229.51L493.86 229.58L494.07 229.65L494.28 229.74L494.49 229.83L494.7 229.93L494.89 230.04L495.09 230.15L495.28 230.28L495.46 230.4L495.64 230.54L495.81 230.68L495.98 230.83L496.14 230.99L496.3 231.15L496.44 231.32L496.59 231.49L496.72 231.67L496.85 231.85L496.98 232.04L497.09 232.23L497.2 232.43L497.3 232.64L497.39 232.84L497.48 233.05L497.55 233.27L497.62 233.49L497.68 233.71L497.73 233.94L497.77 234.17L497.81 234.4L497.83 234.64L497.85 234.87L497.85 235.11L497.85 259.65L497.85 259.89L497.83 260.12L497.81 260.36L497.77 260.59L497.73 260.82L497.68 261.05L497.62 261.27L497.55 261.49L497.48 261.71L497.39 261.92L497.3 262.12L497.2 262.33L497.09 262.53L496.98 262.72L496.85 262.91L496.72 263.09L496.59 263.27L496.44 263.44L496.3 263.61L496.14 263.77L495.98 263.93L495.81 264.08L495.64 264.22L495.46 264.36L495.28 264.49L495.09 264.61L494.89 264.72L494.7 264.83L494.49 264.93L494.28 265.02L494.07 265.11L493.86 265.18L493.64 265.25L493.42 265.31L493.19 265.36L492.96 265.41L492.73 265.44L492.49 265.46L492.25 265.48L492.01 265.48L489.19 265.48L489.19 278.5L489.18 278.74L489.17 278.98L489.14 279.21L489.11 279.45L489.07 279.68L489.02 279.9L488.96 280.13L488.89 280.34L488.81 280.56L488.73 280.77L488.64 280.98L488.54 281.18L488.43 281.38L488.31 281.57L488.19 281.76L488.06 281.95L487.93 282.13L487.78 282.3L487.63 282.47L487.48 282.63L487.32 282.78L487.15 282.93L486.98 283.07L486.8 283.21L486.61 283.34L486.43 283.46L486.23 283.58L486.03 283.68L485.83 283.78L485.62 283.88L485.41 283.96L485.2 284.04L484.98 284.11L484.75 284.17L484.53 284.22L484.3 284.26L484.07 284.29L483.83 284.32L483.59 284.33L483.35 284.34L483.11 284.33L482.87 284.32L482.64 284.29L482.4 284.26L482.17 284.22L481.95 284.17L481.73 284.11L481.51 284.04L481.29 283.96L481.08 283.88L480.87 283.78L480.67 283.68L480.47 283.58L480.28 283.46L480.09 283.34L479.9 283.21L479.73 283.07L479.55 282.93L479.39 282.78L479.22 282.63L479.07 282.46L478.92 282.3L478.78 282.12L478.64 281.95L478.51 281.76L478.39 281.57L478.27 281.38L478.17 281.18L478.07 280.98L477.97 280.77L477.89 280.56L477.81 280.34L477.74 280.12L477.68 279.9L477.63 279.68L477.59 279.45L477.56 279.21L477.53 278.98L477.52 278.74L477.51 278.5L477.51 265.48L429.97 265.48L429.97 470.1L477.51 470.1L477.51 305.74L477.52 305.5L477.53 305.26L477.56 305.02L477.59 304.79L477.63 304.56L477.68 304.34L477.74 304.11L477.81 303.89L477.89 303.68L477.97 303.47L478.07 303.26L478.17 303.06L478.27 302.86L478.39 302.66L478.51 302.47L478.64 302.29L478.78 302.11L478.92 301.94L479.07 301.77L479.22 301.61L479.39 301.46L479.55 301.31L479.73 301.16L479.9 301.03L480.09 300.9L480.28 300.78L480.47 300.66L480.67 300.55L480.87 300.45L481.08 300.36L481.29 300.28L481.51 300.2L481.73 300.13L481.95 300.07L482.18 300.02L482.41 299.98L482.64 299.94L482.87 299.92L483.11 299.91L483.35 299.9L483.59 299.91L483.83 299.92L484.07 299.94L484.3 299.98L484.53 300.02L484.75 300.07L484.98 300.13L485.2 300.2L485.41 300.28L485.62 300.36L485.83 300.45L486.03 300.55L486.23 300.66L486.43 300.78L486.61 300.9L486.8 301.03L486.98 301.16L487.15 301.31L487.32 301.46L487.48 301.61L487.63 301.77L487.78 301.94L487.93 302.11L488.06 302.29L488.19 302.47L488.31 302.66L488.43 302.86L488.54 303.06L488.64 303.26L488.73 303.47L488.81 303.68L488.89 303.89L488.96 304.11L489.02 304.34L489.07 304.56L489.11 304.79L489.15 305.02L489.17 305.26L489.18 305.5L489.19 305.74L489.19 470.11L492.01 470.11L492.25 470.11L492.49 470.12L492.73 470.15L492.96 470.18L493.19 470.22L493.42 470.27L493.64 470.33L493.86 470.4L494.07 470.48L494.29 470.56L494.49 470.66L494.7 470.76L494.89 470.86L495.09 470.98L495.28 471.1L495.46 471.23L495.64 471.37L495.81 471.51L495.98 471.66L496.14 471.82L496.3 471.98L496.45 472.14L496.59 472.32L496.72 472.5L496.85 472.68L496.98 472.87L497.09 473.06L497.2 473.26L497.3 473.46L497.39 473.67L497.48 473.88L497.55 474.1L497.62 474.32L497.68 474.54L497.73 474.77L497.77 475L497.81 475.23L497.83 475.46L497.85 475.7L497.85 475.94L497.85 500.47L497.85 500.71L497.83 500.95L497.81 501.19L497.77 501.42L497.73 501.65L497.68 501.87L497.62 502.1L497.55 502.32L497.48 502.53L497.39 502.74L497.3 502.95L497.2 503.15L497.09 503.35L496.98 503.55L496.85 503.74L496.72 503.92L496.59 504.1L496.45 504.27L496.3 504.44L496.14 504.6L495.98 504.75L495.81 504.9L495.64 505.05L495.46 505.18L495.28 505.31L495.09 505.43L494.89 505.55L494.7 505.66L494.49 505.76L494.29 505.85L494.07 505.93L493.86 506.01L493.64 506.08L493.42 506.14L493.19 506.19L492.96 506.23L492.73 506.27L492.49 506.29L492.25 506.3L492.01 506.31L415.47 506.31L415.23 506.3L414.99 506.29L414.75 506.27L414.52 506.23L414.29 506.19L414.06 506.14L413.84 506.08L413.62 506.01L413.41 505.93L413.2 505.85L412.99 505.76L412.78 505.66L412.59 505.55L412.39 505.43L412.2 505.31L412.02 505.18L411.84 505.05L411.67 504.9L411.5 504.75L411.34 504.6L411.18 504.44L411.04 504.27L410.89 504.1L410.76 503.92L410.63 503.74L410.5 503.55L410.39 503.35L410.28 503.15L410.18 502.95L410.09 502.74L410 502.53L409.93 502.32L409.86 502.1L409.8 501.87L409.75 501.65L409.71 501.42L409.67 501.19L409.65 500.95L409.64 500.71L409.63 500.47L409.63 475.94L409.64 475.7L409.65 475.46L409.67 475.23L409.71 474.99L409.75 474.77L409.8 474.54L409.86 474.32L409.93 474.1L410 473.88L410.09 473.67L410.18 473.46L410.28 473.26L410.39 473.06L410.5 472.87L410.63 472.68L410.76 472.49L410.89 472.32L411.04 472.14L411.18 471.98L411.34 471.81L411.5 471.66L411.67 471.51L411.84 471.37L412.02 471.23L412.2 471.1L412.39 470.98L412.59 470.86L412.78 470.76L412.99 470.66L413.2 470.56L413.41 470.48L413.62 470.4L413.84 470.33L414.06 470.27L414.29 470.22L414.52 470.18L414.75 470.15L414.99 470.12L415.23 470.11L415.47 470.1L418.29 470.1L418.29 265.48L415.47 265.48L415.23 265.48L414.99 265.46L414.75 265.44L414.52 265.41L414.29 265.36L414.06 265.31L413.84 265.25L413.62 265.18L413.41 265.11L413.2 265.02L412.99 264.93L412.78 264.83L412.59 264.72L412.39 264.61L412.2 264.49L412.02 264.36L411.84 264.22L411.67 264.08L411.5 263.93L411.34 263.77L411.18 263.61L411.04 263.44L410.89 263.27L410.76 263.09L410.63 262.91L410.5 262.72L410.39 262.53L410.28 262.33L410.18 262.12L410.09 261.92L410 261.71L409.93 261.49L409.86 261.27L409.8 261.05L409.75 260.82L409.71 260.59L409.67 260.36L409.65 260.12L409.64 259.89L409.63 259.65L409.63 235.12L409.64 234.88L409.65 234.64L409.67 234.4L409.71 234.17L409.75 233.94L409.8 233.71L409.86 233.49L409.93 233.27L410 233.06L410.09 232.84L410.18 232.64L410.28 232.43L410.39 232.24L410.5 232.04L410.63 231.85L410.76 231.67L410.89 231.49L411.04 231.32L411.18 231.15L411.34 230.99L411.5 230.83L411.67 230.68L411.84 230.54L412.02 230.41L412.2 230.28L412.39 230.15L412.59 230.04L412.78 229.93L412.99 229.83L413.2 229.74L413.41 229.65L413.62 229.58L413.84 229.51L414.06 229.45L414.29 229.4L414.52 229.36L414.75 229.32L414.99 229.3L415.23 229.28L415.47 229.28L418.29 229.28L418.29 191.22L418.29 191.13L418.3 191.04L418.3 190.95L418.3 190.86L418.31 190.77L418.32 190.68L418.33 190.6L418.34 190.51L418.35 190.42L418.36 190.33L418.38 190.24L418.39 190.15L418.41 190.06L418.43 189.98L418.45 189.89L418.47 189.8L418.49 189.72L418.51 189.63L418.54 189.55L418.57 189.46L418.59 189.38L418.62 189.29L418.65 189.21L418.68 189.12L418.72 189.04L418.75 188.96L418.79 188.88L418.82 188.79L418.86 188.71L418.9 188.63L418.94 188.55L418.98 188.47L419.02 188.39L419.07 188.32L419.11 188.24L419.16 188.16L419.21 188.09L419.26 188.01L419.31 187.94L419.36 187.86L447.9 147.35L447.9 119.15L447.91 118.9L447.92 118.66L447.95 118.42L447.98 118.18L448.03 117.95L448.08 117.72L448.14 117.49L448.21 117.27L448.29 117.05L448.38 116.83L448.47 116.62L448.58 116.42L448.69 116.22L448.81 116.02L448.94 115.83L449.07 115.64L449.21 115.46L449.36 115.29L449.51 115.12L449.67 114.96L449.84 114.8L450.01 114.65L450.19 114.51L450.37 114.38L450.56 114.25L450.76 114.13L450.96 114.01L451.16 113.91L451.37 113.81L451.58 113.72L451.8 113.64L452.02 113.56L452.25 113.5L452.48 113.44L452.71 113.4L452.95 113.36L453.19 113.33L453.43 113.32L453.67 113.31L453.92 113.31L454.16 113.32ZM421.3 494.63L486.18 494.63L486.18 481.78L421.3 481.78L421.3 494.63ZM421.3 253.81L486.18 253.81L486.18 240.95L421.3 240.95L421.3 253.81ZM445.94 229.28L461.54 229.28L461.54 216.03L453.74 210L445.94 216.03L445.94 229.28ZM429.96 193.07L429.96 229.28L434.27 229.28L434.27 213.17L434.27 213.03L434.28 212.9L434.28 212.76L434.29 212.63L434.31 212.5L434.33 212.36L434.35 212.23L434.37 212.1L434.39 211.97L434.42 211.84L434.45 211.71L434.49 211.58L434.53 211.46L434.57 211.33L434.61 211.21L434.66 211.08L434.7 210.96L434.76 210.84L434.81 210.72L434.87 210.6L434.93 210.48L434.99 210.36L435.05 210.25L435.12 210.14L435.19 210.02L435.26 209.91L435.34 209.8L435.42 209.7L435.5 209.59L435.58 209.49L435.66 209.38L435.75 209.28L435.84 209.19L435.93 209.09L436.03 208.99L436.12 208.9L436.22 208.81L436.33 208.72L436.43 208.64L436.54 208.55L450.17 198.01L450.33 197.89L450.49 197.78L450.65 197.67L450.82 197.57L450.99 197.47L451.16 197.39L451.34 197.3L451.52 197.23L451.69 197.16L451.87 197.09L452.06 197.03L452.24 196.98L452.42 196.94L452.61 196.9L452.8 196.86L452.98 196.84L453.17 196.81L453.36 196.8L453.55 196.79L453.74 196.79L453.93 196.79L454.12 196.8L454.3 196.81L454.49 196.84L454.68 196.86L454.87 196.9L455.05 196.94L455.24 196.98L455.42 197.03L455.6 197.09L455.78 197.16L455.96 197.23L456.14 197.3L456.31 197.39L456.49 197.47L456.66 197.57L456.82 197.67L456.99 197.78L457.15 197.89L457.31 198.01L470.94 208.55L471.05 208.64L471.15 208.72L471.25 208.81L471.35 208.9L471.45 208.99L471.54 209.09L471.64 209.19L471.73 209.28L471.81 209.38L471.9 209.49L471.98 209.59L472.06 209.7L472.14 209.8L472.21 209.91L472.29 210.02L472.36 210.13L472.42 210.25L472.49 210.36L472.55 210.48L472.61 210.6L472.67 210.72L472.72 210.84L472.77 210.96L472.82 211.08L472.87 211.21L472.91 211.33L472.95 211.46L472.99 211.58L473.02 211.71L473.05 211.84L473.08 211.97L473.11 212.1L473.13 212.23L473.15 212.36L473.17 212.5L473.18 212.63L473.19 212.76L473.2 212.9L473.21 213.03L473.21 213.17L473.21 229.28L477.51 229.28L477.51 193.07L453.74 159.33L429.97 193.07L429.96 193.07Z" id="a3CLGbiJjS"></path><path d="M348.22 371L348.42 371.01L348.62 371.04L348.81 371.07L349.01 371.1L349.2 371.15L349.4 371.2L349.59 371.26L349.78 371.32L349.97 371.39L350.16 371.47L350.34 371.55L350.52 371.64L350.7 371.74L350.88 371.85L351.06 371.96L351.23 372.08L351.39 372.2L371.38 387.66L371.49 387.75L371.6 387.84L371.7 387.93L371.81 388.03L371.91 388.13L372.01 388.23L372.1 388.33L372.2 388.43L372.29 388.54L372.38 388.65L372.46 388.76L372.54 388.87L372.62 388.98L372.7 389.1L372.78 389.22L372.85 389.34L372.92 389.46L372.98 389.58L373.04 389.71L373.1 389.83L373.16 389.96L373.21 390.09L373.27 390.22L373.31 390.35L373.36 390.48L373.4 390.61L373.44 390.75L373.47 390.88L373.5 391.02L373.53 391.15L373.56 391.29L373.58 391.43L373.6 391.57L373.61 391.71L373.63 391.85L373.63 391.99L373.64 392.13L373.64 392.28L373.64 424.44L373.64 424.7L373.62 424.95L373.59 425.19L373.56 425.44L373.51 425.68L373.45 425.92L373.39 426.15L373.31 426.38L373.23 426.6L373.14 426.83L373.03 427.04L372.92 427.25L372.8 427.46L372.68 427.66L372.54 427.85L372.4 428.04L372.25 428.22L372.1 428.4L371.93 428.57L371.76 428.73L371.59 428.89L371.4 429.04L371.21 429.18L371.02 429.32L370.82 429.44L370.61 429.56L370.4 429.67L370.19 429.77L369.97 429.87L369.74 429.95L369.51 430.03L369.28 430.09L369.04 430.15L368.8 430.2L368.56 430.23L368.31 430.26L368.06 430.28L367.81 430.28L327.84 430.28L327.59 430.28L327.34 430.26L327.09 430.23L326.85 430.2L326.6 430.15L326.37 430.09L326.13 430.03L325.9 429.95L325.68 429.87L325.46 429.77L325.24 429.67L325.03 429.56L324.83 429.44L324.63 429.32L324.43 429.18L324.24 429.04L324.06 428.89L323.88 428.73L323.71 428.57L323.55 428.4L323.39 428.22L323.24 428.04L323.1 427.85L322.97 427.66L322.84 427.46L322.72 427.25L322.61 427.04L322.51 426.83L322.42 426.6L322.33 426.38L322.26 426.15L322.19 425.92L322.14 425.68L322.09 425.44L322.05 425.19L322.03 424.95L322.01 424.7L322 424.44L322 392.28L322.01 392.13L322.01 391.99L322.02 391.85L322.03 391.71L322.05 391.57L322.07 391.43L322.09 391.29L322.11 391.15L322.14 391.02L322.17 390.88L322.21 390.75L322.25 390.61L322.29 390.48L322.33 390.35L322.38 390.22L322.43 390.09L322.48 389.96L322.54 389.83L322.6 389.71L322.66 389.58L322.73 389.46L322.8 389.34L322.87 389.22L322.94 389.1L323.02 388.98L323.1 388.87L323.18 388.76L323.27 388.65L323.36 388.54L323.45 388.43L323.54 388.33L323.64 388.23L323.74 388.13L323.84 388.03L323.94 387.93L324.05 387.84L324.16 387.75L324.27 387.66L344.25 372.2L344.42 372.08L344.59 371.96L344.76 371.85L344.94 371.74L345.12 371.64L345.3 371.55L345.49 371.47L345.67 371.39L345.86 371.32L346.05 371.26L346.25 371.2L346.44 371.15L346.64 371.1L346.83 371.07L347.03 371.04L347.23 371.01L347.42 371L347.62 370.99L347.82 370.98L348.02 370.99L348.22 371ZM333.68 418.61L361.97 418.61L361.97 395.14L347.82 384.2L333.68 395.14L333.68 418.61Z" id="aaSRdtvDUP"></path><path d="M190.12 371L190.32 371.01L190.52 371.04L190.72 371.07L190.91 371.1L191.11 371.15L191.3 371.2L191.49 371.26L191.68 371.32L191.87 371.39L192.06 371.47L192.24 371.55L192.43 371.64L192.61 371.74L192.78 371.85L192.96 371.96L193.13 372.08L193.3 372.2L213.28 387.66L213.39 387.75L213.5 387.84L213.61 387.93L213.71 388.03L213.81 388.13L213.91 388.23L214.01 388.33L214.1 388.43L214.19 388.54L214.28 388.65L214.36 388.76L214.45 388.87L214.53 388.98L214.6 389.1L214.68 389.22L214.75 389.34L214.82 389.46L214.88 389.58L214.95 389.7L215.01 389.83L215.06 389.96L215.12 390.09L215.17 390.22L215.22 390.35L215.26 390.48L215.3 390.61L215.34 390.74L215.37 390.88L215.41 391.02L215.43 391.15L215.46 391.29L215.48 391.43L215.5 391.57L215.52 391.71L215.53 391.85L215.54 391.99L215.54 392.13L215.54 392.28L215.54 424.44L215.54 424.7L215.52 424.95L215.5 425.19L215.46 425.44L215.41 425.68L215.36 425.92L215.29 426.15L215.22 426.38L215.13 426.6L215.04 426.83L214.94 427.04L214.83 427.25L214.71 427.46L214.58 427.66L214.45 427.85L214.3 428.04L214.15 428.22L214 428.4L213.83 428.57L213.66 428.73L213.49 428.89L213.31 429.04L213.12 429.18L212.92 429.32L212.72 429.44L212.52 429.56L212.3 429.67L212.09 429.77L211.87 429.87L211.64 429.95L211.41 430.03L211.18 430.09L210.94 430.15L210.7 430.2L210.46 430.23L210.21 430.26L209.96 430.28L209.71 430.28L169.74 430.28L169.49 430.28L169.24 430.26L168.99 430.23L168.75 430.2L168.51 430.15L168.27 430.09L168.04 430.03L167.81 429.95L167.58 429.87L167.36 429.77L167.15 429.67L166.94 429.56L166.73 429.44L166.53 429.32L166.34 429.18L166.15 429.04L165.96 428.89L165.79 428.73L165.62 428.57L165.45 428.4L165.3 428.22L165.15 428.04L165.01 427.85L164.87 427.66L164.74 427.46L164.63 427.25L164.52 427.04L164.41 426.83L164.32 426.6L164.24 426.38L164.16 426.15L164.09 425.92L164.04 425.68L163.99 425.44L163.96 425.19L163.93 424.95L163.91 424.7L163.91 424.44L163.91 392.28L163.91 392.13L163.91 391.99L163.92 391.85L163.93 391.71L163.95 391.57L163.97 391.43L163.99 391.29L164.02 391.15L164.04 391.02L164.08 390.88L164.11 390.75L164.15 390.61L164.19 390.48L164.24 390.35L164.28 390.22L164.33 390.09L164.39 389.96L164.44 389.83L164.5 389.71L164.57 389.58L164.63 389.46L164.7 389.34L164.77 389.22L164.85 389.1L164.92 388.98L165 388.87L165.09 388.76L165.17 388.65L165.26 388.54L165.35 388.43L165.44 388.33L165.54 388.23L165.64 388.13L165.74 388.03L165.85 387.93L165.95 387.84L166.06 387.75L166.17 387.66L186.15 372.2L186.32 372.08L186.49 371.96L186.67 371.85L186.84 371.74L187.02 371.64L187.21 371.55L187.39 371.47L187.58 371.39L187.77 371.32L187.96 371.26L188.15 371.2L188.34 371.15L188.54 371.1L188.73 371.07L188.93 371.04L189.13 371.01L189.33 371L189.53 370.99L189.73 370.98L189.92 370.99L190.12 371ZM175.58 418.61L203.87 418.61L203.87 395.14L189.73 384.2L175.58 395.14L175.58 418.61Z" id="d3U9E8TxJ"></path><path d="M260.13 114.35L260.3 114.36L260.48 114.38L260.66 114.4L260.84 114.43L261.01 114.46L261.19 114.5L261.36 114.55L261.53 114.6L261.7 114.65L261.86 114.71L262.03 114.78L262.19 114.85L262.35 114.93L262.51 115.01L262.67 115.09L262.82 115.18L262.97 115.27L263.12 115.37L263.27 115.48L263.41 115.59L263.55 115.7L263.69 115.82L263.82 115.94L263.95 116.06L264.07 116.2L264.2 116.33L264.31 116.47L264.43 116.61L264.54 116.76L264.64 116.91L264.74 117.07L264.84 117.23L264.93 117.39L265.02 117.55L265.1 117.72L265.17 117.88L265.24 118.05L265.3 118.22L265.36 118.39L265.41 118.56L265.46 118.74L265.5 118.91L265.54 119.09L265.57 119.26L265.59 119.44L265.61 119.62L265.63 119.79L265.64 119.97L265.64 120.15L265.64 120.33L265.63 120.5L265.62 120.68L265.6 120.86L265.58 121.03L265.55 121.21L265.51 121.39L265.47 121.56L265.43 121.73L265.38 121.9L265.32 122.07L265.26 122.24L265.19 122.41L265.12 122.57L265.05 122.74L264.96 122.9L264.88 123.06L264.78 123.22L264.69 123.37L264.58 123.52L264.47 123.67L264.36 123.82L264.06 124.2L263.77 124.58L263.49 124.97L263.21 125.36L262.94 125.76L262.67 126.16L262.42 126.56L262.17 126.96L261.93 127.37L261.7 127.78L261.47 128.2L261.25 128.62L261.04 129.04L260.83 129.47L260.64 129.89L260.45 130.33L260.27 130.76L260.09 131.2L259.93 131.64L259.77 132.08L259.61 132.52L259.47 132.97L259.33 133.42L259.2 133.87L259.08 134.33L258.97 134.78L258.86 135.24L258.77 135.7L258.67 136.17L258.59 136.63L258.52 137.1L258.45 137.57L258.39 138.04L258.34 138.52L258.3 138.99L258.26 139.47L258.23 139.95L258.21 140.43L258.2 140.91L258.2 141.4L258.22 142.56L258.29 143.7L258.41 144.84L258.57 145.96L258.77 147.07L259.02 148.16L259.31 149.23L259.63 150.29L260 151.33L260.41 152.35L260.86 153.35L261.35 154.33L261.87 155.29L262.42 156.23L263.01 157.14L263.64 158.02L264.3 158.89L264.99 159.72L265.71 160.53L266.46 161.31L267.24 162.06L268.05 162.78L268.88 163.47L269.74 164.13L270.63 164.75L271.54 165.34L272.48 165.9L273.43 166.42L274.41 166.91L275.42 167.35L276.44 167.76L277.48 168.13L278.53 168.46L279.61 168.75L280.7 169L281.81 169.2L282.93 169.36L284.06 169.48L285.21 169.55L286.37 169.57L286.86 169.57L287.34 169.55L287.82 169.53L288.3 169.51L288.77 169.47L289.25 169.43L289.72 169.38L290.2 169.32L290.67 169.25L291.13 169.17L291.6 169.09L292.06 169L292.52 168.9L292.98 168.8L293.44 168.68L293.9 168.56L294.35 168.43L294.8 168.3L295.25 168.15L295.69 168L296.13 167.84L296.57 167.67L297.01 167.5L297.44 167.32L297.87 167.13L298.3 166.93L298.73 166.73L299.15 166.52L299.57 166.3L299.98 166.07L300.4 165.84L300.8 165.6L301.21 165.35L301.61 165.09L302.01 164.83L302.41 164.56L302.8 164.28L303.18 164L303.57 163.71L303.95 163.41L304.1 163.29L304.25 163.18L304.4 163.08L304.55 162.98L304.71 162.89L304.87 162.8L305.03 162.72L305.19 162.64L305.36 162.57L305.53 162.51L305.69 162.44L305.86 162.39L306.04 162.34L306.21 162.29L306.38 162.25L306.56 162.22L306.73 162.19L306.91 162.17L307.09 162.15L307.26 162.14L307.44 162.13L307.62 162.13L307.8 162.13L307.97 162.14L308.15 162.15L308.33 162.17L308.51 162.2L308.68 162.23L308.86 162.26L309.03 162.31L309.2 162.35L309.38 162.41L309.55 162.46L309.72 162.53L309.89 162.6L310.05 162.67L310.22 162.75L310.38 162.84L310.54 162.93L310.7 163.02L310.86 163.12L311.01 163.23L311.16 163.34L311.3 163.45L311.44 163.57L311.57 163.69L311.7 163.82L311.83 163.95L311.95 164.08L312.07 164.22L312.18 164.36L312.29 164.5L312.39 164.64L312.49 164.79L312.59 164.94L312.68 165.1L312.76 165.25L312.84 165.41L312.92 165.57L312.99 165.74L313.05 165.9L313.11 166.07L313.17 166.24L313.22 166.41L313.26 166.58L313.3 166.75L313.34 166.93L313.37 167.11L313.39 167.28L313.41 167.46L313.42 167.64L313.43 167.82L313.43 168L313.43 168.18L313.42 168.36L313.4 168.55L313.38 168.73L313.35 168.91L313.32 169.09L313.28 169.27L312.93 170.68L312.55 172.07L312.12 173.44L311.65 174.79L311.14 176.11L310.6 177.42L310.01 178.7L309.4 179.95L308.74 181.19L308.05 182.4L307.33 183.58L306.57 184.74L305.78 185.87L304.95 186.97L304.1 188.05L303.21 189.1L302.3 190.12L301.35 191.11L300.38 192.07L299.37 193L298.35 193.9L297.29 194.76L296.21 195.6L295.1 196.4L293.97 197.17L292.82 197.9L291.64 198.6L290.44 199.27L289.23 199.9L287.98 200.49L286.72 201.05L285.45 201.57L284.15 202.05L282.83 202.49L281.5 202.9L280.15 203.26L278.79 203.59L277.41 203.87L276.02 204.11L274.61 204.31L274.61 214.37L276 214.99L277.6 215.7L279.4 216.52L281.38 217.42L283.54 218.41L285.87 219.49L288.35 220.66L290.98 221.9L293.73 223.22L296.6 224.6L299.59 226.06L302.66 227.59L305.83 229.17L309.07 230.82L312.37 232.52L315.72 234.27L319.12 236.07L322.54 237.92L325.98 239.81L329.42 241.74L332.86 243.7L336.29 245.69L339.68 247.72L343.04 249.77L346.34 251.84L349.59 253.93L352.76 256.03L355.84 258.15L358.83 260.27L361.71 262.4L364.48 264.54L367.11 266.67L369.6 268.79L371.94 270.91L374.12 273.02L376.11 275.11L377.93 277.18L379.54 279.23L380.94 281.26L382.13 283.26L382.4 283.77L382.66 284.28L382.91 284.79L383.16 285.31L383.4 285.83L383.64 286.35L383.87 286.87L384.09 287.39L384.3 287.92L384.51 288.44L384.71 288.97L384.9 289.5L385.09 290.03L385.26 290.57L385.44 291.1L385.6 291.64L385.76 292.18L385.91 292.72L386.06 293.26L386.19 293.81L386.32 294.35L386.45 294.9L386.56 295.45L386.67 296L386.78 296.55L386.87 297.1L386.96 297.66L387.04 298.21L387.12 298.77L387.18 299.33L387.24 299.89L387.3 300.45L387.34 301.01L387.38 301.58L387.42 302.14L387.44 302.71L387.46 303.28L387.47 303.85L387.48 304.42L387.47 304.99L387.47 305.02L387.47 305.04L387.47 305.06L387.47 305.08L387.47 305.1L387.47 305.12L387.47 305.14L387.47 305.17L387.47 305.19L387.47 305.21L387.47 305.23L387.47 305.25L387.47 305.27L387.46 305.3L387.46 305.32L387.46 305.34L387.46 305.36L387.46 305.38L387.46 305.4L387.45 305.42L387.45 305.45L387.45 305.47L387.45 305.49L387.45 305.51L387.44 305.53L387.44 305.55L387.44 305.58L387.44 305.6L387.44 305.62L387.43 305.64L387.43 305.66L387.43 305.68L387.42 305.7L387.42 305.73L387.42 305.75L387.42 305.77L387.41 305.79L387.41 305.81L387.41 305.83L387.4 305.85L385.43 318.2L385.43 318.22L385.42 318.24L385.42 318.26L385.42 318.28L385.41 318.29L385.41 318.31L385.41 318.33L385.4 318.35L385.4 318.37L385.4 318.38L385.39 318.4L385.39 318.42L385.39 318.44L385.38 318.46L385.38 318.47L385.37 318.49L385.37 318.51L385.37 318.53L385.36 318.55L385.36 318.56L385.35 318.58L385.35 318.6L385.35 318.62L385.34 318.63L385.34 318.65L385.33 318.67L385.33 318.69L385.32 318.71L385.32 318.72L385.32 318.74L385.31 318.76L385.31 318.78L385.3 318.8L385.3 318.81L385.29 318.83L385.29 318.85L385.28 318.87L385.28 318.88L385.27 318.9L385.27 318.92L385.05 319.63L384.83 320.33L384.61 321.03L384.37 321.72L384.13 322.4L383.88 323.08L383.63 323.75L383.37 324.41L383.11 325.06L382.84 325.71L382.56 326.34L382.29 326.97L382.01 327.59L381.72 328.21L381.43 328.81L381.14 329.41L380.85 329.99L380.55 330.57L380.25 331.14L379.95 331.7L379.65 332.25L379.35 332.79L379.05 333.33L378.75 333.85L378.45 334.36L378.15 334.86L377.85 335.35L377.55 335.84L377.25 336.31L376.96 336.77L376.67 337.22L376.38 337.66L376.09 338.09L375.81 338.51L375.53 338.91L375.25 339.31L374.98 339.69L374.72 340.06L374.46 340.42L374.2 340.77L400.12 366.45L400.2 366.53L400.28 366.62L400.36 366.7L400.43 366.79L400.51 366.88L400.58 366.97L400.65 367.06L400.72 367.15L400.79 367.25L400.85 367.34L400.92 367.44L400.98 367.53L401.04 367.63L401.09 367.73L401.15 367.83L401.2 367.93L401.25 368.04L401.3 368.14L401.35 368.24L401.4 368.35L401.44 368.46L401.48 368.56L401.52 368.67L401.56 368.78L401.59 368.89L401.62 369L401.65 369.11L401.68 369.22L401.71 369.33L401.73 369.44L401.75 369.56L401.77 369.67L401.79 369.79L401.8 369.9L401.82 370.01L401.83 370.13L401.84 370.25L401.84 370.36L401.85 370.48L401.85 370.6L401.85 500.47L401.84 500.71L401.83 500.95L401.8 501.19L401.77 501.42L401.73 501.65L401.68 501.87L401.62 502.1L401.55 502.32L401.47 502.53L401.39 502.74L401.29 502.95L401.19 503.15L401.09 503.35L400.97 503.55L400.85 503.73L400.72 503.92L400.58 504.1L400.44 504.27L400.29 504.44L400.14 504.6L399.98 504.75L399.81 504.9L399.63 505.05L399.46 505.18L399.27 505.31L399.08 505.43L398.89 505.55L398.69 505.66L398.49 505.76L398.28 505.85L398.07 505.93L397.85 506.01L397.63 506.08L397.41 506.14L397.19 506.19L396.96 506.23L396.72 506.26L396.49 506.29L396.25 506.3L396.01 506.31L141.54 506.31L141.3 506.3L141.06 506.29L140.82 506.26L140.59 506.23L140.36 506.19L140.13 506.14L139.91 506.08L139.69 506.01L139.48 505.93L139.27 505.85L139.06 505.76L138.86 505.66L138.66 505.55L138.46 505.43L138.27 505.31L138.09 505.18L137.91 505.05L137.74 504.9L137.57 504.75L137.41 504.6L137.25 504.44L137.11 504.27L136.96 504.1L136.83 503.92L136.7 503.73L136.58 503.55L136.46 503.35L136.35 503.15L136.25 502.95L136.16 502.74L136.07 502.53L136 502.32L135.93 502.1L135.87 501.87L135.82 501.65L135.78 501.42L135.74 501.19L135.72 500.95L135.71 500.71L135.7 500.47L135.7 370.6L135.7 370.48L135.71 370.36L135.71 370.25L135.72 370.13L135.73 370.02L135.74 369.9L135.76 369.79L135.77 369.67L135.79 369.56L135.82 369.45L135.84 369.33L135.87 369.22L135.89 369.11L135.92 369L135.96 368.89L135.99 368.78L136.03 368.67L136.07 368.56L136.11 368.46L136.15 368.35L136.2 368.25L136.24 368.14L136.29 368.04L136.34 367.93L136.4 367.83L136.45 367.73L136.51 367.63L136.57 367.54L136.63 367.44L136.69 367.34L136.76 367.25L136.82 367.15L136.89 367.06L136.96 366.97L137.04 366.88L137.11 366.79L137.19 366.7L137.27 366.62L137.35 366.53L137.43 366.45L163.34 340.77L163.09 340.42L162.83 340.06L162.56 339.69L162.29 339.31L162.02 338.91L161.74 338.51L161.46 338.09L161.17 337.66L160.88 337.22L160.59 336.77L160.29 336.31L160 335.84L159.7 335.36L159.4 334.87L159.1 334.36L158.8 333.85L158.5 333.33L158.2 332.8L157.89 332.26L157.59 331.7L157.3 331.14L157 330.57L156.7 330L156.41 329.41L156.12 328.81L155.83 328.21L155.54 327.6L155.26 326.97L154.98 326.35L154.71 325.71L154.44 325.06L154.18 324.41L153.92 323.75L153.66 323.08L153.42 322.4L153.18 321.72L152.94 321.03L152.71 320.33L152.49 319.63L152.28 318.92L152.28 318.9L152.27 318.89L152.27 318.87L152.26 318.85L152.26 318.83L152.25 318.81L152.25 318.8L152.24 318.78L152.24 318.76L152.23 318.74L152.23 318.73L152.22 318.71L152.22 318.69L152.21 318.67L152.21 318.65L152.21 318.64L152.2 318.62L152.2 318.6L152.19 318.58L152.19 318.56L152.19 318.55L152.18 318.53L152.18 318.51L152.17 318.49L152.17 318.48L152.17 318.46L152.16 318.44L152.16 318.42L152.15 318.4L152.15 318.39L152.15 318.37L152.14 318.35L152.14 318.33L152.14 318.31L152.13 318.29L152.13 318.28L152.13 318.26L152.13 318.24L152.12 318.22L152.12 318.2L150.15 305.85L150.14 305.83L150.14 305.81L150.14 305.79L150.13 305.77L150.13 305.75L150.13 305.73L150.12 305.7L150.12 305.68L150.12 305.66L150.12 305.64L150.11 305.62L150.11 305.6L150.11 305.58L150.11 305.55L150.1 305.53L150.1 305.51L150.1 305.49L150.1 305.47L150.1 305.45L150.09 305.43L150.09 305.4L150.09 305.38L150.09 305.36L150.09 305.34L150.09 305.32L150.08 305.3L150.08 305.27L150.08 305.25L150.08 305.23L150.08 305.21L150.08 305.19L150.08 305.17L150.08 305.15L150.08 305.12L150.08 305.1L150.08 305.08L150.07 305.06L150.07 305.04L150.07 305.02L150.07 304.99L150.07 304.42L150.08 303.85L150.09 303.28L150.11 302.71L150.13 302.15L150.16 301.58L150.2 301.01L150.25 300.45L150.3 299.89L150.37 299.33L150.43 298.77L150.51 298.21L150.59 297.66L150.68 297.1L150.77 296.55L150.88 296L150.98 295.45L151.1 294.9L151.22 294.35L151.35 293.81L151.49 293.27L151.64 292.72L151.79 292.18L151.94 291.65L152.11 291.11L152.28 290.57L152.46 290.04L152.65 289.51L152.84 288.98L153.04 288.45L153.24 287.93L153.46 287.4L153.68 286.88L153.9 286.36L154.14 285.84L154.38 285.32L154.63 284.81L154.88 284.3L155.14 283.78L155.41 283.28L155.94 282.33L156.52 281.38L157.16 280.42L157.85 279.44L158.59 278.45L159.38 277.45L160.23 276.43L161.13 275.41L162.08 274.37L163.09 273.32L164.15 272.26L165.26 271.19L166.42 270.11L167.64 269.02L168.91 267.91L170.23 266.79L171.6 265.66L173.02 264.52L174.5 263.37L176.03 262.21L177.61 261.03L179.24 259.84L180.93 258.65L182.67 257.44L184.45 256.22L186.29 254.99L188.19 253.75L190.13 252.49L192.13 251.23L194.17 249.96L196.27 248.67L198.42 247.38L200.62 246.07L202.88 244.75L205.18 243.42L207.54 242.08L209.94 240.73L212.4 239.37L214.91 238L217.47 236.62L218.92 235.84L220.38 235.07L221.82 234.31L223.26 233.55L224.69 232.81L226.12 232.07L227.53 231.34L228.94 230.62L230.33 229.92L231.71 229.22L233.08 228.53L234.44 227.85L235.78 227.18L237.1 226.53L238.41 225.88L239.7 225.25L240.98 224.63L242.23 224.02L243.46 223.43L244.67 222.84L245.86 222.27L247.03 221.72L248.17 221.18L249.28 220.65L250.37 220.13L251.43 219.64L252.47 219.15L253.47 218.68L254.45 218.23L255.4 217.79L256.31 217.37L257.19 216.97L258.04 216.58L258.85 216.21L259.62 215.86L260.36 215.52L261.07 215.21L261.73 214.91L262.35 214.63L262.94 214.37L262.94 204.29L261.26 204.05L259.61 203.74L257.98 203.37L256.37 202.95L254.78 202.47L253.22 201.94L251.68 201.35L250.18 200.7L248.7 200.01L247.24 199.27L245.82 198.47L244.43 197.63L243.08 196.74L241.75 195.8L240.47 194.82L239.22 193.79L238 192.72L236.83 191.61L235.69 190.46L234.6 189.27L233.55 188.04L232.54 186.78L231.57 185.47L230.65 184.14L229.78 182.77L228.96 181.37L228.18 179.93L227.46 178.47L226.78 176.98L226.16 175.46L225.59 173.91L225.08 172.34L224.62 170.75L224.22 169.13L223.88 167.49L223.6 165.83L223.38 164.14L223.22 162.44L223.12 160.73L223.09 158.99L223.12 157.39L223.2 155.81L223.33 154.23L223.52 152.68L223.76 151.13L224.05 149.61L224.38 148.1L224.77 146.61L225.21 145.13L225.69 143.68L226.22 142.25L226.8 140.85L227.42 139.46L228.09 138.1L228.8 136.77L229.55 135.46L230.34 134.18L231.18 132.93L232.06 131.7L232.98 130.51L233.93 129.35L234.93 128.22L235.96 127.12L237.03 126.06L238.13 125.03L239.27 124.04L240.45 123.09L241.65 122.17L242.9 121.29L244.17 120.45L245.47 119.66L246.81 118.9L248.17 118.19L249.57 117.52L250.99 116.9L252.44 116.32L253.91 115.79L255.42 115.31L256.94 114.87L258.49 114.49L258.68 114.45L258.86 114.41L259.04 114.39L259.22 114.37L259.4 114.35L259.58 114.34L259.77 114.34L259.95 114.34L260.13 114.35ZM264.42 226.48L262.06 227.55L259.58 228.68L257 229.88L254.32 231.14L251.55 232.45L248.69 233.82L245.77 235.25L242.78 236.72L239.73 238.23L236.64 239.79L233.5 241.39L230.34 243.02L227.16 244.69L223.96 246.39L220.76 248.12L217.56 249.87L214.37 251.64L211.21 253.43L208.08 255.24L204.98 257.07L201.93 258.9L198.94 260.74L196.02 262.58L193.16 264.43L190.39 266.27L187.71 268.11L185.12 269.95L182.65 271.77L180.29 273.58L178.05 275.37L175.95 277.15L173.99 278.9L172.18 280.63L170.53 282.33L169.05 284L167.74 285.63L166.62 287.23L165.7 288.79L165.5 289.16L165.31 289.54L165.12 289.91L164.94 290.28L164.77 290.66L164.59 291.04L164.43 291.41L164.27 291.79L164.11 292.17L163.96 292.55L163.82 292.93L163.67 293.31L163.54 293.69L163.41 294.07L163.28 294.46L163.16 294.84L163.05 295.23L162.93 295.61L162.83 296L162.73 296.39L162.63 296.78L162.54 297.17L162.46 297.57L162.37 297.96L162.3 298.36L162.23 298.75L162.16 299.15L162.1 299.55L162.04 299.95L161.99 300.35L161.94 300.76L161.9 301.16L161.87 301.57L161.83 301.97L161.81 302.38L161.78 302.8L161.77 303.21L161.75 303.62L161.75 304.04L161.74 304.45L163.59 315.99L163.79 316.65L164.01 317.31L164.23 317.97L164.46 318.61L164.7 319.25L164.94 319.88L165.19 320.5L165.45 321.12L165.71 321.73L165.97 322.33L166.24 322.92L166.52 323.5L166.79 324.07L167.08 324.63L167.36 325.19L167.64 325.73L167.93 326.27L168.22 326.79L168.51 327.31L168.8 327.81L169.09 328.3L169.37 328.79L169.66 329.26L169.95 329.72L170.23 330.17L170.51 330.6L170.79 331.03L171.06 331.44L171.33 331.84L171.6 332.23L171.86 332.61L172.12 332.97L172.37 333.32L172.61 333.65L172.85 333.98L173.08 334.29L173.3 334.58L173.51 334.86L173.72 335.13L173.92 335.38L227.03 335.38L227.27 335.38L227.5 335.4L227.74 335.42L227.97 335.46L228.2 335.5L228.43 335.55L228.65 335.61L228.87 335.68L229.09 335.75L229.3 335.84L229.5 335.93L229.71 336.03L229.91 336.14L230.1 336.25L230.29 336.38L230.47 336.51L230.65 336.64L230.82 336.78L230.99 336.93L231.15 337.09L231.31 337.25L231.46 337.42L231.6 337.59L231.74 337.77L231.86 337.95L231.99 338.14L232.1 338.34L232.21 338.53L232.31 338.74L232.4 338.94L232.49 339.16L232.56 339.37L232.63 339.59L232.69 339.81L232.74 340.04L232.79 340.27L232.82 340.5L232.84 340.74L232.86 340.98L232.86 341.22L232.86 341.46L232.84 341.69L232.82 341.93L232.79 342.16L232.74 342.39L232.69 342.62L232.63 342.84L232.56 343.06L232.49 343.28L232.4 343.49L232.31 343.7L232.21 343.9L232.1 344.1L231.99 344.29L231.86 344.48L231.74 344.66L231.6 344.84L231.46 345.01L231.31 345.18L231.15 345.34L230.99 345.5L230.82 345.65L230.65 345.79L230.47 345.93L230.29 346.06L230.1 346.18L229.91 346.29L229.71 346.4L229.5 346.5L229.3 346.59L229.09 346.68L228.87 346.76L228.65 346.82L228.43 346.88L228.2 346.93L227.97 346.98L227.74 347.01L227.5 347.03L227.27 347.05L227.03 347.05L173.59 347.05L147.37 373.03L147.37 494.63L227.73 494.63L227.73 431.33L227.74 431.21L227.74 431.1L227.74 430.98L227.75 430.87L227.76 430.76L227.77 430.64L227.79 430.53L227.81 430.42L227.82 430.31L227.85 430.19L227.87 430.08L227.89 429.97L227.92 429.86L227.95 429.76L227.98 429.65L228.01 429.54L228.05 429.43L228.09 429.33L228.13 429.22L228.17 429.12L228.21 429.01L228.26 428.91L228.31 428.81L228.36 428.71L228.41 428.61L228.46 428.51L228.52 428.41L228.57 428.31L228.63 428.21L228.69 428.12L228.76 428.03L228.82 427.93L228.89 427.84L228.96 427.75L229.03 427.66L229.1 427.57L229.17 427.49L229.25 427.4L229.33 427.32L229.41 427.24L264.61 391.4L264.73 391.28L264.86 391.17L264.99 391.05L265.12 390.94L265.26 390.84L265.39 390.74L265.54 390.64L265.68 390.55L265.82 390.46L265.97 390.37L266.12 390.3L266.28 390.22L266.43 390.15L266.59 390.08L266.75 390.02L266.91 389.97L267.07 389.91L267.23 389.87L267.4 389.82L267.56 389.79L267.73 389.75L267.9 389.72L268.07 389.7L268.24 389.68L268.41 389.67L268.58 389.66L268.76 389.66L268.93 389.66L269.1 389.67L269.28 389.68L269.45 389.7L269.63 389.72L269.8 389.75L269.98 389.78L270.15 389.82L270.33 389.87L270.5 389.92L270.67 389.97L270.85 390.03L271.02 390.1L271.07 390.13L271.13 390.15L271.19 390.17L271.24 390.2L271.3 390.23L271.36 390.25L271.41 390.28L271.46 390.31L271.52 390.34L271.57 390.37L271.63 390.4L271.68 390.43L271.73 390.46L271.79 390.49L271.84 390.53L271.89 390.56L271.94 390.59L271.99 390.63L272.04 390.66L272.09 390.7L272.14 390.73L272.19 390.77L272.24 390.81L272.29 390.84L272.34 390.88L272.39 390.92L272.44 390.96L272.49 391L272.53 391.04L272.58 391.08L272.63 391.12L272.67 391.16L272.72 391.2L272.76 391.24L272.81 391.28L272.85 391.33L272.9 391.37L272.94 391.41L272.99 391.46L273.03 391.5L308.14 427.23L308.22 427.32L308.3 427.4L308.37 427.49L308.45 427.57L308.52 427.66L308.59 427.75L308.66 427.84L308.72 427.93L308.79 428.03L308.85 428.12L308.91 428.21L308.97 428.31L309.03 428.41L309.09 428.51L309.14 428.61L309.19 428.71L309.24 428.81L309.29 428.91L309.33 429.01L309.38 429.12L309.42 429.22L309.46 429.33L309.5 429.43L309.53 429.54L309.57 429.65L309.6 429.75L309.63 429.86L309.65 429.97L309.68 430.08L309.7 430.19L309.72 430.31L309.74 430.42L309.76 430.53L309.77 430.64L309.78 430.75L309.79 430.87L309.8 430.98L309.81 431.1L309.81 431.21L309.81 431.33L309.81 494.63L390.17 494.63L390.17 373.03L363.96 347.05L254.26 347.05L254.02 347.05L253.79 347.03L253.55 347.01L253.32 346.98L253.09 346.94L252.86 346.88L252.64 346.82L252.42 346.76L252.2 346.68L251.99 346.59L251.79 346.5L251.58 346.4L251.38 346.29L251.19 346.18L251 346.06L250.82 345.93L250.64 345.79L250.47 345.65L250.3 345.5L250.14 345.34L249.98 345.18L249.83 345.02L249.69 344.84L249.55 344.66L249.42 344.48L249.3 344.29L249.19 344.1L249.08 343.9L248.98 343.7L248.89 343.49L248.8 343.28L248.73 343.06L248.66 342.84L248.6 342.62L248.55 342.39L248.5 342.16L248.47 341.93L248.45 341.7L248.43 341.46L248.43 341.22L248.43 340.98L248.45 340.74L248.47 340.5L248.5 340.27L248.55 340.04L248.6 339.81L248.66 339.59L248.73 339.37L248.8 339.16L248.89 338.95L248.98 338.74L249.08 338.53L249.19 338.34L249.3 338.14L249.42 337.95L249.55 337.77L249.69 337.59L249.83 337.42L249.98 337.25L250.14 337.09L250.3 336.93L250.47 336.79L250.64 336.64L250.82 336.51L251 336.38L251.19 336.25L251.38 336.14L251.58 336.03L251.79 335.93L251.99 335.84L252.2 335.75L252.42 335.68L252.64 335.61L252.86 335.55L253.09 335.5L253.32 335.46L253.55 335.42L253.79 335.4L254.02 335.39L254.26 335.38L363.63 335.38L363.83 335.13L364.03 334.86L364.25 334.58L364.47 334.29L364.7 333.98L364.94 333.66L365.18 333.32L365.43 332.97L365.69 332.61L365.95 332.23L366.21 331.85L366.48 331.44L366.76 331.03L367.04 330.61L367.32 330.17L367.6 329.72L367.89 329.26L368.17 328.79L368.46 328.31L368.75 327.81L369.04 327.31L369.33 326.79L369.62 326.27L369.9 325.74L370.19 325.19L370.47 324.64L370.75 324.07L371.03 323.5L371.3 322.92L371.57 322.33L371.84 321.73L372.1 321.12L372.36 320.51L372.61 319.88L372.85 319.25L373.09 318.61L373.32 317.97L373.54 317.31L373.76 316.65L373.96 315.99L375.8 304.46L375.8 304.04L375.79 303.62L375.78 303.21L375.76 302.8L375.74 302.39L375.71 301.98L375.68 301.57L375.65 301.16L375.6 300.76L375.56 300.35L375.51 299.95L375.45 299.55L375.39 299.15L375.32 298.75L375.25 298.36L375.17 297.96L375.09 297.57L375.01 297.17L374.91 296.78L374.82 296.39L374.72 296L374.61 295.61L374.5 295.23L374.38 294.84L374.26 294.45L374.14 294.07L374.01 293.69L373.87 293.3L373.73 292.92L373.58 292.54L373.43 292.16L373.28 291.78L373.11 291.4L372.95 291.03L372.78 290.65L372.6 290.28L372.42 289.9L372.23 289.53L372.04 289.15L371.84 288.78L371.27 287.78L370.6 286.76L369.86 285.73L369.04 284.68L368.15 283.62L367.18 282.55L366.15 281.47L365.06 280.38L363.91 279.28L362.7 278.18L361.43 277.07L360.12 275.96L358.76 274.84L357.36 273.72L355.92 272.61L354.44 271.49L352.93 270.38L351.39 269.27L349.82 268.16L348.23 267.06L346.62 265.97L345 264.88L343.36 263.81L341.71 262.74L340.06 261.69L338.41 260.65L336.75 259.63L335.1 258.62L333.46 257.63L331.83 256.65L330.22 255.7L328.62 254.76L327.04 253.85L325.49 252.96L323.96 252.1L322.47 251.26L321.01 250.44L319.59 249.66L318.22 248.9L316.88 248.17L315.28 247.3L313.68 246.45L312.08 245.6L310.5 244.76L308.92 243.93L307.35 243.11L305.8 242.31L304.25 241.51L302.72 240.73L301.21 239.96L299.71 239.21L298.23 238.47L296.77 237.74L295.33 237.02L293.9 236.32L292.51 235.64L291.13 234.96L289.78 234.31L288.45 233.67L287.16 233.05L285.89 232.44L284.65 231.85L283.44 231.28L282.26 230.72L281.12 230.19L280.01 229.67L278.93 229.17L277.89 228.69L276.89 228.23L275.93 227.78L275.01 227.36L274.13 226.96L273.3 226.58L272.51 226.23L271.76 225.89L271.06 225.58L270.41 225.28L269.8 225.01L269.25 224.77L268.75 224.55L266.65 225.47L264.42 226.48ZM239.41 494.63L298.14 494.63L298.14 433.71L268.77 403.82L239.41 433.71L239.41 494.63ZM246.38 133.34L245.8 133.85L245.23 134.38L244.68 134.92L244.14 135.47L243.61 136.04L243.1 136.62L242.6 137.2L242.11 137.8L241.64 138.41L241.18 139.03L240.73 139.66L240.3 140.3L239.88 140.96L239.48 141.62L239.1 142.29L238.73 142.97L238.37 143.66L238.03 144.36L237.7 145.06L237.4 145.78L237.1 146.5L236.83 147.23L236.57 147.97L236.32 148.72L236.1 149.47L235.89 150.23L235.7 151L235.52 151.77L235.36 152.55L235.22 153.34L235.1 154.13L235 154.93L234.91 155.73L234.85 156.54L234.8 157.35L234.77 158.17L234.76 158.99L234.79 160.43L234.88 161.85L235.03 163.25L235.23 164.64L235.49 166.01L235.8 167.36L236.17 168.68L236.59 169.99L237.06 171.27L237.57 172.53L238.14 173.76L238.75 174.97L239.41 176.14L240.12 177.29L240.86 178.41L241.65 179.5L242.49 180.55L243.36 181.57L244.27 182.55L245.21 183.5L246.2 184.41L247.22 185.28L248.27 186.11L249.36 186.9L250.47 187.65L251.62 188.35L252.8 189.01L254 189.62L255.24 190.19L256.49 190.71L257.78 191.18L259.08 191.6L260.41 191.96L261.76 192.27L263.13 192.53L264.51 192.74L265.92 192.88L267.34 192.97L268.77 193L269.6 192.99L270.41 192.96L271.23 192.92L272.03 192.85L272.84 192.76L273.63 192.66L274.43 192.54L275.21 192.4L275.99 192.24L276.77 192.07L277.53 191.88L278.29 191.67L279.05 191.44L279.79 191.2L280.53 190.94L281.26 190.66L281.99 190.37L282.7 190.06L283.41 189.73L284.11 189.39L284.8 189.04L285.48 188.67L286.15 188.28L286.81 187.88L287.46 187.46L288.1 187.03L288.73 186.59L289.35 186.13L289.96 185.66L290.56 185.17L291.15 184.67L291.73 184.15L292.29 183.63L292.84 183.09L293.38 182.53L293.91 181.97L294.43 181.39L294.93 180.8L295.42 180.19L295.19 180.25L294.96 180.3L294.74 180.35L294.51 180.4L294.28 180.44L294.05 180.49L293.82 180.53L293.59 180.58L293.36 180.62L293.13 180.66L292.9 180.7L292.67 180.74L292.44 180.77L292.21 180.81L291.98 180.84L291.75 180.87L291.51 180.91L291.28 180.94L291.05 180.96L290.82 180.99L290.58 181.02L290.35 181.04L290.12 181.06L289.89 181.09L289.65 181.11L289.42 181.12L289.19 181.14L288.95 181.16L288.72 181.17L288.48 181.19L288.25 181.2L288.01 181.21L287.78 181.22L287.55 181.22L287.31 181.23L287.08 181.24L286.84 181.24L286.61 181.24L286.37 181.24L284.69 181.21L283.02 181.1L281.38 180.93L279.75 180.69L278.15 180.39L276.57 180.02L275.01 179.59L273.49 179.1L271.98 178.56L270.51 177.95L269.07 177.29L267.65 176.57L266.27 175.79L264.93 174.97L263.62 174.09L262.35 173.17L261.11 172.19L259.92 171.17L258.77 170.11L257.66 169L256.59 167.84L255.57 166.65L254.6 165.42L253.67 164.14L252.8 162.84L251.97 161.49L251.2 160.11L250.48 158.7L249.82 157.26L249.21 155.78L248.66 154.28L248.17 152.75L247.74 151.19L247.37 149.61L247.07 148.01L246.83 146.39L246.66 144.74L246.56 143.08L246.52 141.39L246.52 141.16L246.52 140.92L246.53 140.69L246.53 140.45L246.54 140.22L246.55 139.99L246.56 139.75L246.57 139.52L246.58 139.28L246.59 139.05L246.61 138.81L246.62 138.58L246.64 138.35L246.66 138.11L246.68 137.88L246.7 137.65L246.72 137.41L246.75 137.18L246.77 136.95L246.8 136.72L246.83 136.48L246.86 136.25L246.89 136.02L246.92 135.79L246.96 135.56L246.99 135.33L247.03 135.1L247.07 134.86L247.1 134.63L247.15 134.4L247.19 134.17L247.23 133.95L247.28 133.72L247.32 133.49L247.37 133.26L247.42 133.03L247.47 132.8L247.52 132.57L247.57 132.35L246.97 132.84L246.38 133.34Z" id="bcVdxvtdt"></path></defs><g><g><g><use xlink:href="#b6pyRPVDo" opacity="1" fill="#ff0871" fill-opacity="1"></use><g><use xlink:href="#b6pyRPVDo" opacity="1" fill-opacity="0" stroke="#000000" stroke-width="1" stroke-opacity="0"></use></g></g><g><use xlink:href="#a3CLGbiJjS" opacity="1" fill="#ffffff" fill-opacity="1"></use><g><use xlink:href="#a3CLGbiJjS" opacity="1" fill-opacity="0" stroke="#000000" stroke-width="1" stroke-opacity="0"></use></g></g><g><use xlink:href="#aaSRdtvDUP" opacity="1" fill="#ffffff" fill-opacity="1"></use><g><use xlink:href="#aaSRdtvDUP" opacity="1" fill-opacity="0" stroke="#000000" stroke-width="1" stroke-opacity="0"></use></g></g><g><use xlink:href="#d3U9E8TxJ" opacity="1" fill="#ffffff" fill-opacity="1"></use><g><use xlink:href="#d3U9E8TxJ" opacity="1" fill-opacity="0" stroke="#000000" stroke-width="1" stroke-opacity="0"></use></g></g><g><use xlink:href="#bcVdxvtdt" opacity="1" fill="#ffffff" fill-opacity="1"></use><g><use xlink:href="#bcVdxvtdt" opacity="1" fill-opacity="0" stroke="#000000" stroke-width="1" stroke-opacity="0"></use></g></g></g></g></svg>
