<?xml version="1.0" encoding="UTF-8" standalone="no"?>
<!DOCTYPE svg PUBLIC "-//W3C//DTD SVG 1.1//EN" "http://www.w3.org/Graphics/SVG/1.1/DTD/svg11.dtd">
<svg version="1.1" xmlns="http://www.w3.org/2000/svg" xmlns:xlink="http://www.w3.org/1999/xlink" preserveAspectRatio="xMidYMid meet" viewBox="0 0 640 640" width="512" height="512"><defs><path d="M480.64 42.92C431.6 14.3 378.07 0 320.01 0C261.95 0 208.41 14.3 159.38 42.92C110.35 71.53 71.54 110.34 42.92 159.37C14.3 208.4 0 261.95 0 320C0 378.06 14.31 431.59 42.92 480.63C71.53 529.65 110.35 568.47 159.38 597.08C208.41 625.69 261.95 640 320 640C378.06 640 431.61 625.69 480.63 597.08C529.66 568.48 568.48 529.65 597.09 480.63C625.7 431.6 640 378.05 640 320C640 261.94 625.7 208.4 597.09 159.37C568.48 110.35 529.66 71.53 480.64 42.92Z" id="b6pyRPVDo"></path><path d="M478.62 330.78C478.57 332.03 478.51 333.28 478.43 334.53C478.13 339.37 481.81 343.54 486.66 343.84C486.84 343.85 487.03 343.86 487.21 343.86C491.81 343.86 495.68 340.27 495.97 335.61C496.05 334.23 496.12 332.83 496.17 331.44C496.36 326.59 492.57 322.51 487.72 322.33C482.87 322.13 478.8 325.93 478.62 330.78Z" id="a1NBj9dPPa"></path><path d="M333.95 101.14L338.4 101.35L342.83 101.66L347.25 102.05L351.65 102.52L356.03 103.08L360.39 103.72L364.72 104.45L369.04 105.26L373.33 106.16L377.6 107.14L381.85 108.2L386.06 109.34L390.25 110.56L394.42 111.87L398.55 113.26L402.65 114.72L406.73 116.27L410.77 117.9L414.78 119.61L418.75 121.39L422.69 123.26L426.59 125.2L430.46 127.22L434.29 129.31L438.08 131.49L441.83 133.74L445.54 136.07L449.21 138.47L452.83 140.95L456.42 143.5L459.95 146.13L463.45 148.83L466.89 151.6L470.29 154.45L473.64 157.37L476.94 160.37L480.19 163.43L483.39 166.57L484.9 168.1L486.4 169.64L487.88 171.19L489.35 172.75L490.79 174.33L492.22 175.91L493.64 177.51L495.04 179.12L496.42 180.74L497.78 182.37L499.13 184.01L500.46 185.67L501.77 187.33L503.07 189.01L504.35 190.69L505.61 192.39L506.85 194.09L508.08 195.81L509.29 197.54L510.48 199.27L511.66 201.02L512.82 202.78L513.96 204.54L515.08 206.32L516.19 208.1L517.28 209.9L518.35 211.7L519.4 213.51L520.44 215.33L521.46 217.16L522.46 219L523.44 220.85L524.41 222.71L525.36 224.57L526.28 226.44L527.2 228.33L528.09 230.22L528.97 232.11L529.82 234.02L530.66 235.93L530.81 235.98L530.95 236.04L531.1 236.1L531.24 236.16L531.38 236.22L531.52 236.28L531.66 236.35L531.8 236.42L531.94 236.49L532.07 236.56L532.21 236.64L532.34 236.72L532.48 236.8L532.61 236.89L532.74 236.97L532.86 237.06L532.99 237.15L533.11 237.24L533.24 237.34L533.36 237.44L533.48 237.54L533.6 237.64L533.71 237.75L533.83 237.85L533.94 237.96L534.05 238.07L534.16 238.19L534.27 238.3L534.38 238.42L534.48 238.54L534.58 238.66L534.68 238.79L534.78 238.91L534.88 239.04L534.97 239.17L535.06 239.3L535.15 239.44L535.24 239.57L535.32 239.71L535.41 239.85L535.52 240.05L535.62 240.25L535.72 240.46L535.82 240.66L535.9 240.87L535.99 241.08L536.06 241.28L536.14 241.5L536.2 241.71L536.26 241.92L536.32 242.13L536.37 242.35L536.41 242.56L536.45 242.78L536.48 242.99L536.51 243.21L536.53 243.43L536.55 243.65L536.56 243.86L536.57 244.08L536.57 244.3L536.56 244.51L536.55 244.73L536.54 244.95L536.52 245.16L536.49 245.38L536.46 245.59L536.42 245.81L536.38 246.02L536.34 246.23L536.28 246.44L536.23 246.65L536.16 246.86L536.09 247.07L536.02 247.27L535.94 247.48L535.86 247.68L535.77 247.88L535.68 248.08L535.58 248.28L536.23 250.1L536.87 251.93L537.49 253.76L538.1 255.6L538.69 257.44L539.26 259.29L539.82 261.15L540.36 263.01L540.89 264.88L541.39 266.75L541.89 268.63L542.37 270.51L542.83 272.4L543.27 274.29L543.7 276.19L544.11 278.09L544.51 280L544.89 281.91L545.25 283.83L545.6 285.75L545.92 287.67L546.24 289.6L546.53 291.54L546.81 293.47L547.08 295.41L547.32 297.36L547.55 299.31L547.77 301.26L547.96 303.22L548.14 305.18L548.3 307.14L548.45 309.11L548.58 311.08L548.69 313.05L548.78 315.03L548.86 317.01L548.92 319L548.97 320.98L548.99 322.97L549 324.96L548.96 329.44L548.83 333.91L548.61 338.36L548.31 342.79L547.92 347.21L547.44 351.61L546.88 355.99L546.24 360.35L545.51 364.69L544.7 369L543.8 373.3L542.82 377.56L541.76 381.81L540.62 386.03L539.4 390.22L538.09 394.38L536.7 398.51L535.24 402.62L533.69 406.69L532.06 410.73L530.35 414.74L528.57 418.71L526.71 422.65L524.76 426.55L522.74 430.42L520.65 434.25L518.47 438.04L516.22 441.79L513.89 445.5L511.49 449.17L509.01 452.8L506.46 456.38L503.83 459.92L501.13 463.41L498.36 466.85L495.51 470.25L492.59 473.6L489.59 476.9L486.53 480.15L483.39 483.35L480.19 486.49L476.94 489.56L473.64 492.55L470.29 495.47L466.89 498.32L463.45 501.09L459.95 503.8L456.42 506.42L452.83 508.98L449.21 511.45L445.54 513.86L441.83 516.18L438.08 518.43L434.29 520.61L430.46 522.7L426.59 524.72L422.69 526.67L418.75 528.53L414.78 530.32L410.77 532.02L406.73 533.65L402.65 535.2L398.55 536.67L394.42 538.05L390.25 539.36L386.06 540.58L381.85 541.73L377.6 542.79L373.33 543.76L369.04 544.66L364.72 545.47L360.39 546.2L356.03 546.84L351.65 547.4L347.25 547.88L342.83 548.27L338.4 548.57L333.95 548.79L329.48 548.92L325 548.96L323.02 548.95L321.04 548.93L319.07 548.88L317.1 548.83L315.13 548.75L313.16 548.66L311.2 548.55L309.24 548.42L307.29 548.27L305.33 548.11L303.39 547.94L301.44 547.74L299.5 547.53L297.56 547.3L295.63 547.06L293.7 546.8L291.77 546.52L289.85 546.23L287.93 545.92L286.02 545.59L284.11 545.25L282.2 544.89L280.3 544.52L278.4 544.13L276.51 543.72L274.63 543.3L272.74 542.86L270.87 542.4L268.99 541.93L267.13 541.44L265.26 540.94L263.41 540.42L261.56 539.88L259.71 539.33L257.87 538.76L256.03 538.18L254.2 537.58L252.38 536.97L250.56 536.34L248.75 535.69L245.37 539.06L244.99 539.44L244.59 539.81L244.19 540.18L243.79 540.53L243.38 540.87L242.96 541.2L242.54 541.52L242.11 541.84L241.68 542.14L241.24 542.43L240.8 542.72L240.36 542.99L239.91 543.26L239.46 543.51L239 543.76L238.54 544L238.07 544.22L237.61 544.44L237.14 544.65L236.66 544.84L236.18 545.03L235.7 545.21L235.22 545.38L234.73 545.54L234.25 545.69L233.76 545.82L233.26 545.95L232.77 546.08L232.27 546.19L231.78 546.29L231.28 546.38L230.78 546.46L230.27 546.53L229.77 546.6L229.27 546.65L228.76 546.69L228.26 546.73L227.75 546.75L227.25 546.76L226.74 546.77L226.23 546.76L225.73 546.75L225.22 546.73L224.72 546.69L224.21 546.65L223.71 546.6L223.21 546.53L222.7 546.46L222.2 546.38L221.7 546.29L221.21 546.19L220.71 546.08L220.22 545.96L219.72 545.83L219.23 545.69L218.75 545.54L218.26 545.38L217.78 545.21L217.3 545.03L216.82 544.84L216.34 544.65L215.87 544.44L215.41 544.22L214.94 544L214.48 543.76L214.02 543.51L213.57 543.26L213.12 542.99L212.68 542.72L212.24 542.44L211.8 542.14L211.37 541.84L210.94 541.52L210.52 541.2L210.11 540.87L209.69 540.53L209.29 540.18L208.89 539.81L208.49 539.44L208.11 539.06L207.57 538.51L207.05 537.95L206.55 537.37L206.07 536.78L205.61 536.19L205.17 535.58L204.75 534.96L204.35 534.34L203.97 533.7L203.61 533.06L203.27 532.41L202.94 531.75L202.64 531.08L202.35 530.41L202.09 529.73L201.84 529.05L201.62 528.36L201.41 527.67L201.22 526.97L201.05 526.27L200.9 525.56L200.77 524.85L200.66 524.14L200.57 523.43L200.5 522.71L200.45 522L200.42 521.28L200.41 520.56L200.41 519.84L200.44 519.13L200.48 518.41L200.55 517.69L200.63 516.98L200.73 516.27L200.86 515.56L201 514.85L201.16 514.15L201.34 513.45L201.54 512.75L201.76 512.06L200.82 511.44L199.89 510.81L198.96 510.18L198.03 509.54L197.1 508.9L196.18 508.25L195.26 507.6L194.34 506.94L193.43 506.28L192.51 505.61L191.61 504.94L190.7 504.26L189.8 503.58L188.9 502.89L188 502.2L187.11 501.51L186.22 500.8L185.33 500.1L184.44 499.39L183.56 498.67L182.68 497.95L181.81 497.23L180.94 496.5L180.07 495.76L179.2 495.02L178.34 494.28L177.48 493.53L176.62 492.77L175.77 492.02L174.92 491.25L174.07 490.48L173.23 489.71L172.39 488.93L171.55 488.15L170.72 487.36L169.89 486.57L169.07 485.77L168.24 484.97L167.42 484.16L166.61 483.35L166.04 482.78L165.47 482.2L164.9 481.63L164.34 481.05L163.78 480.47L163.22 479.89L162.66 479.3L162.11 478.72L161.55 478.13L161 477.54L160.46 476.95L159.91 476.36L159.37 475.77L158.83 475.18L158.29 474.58L157.76 473.98L157.22 473.38L156.69 472.78L156.16 472.18L155.64 471.57L155.11 470.97L154.59 470.36L154.07 469.75L153.56 469.14L153.04 468.52L152.53 467.91L152.02 467.29L151.51 466.68L151.01 466.06L150.51 465.44L150.01 464.82L149.51 464.19L149.01 463.57L148.52 462.94L148.03 462.31L147.54 461.69L147.06 461.05L146.57 460.42L146.09 459.79L145.61 459.15L145.47 459.19L145.33 459.22L145.18 459.25L145.04 459.28L144.89 459.31L144.75 459.33L144.6 459.36L144.46 459.39L144.31 459.41L144.17 459.44L144.02 459.46L143.88 459.49L143.73 459.51L143.59 459.53L143.44 459.55L143.3 459.57L143.15 459.59L143 459.61L142.86 459.63L142.71 459.64L142.57 459.66L142.42 459.68L142.27 459.69L142.13 459.7L141.98 459.72L141.83 459.73L141.69 459.74L141.54 459.75L141.39 459.76L141.25 459.77L141.1 459.78L140.95 459.78L140.81 459.79L140.66 459.79L140.51 459.8L140.37 459.8L140.22 459.81L140.07 459.81L139.93 459.81L139.78 459.81L139.27 459.8L138.77 459.79L138.26 459.77L137.76 459.73L137.25 459.69L136.75 459.64L136.25 459.57L135.74 459.5L135.24 459.42L134.74 459.33L134.25 459.23L133.75 459.12L133.26 459L132.76 458.87L132.27 458.73L131.79 458.58L131.3 458.42L130.82 458.25L130.34 458.07L129.86 457.88L129.38 457.69L128.91 457.48L128.45 457.26L127.98 457.04L127.52 456.8L127.06 456.55L126.61 456.3L126.16 456.03L125.72 455.76L125.28 455.48L124.84 455.18L124.41 454.88L123.98 454.57L123.56 454.24L123.15 453.91L122.73 453.57L122.33 453.22L121.93 452.86L121.53 452.48L121.15 452.1L120.78 451.73L120.42 451.35L120.06 450.96L119.72 450.56L119.39 450.16L119.06 449.76L118.74 449.35L118.43 448.93L118.13 448.51L117.84 448.08L117.56 447.65L117.28 447.21L117.02 446.77L116.76 446.33L116.52 445.88L116.28 445.42L116.05 444.96L115.83 444.5L115.62 444.03L115.42 443.56L115.23 443.09L115.05 442.61L114.87 442.12L114.71 441.64L114.56 441.15L114.41 440.65L114.28 440.16L114.15 439.66L114.04 439.16L113.93 438.65L113.84 438.14L113.75 437.63L113.68 437.12L113.61 436.61L113.56 436.09L113.51 435.57L113.47 435.05L113.45 434.52L113.43 434L113.43 433.47L113.43 432.98L113.45 432.49L113.47 432L113.5 431.51L113.54 431.03L113.59 430.54L113.64 430.06L113.71 429.58L113.79 429.1L113.87 428.63L113.96 428.16L114.06 427.69L114.17 427.22L114.29 426.75L114.41 426.29L114.55 425.83L114.69 425.37L114.84 424.92L115 424.47L115.17 424.02L115.34 423.57L115.52 423.13L115.72 422.7L115.92 422.26L116.12 421.83L116.34 421.4L116.56 420.98L116.79 420.56L117.03 420.14L117.28 419.73L117.54 419.33L117.8 418.92L118.07 418.52L118.35 418.13L118.63 417.74L118.93 417.35L119.23 416.97L119.54 416.6L119.85 416.23L120.17 415.86L119.24 413.74L118.34 411.61L117.45 409.46L116.59 407.31L115.75 405.15L114.93 402.98L114.13 400.8L113.36 398.62L112.61 396.42L111.88 394.22L111.18 392.01L110.5 389.79L109.84 387.56L109.2 385.32L108.59 383.08L108 380.83L107.44 378.57L106.9 376.31L106.38 374.04L105.88 371.76L105.41 369.47L104.96 367.18L104.54 364.88L104.14 362.58L103.76 360.27L103.4 357.95L103.08 355.63L102.77 353.3L102.49 350.96L102.23 348.62L102 346.28L101.79 343.93L101.6 341.57L101.44 339.21L101.31 336.85L101.2 334.48L101.11 332.11L101.05 329.73L101.01 327.35L101 324.96L101.04 320.48L101.17 316.01L101.39 311.56L101.69 307.13L102.08 302.71L102.56 298.31L103.12 293.93L103.76 289.57L104.49 285.24L105.3 280.92L106.2 276.63L107.18 272.36L108.24 268.12L109.38 263.9L110.6 259.71L111.91 255.55L113.3 251.41L114.76 247.31L116.31 243.24L117.94 239.19L119.65 235.19L121.43 231.21L123.29 227.27L125.24 223.37L127.26 219.5L129.35 215.67L131.53 211.88L133.78 208.13L136.11 204.42L138.51 200.75L140.99 197.13L143.54 193.55L146.17 190.01L148.87 186.51L151.64 183.07L154.49 179.67L157.41 176.32L160.41 173.02L163.47 169.77L166.61 166.57L169.81 163.43L173.06 160.37L176.36 157.37L179.71 154.45L183.11 151.6L186.55 148.83L190.05 146.13L193.58 143.5L197.17 140.95L200.79 138.47L204.46 136.07L208.17 133.74L211.92 131.49L215.71 129.32L219.54 127.22L223.41 125.2L227.31 123.26L231.25 121.39L235.22 119.61L239.23 117.9L243.27 116.27L247.35 114.73L251.45 113.26L255.58 111.87L259.75 110.56L263.94 109.34L268.15 108.2L272.4 107.14L276.67 106.16L280.96 105.26L285.28 104.45L289.61 103.72L293.97 103.08L298.35 102.52L302.75 102.05L307.17 101.66L311.6 101.35L316.05 101.14L320.52 101.01L325 100.96L329.48 101.01L333.95 101.14ZM307.28 477.66L307.73 477.71L308.18 477.76L308.62 477.81L309.07 477.86L309.52 477.9L309.97 477.95L310.42 477.99L310.87 478.03L311.32 478.07L311.77 478.11L312.22 478.15L312.67 478.19L313.13 478.23L313.58 478.26L314.03 478.29L314.48 478.32L314.94 478.36L315.39 478.38L315.85 478.41L316.3 478.44L316.76 478.46L317.21 478.49L317.67 478.51L318.12 478.53L318.58 478.55L319.03 478.57L319.49 478.59L319.95 478.6L320.41 478.62L320.86 478.63L321.32 478.64L321.78 478.65L322.24 478.66L322.7 478.67L323.16 478.68L323.62 478.68L324.08 478.68L324.54 478.69L325 478.69L329.45 478.62L333.87 478.43L338.28 478.1L342.66 477.66L347.01 477.08L351.34 476.39L355.63 475.57L359.89 474.63L364.11 473.57L368.29 472.39L372.44 471.1L376.54 469.7L380.59 468.18L384.6 466.55L388.55 464.81L392.45 462.96L396.3 461L400.09 458.94L403.83 456.77L407.5 454.5L411.1 452.13L414.64 449.66L418.11 447.1L421.51 444.43L424.84 441.67L428.09 438.82L431.26 435.87L434.36 432.83L437.37 429.71L440.29 426.49L443.13 423.19L445.88 419.81L448.53 416.34L451.09 412.79L453.56 409.15L455.93 405.44L458.19 401.66L460.35 397.79L462.41 393.85L464.36 389.84L464.52 389.52L464.69 389.2L464.87 388.89L465.06 388.6L465.27 388.31L465.48 388.04L465.7 387.77L465.94 387.51L466.18 387.27L466.43 387.03L466.69 386.81L466.95 386.6L467.23 386.4L467.51 386.21L467.79 386.03L468.09 385.86L468.39 385.7L468.69 385.56L469 385.42L469.32 385.3L469.63 385.19L469.96 385.1L470.28 385.01L470.61 384.94L470.95 384.88L471.28 384.84L471.62 384.8L471.96 384.78L472.3 384.77L472.64 384.78L472.98 384.8L473.33 384.83L473.67 384.88L474.01 384.94L474.35 385.01L474.69 385.1L475.03 385.21L475.37 385.32L475.7 385.46L476.03 385.6L476.36 385.76L476.67 385.93L476.98 386.12L477.27 386.31L477.56 386.51L477.84 386.73L478.1 386.95L478.36 387.18L478.6 387.43L478.84 387.68L479.06 387.94L479.27 388.2L479.48 388.47L479.67 388.76L479.85 389.04L480.01 389.34L480.17 389.64L480.32 389.94L480.45 390.25L480.57 390.56L480.68 390.88L480.78 391.21L480.86 391.53L480.93 391.86L480.99 392.2L481.04 392.53L481.07 392.87L481.09 393.21L481.1 393.55L481.09 393.89L481.07 394.23L481.04 394.58L480.99 394.92L480.93 395.26L480.86 395.6L480.77 395.94L480.67 396.28L480.55 396.62L480.42 396.95L480.27 397.28L479.23 399.46L478.17 401.62L477.07 403.76L475.95 405.88L474.8 407.99L473.62 410.08L472.41 412.15L471.18 414.2L469.91 416.24L468.62 418.25L467.3 420.25L465.95 422.22L464.58 424.18L463.18 426.12L461.76 428.03L460.3 429.93L458.83 431.8L457.32 433.66L455.79 435.49L454.24 437.3L452.66 439.09L451.05 440.86L449.42 442.61L447.77 444.33L446.09 446.03L444.39 447.71L442.66 449.37L440.91 451L439.14 452.61L437.34 454.19L435.52 455.75L433.68 457.29L431.81 458.8L429.93 460.28L428.02 461.75L426.08 463.18L424.13 464.59L422.16 465.97L420.16 467.33L418.15 468.66L416.06 470L413.95 471.31L411.83 472.58L409.69 473.82L407.53 475.03L405.37 476.21L403.18 477.35L400.98 478.46L398.77 479.54L396.55 480.59L394.31 481.6L392.06 482.58L389.79 483.53L387.51 484.45L385.22 485.33L382.92 486.17L380.61 486.99L378.29 487.77L375.95 488.52L373.61 489.23L371.25 489.91L368.88 490.55L366.51 491.16L364.13 491.74L361.73 492.28L359.33 492.79L356.92 493.27L354.5 493.71L352.08 494.11L349.65 494.48L347.21 494.82L344.76 495.12L342.31 495.38L339.85 495.62L337.39 495.81L334.92 495.97L332.45 496.1L329.97 496.18L327.49 496.24L325 496.26L324.14 496.25L323.28 496.25L322.42 496.24L321.57 496.22L320.71 496.2L319.86 496.18L319 496.15L318.15 496.12L317.3 496.08L316.45 496.04L315.6 496L314.75 495.95L313.91 495.9L313.06 495.84L312.22 495.78L311.37 495.72L310.53 495.65L309.69 495.57L308.85 495.5L308.01 495.42L307.17 495.33L306.33 495.24L305.5 495.15L304.66 495.05L303.83 494.95L303 494.84L302.17 494.73L301.34 494.62L300.51 494.5L299.68 494.38L298.86 494.26L298.03 494.13L297.21 493.99L296.39 493.86L295.57 493.72L294.75 493.57L293.93 493.42L293.11 493.27L292.3 493.11L291.48 492.95L262.67 521.77L264.15 522.23L265.63 522.68L267.12 523.12L268.61 523.56L270.11 523.97L271.61 524.38L273.11 524.78L274.62 525.17L276.14 525.54L277.66 525.91L279.18 526.26L280.71 526.6L282.24 526.93L283.77 527.25L285.31 527.56L286.86 527.85L288.4 528.14L289.96 528.41L291.51 528.67L293.07 528.92L294.63 529.16L296.2 529.39L297.77 529.6L299.35 529.8L300.92 529.99L302.5 530.17L304.09 530.34L305.68 530.49L307.27 530.64L308.87 530.77L310.47 530.89L312.07 530.99L313.67 531.09L315.28 531.17L316.89 531.24L318.51 531.29L320.13 531.34L321.75 531.37L323.37 531.39L325 531.39L333.5 531.22L341.91 530.71L350.22 529.86L358.44 528.69L366.55 527.19L374.55 525.38L382.43 523.27L390.18 520.85L397.8 518.14L405.28 515.15L412.61 511.87L419.79 508.32L426.81 504.5L433.66 500.42L440.34 496.09L446.84 491.51L453.15 486.69L459.27 481.64L465.19 476.36L470.9 470.86L476.4 465.15L481.68 459.23L486.73 453.11L491.55 446.8L496.13 440.3L500.46 433.62L504.54 426.77L508.36 419.75L511.91 412.57L515.18 405.24L518.18 397.76L520.89 390.14L523.31 382.39L525.42 374.51L527.23 366.51L528.72 358.4L529.9 350.18L530.75 341.87L531.26 333.46L531.43 324.96L531.43 323.33L531.41 321.71L531.37 320.09L531.33 318.47L531.27 316.86L531.21 315.24L531.12 313.63L531.03 312.03L530.92 310.43L530.81 308.83L530.67 307.23L530.53 305.64L530.38 304.05L530.21 302.47L530.03 300.89L529.84 299.31L529.64 297.73L529.42 296.16L529.2 294.6L528.96 293.03L528.71 291.47L528.45 289.92L528.17 288.37L527.89 286.82L527.59 285.28L527.29 283.74L526.97 282.2L526.64 280.67L526.29 279.14L525.94 277.62L525.58 276.1L525.2 274.59L524.82 273.08L524.42 271.57L524.01 270.07L523.59 268.58L523.16 267.09L522.72 265.6L522.27 264.12L521.8 262.64L306.83 477.61L307.28 477.66ZM489.06 263.53L486.09 264.37L483.14 265.26L480.2 266.18L477.27 267.14L474.36 268.14L471.46 269.17L468.58 270.25L465.71 271.36L462.86 272.51L460.03 273.7L457.21 274.92L454.41 276.18L451.63 277.48L448.86 278.81L446.12 280.18L443.39 281.58L440.68 283.02L437.99 284.5L435.32 286.01L432.67 287.55L430.04 289.13L427.43 290.75L424.85 292.39L422.28 294.08L419.74 295.79L417.21 297.55L414.72 299.33L412.24 301.15L409.79 303L407.36 304.88L404.95 306.8L402.57 308.74L400.22 310.72L397.89 312.74L395.58 314.78L393.31 316.86L391.05 318.96L388.83 321.1L386.63 323.27L350.75 359.15L350.5 359.41L350.25 359.67L350.01 359.94L349.78 360.21L349.55 360.49L349.33 360.77L349.12 361.05L348.91 361.34L348.71 361.64L348.51 361.93L348.32 362.23L348.14 362.54L347.97 362.85L347.8 363.16L347.64 363.47L347.49 363.79L347.34 364.11L347.2 364.43L347.06 364.76L346.94 365.09L346.82 365.42L346.71 365.75L346.6 366.09L346.5 366.43L346.41 366.77L346.33 367.11L346.25 367.46L346.18 367.81L346.12 368.16L346.07 368.51L346.02 368.86L345.98 369.21L345.95 369.57L345.93 369.92L345.91 370.28L345.9 370.63L345.9 370.99L345.91 371.35L345.92 371.71L345.95 372.07L345.99 372.81L346.02 373.56L346.04 374.3L346.04 375.03L346.02 375.77L345.99 376.51L345.94 377.24L345.87 377.97L345.79 378.7L345.69 379.42L345.58 380.14L345.46 380.86L345.32 381.58L345.16 382.29L344.99 383L344.8 383.7L344.6 384.4L344.38 385.09L344.15 385.78L343.9 386.47L343.64 387.15L343.37 387.82L343.08 388.49L342.77 389.15L342.46 389.8L342.12 390.45L341.78 391.09L341.42 391.73L341.05 392.35L340.66 392.97L340.26 393.58L339.84 394.19L339.41 394.78L338.97 395.37L338.52 395.95L338.05 396.52L337.57 397.08L337.07 397.63L336.57 398.17L336.05 398.7L220.53 514.22L220.28 514.48L220.04 514.75L219.82 515.02L219.6 515.31L219.41 515.6L219.22 515.89L219.05 516.19L218.89 516.5L218.74 516.81L218.6 517.12L218.48 517.44L218.37 517.77L218.28 518.09L218.19 518.42L218.12 518.75L218.06 519.08L218.02 519.42L217.99 519.76L217.97 520.09L217.96 520.43L217.97 520.77L217.99 521.1L218.02 521.44L218.06 521.78L218.12 522.11L218.19 522.44L218.28 522.77L218.37 523.1L218.48 523.42L218.6 523.74L218.74 524.05L218.89 524.36L219.05 524.67L219.22 524.97L219.41 525.26L219.6 525.55L219.82 525.84L220.04 526.11L220.28 526.38L220.53 526.64L220.7 526.81L220.89 526.97L221.07 527.12L221.27 527.26L221.47 527.39L221.68 527.51L221.9 527.63L222.12 527.74L222.35 527.84L222.59 527.93L222.83 528.01L223.09 528.08L223.34 528.14L223.61 528.2L223.88 528.25L224.16 528.28L224.45 528.31L224.74 528.34L225.04 528.35L225.35 528.35L225.66 528.35L225.98 528.34L226.31 528.31L226.65 528.28L226.99 528.25L227.34 528.2L227.69 528.14L228.06 528.08L228.42 528.01L228.8 527.92L229.19 527.83L229.58 527.74L229.97 527.63L230.38 527.51L230.79 527.39L231.21 527.26L231.63 527.12L232.07 526.97L232.51 526.81L232.95 526.64L498.6 260.99L492.04 262.72L489.06 263.53ZM161.81 451.19L162.89 452.58L163.99 453.97L165.11 455.34L166.23 456.7L167.36 458.06L168.51 459.4L169.67 460.73L170.83 462.06L172.01 463.37L173.2 464.67L174.4 465.97L175.62 467.25L176.84 468.52L178.07 469.78L179.32 471.04L180.57 472.28L181.84 473.51L183.11 474.73L184.4 475.93L185.69 477.13L187 478.32L188.32 479.5L189.64 480.66L190.98 481.81L192.33 482.96L193.68 484.09L195.05 485.21L196.42 486.32L197.81 487.41L199.2 488.5L200.61 489.57L202.02 490.63L203.44 491.68L204.88 492.72L206.32 493.75L207.77 494.76L209.23 495.76L210.7 496.75L212.17 497.73L237.66 472.24L236.14 471.32L234.63 470.39L233.13 469.44L231.63 468.48L230.15 467.5L228.68 466.51L227.22 465.5L225.77 464.48L224.34 463.44L222.91 462.39L221.49 461.33L220.09 460.25L218.7 459.15L217.32 458.04L215.95 456.92L214.59 455.79L213.24 454.64L211.91 453.48L210.59 452.3L209.28 451.11L207.98 449.91L206.7 448.69L205.43 447.47L204.17 446.22L202.92 444.97L201.69 443.7L200.47 442.42L199.26 441.13L198.07 439.83L196.89 438.51L195.72 437.18L194.56 435.84L193.42 434.49L192.3 433.12L191.18 431.74L190.09 430.36L189 428.96L187.93 427.54L186.87 426.12L185.83 424.69L160.73 449.79L161.81 451.19ZM384.51 126.53L384.5 126.55L384.48 126.57L384.46 126.59L384.45 126.62L384.43 126.64L384.41 126.66L384.4 126.68L384.38 126.7L384.36 126.72L384.34 126.74L384.33 126.76L384.31 126.78L384.29 126.8L384.28 126.82L384.26 126.84L384.24 126.86L384.22 126.88L384.21 126.9L384.19 126.92L384.17 126.94L384.15 126.96L384.14 126.98L384.12 127L384.1 127.02L384.08 127.04L384.06 127.06L384.05 127.08L384.03 127.1L384.01 127.12L383.99 127.14L383.97 127.16L383.95 127.18L383.93 127.2L383.91 127.22L383.9 127.24L383.88 127.26L383.86 127.28L383.84 127.3L322.89 188.24L322.31 188.84L321.74 189.45L321.19 190.06L320.64 190.69L320.12 191.33L319.61 191.98L319.11 192.64L318.63 193.31L318.16 193.99L317.71 194.67L317.27 195.37L316.85 196.07L316.44 196.78L316.05 197.5L315.67 198.23L315.31 198.97L314.96 199.71L314.64 200.46L314.32 201.21L314.02 201.97L313.74 202.74L313.48 203.52L313.23 204.3L313 205.08L312.78 205.87L312.58 206.66L312.4 207.46L312.23 208.27L312.08 209.07L311.95 209.88L311.83 210.7L311.74 211.52L311.66 212.34L311.59 213.16L311.55 213.98L311.52 214.81L311.51 215.64L311.51 216.47L311.54 217.31L311.58 218.14L311.82 222.02L311.88 223.23L311.92 224.44L311.93 225.65L311.91 226.85L311.87 228.06L311.8 229.25L311.71 230.45L311.6 231.64L311.45 232.83L311.29 234.01L311.09 235.19L310.88 236.36L310.63 237.52L310.37 238.68L310.08 239.84L309.77 240.98L309.43 242.12L309.07 243.25L308.68 244.38L308.27 245.49L307.84 246.6L307.39 247.7L306.91 248.78L306.41 249.86L305.88 250.93L305.34 251.98L304.77 253.03L304.18 254.06L303.56 255.08L302.93 256.09L302.27 257.09L301.59 258.08L300.89 259.05L300.17 260L299.43 260.95L298.66 261.87L297.88 262.79L297.07 263.68L296.24 264.57L295.4 265.43L133.57 427.26L133.45 427.38L133.33 427.51L133.21 427.64L133.09 427.77L132.98 427.91L132.87 428.04L132.77 428.18L132.66 428.32L132.56 428.46L132.47 428.6L132.37 428.74L132.28 428.89L132.19 429.04L132.11 429.18L132.03 429.33L131.95 429.49L131.87 429.64L131.8 429.79L131.73 429.95L131.66 430.11L131.6 430.27L131.54 430.42L131.48 430.59L131.42 430.75L131.37 430.91L131.32 431.08L131.28 431.24L131.24 431.41L131.2 431.57L131.16 431.74L131.13 431.91L131.1 432.08L131.08 432.25L131.06 432.43L131.04 432.6L131.02 432.77L131.01 432.94L131 433.12L131 433.29L131 433.47L131 433.65L131 433.82L131.01 434L131.02 434.17L131.04 434.34L131.06 434.52L131.08 434.69L131.1 434.86L131.13 435.03L131.16 435.2L131.2 435.37L131.24 435.53L131.28 435.7L131.32 435.86L131.37 436.03L131.42 436.19L131.48 436.35L131.54 436.52L131.6 436.68L131.66 436.83L131.73 436.99L131.8 437.15L131.87 437.3L131.95 437.45L132.03 437.61L132.11 437.76L132.19 437.9L132.28 438.05L132.37 438.2L132.47 438.34L132.56 438.48L132.66 438.62L132.77 438.76L132.87 438.9L132.98 439.03L133.09 439.17L133.21 439.3L133.33 439.43L133.45 439.56L133.57 439.68L133.83 439.93L134.1 440.17L134.37 440.39L134.66 440.61L134.95 440.8L135.24 440.99L135.54 441.16L135.85 441.32L136.16 441.47L136.47 441.61L136.79 441.73L137.12 441.84L137.44 441.93L137.77 442.02L138.1 442.09L138.44 442.15L138.77 442.19L139.11 442.22L139.44 442.24L139.78 442.25L140.12 442.24L140.46 442.22L140.79 442.19L141.13 442.15L141.46 442.09L141.79 442.02L142.12 441.94L142.45 441.84L142.77 441.73L143.09 441.61L143.4 441.47L143.71 441.33L144.02 441.16L144.32 440.99L144.62 440.8L144.9 440.61L145.19 440.39L145.46 440.17L145.73 439.93L145.99 439.68L307.82 277.86L308.69 277.01L309.57 276.18L310.47 275.37L311.38 274.59L312.31 273.82L313.25 273.08L314.21 272.36L315.18 271.66L316.16 270.98L317.16 270.32L318.17 269.69L319.19 269.07L320.22 268.48L321.27 267.91L322.33 267.37L323.39 266.84L324.47 266.34L325.56 265.86L326.66 265.41L327.76 264.97L328.88 264.57L330 264.18L331.13 263.82L332.27 263.48L333.42 263.17L334.57 262.88L335.73 262.61L336.9 262.37L338.07 262.15L339.25 261.96L340.43 261.79L341.61 261.65L342.81 261.54L344 261.44L345.2 261.38L346.4 261.34L347.6 261.32L348.81 261.33L350.02 261.37L351.23 261.43L355.11 261.67L355.95 261.71L356.78 261.74L357.61 261.74L358.44 261.73L359.27 261.7L360.09 261.66L360.92 261.59L361.74 261.51L362.56 261.41L363.37 261.3L364.18 261.16L364.99 261.02L365.79 260.85L366.59 260.67L367.39 260.47L368.17 260.25L368.96 260.02L369.74 259.77L370.51 259.5L371.28 259.22L372.04 258.93L372.8 258.61L373.55 258.28L374.29 257.94L375.02 257.58L375.75 257.2L376.47 256.81L377.18 256.4L377.89 255.98L378.58 255.54L379.27 255.09L379.95 254.62L380.61 254.14L381.27 253.64L381.92 253.13L382.56 252.6L383.19 252.06L383.81 251.51L384.42 250.94L385.01 250.35L455.12 180.25L455.38 180L455.65 179.76L455.92 179.54L456.21 179.32L456.5 179.12L456.79 178.94L457.09 178.76L457.4 178.6L457.71 178.45L458.02 178.32L458.34 178.2L458.67 178.09L458.99 177.99L459.32 177.91L459.65 177.84L459.99 177.78L460.32 177.73L460.66 177.7L460.99 177.68L461.33 177.68L461.67 177.68L462 177.7L462.34 177.73L462.67 177.78L463.01 177.84L463.34 177.91L463.67 177.99L463.99 178.09L464.32 178.2L464.64 178.32L464.95 178.45L465.26 178.6L465.57 178.76L465.87 178.94L466.16 179.12L466.45 179.32L466.74 179.54L467.01 179.76L467.28 180L467.54 180.25L467.79 180.51L468.03 180.78L468.25 181.05L468.47 181.34L468.67 181.63L468.85 181.92L469.03 182.22L469.19 182.53L469.34 182.84L469.47 183.15L469.59 183.47L469.7 183.8L469.8 184.12L469.88 184.45L469.95 184.78L470.01 185.12L470.06 185.45L470.09 185.79L470.11 186.12L470.11 186.46L470.11 186.8L470.09 187.13L470.06 187.47L470.01 187.81L469.95 188.14L469.88 188.47L469.8 188.8L469.7 189.12L469.59 189.45L469.47 189.77L469.34 190.08L469.19 190.39L469.03 190.7L468.85 191L468.67 191.29L468.47 191.58L468.25 191.87L468.03 192.14L467.79 192.41L467.54 192.67L397.44 262.78L396.57 263.62L395.69 264.45L394.79 265.26L393.88 266.04L392.95 266.81L392.01 267.55L391.05 268.27L390.08 268.97L389.09 269.65L388.1 270.31L387.09 270.95L386.07 271.56L385.03 272.15L383.99 272.72L382.93 273.27L381.86 273.79L380.79 274.29L379.7 274.77L378.6 275.23L377.5 275.66L376.38 276.07L375.26 276.45L374.13 276.81L372.99 277.15L371.84 277.46L370.69 277.75L369.53 278.02L368.36 278.26L367.19 278.48L366.01 278.67L364.83 278.84L363.64 278.98L362.45 279.1L361.26 279.19L360.06 279.26L358.86 279.3L357.65 279.31L356.45 279.3L355.24 279.26L354.03 279.2L350.14 278.96L349.31 278.92L348.48 278.9L347.65 278.89L346.82 278.9L345.99 278.93L345.16 278.98L344.34 279.04L343.52 279.12L342.7 279.22L341.89 279.34L341.08 279.47L340.27 279.62L339.47 279.78L338.67 279.97L337.87 280.17L337.08 280.38L336.3 280.62L335.52 280.86L334.75 281.13L333.98 281.41L333.22 281.71L332.46 282.02L331.71 282.35L330.97 282.7L330.23 283.06L329.51 283.43L328.79 283.82L328.07 284.23L327.37 284.65L326.68 285.09L325.99 285.54L325.31 286.01L324.64 286.49L323.98 286.99L323.33 287.5L322.7 288.03L322.07 288.57L321.45 289.12L320.84 289.69L320.24 290.28L198.44 412.08L199.46 413.54L200.49 414.98L201.54 416.41L202.61 417.83L203.69 419.24L204.79 420.63L205.9 422.01L207.03 423.38L208.17 424.73L209.33 426.07L210.51 427.4L211.7 428.71L212.9 430.01L214.12 431.29L215.36 432.56L216.6 433.82L217.87 435.06L219.14 436.29L220.43 437.5L221.74 438.7L223.06 439.88L224.39 441.05L225.73 442.21L227.09 443.34L228.46 444.47L229.85 445.57L231.25 446.67L232.66 447.74L234.08 448.8L235.52 449.84L236.96 450.87L238.43 451.88L239.9 452.88L241.38 453.86L242.88 454.82L244.39 455.76L245.91 456.69L247.44 457.6L248.98 458.49L250.53 459.37L323.62 386.28L323.88 386.02L324.12 385.76L324.36 385.49L324.6 385.22L324.82 384.95L325.04 384.66L325.26 384.38L325.47 384.09L325.67 383.8L325.86 383.5L326.05 383.2L326.23 382.9L326.41 382.59L326.57 382.28L326.73 381.96L326.89 381.65L327.04 381.33L327.18 381L327.31 380.68L327.44 380.35L327.55 380.01L327.67 379.68L327.77 379.34L327.87 379L327.96 378.66L328.04 378.32L328.12 377.98L328.19 377.63L328.25 377.28L328.3 376.93L328.35 376.58L328.39 376.22L328.42 375.87L328.45 375.51L328.46 375.16L328.47 374.8L328.47 374.44L328.46 374.08L328.45 373.72L328.43 373.36L328.38 372.62L328.35 371.88L328.34 371.14L328.34 370.4L328.35 369.66L328.39 368.93L328.44 368.2L328.5 367.46L328.58 366.74L328.68 366.01L328.79 365.29L328.92 364.57L329.06 363.86L329.22 363.14L329.39 362.44L329.57 361.73L329.78 361.03L329.99 360.34L330.22 359.65L330.47 358.97L330.73 358.29L331.01 357.62L331.3 356.95L331.6 356.29L331.92 355.63L332.25 354.98L332.59 354.34L332.95 353.71L333.33 353.08L333.72 352.46L334.12 351.85L334.53 351.25L334.96 350.65L335.4 350.06L335.86 349.49L336.32 348.92L336.81 348.36L337.3 347.81L337.81 347.26L338.33 346.73L374.21 310.85L376.57 308.52L378.97 306.22L381.39 303.95L383.84 301.72L386.32 299.52L388.82 297.36L391.35 295.23L393.91 293.13L396.5 291.07L399.11 289.05L401.75 287.06L404.41 285.1L407.1 283.18L409.81 281.3L412.55 279.45L415.31 277.64L418.09 275.87L420.89 274.14L423.72 272.44L426.57 270.77L429.44 269.15L432.33 267.56L435.25 266.01L438.18 264.5L441.13 263.03L444.11 261.6L447.1 260.21L450.11 258.85L453.14 257.54L456.19 256.26L459.25 255.02L462.34 253.83L465.44 252.67L468.55 251.56L471.68 250.48L474.83 249.45L477.99 248.46L481.17 247.51L484.36 246.6L487.57 245.73L512.7 239.12L511.62 236.8L510.51 234.49L509.37 232.2L508.21 229.93L507.01 227.67L505.79 225.44L504.55 223.21L503.27 221.01L501.97 218.82L500.65 216.65L499.3 214.49L497.92 212.36L496.52 210.24L495.09 208.14L493.64 206.06L492.16 204L490.66 201.95L489.13 199.93L487.58 197.93L486.01 195.94L484.41 193.97L482.79 192.03L481.15 190.1L479.48 188.2L477.79 186.32L476.07 184.45L474.34 182.61L472.58 180.79L470.8 178.99L469 177.21L467.18 175.46L465.33 173.72L463.47 172.01L461.58 170.32L459.68 168.66L457.75 167.02L455.8 165.4L453.83 163.8L451.85 162.23L449.84 160.68L377.27 233.26L377.14 233.38L377 233.51L376.87 233.63L376.74 233.74L376.6 233.86L376.46 233.97L376.32 234.08L376.18 234.18L376.03 234.28L375.89 234.38L375.74 234.48L375.59 234.57L375.44 234.66L375.29 234.74L375.14 234.82L374.99 234.9L374.83 234.98L374.67 235.05L374.52 235.12L374.36 235.18L374.2 235.25L374.04 235.31L373.88 235.36L373.72 235.42L373.55 235.47L373.39 235.51L373.23 235.56L373.06 235.6L372.9 235.63L372.73 235.67L372.57 235.7L372.4 235.72L372.23 235.75L372.06 235.77L371.9 235.79L371.73 235.8L371.56 235.81L371.39 235.82L371.22 235.83L371.05 235.83L370.89 235.83L370.72 235.82L370.55 235.81L370.38 235.8L370.21 235.79L370.04 235.77L369.88 235.75L369.71 235.73L369.54 235.7L369.38 235.67L369.21 235.63L369.04 235.6L368.88 235.56L368.72 235.51L368.55 235.47L368.39 235.42L368.23 235.36L368.07 235.31L367.91 235.25L367.75 235.18L367.59 235.12L367.43 235.05L367.28 234.98L367.12 234.9L366.97 234.82L366.82 234.74L366.67 234.66L366.52 234.57L366.37 234.48L366.22 234.38L366.07 234.28L365.93 234.18L365.79 234.08L365.65 233.97L365.51 233.86L365.37 233.74L365.24 233.63L365.1 233.51L364.97 233.38L364.84 233.26L364.59 232.99L364.35 232.73L364.13 232.45L363.92 232.17L363.72 231.88L363.53 231.58L363.36 231.28L363.2 230.98L363.05 230.66L362.91 230.35L362.79 230.03L362.68 229.71L362.58 229.38L362.5 229.05L362.43 228.72L362.37 228.39L362.33 228.05L362.3 227.72L362.28 227.38L362.27 227.04L362.28 226.71L362.3 226.37L362.33 226.03L362.37 225.7L362.43 225.37L362.5 225.03L362.58 224.71L362.68 224.38L362.79 224.06L362.91 223.74L363.05 223.42L363.2 223.11L363.36 222.81L363.53 222.51L363.72 222.21L363.92 221.92L364.13 221.64L364.35 221.36L364.59 221.09L364.84 220.83L430.27 155.4L430.27 155.4L435.19 150.49L434.8 150.24L434.41 149.99L434.02 149.75L433.62 149.51L433.23 149.26L432.84 149.02L432.45 148.78L432.05 148.54L431.66 148.3L431.26 148.06L430.87 147.82L430.47 147.58L430.08 147.35L429.68 147.11L429.28 146.88L428.88 146.64L428.48 146.41L428.08 146.18L427.68 145.95L427.28 145.72L426.88 145.49L426.48 145.26L426.08 145.03L425.67 144.8L425.27 144.58L424.87 144.35L424.46 144.13L424.06 143.91L423.65 143.68L423.25 143.46L422.84 143.24L422.43 143.02L422.02 142.8L421.62 142.58L421.21 142.37L420.8 142.15L420.39 141.94L419.98 141.72L419.57 141.51L419.15 141.3L419.13 141.34L419.1 141.39L419.07 141.43L419.04 141.47L419.02 141.52L418.99 141.56L418.96 141.61L418.93 141.65L418.9 141.7L418.87 141.74L418.84 141.78L418.81 141.83L418.78 141.87L418.75 141.91L418.72 141.96L418.69 142L418.66 142.04L418.62 142.08L418.59 142.13L418.56 142.17L418.53 142.21L418.49 142.25L418.46 142.3L418.43 142.34L418.39 142.38L418.36 142.42L418.32 142.46L418.29 142.5L418.25 142.54L418.22 142.59L418.18 142.63L418.15 142.67L418.11 142.71L418.07 142.75L418.04 142.79L418 142.83L417.96 142.87L417.92 142.9L417.88 142.94L417.85 142.98L352.42 208.41L352.29 208.54L352.16 208.66L352.02 208.78L351.89 208.9L351.75 209.01L351.61 209.12L351.47 209.23L351.33 209.34L351.19 209.44L351.04 209.53L350.89 209.63L350.75 209.72L350.6 209.81L350.45 209.9L350.29 209.98L350.14 210.06L349.98 210.13L349.83 210.2L349.67 210.27L349.51 210.34L349.35 210.4L349.19 210.46L349.03 210.52L348.87 210.57L348.71 210.62L348.55 210.67L348.38 210.71L348.22 210.75L348.05 210.79L347.89 210.82L347.72 210.85L347.55 210.88L347.38 210.9L347.22 210.92L347.05 210.94L346.88 210.96L346.71 210.97L346.54 210.98L346.38 210.98L346.21 210.98L346.04 210.98L345.87 210.98L345.7 210.97L345.53 210.96L345.37 210.94L345.2 210.92L345.03 210.9L344.86 210.88L344.7 210.85L344.53 210.82L344.36 210.79L344.2 210.75L344.03 210.71L343.87 210.67L343.71 210.62L343.54 210.57L343.38 210.52L343.22 210.46L343.06 210.4L342.9 210.34L342.74 210.27L342.59 210.2L342.43 210.13L342.28 210.06L342.12 209.98L341.97 209.9L341.82 209.81L341.67 209.72L341.52 209.63L341.37 209.54L341.23 209.44L341.08 209.34L340.94 209.23L340.8 209.12L340.66 209.01L340.53 208.9L340.39 208.78L340.26 208.66L340.13 208.54L340 208.41L339.74 208.15L339.51 207.88L339.28 207.6L339.07 207.32L338.87 207.03L338.68 206.74L338.51 206.44L338.35 206.13L338.2 205.82L338.07 205.5L337.94 205.18L337.83 204.86L337.74 204.54L337.65 204.21L337.58 203.88L337.53 203.54L337.48 203.21L337.45 202.87L337.43 202.54L337.42 202.2L337.43 201.86L337.45 201.52L337.48 201.19L337.53 200.85L337.58 200.52L337.65 200.19L337.74 199.86L337.83 199.53L337.94 199.21L338.07 198.89L338.2 198.58L338.35 198.27L338.51 197.96L338.68 197.66L338.87 197.36L339.07 197.08L339.28 196.79L339.51 196.52L339.74 196.25L340 195.99L402.39 133.59L402 133.43L401.6 133.27L401.2 133.11L400.8 132.95L400.41 132.79L400.01 132.64L399.61 132.48L399.21 132.33L398.81 132.17L398.41 132.02L398.01 131.86L397.61 131.71L397.21 131.56L396.8 131.41L396.4 131.26L396 131.11L395.6 130.97L395.19 130.82L394.79 130.67L394.38 130.53L393.98 130.38L393.57 130.24L393.17 130.1L392.76 129.96L392.36 129.81L391.95 129.67L391.54 129.53L391.14 129.4L390.73 129.26L390.32 129.12L389.91 128.98L389.5 128.85L389.09 128.72L388.68 128.58L388.27 128.45L387.86 128.32L387.45 128.19L387.04 128.06L386.63 127.93L386.22 127.8L384.55 126.49L384.53 126.51L384.51 126.53ZM308.09 119.22L299.78 120.06L291.56 121.24L283.45 122.73L275.45 124.54L267.57 126.66L259.82 129.07L252.2 131.78L244.72 134.78L237.39 138.06L230.21 141.61L223.19 145.42L216.34 149.5L209.66 153.83L203.16 158.41L196.85 163.23L190.73 168.28L184.81 173.56L179.1 179.06L173.6 184.77L168.32 190.69L163.27 196.81L158.45 203.12L153.87 209.62L149.54 216.3L145.46 223.16L141.64 230.17L138.09 237.35L134.82 244.69L131.82 252.16L129.11 259.78L126.69 267.54L124.58 275.41L122.77 283.41L121.28 291.52L120.1 299.74L119.25 308.06L118.74 316.47L118.57 324.96L118.58 327.01L118.61 329.05L118.66 331.09L118.73 333.13L118.82 335.16L118.93 337.18L119.06 339.2L119.2 341.22L119.37 343.23L119.56 345.23L119.76 347.23L119.99 349.22L120.23 351.2L120.5 353.19L120.78 355.16L121.08 357.13L121.4 359.09L121.74 361.05L122.09 363L122.47 364.94L122.86 366.88L123.27 368.81L123.7 370.73L124.14 372.65L124.61 374.56L125.09 376.46L125.59 378.36L126.11 380.25L126.64 382.13L127.19 384.01L127.76 385.88L128.35 387.74L128.95 389.59L129.57 391.43L130.21 393.27L130.86 395.1L131.53 396.92L132.22 398.74L132.92 400.54L133.64 402.34L161.13 374.85L160.77 373.67L160.42 372.48L160.08 371.28L159.75 370.09L159.43 368.89L159.11 367.68L158.8 366.48L158.51 365.27L158.22 364.05L157.94 362.83L157.66 361.61L157.4 360.39L157.15 359.16L156.9 357.93L156.66 356.7L156.43 355.46L156.21 354.23L156 352.98L155.8 351.74L155.61 350.49L155.43 349.24L155.25 347.99L155.09 346.73L154.93 345.47L154.78 344.21L154.65 342.94L154.52 341.67L154.4 340.4L154.29 339.13L154.19 337.86L154.1 336.58L154.01 335.3L153.94 334.01L153.88 332.73L153.83 331.44L153.78 330.15L153.75 328.85L153.73 327.56L153.71 326.26L153.71 324.96L153.85 317.91L154.27 310.93L154.98 304.03L155.95 297.21L157.19 290.48L158.69 283.85L160.45 277.31L162.45 270.88L164.7 264.56L167.19 258.35L169.91 252.27L172.85 246.31L176.02 240.48L179.41 234.8L183 229.26L186.8 223.86L190.8 218.62L194.99 213.55L199.37 208.64L203.93 203.89L208.67 199.33L213.59 194.95L218.66 190.76L223.9 186.76L229.29 182.96L234.84 179.37L240.52 175.98L246.35 172.82L252.3 169.87L258.39 167.15L264.59 164.66L270.92 162.41L277.35 160.41L283.89 158.65L290.52 157.15L297.25 155.91L304.07 154.94L310.97 154.24L317.95 153.81L325 153.67L325.13 153.67L325.26 153.66L325.4 153.66L325.55 153.66L325.7 153.65L325.86 153.64L326.02 153.63L326.18 153.62L326.35 153.61L326.53 153.6L326.71 153.59L326.89 153.58L327.08 153.56L327.27 153.55L327.47 153.53L327.66 153.51L327.87 153.49L328.08 153.47L328.29 153.46L328.5 153.44L328.72 153.42L328.94 153.39L329.16 153.37L329.39 153.35L329.62 153.33L329.85 153.31L330.08 153.28L330.32 153.26L330.56 153.24L330.8 153.21L331.04 153.19L331.29 153.17L331.54 153.14L331.79 153.12L332.04 153.09L332.29 153.07L332.54 153.05L332.8 153.02L333.05 153L333.31 152.98L364.03 122.26L363.08 122.08L362.13 121.91L361.17 121.73L360.22 121.57L359.27 121.4L358.31 121.25L357.35 121.09L356.39 120.94L355.43 120.79L354.47 120.65L353.51 120.52L352.54 120.38L351.58 120.26L350.61 120.13L349.64 120.01L348.67 119.9L347.7 119.79L346.73 119.68L345.75 119.58L344.78 119.48L343.8 119.39L342.82 119.3L341.84 119.22L340.86 119.14L339.88 119.07L338.89 119L337.91 118.94L336.92 118.88L335.94 118.82L334.95 118.77L333.96 118.73L332.97 118.68L331.98 118.65L330.98 118.62L329.99 118.59L328.99 118.57L328 118.55L327 118.54L326 118.53L325 118.53L316.5 118.7L308.09 119.22ZM302.83 172.84L297 173.8L291.25 174.98L285.57 176.37L279.98 177.97L274.48 179.77L269.07 181.78L263.76 183.97L258.55 186.36L253.44 188.94L248.45 191.7L243.57 194.63L238.81 197.74L234.17 201.02L229.66 204.46L225.29 208.06L221.05 211.82L216.95 215.73L212.99 219.78L209.19 223.98L205.54 228.31L202.05 232.78L198.73 237.38L195.57 242.11L192.58 246.95L189.77 251.91L187.14 256.98L184.69 262.16L182.44 267.45L180.38 272.83L178.51 278.3L176.85 283.87L175.4 289.52L174.16 295.25L173.13 301.05L172.32 306.93L171.74 312.88L171.39 318.89L171.27 324.96L171.28 325.88L171.28 326.8L171.3 327.71L171.32 328.62L171.34 329.54L171.37 330.45L171.41 331.36L171.45 332.27L171.49 333.17L171.54 334.08L171.6 334.98L171.66 335.89L171.73 336.79L171.8 337.69L171.88 338.59L171.96 339.49L172.04 340.38L172.14 341.28L172.23 342.17L172.34 343.06L172.45 343.95L172.56 344.84L172.68 345.72L172.8 346.61L172.93 347.49L173.06 348.37L173.2 349.25L173.34 350.13L173.49 351.01L173.64 351.88L173.8 352.76L173.96 353.63L174.13 354.5L174.3 355.37L174.48 356.23L174.66 357.1L174.85 357.96L175.04 358.82L175.24 359.68L175.44 360.54L282.97 253.01L283.56 252.41L284.13 251.8L284.68 251.19L285.22 250.56L285.75 249.92L286.26 249.27L286.76 248.61L287.24 247.94L287.71 247.26L288.16 246.58L288.6 245.88L289.02 245.18L289.43 244.47L289.82 243.75L290.2 243.02L290.56 242.28L290.9 241.54L291.23 240.79L291.55 240.04L291.84 239.28L292.12 238.51L292.39 237.73L292.64 236.95L292.87 236.17L293.09 235.38L293.29 234.59L293.47 233.79L293.64 232.98L293.79 232.18L293.92 231.37L294.03 230.55L294.13 229.73L294.21 228.91L294.28 228.09L294.32 227.26L294.35 226.44L294.36 225.61L294.35 224.78L294.33 223.94L294.29 223.11L294.05 219.23L293.98 218.02L293.95 216.81L293.94 215.6L293.95 214.4L294 213.19L294.06 212L294.15 210.8L294.27 209.61L294.41 208.42L294.58 207.24L294.77 206.06L294.99 204.89L295.23 203.72L295.5 202.56L295.79 201.41L296.1 200.26L296.44 199.13L296.8 197.99L297.19 196.87L297.59 195.76L298.03 194.65L298.48 193.55L298.96 192.47L299.46 191.39L299.98 190.32L300.53 189.26L301.1 188.22L301.69 187.19L302.3 186.16L302.94 185.15L303.6 184.16L304.27 183.17L304.98 182.2L305.7 181.25L306.44 180.3L307.2 179.38L307.99 178.46L308.8 177.57L309.62 176.68L310.47 175.82L314.7 171.59L308.73 172.1L302.83 172.84Z" id="b2tQkWyjkG"></path></defs><g><g><g><use xlink:href="#b6pyRPVDo" opacity="1" fill="#ff0871" fill-opacity="1"></use><g><use xlink:href="#b6pyRPVDo" opacity="1" fill-opacity="0" stroke="#000000" stroke-width="1" stroke-opacity="0"></use></g></g><g><use xlink:href="#a1NBj9dPPa" opacity="1" fill="#ffffff" fill-opacity="1"></use><g><use xlink:href="#a1NBj9dPPa" opacity="1" fill-opacity="0" stroke="#000000" stroke-width="1" stroke-opacity="0"></use></g></g><g><use xlink:href="#b2tQkWyjkG" opacity="1" fill="#ffffff" fill-opacity="1"></use><g><use xlink:href="#b2tQkWyjkG" opacity="1" fill-opacity="0" stroke="#000000" stroke-width="1" stroke-opacity="0"></use></g></g></g></g></svg>
