<?xml version="1.0" encoding="iso-8859-1"?>
<!-- Generator: Adobe Illustrator 19.2.1, SVG Export Plug-In . SVG Version: 6.00 Build 0)  -->
<svg version="1.1" id="Layer_1" xmlns="http://www.w3.org/2000/svg" xmlns:xlink="http://www.w3.org/1999/xlink" x="0px" y="0px"
	 viewBox="0 0 20 20" style="enable-background:new 0 0 20 20;" xml:space="preserve">
<g>
	<path style="fill:#FF0871;" d="M18.448,8.357c0,2.488-1.102,4.719-2.845,6.232L10.192,20L4.65,14.458
		c-0.63-0.573-1.17-1.242-1.598-1.984c-0.372-0.645-0.66-1.344-0.847-2.084C2.04,9.74,1.952,9.058,1.952,8.357V8.34
		c0.001-0.776,0.11-1.527,0.312-2.239c0-0.001,0.001-0.002,0.001-0.003c0.003-0.012,0.007-0.024,0.01-0.035
		c0.756-2.617,2.773-4.699,5.35-5.545c0.002,0,0.003-0.001,0.005-0.001c0.024-0.008,0.048-0.016,0.071-0.023
		c0.011-0.004,0.022-0.007,0.033-0.011c0.015-0.005,0.03-0.009,0.045-0.014c0.02-0.006,0.04-0.012,0.06-0.018
		C7.845,0.45,7.852,0.448,7.858,0.446c0.709-0.21,1.456-0.327,2.23-0.337c0.007,0,0.014,0,0.022,0c0.018,0,0.035,0,0.053-0.001
		c0.004,0,0.009,0,0.013,0c0.008,0,0.016,0,0.025,0c0.05,0,0.1,0.001,0.15,0.001c0.001,0,0.001,0,0.002,0
		C14.837,0.192,18.448,3.852,18.448,8.357z"/>
	<g>
		<path style="fill:#FFFFFF;" d="M16.573,7.289c-0.05-0.063-0.104-0.124-0.162-0.182c-0.307-0.307-0.692-0.508-1.111-0.585
			c-0.127-0.024-0.258-0.036-0.391-0.036c-0.077,0-0.153,0.004-0.228,0.012c0.532-0.438,0.842-1.127,0.764-1.862
			c-0.037-0.351-0.157-0.68-0.349-0.964c-0.117-0.173-0.259-0.329-0.426-0.464c-0.377-0.305-0.85-0.473-1.333-0.473
			c-0.075,0-0.15,0.004-0.225,0.012c-0.581,0.061-1.083,0.352-1.425,0.774v0c-0.049,0.06-0.094,0.122-0.136,0.187
			c-0.003-0.294-0.066-0.584-0.185-0.853c-0.161-0.362-0.425-0.683-0.781-0.914c-0.346-0.224-0.745-0.343-1.153-0.343
			c-0.149,0-0.298,0.016-0.445,0.047c-0.555,0.118-1.03,0.445-1.339,0.92C7.339,3.04,7.235,3.608,7.353,4.163
			c0.016,0.075,0.036,0.148,0.059,0.22C7.382,4.36,7.353,4.337,7.322,4.315c-0.364-0.26-0.791-0.397-1.236-0.397
			c-0.222,0-0.442,0.035-0.655,0.104c-0.539,0.175-0.978,0.55-1.236,1.056C4.007,5.448,3.932,5.857,3.975,6.261
			C3.99,6.408,4.021,6.554,4.068,6.698c0.141,0.435,0.413,0.805,0.785,1.07c0.15,0.107,0.31,0.193,0.478,0.257
			C5.2,8.054,5.073,8.096,4.95,8.148C4.828,8.201,4.711,8.265,4.6,8.34C4.237,8.584,3.962,8.929,3.806,9.338
			c-0.115,0.3-0.16,0.616-0.136,0.928c0.019,0.238,0.078,0.473,0.178,0.697c0.23,0.518,0.649,0.915,1.179,1.119
			c0.244,0.094,0.5,0.141,0.759,0.141c0.377,0,0.743-0.099,1.068-0.288c-0.07,0.141-0.124,0.288-0.162,0.44
			c-0.096,0.388-0.084,0.802,0.05,1.195c0.044,0.129,0.101,0.255,0.171,0.377c0.284,0.491,0.742,0.843,1.289,0.989
			c0.181,0.048,0.367,0.073,0.552,0.073c0.37,0,0.736-0.099,1.059-0.285c0.578-0.334,0.94-0.9,1.036-1.513
			c0.053,0.117,0.117,0.229,0.19,0.335c0.013,0.019,0.027,0.038,0.041,0.057c0.32,0.43,0.801,0.74,1.37,0.83
			c0.111,0.018,0.224,0.026,0.335,0.026c0.449,0,0.879-0.14,1.245-0.406c0.459-0.333,0.76-0.825,0.849-1.386
			c0.093-0.591-0.052-1.174-0.372-1.626c-0.032-0.046-0.066-0.09-0.102-0.133c-0.128-0.154-0.279-0.289-0.448-0.4
			c0.292,0.146,0.615,0.223,0.951,0.223c0.568,0,1.101-0.221,1.501-0.621c0.401-0.401,0.622-0.935,0.622-1.502
			C17.033,8.124,16.871,7.663,16.573,7.289z M14.91,7.026c0.405,0,0.811,0.154,1.12,0.463c0.062,0.062,0.118,0.128,0.168,0.198
			c0.192,0.267,0.296,0.586,0.296,0.922c0,0.423-0.165,0.821-0.464,1.12c-0.309,0.309-0.714,0.463-1.12,0.463
			c-0.405,0-0.811-0.154-1.119-0.463l-0.392-0.392l-0.769,0.769c-0.043,0.044-0.093,0.077-0.145,0.102
			c-0.108,0.06-0.228,0.089-0.349,0.089c-0.16,0-0.32-0.053-0.452-0.158c-0.021-0.017-0.041-0.035-0.061-0.055l-0.212-0.212
			l0.458-0.458c0.01-0.012,0.021-0.024,0.033-0.036L12.6,8.679l0.718-0.718l0.472-0.472C14.099,7.181,14.504,7.026,14.91,7.026z
			 M8.122,5.396L8.111,5.399L8.107,5.386c0-0.001-0.001-0.002-0.001-0.003C8.111,5.387,8.117,5.391,8.122,5.396z M13.169,3.283
			c0.056-0.006,0.112-0.009,0.168-0.009c0.361,0,0.709,0.122,0.993,0.353c0.146,0.118,0.267,0.258,0.361,0.414
			c0.118,0.196,0.193,0.417,0.217,0.651c0.091,0.868-0.541,1.649-1.409,1.74L12.949,6.49l0.114,1.081
			c0.006,0.061,0.002,0.121-0.012,0.177c-0.056,0.309-0.31,0.558-0.638,0.592l-0.108,0.011l-0.189,0.02l-0.068-0.645
			c-0.003-0.016-0.006-0.032-0.007-0.048L11.76,5.023C11.669,4.155,12.301,3.375,13.169,3.283z M13.56,6.969
			c-0.005,0.005-0.011,0.009-0.016,0.014l-0.001-0.012l0.014-0.001C13.558,6.969,13.559,6.969,13.56,6.969z M11.496,5.761
			c0.07,0.081,0.12,0.176,0.148,0.277c0.054,0.194,0.028,0.409-0.09,0.591l-0.163,0.251l-0.543-0.353
			c-0.014-0.007-0.028-0.016-0.042-0.025L8.566,5.049C8.306,4.88,8.111,4.646,7.991,4.382c-0.218-0.477-0.196-1.052,0.11-1.523
			c0.23-0.355,0.585-0.598,0.998-0.686C9.21,2.149,9.321,2.138,9.432,2.138c0.303,0,0.599,0.087,0.859,0.256
			c0.292,0.19,0.501,0.461,0.616,0.764c0.173,0.456,0.134,0.986-0.151,1.426l-0.302,0.465l0.289,0.188l0.622,0.404
			C11.418,5.674,11.461,5.715,11.496,5.761z M11.209,4.878c0.001-0.001,0.001-0.002,0.002-0.003c0,0.007,0,0.014,0,0.021
			l-0.01-0.006L11.209,4.878z M4.677,5.323c0.192-0.377,0.519-0.656,0.921-0.787C5.76,4.484,5.924,4.459,6.086,4.459
			c0.668,0,1.29,0.426,1.507,1.094L7.764,6.08l1.034-0.336c0.053-0.017,0.106-0.025,0.158-0.025c0.006,0,0.012,0,0.017,0
			c0.007,0,0.015,0,0.022,0c0.306,0,0.59,0.195,0.69,0.502l0.038,0.117l0.054,0.167l-0.616,0.2c-0.015,0.006-0.03,0.012-0.046,0.017
			l-2.54,0.825C6.414,7.6,6.25,7.625,6.088,7.625c-0.667,0-1.29-0.426-1.507-1.094C4.559,6.46,4.541,6.388,4.528,6.316
			C4.468,5.979,4.519,5.633,4.677,5.323z M6.566,8.111L6.562,8.122L6.549,8.117C6.548,8.116,6.546,8.116,6.545,8.115
			C6.552,8.114,6.559,8.112,6.566,8.111z M4.31,9.532c0.241-0.629,0.843-1.016,1.48-1.016c0.188,0,0.379,0.034,0.565,0.105
			L6.873,8.82l0.389-1.015c0.02-0.05,0.046-0.096,0.078-0.136c0.005-0.006,0.009-0.011,0.014-0.016
			c0.137-0.181,0.353-0.286,0.577-0.286c0.079,0,0.16,0.013,0.239,0.041c0.007,0.002,0.014,0.005,0.021,0.008L8.47,7.522
			L8.373,7.775L8.238,8.127C8.234,8.142,8.229,8.158,8.223,8.173l-0.957,2.493c-0.241,0.629-0.843,1.016-1.48,1.016
			c-0.188,0-0.38-0.034-0.566-0.105c-0.395-0.151-0.707-0.448-0.879-0.834c-0.059-0.133-0.099-0.271-0.12-0.411
			C4.181,10.065,4.21,9.79,4.31,9.532z M7.703,11.039l-0.012,0.007c-0.001,0.001-0.002,0.001-0.003,0.002
			c0.003-0.006,0.006-0.013,0.01-0.019L7.703,11.039z M7.961,11.514l0.433-0.25l0.047-0.027l-0.51-0.883l-0.034-0.058
			c-0.031-0.053-0.051-0.109-0.061-0.167C7.81,10.022,7.809,9.912,7.831,9.807c0.017-0.08,0.047-0.158,0.09-0.228c0,0,0,0,0,0
			c0.061-0.1,0.148-0.187,0.257-0.25l0.259-0.15L8.762,9.74C8.771,9.753,8.78,9.767,8.788,9.781l1.335,2.313
			c0.032,0.056,0.061,0.113,0.085,0.171c0.31,0.726,0.035,1.587-0.665,1.992c-0.244,0.141-0.515,0.213-0.789,0.213
			c-0.137,0-0.276-0.018-0.412-0.055c-0.408-0.109-0.75-0.371-0.961-0.738c-0.034-0.059-0.064-0.118-0.089-0.179
			C6.988,12.773,7.263,11.917,7.961,11.514z M10.686,12.002c0,0.001,0,0.003-0.001,0.004c-0.003-0.007-0.006-0.013-0.009-0.02
			l0.012,0.002L10.686,12.002z M14.116,11.481c0.202,0.315,0.294,0.703,0.231,1.101c-0.066,0.417-0.291,0.785-0.633,1.033
			c-0.273,0.199-0.596,0.303-0.927,0.303c-0.083,0-0.167-0.007-0.251-0.02c-0.391-0.062-0.725-0.263-0.962-0.544
			c-0.286-0.34-0.428-0.796-0.354-1.268l0.042-0.264l0.045-0.283l-1.074-0.17c-0.061-0.01-0.117-0.029-0.168-0.058
			c-0.092-0.044-0.173-0.106-0.238-0.181c-0.135-0.156-0.203-0.369-0.169-0.589l0.047-0.296l0.64,0.101
			c0.016,0.001,0.032,0.003,0.049,0.005l2.637,0.418C13.495,10.844,13.88,11.113,14.116,11.481z"/>
		<g>
			<path style="fill:#FFFFFF;" d="M9.297,12.782c-0.011-0.06-0.032-0.118-0.065-0.174l-0.277-0.48l-0.48,0.277
				c-0.265,0.153-0.356,0.493-0.203,0.757c0.015,0.025,0.031,0.049,0.049,0.072c0.073,0.091,0.173,0.156,0.287,0.187
				c0.048,0.013,0.096,0.019,0.144,0.019c0.096,0,0.191-0.025,0.276-0.074C9.239,13.244,9.339,13.007,9.297,12.782z M8.766,12.889
				c-0.002,0.006-0.005,0.008-0.006,0.009c-0.004,0.002-0.005,0.002-0.006,0.002c-0.001,0-0.003,0-0.005-0.001
				c-0.005-0.001-0.006-0.002-0.009-0.007c-0.001-0.002-0.003-0.005-0.001-0.011c0.002-0.006,0.005-0.008,0.006-0.009l0.012-0.007
				l0.007,0.012C8.766,12.88,8.767,12.883,8.766,12.889z"/>
			<path style="fill:#FFFFFF;" d="M5.986,9.582C5.921,9.556,5.854,9.545,5.788,9.545C5.565,9.545,5.355,9.68,5.27,9.9
				c-0.053,0.138-0.049,0.289,0.011,0.424c0.001,0.002,0.002,0.004,0.003,0.006c0.061,0.132,0.169,0.234,0.305,0.286
				c0.065,0.025,0.132,0.037,0.198,0.037c0.223,0,0.434-0.135,0.518-0.356l0.098-0.255L6.504,9.78L5.986,9.582z M5.801,10.104
				c-0.003,0.009-0.014,0.009-0.014,0.009c-0.001,0-0.002,0-0.005-0.001c-0.005-0.002-0.006-0.003-0.008-0.008
				c-0.002-0.004-0.002-0.006,0-0.011c0.003-0.009,0.014-0.009,0.014-0.009c0.001,0,0.002,0,0.005,0.001l0.013,0.005L5.801,10.104z"
				/>
			<path style="fill:#FFFFFF;" d="M15.436,8.434c-0.027-0.081-0.072-0.155-0.134-0.217c-0.108-0.108-0.25-0.162-0.392-0.162
				s-0.284,0.054-0.392,0.162l-0.392,0.392l0.308,0.308l0.084,0.084c0.108,0.108,0.25,0.162,0.392,0.162s0.284-0.054,0.392-0.162
				c0.105-0.105,0.162-0.244,0.162-0.392C15.464,8.548,15.455,8.489,15.436,8.434z M14.92,8.619
				c-0.001,0.002-0.004,0.004-0.01,0.004S14.901,8.62,14.9,8.619l-0.01-0.01l0.01-0.01c0.001-0.001,0.004-0.004,0.01-0.004
				s0.009,0.002,0.01,0.004c0.003,0.003,0.004,0.005,0.004,0.01C14.924,8.614,14.923,8.615,14.92,8.619z"/>
			<path style="fill:#FFFFFF;" d="M6.614,5.871C6.539,5.637,6.321,5.487,6.087,5.487c-0.057,0-0.114,0.009-0.171,0.027
				C5.775,5.561,5.661,5.658,5.593,5.79C5.526,5.922,5.514,6.072,5.56,6.213C5.569,6.24,5.579,6.265,5.592,6.29
				c0.094,0.19,0.289,0.306,0.496,0.306c0.057,0,0.114-0.009,0.171-0.027l0.5-0.162l0.027-0.009L6.614,5.871z M6.092,6.055
				C6.09,6.056,6.088,6.056,6.088,6.056c0,0-0.011-0.001-0.014-0.01C6.072,6.042,6.073,6.04,6.075,6.035
				C6.077,6.031,6.078,6.03,6.083,6.028c0.002-0.001,0.003-0.001,0.004-0.001c0,0,0.011,0.001,0.014,0.01l0.004,0.013L6.092,6.055z"
				/>
			<path style="fill:#FFFFFF;" d="M9.981,3.677C9.968,3.511,9.88,3.354,9.731,3.256C9.64,3.197,9.536,3.167,9.43,3.167
				c-0.039,0-0.078,0.004-0.116,0.012c-0.145,0.031-0.269,0.116-0.35,0.24C8.825,3.634,8.853,3.908,9.015,4.09
				c0.032,0.036,0.07,0.069,0.112,0.096l0.465,0.302l0.302-0.465C9.963,3.917,9.99,3.795,9.981,3.677z M9.441,3.729L9.433,3.741
				L9.421,3.733C9.419,3.732,9.416,3.73,9.415,3.724C9.414,3.718,9.416,3.715,9.417,3.714C9.419,3.71,9.421,3.708,9.426,3.708
				C9.428,3.707,9.429,3.707,9.43,3.707c0.001,0,0.003,0,0.007,0.002c0.002,0.001,0.005,0.003,0.006,0.009
				C9.444,3.725,9.442,3.727,9.441,3.729z"/>
			<path style="fill:#FFFFFF;" d="M13.314,12.175c-0.059-0.197-0.227-0.354-0.444-0.388L12.322,11.7l-0.087,0.547
				c-0.035,0.222,0.067,0.435,0.244,0.55c0.064,0.042,0.137,0.071,0.217,0.084c0.029,0.005,0.059,0.007,0.088,0.007
				c0.116,0,0.229-0.036,0.325-0.106c0.12-0.087,0.199-0.216,0.222-0.362C13.344,12.336,13.337,12.253,13.314,12.175z
				 M12.791,12.346c-0.004,0.003-0.006,0.003-0.007,0.003c-0.001,0-0.002,0-0.003,0c-0.007-0.001-0.013-0.009-0.012-0.016
				l0.002-0.014l0.014,0.002c0.007,0.001,0.013,0.009,0.012,0.016C12.796,12.341,12.795,12.343,12.791,12.346z"/>
			<path style="fill:#FFFFFF;" d="M13.886,4.8c-0.003-0.026-0.007-0.052-0.014-0.077c-0.029-0.116-0.094-0.219-0.189-0.296
				c-0.1-0.081-0.221-0.124-0.348-0.124c-0.02,0-0.039,0.001-0.059,0.003c-0.304,0.032-0.525,0.305-0.493,0.609l0.058,0.551
				l0.208-0.022l0.344-0.036C13.697,5.377,13.918,5.104,13.886,4.8z M13.346,4.867c-0.004,0.005-0.007,0.005-0.009,0.005
				l-0.014,0.001l-0.001-0.014c0-0.002-0.001-0.006,0.003-0.01c0.004-0.005,0.007-0.005,0.009-0.005h0.003
				c0.002,0,0.004,0,0.008,0.003c0.004,0.003,0.005,0.005,0.005,0.009C13.349,4.858,13.35,4.862,13.346,4.867z"/>
		</g>
	</g>
</g>
<image style="display:none;overflow:visible;" width="1400" height="8865" xlink:href="../../../../../../Users/user/Downloads/PR.png"  transform="matrix(1 0 0 1 -1589 -4156.3335)">
</image>
</svg>
