<?xml version="1.0" encoding="UTF-8" standalone="no"?>
<!DOCTYPE svg PUBLIC "-//W3C//DTD SVG 1.1//EN" "http://www.w3.org/Graphics/SVG/1.1/DTD/svg11.dtd">
<svg version="1.1" xmlns="http://www.w3.org/2000/svg" xmlns:xlink="http://www.w3.org/1999/xlink" preserveAspectRatio="xMidYMid meet" viewBox="0 0 640 640" width="512" height="512"><defs><path d="M480.64 42.92C431.6 14.3 378.07 0 320.01 0C261.95 0 208.41 14.3 159.38 42.92C110.35 71.53 71.54 110.34 42.92 159.37C14.3 208.4 0 261.95 0 320C0 378.06 14.31 431.59 42.92 480.63C71.53 529.65 110.35 568.47 159.38 597.08C208.41 625.69 261.95 640 320 640C378.06 640 431.61 625.69 480.63 597.08C529.66 568.48 568.48 529.65 597.09 480.63C625.7 431.6 640 378.05 640 320C640 261.94 625.7 208.4 597.09 159.37C568.48 110.35 529.66 71.53 480.64 42.92Z" id="dd4Kq45f"></path><path d="M470.14 265.34L470.4 265.35L470.66 265.37L470.92 265.39L471.18 265.42L471.44 265.45L471.71 265.49L471.97 265.53L472.24 265.58L472.5 265.63L472.77 265.69L473.03 265.76L473.3 265.82L473.56 265.9L473.82 265.98L474.08 266.06L474.34 266.15L474.6 266.24L474.85 266.34L475.1 266.44L475.35 266.55L475.6 266.67L475.84 266.79L476.08 266.91L476.31 267.04L476.54 267.17L476.77 267.31L476.99 267.46L477.21 267.6L477.42 267.76L477.63 267.92L477.83 268.08L478.03 268.25L478.22 268.43L478.4 268.61L478.58 268.79L478.75 268.98L478.91 269.17L479.07 269.37L479.26 269.58L479.46 269.78L479.65 269.99L479.83 270.2L480.01 270.42L480.19 270.63L480.36 270.85L480.52 271.07L480.68 271.29L480.83 271.51L480.98 271.74L481.13 271.96L481.27 272.19L481.4 272.42L481.53 272.66L481.65 272.89L481.77 273.13L481.89 273.36L482 273.6L482.1 273.84L482.2 274.08L482.29 274.32L482.38 274.57L482.46 274.81L482.54 275.06L482.61 275.3L482.68 275.55L482.75 275.8L482.8 276.05L482.86 276.29L482.91 276.54L482.95 276.79L482.99 277.05L483.02 277.3L483.05 277.55L483.07 277.8L483.09 278.05L483.1 278.31L483.11 278.56L483.11 278.81L483.11 278.83L483.11 278.92L483.11 279.03L483.11 279.21L483.11 279.32L483.1 279.42L484.55 279.75L485.98 280.15L487.39 280.61L488.78 281.14L490.15 281.74L491.5 282.4L492.83 283.11L494.13 283.89L495.41 284.73L496.66 285.63L497.89 286.58L499.09 287.59L500.26 288.65L501.4 289.76L502.51 290.92L503.59 292.14L504.64 293.4L505.65 294.71L506.63 296.06L507.57 297.46L508.48 298.91L509.35 300.39L510.18 301.91L510.97 303.48L511.73 305.08L512.44 306.72L513.1 308.39L513.73 310.1L514.31 311.84L514.85 313.61L515.34 315.41L515.78 317.24L516.17 319.1L516.52 320.98L516.81 322.88L517.05 324.82L517.24 326.77L517.38 328.74L517.46 330.73L517.49 332.74L517.45 335.6L517.32 338.46L517.11 341.33L516.81 344.2L516.43 347.06L515.96 349.93L515.41 352.78L514.76 355.62L514.03 358.45L513.21 361.26L512.3 364.04L511.31 366.8L510.22 369.53L509.04 372.23L507.77 374.89L506.41 377.51L504.96 380.09L503.42 382.62L501.78 385.1L500.05 387.53L498.23 389.9L496.31 392.21L494.3 394.46L492.19 396.63L489.99 398.74L487.69 400.77L485.3 402.73L482.8 404.6L480.21 406.39L477.53 408.09L474.74 409.69L471.85 411.2L468.87 412.62L465.78 413.93L462.6 415.13L459.31 416.23L455.92 417.21L452.43 418.08L448.84 418.82L445.14 419.45L444.22 420.52L443.28 421.59L442.33 422.64L441.36 423.69L440.38 424.72L439.38 425.75L438.37 426.77L437.35 427.77L436.3 428.77L435.25 429.75L434.18 430.73L433.09 431.69L431.99 432.65L430.87 433.59L429.74 434.52L428.59 435.45L427.42 436.36L426.24 437.26L425.04 438.15L423.83 439.03L422.6 439.89L421.35 440.75L420.09 441.59L418.81 442.42L417.51 443.25L416.2 444.05L414.87 444.85L413.52 445.64L412.16 446.41L410.78 447.17L409.38 447.92L407.96 448.65L406.53 449.38L405.08 450.09L403.61 450.79L402.12 451.47L400.62 452.15L399.09 452.81L397.55 453.45L395.99 454.09L478.39 454.09L479.14 454.1L479.89 454.15L480.62 454.22L481.34 454.32L482.05 454.45L482.74 454.61L483.43 454.79L484.1 455L484.75 455.24L485.4 455.5L486.02 455.78L486.64 456.09L487.23 456.42L487.82 456.77L488.38 457.14L488.93 457.54L489.46 457.95L489.97 458.39L490.47 458.84L490.95 459.31L491.4 459.8L491.84 460.31L492.26 460.83L492.66 461.37L493.04 461.92L493.4 462.49L493.73 463.07L494.04 463.67L494.33 464.28L494.6 464.89L494.85 465.53L495.07 466.17L495.26 466.82L495.43 467.48L495.58 468.15L495.7 468.83L495.8 469.52L495.86 470.21L495.9 470.91L495.92 471.62L495.91 472.22L495.88 472.81L495.83 473.4L495.76 473.98L495.67 474.55L495.56 475.11L495.43 475.67L495.28 476.21L495.11 476.75L494.93 477.27L494.72 477.79L494.5 478.3L494.26 478.79L493.99 479.28L493.71 479.76L493.42 480.22L493.1 480.68L492.76 481.12L492.41 481.56L492.04 481.98L491.65 482.39L491.25 482.79L490.83 483.18L490.39 483.56L489.93 483.92L489.45 484.27L488.96 484.61L488.45 484.94L487.93 485.25L487.39 485.55L486.83 485.84L486.25 486.11L485.66 486.37L485.06 486.62L484.43 486.85L483.8 487.07L483.14 487.27L482.47 487.46L481.79 487.64L481.09 487.79L480.41 487.79L388.06 494.54L387.86 494.54L387.66 494.55L387.47 494.56L387.29 494.58L387.11 494.6L386.93 494.62L386.76 494.65L386.6 494.69L386.43 494.73L386.28 494.77L386.12 494.81L385.98 494.86L385.83 494.92L385.69 494.97L385.56 495.03L385.43 495.1L385.3 495.16L385.17 495.23L385.05 495.3L384.94 495.38L384.83 495.46L384.72 495.54L384.61 495.62L384.51 495.7L384.42 495.79L384.32 495.87L384.23 495.96L384.15 496.06L384.06 496.15L383.98 496.24L383.9 496.34L383.83 496.43L383.76 496.53L383.69 496.63L383.62 496.73L383.56 496.83L383.5 496.93L383.44 497.03L383.39 497.13L383.34 497.23L383.18 497.73L383 498.22L382.81 498.7L382.59 499.17L382.37 499.63L382.12 500.08L381.86 500.52L381.59 500.94L381.3 501.36L381 501.76L380.68 502.15L380.35 502.54L380.01 502.9L379.65 503.26L379.29 503.61L378.91 503.94L378.51 504.26L378.11 504.57L377.7 504.87L377.27 505.15L376.84 505.43L376.39 505.68L375.94 505.93L375.48 506.16L375 506.38L374.52 506.59L374.04 506.78L373.54 506.96L373.04 507.13L372.53 507.28L372.02 507.42L371.5 507.54L370.97 507.65L370.44 507.75L369.9 507.83L369.36 507.9L368.81 507.95L368.27 507.99L367.71 508.01L367.16 508.02L255.25 508.02L254.7 508.01L254.15 507.99L253.6 507.95L253.05 507.9L252.51 507.83L251.97 507.75L251.44 507.65L250.91 507.54L250.38 507.42L249.86 507.28L249.34 507.13L248.83 506.96L248.33 506.78L247.83 506.59L247.34 506.38L246.85 506.16L246.37 505.93L245.9 505.68L245.43 505.43L244.97 505.15L244.52 504.87L244.08 504.57L243.64 504.26L243.22 503.94L242.8 503.61L242.39 503.26L241.99 502.91L241.6 502.54L241.21 502.15L240.84 501.76L240.48 501.36L240.13 500.94L239.79 500.52L239.46 500.08L239.14 499.63L238.84 499.17L238.54 498.7L238.26 498.22L237.98 497.73L237.73 497.23L237.67 497.13L237.62 497.03L237.57 496.93L237.52 496.83L237.47 496.73L237.41 496.63L237.36 496.53L237.3 496.43L237.24 496.34L237.18 496.24L237.11 496.15L237.05 496.06L236.98 495.96L236.9 495.88L236.83 495.79L236.74 495.7L236.66 495.62L236.57 495.54L236.48 495.46L236.38 495.38L236.27 495.3L236.16 495.23L236.05 495.16L235.93 495.1L235.8 495.03L235.67 494.97L235.53 494.92L235.39 494.86L235.23 494.81L235.07 494.77L234.9 494.73L234.73 494.69L234.54 494.65L234.35 494.62L234.15 494.6L233.94 494.58L233.72 494.56L233.49 494.55L233.25 494.54L233.01 494.54L148.07 487.79L147.32 487.64L146.58 487.46L145.87 487.27L145.17 487.07L144.5 486.85L143.84 486.62L143.19 486.37L142.57 486.11L141.96 485.84L141.38 485.55L140.81 485.25L140.26 484.94L139.73 484.61L139.21 484.27L138.72 483.92L138.24 483.56L137.78 483.18L137.34 482.79L136.92 482.39L136.52 481.98L136.14 481.56L135.78 481.12L135.43 480.68L135.11 480.22L134.8 479.76L134.51 479.28L134.25 478.79L134 478.3L133.77 477.79L133.56 477.27L133.37 476.75L133.2 476.21L133.05 475.67L132.92 475.11L132.81 474.55L132.72 473.98L132.65 473.4L132.6 472.81L132.57 472.22L132.56 471.62L132.58 470.91L132.62 470.21L132.69 469.52L132.8 468.83L132.93 468.15L133.08 467.48L133.27 466.82L133.48 466.17L133.71 465.53L133.97 464.89L134.26 464.28L134.56 463.67L134.89 463.07L135.25 462.49L135.62 461.92L136.01 461.37L136.43 460.83L136.86 460.31L137.31 459.8L137.79 459.31L138.27 458.84L138.78 458.39L139.3 457.95L139.84 457.54L140.4 457.14L140.96 456.77L141.55 456.42L142.14 456.09L142.75 455.78L143.37 455.5L144 455.24L144.64 455L145.29 454.79L145.96 454.61L146.63 454.45L147.3 454.32L147.99 454.22L148.68 454.15L149.38 454.1L150.09 454.09L233.16 454.09L227.73 451.79L222.52 449.33L217.54 446.71L212.77 443.94L208.21 441.02L203.86 437.96L199.71 434.76L195.76 431.42L192 427.95L188.43 424.36L185.04 420.64L181.83 416.81L178.8 412.86L175.94 408.8L173.24 404.63L170.7 400.37L168.32 396.01L166.09 391.55L164.01 387.01L162.07 382.38L160.27 377.67L158.6 372.89L157.06 368.04L155.64 363.12L154.34 358.14L153.16 353.1L152.08 348L151.12 342.86L150.25 337.67L149.48 332.44L148.8 327.17L148.21 321.87L147.7 316.54L147.26 311.19L146.9 305.82L146.61 300.43L146.39 295.03L146.22 289.63L146.11 284.22L146.04 278.81L146.05 278.56L146.05 278.31L146.07 278.05L146.08 277.8L146.11 277.55L146.13 277.3L146.17 277.05L146.21 276.79L146.25 276.54L146.3 276.29L146.35 276.05L146.41 275.8L146.47 275.55L146.54 275.3L146.61 275.06L146.69 274.81L146.77 274.57L146.86 274.32L146.96 274.08L147.06 273.84L147.16 273.6L147.27 273.36L147.38 273.13L147.5 272.89L147.62 272.66L147.75 272.42L147.89 272.19L148.03 271.96L148.17 271.74L148.32 271.51L148.47 271.29L148.63 271.07L148.8 270.85L148.97 270.63L149.14 270.42L149.32 270.2L149.5 269.99L149.69 269.78L149.89 269.58L150.09 269.37L150.29 269.17L150.5 268.98L150.71 268.79L150.92 268.61L151.13 268.43L151.35 268.25L151.56 268.08L151.78 267.92L152 267.76L152.23 267.6L152.45 267.46L152.68 267.31L152.91 267.17L153.14 267.04L153.37 266.91L153.61 266.79L153.84 266.67L154.08 266.55L154.32 266.44L154.55 266.34L154.8 266.24L155.04 266.15L155.28 266.06L155.53 265.98L155.77 265.9L156.02 265.82L156.26 265.76L156.51 265.69L156.76 265.63L157.01 265.58L157.26 265.53L157.51 265.49L157.76 265.45L158.01 265.42L158.26 265.39L158.52 265.37L158.77 265.35L159.02 265.34L159.27 265.33L159.53 265.33L469.63 265.33L469.88 265.33L470.14 265.34ZM149.94 467.57L149.79 467.59L149.63 467.6L149.48 467.63L149.33 467.66L149.19 467.7L149.04 467.75L148.89 467.8L148.75 467.85L148.6 467.92L148.46 467.99L148.32 468.06L148.19 468.14L148.05 468.23L147.92 468.32L147.79 468.41L147.67 468.51L147.54 468.61L147.42 468.72L147.31 468.83L147.2 468.95L147.09 469.07L146.98 469.19L146.88 469.32L146.79 469.45L146.7 469.58L146.62 469.71L146.54 469.85L146.46 469.99L146.39 470.13L146.33 470.27L146.27 470.42L146.22 470.56L146.17 470.71L146.13 470.86L146.1 471.01L146.08 471.16L146.06 471.31L146.05 471.46L146.04 471.62L146.04 471.67L146.04 471.72L146.05 471.78L146.05 471.84L146.05 471.9L146.06 471.96L146.06 472.02L146.07 472.09L146.08 472.16L146.1 472.23L146.11 472.3L146.13 472.37L146.16 472.44L146.19 472.51L146.22 472.59L146.26 472.66L146.3 472.74L146.35 472.81L146.4 472.89L146.47 472.96L146.53 473.04L146.6 473.12L146.68 473.19L146.77 473.27L146.87 473.34L146.97 473.41L147.08 473.49L147.2 473.56L147.33 473.63L147.47 473.7L147.61 473.77L147.77 473.84L147.94 473.9L148.11 473.97L148.3 474.03L148.5 474.09L148.71 474.15L148.93 474.21L149.17 474.26L149.41 474.31L234.36 481.05L234.86 481.11L235.36 481.17L235.86 481.25L236.35 481.34L236.85 481.43L237.33 481.54L237.82 481.66L238.3 481.78L238.77 481.92L239.24 482.06L239.71 482.22L240.17 482.39L240.62 482.57L241.07 482.75L241.51 482.95L241.95 483.16L242.38 483.37L242.8 483.6L243.22 483.84L243.62 484.09L244.03 484.34L244.42 484.61L244.8 484.89L245.18 485.18L245.55 485.48L245.91 485.79L246.26 486.1L246.6 486.43L246.93 486.77L247.25 487.12L247.56 487.48L247.86 487.85L248.15 488.23L248.43 488.62L248.7 489.02L248.95 489.43L249.2 489.85L249.43 490.28L249.65 490.72L249.86 491.17L249.96 491.32L250.07 491.46L250.17 491.61L250.28 491.75L250.4 491.89L250.51 492.03L250.63 492.16L250.74 492.29L250.86 492.42L250.99 492.55L251.11 492.67L251.24 492.79L251.37 492.9L251.49 493.01L251.63 493.12L251.76 493.23L251.89 493.33L252.03 493.42L252.17 493.52L252.3 493.61L252.44 493.7L252.58 493.78L252.73 493.86L252.87 493.93L253.01 494L253.16 494.07L253.3 494.13L253.45 494.19L253.6 494.24L253.75 494.29L253.9 494.34L254.05 494.38L254.2 494.42L254.35 494.45L254.5 494.47L254.65 494.5L254.8 494.51L254.95 494.53L255.1 494.53L255.25 494.54L367.83 494.54L367.99 494.53L368.14 494.53L368.29 494.51L368.44 494.5L368.59 494.47L368.74 494.45L368.89 494.42L369.04 494.38L369.19 494.34L369.34 494.29L369.49 494.24L369.64 494.19L369.78 494.13L369.93 494.07L370.07 494L370.22 493.93L370.36 493.86L370.5 493.78L370.64 493.7L370.78 493.61L370.92 493.52L371.06 493.42L371.19 493.33L371.33 493.23L371.46 493.12L371.59 493.01L371.72 492.9L371.85 492.79L371.98 492.67L372.1 492.55L372.22 492.42L372.34 492.29L372.46 492.16L372.58 492.03L372.69 491.89L372.8 491.75L372.91 491.61L373.02 491.46L373.12 491.32L373.23 491.17L373.44 490.72L373.66 490.28L373.89 489.85L374.13 489.43L374.39 489.02L374.66 488.62L374.94 488.23L375.23 487.85L375.53 487.48L375.84 487.12L376.16 486.77L376.49 486.43L376.83 486.1L377.18 485.79L377.54 485.48L377.91 485.18L378.28 484.89L378.67 484.61L379.06 484.35L379.46 484.09L379.87 483.84L380.29 483.6L380.71 483.37L381.14 483.16L381.57 482.95L382.02 482.75L382.47 482.57L382.92 482.39L383.38 482.22L383.84 482.07L384.31 481.92L384.79 481.78L385.27 481.66L385.75 481.54L386.24 481.43L386.73 481.34L387.23 481.25L387.73 481.18L388.23 481.11L388.73 481.05L480.41 474.31L480.66 474.26L480.89 474.21L481.12 474.15L481.33 474.09L481.53 474.03L481.71 473.97L481.89 473.9L482.06 473.84L482.22 473.77L482.36 473.7L482.5 473.63L482.63 473.56L482.75 473.49L482.86 473.41L482.96 473.34L483.06 473.27L483.14 473.19L483.22 473.12L483.3 473.04L483.36 472.96L483.42 472.89L483.48 472.81L483.53 472.74L483.57 472.66L483.61 472.59L483.64 472.51L483.67 472.44L483.69 472.37L483.71 472.3L483.73 472.23L483.75 472.16L483.76 472.09L483.77 472.02L483.77 471.96L483.78 471.9L483.78 471.84L483.78 471.78L483.78 471.72L483.78 471.67L483.78 471.62L483.78 471.46L483.77 471.31L483.75 471.16L483.73 471.01L483.69 470.86L483.65 470.71L483.61 470.56L483.56 470.42L483.5 470.27L483.44 470.13L483.37 469.99L483.29 469.85L483.21 469.71L483.13 469.58L483.04 469.45L482.94 469.32L482.84 469.19L482.74 469.07L482.63 468.95L482.52 468.83L482.4 468.72L482.29 468.61L482.16 468.51L482.04 468.41L481.91 468.32L481.78 468.23L481.64 468.14L481.5 468.06L481.37 467.99L481.22 467.92L481.08 467.85L480.94 467.8L480.79 467.75L480.64 467.7L480.49 467.66L480.34 467.63L480.19 467.6L480.04 467.59L479.89 467.57L479.74 467.57L150.09 467.57L149.94 467.57ZM159.61 285.62L159.78 292.4L160.04 299.14L160.39 305.83L160.85 312.47L161.43 319.05L162.13 325.56L162.97 331.99L163.95 338.34L165.08 344.59L166.37 350.75L167.83 356.81L169.48 362.75L171.31 368.57L173.33 374.26L175.57 379.82L178.02 385.24L180.69 390.51L183.6 395.63L186.75 400.58L190.15 405.36L193.81 409.96L197.74 414.38L201.95 418.6L206.45 422.63L211.24 426.44L216.34 430.05L221.76 433.43L227.5 436.58L233.57 439.5L239.98 442.17L246.74 444.6L253.87 446.76L261.36 448.66L269.23 450.29L277.49 451.64L286.15 452.7L295.21 453.47L304.68 453.93L314.58 454.09L324.48 453.93L333.95 453.47L343.01 452.7L351.66 451.64L359.92 450.29L367.79 448.66L375.29 446.76L382.41 444.6L389.18 442.17L395.59 439.5L401.66 436.58L407.4 433.43L412.81 430.05L417.91 426.44L422.71 422.63L427.21 418.6L431.42 414.38L435.35 409.96L439.01 405.36L442.41 400.58L445.56 395.63L448.47 390.51L451.14 385.24L453.59 379.82L455.82 374.26L457.85 368.57L459.68 362.75L461.32 356.81L462.78 350.75L464.08 344.59L465.21 338.34L466.19 331.99L467.02 325.56L467.73 319.05L468.3 312.47L468.76 305.83L469.12 299.14L469.37 292.4L469.54 285.62L469.63 278.81L402.22 278.81L402.22 303.08L427.16 328.02L427.26 328.12L427.36 328.23L427.45 328.33L427.54 328.43L427.63 328.53L427.72 328.63L427.8 328.74L427.89 328.84L427.97 328.94L428.04 329.05L428.12 329.15L428.19 329.26L428.26 329.36L428.33 329.47L428.39 329.58L428.45 329.68L428.51 329.79L428.57 329.91L428.62 330.02L428.67 330.13L428.72 330.24L428.77 330.36L428.81 330.48L428.86 330.6L428.9 330.72L428.93 330.84L428.97 330.96L429 331.09L429.03 331.21L429.05 331.34L429.08 331.47L429.1 331.6L429.12 331.74L429.13 331.88L429.15 332.01L429.16 332.16L429.17 332.3L429.18 332.44L429.18 332.59L429.18 332.74L429.18 386.67L429.18 386.97L429.16 387.27L429.14 387.56L429.1 387.85L429.06 388.12L429 388.4L428.94 388.67L428.87 388.93L428.79 389.18L428.7 389.43L428.6 389.68L428.49 389.91L428.37 390.14L428.25 390.37L428.11 390.58L427.97 390.79L427.82 391L427.66 391.19L427.5 391.38L427.33 391.56L427.15 391.73L426.96 391.9L426.76 392.06L426.56 392.21L426.35 392.35L426.13 392.48L425.91 392.61L425.68 392.72L425.44 392.83L425.2 392.93L424.95 393.02L424.69 393.1L424.43 393.17L424.16 393.24L423.89 393.29L423.61 393.34L423.33 393.37L423.04 393.4L422.74 393.41L422.44 393.42L368.51 393.42L368.21 393.41L367.91 393.4L367.62 393.37L367.34 393.34L367.06 393.29L366.78 393.24L366.52 393.17L366.25 393.1L366 393.02L365.75 392.93L365.5 392.83L365.27 392.72L365.04 392.61L364.81 392.48L364.6 392.35L364.39 392.21L364.18 392.06L363.99 391.9L363.8 391.73L363.62 391.56L363.45 391.38L363.28 391.19L363.12 391L362.97 390.79L362.83 390.58L362.7 390.37L362.57 390.14L362.46 389.91L362.35 389.68L362.25 389.43L362.16 389.18L362.08 388.93L362.01 388.67L361.94 388.4L361.89 388.12L361.85 387.85L361.81 387.56L361.79 387.27L361.77 386.97L361.77 386.67L361.77 332.74L361.77 332.59L361.77 332.44L361.78 332.3L361.79 332.16L361.8 332.01L361.81 331.88L361.83 331.74L361.85 331.6L361.87 331.47L361.89 331.34L361.92 331.21L361.95 331.09L361.98 330.96L362.01 330.84L362.05 330.72L362.09 330.6L362.13 330.48L362.18 330.36L362.22 330.25L362.27 330.13L362.32 330.02L362.38 329.91L362.43 329.79L362.49 329.69L362.56 329.58L362.62 329.47L362.69 329.36L362.76 329.26L362.83 329.15L362.9 329.05L362.98 328.94L363.06 328.84L363.14 328.74L363.23 328.63L363.31 328.53L363.4 328.43L363.5 328.33L363.59 328.23L363.69 328.12L363.79 328.02L388.73 303.08L388.73 278.81L159.53 278.81L159.61 285.62ZM482.89 298.94L482.76 301.62L482.61 304.31L482.45 307.02L482.28 309.74L482.08 312.47L481.87 315.22L481.64 317.98L481.38 320.75L481.11 323.52L480.8 326.3L480.48 329.09L480.13 331.88L479.74 334.68L479.33 337.48L478.89 340.28L478.42 343.08L477.92 345.87L477.38 348.67L476.81 351.46L476.2 354.25L475.55 357.03L474.86 359.8L474.13 362.56L473.36 365.32L472.55 368.06L471.69 370.79L470.79 373.51L469.84 376.21L468.84 378.9L467.79 381.57L466.7 384.22L465.55 386.86L464.35 389.47L463.09 392.06L461.78 394.63L460.41 397.17L458.98 399.69L457.49 402.18L459.98 401.28L462.39 400.31L464.72 399.27L466.97 398.16L469.14 396.98L471.24 395.74L473.26 394.44L475.2 393.08L477.08 391.66L478.88 390.19L480.6 388.67L482.26 387.1L483.85 385.48L485.36 383.81L486.81 382.11L488.19 380.36L489.5 378.58L490.75 376.76L491.93 374.9L493.05 373.02L494.11 371.11L495.1 369.18L496.03 367.22L496.91 365.24L497.72 363.25L498.47 361.23L499.17 359.21L499.8 357.17L500.39 355.12L500.91 353.07L501.38 351.02L501.8 348.96L502.17 346.9L502.48 344.85L502.75 342.81L502.96 340.77L503.13 338.74L503.24 336.72L503.31 334.72L503.33 332.74L503.32 331.33L503.27 329.93L503.19 328.55L503.08 327.17L502.94 325.81L502.76 324.46L502.56 323.13L502.33 321.82L502.07 320.52L501.79 319.24L501.47 317.98L501.13 316.74L500.77 315.52L500.37 314.32L499.96 313.14L499.52 311.99L499.05 310.86L498.56 309.76L498.05 308.68L497.52 307.63L496.97 306.61L496.39 305.62L495.8 304.65L495.18 303.72L494.55 302.82L493.89 301.95L493.22 301.11L492.53 300.31L491.83 299.54L491.11 298.8L490.37 298.11L489.61 297.45L488.85 296.83L488.06 296.25L487.27 295.71L486.46 295.21L485.64 294.75L484.81 294.34L483.96 293.97L483.11 293.64L483 296.28L482.89 298.94ZM375.25 379.93L415.7 379.93L415.7 335.44L395.47 315.22L375.25 335.44L375.25 379.93Z" id="c1VCwvthS8"></path><path d="M287.61 203.98C287.61 214.77 293 225.56 303.12 236.34C304.47 237.69 305.81 238.36 307.84 238.36C309.18 238.36 311.21 237.69 312.55 236.34C315.25 233.64 315.25 229.6 312.55 226.9C305.14 218.81 301.09 211.4 301.09 203.98C301.09 196.57 305.14 189.15 312.55 182.41C322.67 172.97 328.06 162.19 328.06 151.4C328.06 139.94 322.67 129.15 312.55 119.04C309.86 116.34 305.81 116.34 303.12 119.04C300.42 121.74 300.42 125.78 303.12 128.48C310.53 136.57 314.58 143.98 314.58 151.4C314.58 158.82 310.53 166.23 303.12 172.97C293 183.08 287.61 193.2 287.61 203.98Z" id="b2SFc4KnNH"></path><path d="M368.51 203.98C368.51 214.77 373.9 225.56 384.01 236.34C385.36 237.69 386.71 238.36 388.73 238.36C390.08 238.36 392.1 237.69 393.45 236.34C396.15 233.64 396.15 229.6 393.45 226.9C386.03 218.81 381.99 211.4 381.99 203.98C381.99 196.57 386.03 189.15 393.45 182.41C403.56 172.97 408.95 162.19 408.95 151.4C408.95 139.94 403.56 129.15 393.45 119.04C390.75 116.34 386.71 116.34 384.01 119.04C381.32 121.74 381.32 125.78 384.01 128.48C391.43 136.57 395.47 143.98 395.47 151.4C395.47 158.82 391.43 166.23 384.01 172.97C373.9 183.08 368.51 193.2 368.51 203.98Z" id="c1zl9u8ZtH"></path><path d="M220.2 203.98C220.2 214.77 225.59 225.56 235.7 236.34C237.05 237.69 238.4 238.36 240.42 238.36C241.77 238.36 243.79 237.69 245.14 236.34C247.84 233.64 247.84 229.6 245.14 226.9C237.73 218.81 233.68 211.4 233.68 203.98C233.68 196.57 237.73 189.15 245.14 182.41C255.25 172.97 260.65 162.19 260.65 151.4C260.65 139.94 255.25 129.15 245.14 119.04C242.44 116.34 238.4 116.34 235.7 119.04C233.01 121.74 233.01 125.78 235.7 128.48C243.12 136.57 247.16 143.98 247.16 151.4C247.16 158.82 243.12 166.23 235.7 172.97C225.59 183.08 220.2 193.2 220.2 203.98Z" id="b1SYanyH4l"></path><path d="M193.23 331.39C192.56 328.02 188.51 325.33 185.14 326C181.77 326.68 179.08 330.72 179.75 334.09C190.54 394.09 219.52 424.43 272.78 433.86C273.46 433.86 273.46 433.86 274.13 433.86C277.5 433.86 280.2 431.84 280.87 428.47C281.54 424.43 278.85 421.06 275.48 420.38C227.61 412.29 203.35 385.33 193.23 331.39Z" id="ad0QPujab"></path></defs><g><g><g><use xlink:href="#dd4Kq45f" opacity="1" fill="#ff0871" fill-opacity="1"></use><g><use xlink:href="#dd4Kq45f" opacity="1" fill-opacity="0" stroke="#000000" stroke-width="1" stroke-opacity="0"></use></g></g><g><use xlink:href="#c1VCwvthS8" opacity="1" fill="#ffffff" fill-opacity="1"></use><g><use xlink:href="#c1VCwvthS8" opacity="1" fill-opacity="0" stroke="#000000" stroke-width="1" stroke-opacity="0"></use></g></g><g><use xlink:href="#b2SFc4KnNH" opacity="1" fill="#ffffff" fill-opacity="1"></use><g><use xlink:href="#b2SFc4KnNH" opacity="1" fill-opacity="0" stroke="#000000" stroke-width="1" stroke-opacity="0"></use></g></g><g><use xlink:href="#c1zl9u8ZtH" opacity="1" fill="#ffffff" fill-opacity="1"></use><g><use xlink:href="#c1zl9u8ZtH" opacity="1" fill-opacity="0" stroke="#000000" stroke-width="1" stroke-opacity="0"></use></g></g><g><use xlink:href="#b1SYanyH4l" opacity="1" fill="#ffffff" fill-opacity="1"></use><g><use xlink:href="#b1SYanyH4l" opacity="1" fill-opacity="0" stroke="#000000" stroke-width="1" stroke-opacity="0"></use></g></g><g><use xlink:href="#ad0QPujab" opacity="1" fill="#ffffff" fill-opacity="1"></use><g><use xlink:href="#ad0QPujab" opacity="1" fill-opacity="0" stroke="#000000" stroke-width="1" stroke-opacity="0"></use></g></g></g></g></svg>
