<?xml version="1.0" encoding="iso-8859-1"?>
<!-- Generator: Adobe Illustrator 19.0.0, SVG Export Plug-In . SVG Version: 6.00 Build 0)  -->
<svg version="1.1" id="Capa_1" xmlns="http://www.w3.org/2000/svg" xmlns:xlink="http://www.w3.org/1999/xlink" x="0px" y="0px"
	 viewBox="0 0 512 512" style="enable-background:new 0 0 512 512;" xml:space="preserve">
<path style="fill:#4482C3;" d="M73.143,54.857c0,20.197-16.375,36.571-36.571,36.571S0,75.054,0,54.857v402.286h512V54.857
	c0,20.197-16.375,36.571-36.571,36.571s-36.571-16.375-36.571-36.571c0,20.197-16.375,36.571-36.571,36.571
	s-36.571-16.375-36.571-36.571c0,20.197-16.375,36.571-36.571,36.571c-20.197,0-36.571-16.375-36.571-36.571
	c0,20.197-16.375,36.571-36.571,36.571c-20.197,0-36.571-16.375-36.571-36.571c0,20.197-16.375,36.571-36.571,36.571
	S146.29,75.053,146.29,54.857c0,20.197-16.375,36.571-36.571,36.571S73.143,75.054,73.143,54.857"/>
<polygon style="fill:#285680;" points="342.723,325.356 278.074,260.707 394.444,144.336 459.093,208.986 "/>
<g>
	<path style="fill:#183D59;" d="M472.018,231.063c-2.341,0-4.681-0.896-6.464-2.679l-90.505-90.505
		c-3.575-3.575-3.575-9.362,0-12.928c3.566-3.575,9.353-3.575,12.928,0l90.505,90.505c3.575,3.575,3.575,9.353,0,12.928
		C476.699,230.167,474.359,231.063,472.018,231.063"/>
	<path style="fill:#183D59;" d="M433.232,269.848c-2.341,0-4.681-0.896-6.464-2.679l-90.505-90.505
		c-3.575-3.575-3.575-9.362,0-12.928c3.566-3.575,9.353-3.575,12.928,0l90.505,90.505c3.575,3.575,3.575,9.353,0,12.928
		C437.914,268.952,435.573,269.848,433.232,269.848"/>
	<path style="fill:#183D59;" d="M394.447,308.643c-2.341,0-4.681-0.896-6.464-2.679l-90.514-90.514
		c-3.575-3.575-3.575-9.362,0-12.928c3.566-3.575,9.353-3.575,12.928,0l90.514,90.514c3.575,3.575,3.575,9.353,0,12.928
		C399.128,307.747,396.787,308.643,394.447,308.643"/>
	<path style="fill:#183D59;" d="M355.652,347.429c-2.341,0-4.681-0.896-6.464-2.679l-90.505-90.505
		c-3.575-3.575-3.575-9.362,0-12.928c3.566-3.575,9.353-3.575,12.928,0l90.505,90.505c3.575,3.575,3.575,9.353,0,12.928
		C360.333,346.533,357.992,347.429,355.652,347.429"/>
</g>
<polygon style="fill:#285680;" points="175.014,398.499 239.664,333.85 123.293,217.479 58.644,282.128 "/>
<g>
	<path style="fill:#183D59;" d="M45.714,304.206c-2.341,0-4.681-0.896-6.464-2.679c-3.575-3.575-3.575-9.353,0-12.928l90.505-90.505
		c3.575-3.575,9.362-3.575,12.928,0c3.575,3.566,3.575,9.353,0,12.928l-90.505,90.505C50.395,303.31,48.055,304.206,45.714,304.206"
		/>
	<path style="fill:#183D59;" d="M84.5,342.991c-2.341,0-4.681-0.896-6.464-2.679c-3.575-3.575-3.575-9.353,0-12.928l90.514-90.505
		c3.575-3.575,9.362-3.575,12.928,0c3.575,3.566,3.575,9.353,0,12.928l-90.514,90.505C89.181,342.095,86.841,342.991,84.5,342.991"
		/>
	<path style="fill:#183D59;" d="M123.295,381.786c-2.341,0-4.681-0.896-6.464-2.679c-3.575-3.575-3.575-9.353,0-12.928
		l90.505-90.514c3.575-3.575,9.362-3.575,12.928,0c3.575,3.566,3.575,9.353,0,12.928l-90.505,90.514
		C127.976,380.89,125.636,381.786,123.295,381.786"/>
	<path style="fill:#183D59;" d="M162.08,420.571c-2.341,0-4.681-0.896-6.464-2.679c-3.575-3.575-3.575-9.353,0-12.928l90.505-90.505
		c3.575-3.575,9.362-3.575,12.928,0c3.575,3.566,3.575,9.353,0,12.928l-90.505,90.505
		C166.761,419.675,164.421,420.571,162.08,420.571"/>
</g>
<g>
</g>
<g>
</g>
<g>
</g>
<g>
</g>
<g>
</g>
<g>
</g>
<g>
</g>
<g>
</g>
<g>
</g>
<g>
</g>
<g>
</g>
<g>
</g>
<g>
</g>
<g>
</g>
<g>
</g>
</svg>
