<?xml version="1.0" encoding="iso-8859-1"?>
<!-- Generator: Adobe Illustrator 19.0.0, SVG Export Plug-In . SVG Version: 6.00 Build 0)  -->
<svg version="1.1" id="Capa_1" xmlns="http://www.w3.org/2000/svg" xmlns:xlink="http://www.w3.org/1999/xlink" x="0px" y="0px"
	 viewBox="0 0 512 512" style="enable-background:new 0 0 512 512;" xml:space="preserve">
<path style="fill:#455A64;" d="M496,160H240c-8.832,0-16,4.768-16,10.656s0,36.768,0,42.656c0,5.92,7.168,10.688,16,10.688h256
	c8.832,0,16-4.768,16-10.656v-42.688C512,164.768,504.832,160,496,160z"/>
<path style="fill:#607D8B;" d="M240,64H80c-8.832,0-16,9.216-16,20.576v214.848C64,310.784,71.168,320,80,320s151.168,0,160,0
	s16-9.216,16-20.576V84.576C256,73.216,248.832,64,240,64z"/>
<path style="fill:#FFC107;" d="M304,384H16c-8.832,0-16,7.168-16,16v64c0,8.832,7.168,16,16,16h288c8.832,0,16-7.168,16-16v-64
	C320,391.168,312.832,384,304,384z"/>
<g>
	<path style="fill:#455A64;" d="M272,288H48c-8.832,0-16,7.168-16,16v32c0,8.832,7.168,16,16,16h224c8.832,0,16-7.168,16-16v-32
		C288,295.168,280.832,288,272,288z"/>
	<path style="fill:#455A64;" d="M272,32H48c-8.832,0-16,7.168-16,16v32c0,8.832,7.168,16,16,16h224c8.832,0,16-7.168,16-16V48
		C288,39.168,280.832,32,272,32z"/>
</g>
<g>
</g>
<g>
</g>
<g>
</g>
<g>
</g>
<g>
</g>
<g>
</g>
<g>
</g>
<g>
</g>
<g>
</g>
<g>
</g>
<g>
</g>
<g>
</g>
<g>
</g>
<g>
</g>
<g>
</g>
</svg>
