<?xml version="1.0" encoding="iso-8859-1"?>
<!-- Generator: Adobe Illustrator 19.0.0, SVG Export Plug-In . SVG Version: 6.00 Build 0)  -->
<svg version="1.1" id="Capa_1" xmlns="http://www.w3.org/2000/svg" xmlns:xlink="http://www.w3.org/1999/xlink" x="0px" y="0px"
	 viewBox="0 0 468.293 468.293" style="enable-background:new 0 0 468.293 468.293;" xml:space="preserve">
<path style="fill:#EBF0F3;" d="M0,127.844v266.563c0,33.737,94.811,61.085,211.766,61.085s211.766-27.348,211.766-61.085V127.844H0z
	"/>
<ellipse style="fill:#D5D6DB;" cx="211.768" cy="127.844" rx="211.768" ry="61.084"/>
<path style="fill:#64798A;" d="M210.254,269.407c-28.937,0-52.395,23.458-52.395,52.397v131.908l53.907,1.78l50.884-1.78V321.803
	C262.65,292.865,239.192,269.407,210.254,269.407z"/>
<polygon style="fill:#E56353;" points="356.735,21.62 356.735,98.345 468.293,49.841 "/>
<path style="fill:#64798A;" d="M363.787,170.37V19.856c0-3.9-3.156-7.055-7.055-7.055c-3.893,0-7.048,3.156-7.048,7.055V174.2"/>
<polygon style="fill:#44C4A1;" points="206.446,41.658 206.446,118.384 318.003,69.879 "/>
<path style="fill:#64798A;" d="M213.498,188.929V39.894c0-3.9-3.156-7.055-7.055-7.055c-3.893,0-7.048,3.156-7.048,7.055v149.035"/>
<polygon style="fill:#E56353;" points="61.974,21.62 61.974,98.345 173.532,49.841 "/>
<path style="fill:#64798A;" d="M69.026,172.79V19.856c0-3.9-3.156-7.055-7.055-7.055c-3.893,0-7.048,3.156-7.048,7.055v149.035"/>
<g>
</g>
<g>
</g>
<g>
</g>
<g>
</g>
<g>
</g>
<g>
</g>
<g>
</g>
<g>
</g>
<g>
</g>
<g>
</g>
<g>
</g>
<g>
</g>
<g>
</g>
<g>
</g>
<g>
</g>
</svg>
