<?xml version="1.0" encoding="iso-8859-1"?>
<!-- Generator: Adobe Illustrator 19.0.0, SVG Export Plug-In . SVG Version: 6.00 Build 0)  -->
<svg version="1.1" id="Capa_1" xmlns="http://www.w3.org/2000/svg" xmlns:xlink="http://www.w3.org/1999/xlink" x="0px" y="0px"
	 viewBox="0 0 512 512" style="enable-background:new 0 0 512 512;" xml:space="preserve">
<g>
	<path style="fill:#E4C05C;" d="M124.292,334.453C53.353,325.853,0.001,265.642,0,194.183
		c-0.011-37.225,16.084-72.634,44.137-97.103c25.307-23.962,59.482-44.138,97.105-44.138c33.689-0.054,66.274,12.009,91.807,33.986
		l-3.531,133.738L124.292,334.453z"/>
	<g>
		<path style="fill:#E6E7E8;" d="M203.741,160.55c-17.088-18.044-43.325-24.093-66.589-15.351s-39.024,30.572-40.001,55.405
			c-0.976,24.833,13.022,47.833,35.527,58.374L203.741,160.55z"/>
		<path style="fill:#E6E7E8;" d="M152.011,53.383c-12.641,26.361-30.13,50.109-51.553,70.003
			c-27.584,27.186-62.029,46.376-99.663,55.526c7.793-71.686,68.338-125.99,140.446-125.97
			C144.86,52.942,148.481,53.118,152.011,53.383z"/>
	</g>
	<path style="fill:#2C3E50;" d="M155.276,220.313c-0.605,0-1.209-0.062-1.802-0.185c-12.15-2.512-20.928-13.122-21.121-25.528
		c-0.193-12.406,8.252-23.283,20.318-26.171c12.066-2.888,24.521,2.986,29.966,14.134c1.467,3.018,1.093,6.608-0.965,9.259
		L162.25,216.89C160.581,219.049,158.005,220.313,155.276,220.313L155.276,220.313z M158.897,185.355
		c-3.574,0.002-6.794,2.157-8.158,5.46c-1.365,3.303-0.604,7.103,1.926,9.626l10.724-13.836
		C162.032,185.79,160.479,185.358,158.897,185.355L158.897,185.355z"/>
	<path style="fill:#D75E72;" d="M220.778,149.515c-0.088-1.324-0.088-2.56-0.088-3.884c0.024-62.155,39.488-117.447,98.26-137.672
		s123.904-0.926,162.171,48.053s41.238,116.844,7.397,168.979L220.778,149.515z"/>
	<path style="fill:#E6E7E8;" d="M451.531,176.969c17.273-17.636,21.332-44.342,10.08-66.314
		c-11.252-21.972-35.294-34.287-59.7-30.579c-24.406,3.708-43.706,22.607-47.925,46.93L451.531,176.969z"/>
	<g>
		<path style="fill:#2C3E50;" d="M413.095,154.894c-3.705-0.004-7.367-0.787-10.75-2.297c-2.883-1.281-4.863-4.003-5.195-7.14
			c-0.332-3.137,1.035-6.213,3.586-8.069c2.551-1.856,5.898-2.21,8.781-0.929c3.62,1.608,7.867,0.607,10.388-2.448
			s2.697-7.415,0.432-10.664s-6.418-4.59-10.156-3.28c-4.595,1.603-9.62-0.815-11.235-5.405c-1.616-4.59,0.788-9.622,5.373-11.25
			c9.938-3.478,20.991-0.738,28.156,6.977c7.164,7.715,9.078,18.942,4.874,28.595C433.146,148.636,423.624,154.883,413.095,154.894
			L413.095,154.894z"/>
		<circle style="fill:#2C3E50;" cx="317.793" cy="317.769" r="194.207"/>
	</g>
	<circle style="fill:#E6E7E8;" cx="353.103" cy="273.631" r="79.448"/>
	<path style="fill:#2C3E50;" d="M385.931,244.786c-6.016-13.058-21.365-18.913-34.549-13.18s-19.369,20.953-13.92,34.258
		c-12.645,6.661-17.724,22.154-11.475,35.008c6.249,12.854,21.57,18.43,34.619,12.6c13.049-5.83,19.117-20.963,13.711-34.194
		C386.797,272.744,391.918,257.539,385.931,244.786L385.931,244.786z M353.629,252.963c1.668-4.579,6.732-6.939,11.311-5.272
		c4.579,1.667,6.94,6.731,5.274,11.31c-1.666,4.58-6.729,6.942-11.309,5.276C354.331,262.603,351.972,257.544,353.629,252.963z
		 M358.147,292.179c-1.364,3.758-5.083,6.13-9.065,5.783c-3.982-0.347-7.235-3.327-7.929-7.263s1.344-7.849,4.968-9.536
		c1.165-0.549,2.437-0.833,3.724-0.832c2.881,0,5.581,1.405,7.234,3.765C358.732,286.454,359.13,289.471,358.147,292.179
		L358.147,292.179z"/>
</g>
<g>
</g>
<g>
</g>
<g>
</g>
<g>
</g>
<g>
</g>
<g>
</g>
<g>
</g>
<g>
</g>
<g>
</g>
<g>
</g>
<g>
</g>
<g>
</g>
<g>
</g>
<g>
</g>
<g>
</g>
</svg>
