<?xml version="1.0" encoding="iso-8859-1"?>
<!-- Generator: Adobe Illustrator 19.0.0, SVG Export Plug-In . SVG Version: 6.00 Build 0)  -->
<svg version="1.1" id="Capa_1" xmlns="http://www.w3.org/2000/svg" xmlns:xlink="http://www.w3.org/1999/xlink" x="0px" y="0px"
	 viewBox="0 0 512.001 512.001" style="enable-background:new 0 0 512.001 512.001;" xml:space="preserve">
<path style="fill:#F9EAB0;" d="M462.757,123.963c5.922-9.742,6.738-21.755,2.189-32.208c-4.55-10.453-13.897-18.043-25.062-20.348
	c0.943-3.119,1.445-6.355,1.492-9.613c0.02-15.4-9.955-29.031-24.639-33.671c-14.684-4.64-30.681,0.784-39.514,13.398
	c-9.879-11.329-24.871-16.811-39.728-14.528s-27.511,12.013-33.533,25.786c-7.903-14.017-24.482-20.664-39.879-15.989
	c-3.266-19.779-19.503-34.842-39.471-36.616s-38.607,10.19-45.309,29.083c-12.774-6.416-28.332-1.349-34.877,11.36
	c-10.619-20.069-34.798-28.719-55.738-19.939S56.97,52.765,63.84,74.406c-8.861,4.279-15.502,12.103-18.284,21.542
	s-1.445,19.614,3.68,28.015c-17.917,1.845-31.549,16.923-31.584,34.935l-2.217,8.828l480.34,0.218l-1.433-9.045
	C494.306,140.886,480.674,125.808,462.757,123.963z"/>
<path style="fill:#D75E72;" d="M411.451,512.001H100.517c-17.408-0.125-32.157-12.852-34.83-30.053L17.652,188.323h476.69
	l-48.06,293.628C443.606,499.151,428.857,511.876,411.451,512.001z"/>
<g>
	<path style="fill:#F3D55B;" d="M8.828,158.898h494.345c4.875,0,8.828,3.952,8.828,8.828v17.655c0,4.875-3.952,8.828-8.828,8.828
		H8.828c-4.875,0-8.828-3.952-8.828-8.828v-17.655C0.001,162.85,3.953,158.898,8.828,158.898z"/>
	<path style="fill:#F3D55B;" d="M370.742,344.277c0.016,2.981-0.37,5.95-1.148,8.828c-7.945,29.926-55.79,52.966-113.611,52.966
		s-105.666-23.04-113.611-52.966c-1.53-5.786-1.53-11.87,0-17.655c7.945-29.926,55.79-52.966,113.611-52.966
		s105.666,23.04,113.611,52.966C370.371,338.327,370.757,341.296,370.742,344.277L370.742,344.277z"/>
</g>
<g>
	<path style="fill:#ECF0F1;" d="M141.238,344.277c0-23.832,25.093-44.476,61.793-54.785v-95.284h-97.103v317.793h97.103V399.062
		C166.331,388.753,141.238,368.108,141.238,344.277z"/>
	<path style="fill:#ECF0F1;" d="M308.962,194.208v95.284c36.7,10.309,61.793,30.953,61.793,54.785s-25.093,44.476-61.793,54.785
		v112.939h97.103V194.208H308.962z"/>
</g>
<g>
	<path style="fill:#F5EFCA;" d="M256.001,379.587c-19.501,0-35.31-15.809-35.31-35.31s15.809-35.31,35.31-35.31
		c4.875,0,8.828,3.952,8.828,8.828c0,4.875-3.952,8.828-8.828,8.828c-7.141,0-13.579,4.302-16.311,10.899
		c-2.733,6.597-1.222,14.191,3.827,19.24c5.049,5.049,12.643,6.56,19.24,3.827c6.597-2.733,10.899-9.17,10.899-16.311
		c0-4.875,3.952-8.828,8.828-8.828s8.828,3.952,8.828,8.828C291.291,363.77,275.494,379.568,256.001,379.587L256.001,379.587z"/>
	<path style="fill:#F5EFCA;" d="M194.19,344.277c-0.015,4.869-3.958,8.813-8.828,8.828h-42.99c-1.53-5.786-1.53-11.87,0-17.655
		h42.99C190.232,335.464,194.175,339.408,194.19,344.277L194.19,344.277z"/>
	<path style="fill:#F5EFCA;" d="M370.742,344.277c0.016,2.981-0.37,5.95-1.148,8.828h-42.99c-4.875,0-8.828-3.952-8.828-8.828
		s3.952-8.828,8.828-8.828h42.99C370.371,338.327,370.757,341.296,370.742,344.277L370.742,344.277z"/>
</g>
<g>
	<path style="fill:#E4C05C;" d="M238.345,97.105c-14.626,0-26.483-11.857-26.483-26.483s11.857-26.483,26.483-26.483
		c4.875,0,8.828,3.952,8.828,8.828s-3.952,8.828-8.828,8.828s-8.828,3.952-8.828,8.828s3.952,8.828,8.828,8.828
		s8.828-3.952,8.828-8.828s3.952-8.828,8.828-8.828c4.875,0,8.828,3.952,8.828,8.828C264.812,85.241,252.965,97.089,238.345,97.105
		L238.345,97.105z"/>
	<path style="fill:#E4C05C;" d="M370.759,123.587c-14.626,0-26.483-11.857-26.483-26.483s11.857-26.483,26.483-26.483
		c4.875,0,8.828,3.952,8.828,8.828s-3.952,8.828-8.828,8.828s-8.828,3.952-8.828,8.828s3.952,8.828,8.828,8.828
		s8.828-3.952,8.828-8.828s3.952-8.828,8.828-8.828s8.828,3.952,8.828,8.828C397.226,111.724,385.379,123.571,370.759,123.587
		L370.759,123.587z"/>
	<path style="fill:#E4C05C;" d="M123.587,132.415c-14.626,0-26.483-11.857-26.483-26.483s11.857-26.483,26.483-26.483
		c4.875,0,8.828,3.952,8.828,8.828c0,4.875-3.952,8.828-8.828,8.828c-4.875,0-8.828,3.952-8.828,8.828s3.952,8.828,8.828,8.828
		c4.875,0,8.828-3.952,8.828-8.828s3.952-8.828,8.828-8.828c4.875,0,8.828,3.952,8.828,8.828
		C150.054,120.552,138.206,132.399,123.587,132.415L123.587,132.415z"/>
	<path style="fill:#E4C05C;" d="M291.311,123.587c-3.57-0.001-6.788-2.152-8.154-5.45s-0.611-7.094,1.913-9.619l8.828-8.828
		c3.456-3.394,9.001-3.369,12.426,0.056s3.45,8.97,0.056,12.426L297.552,121C295.899,122.659,293.653,123.59,291.311,123.587z"/>
	<path style="fill:#E4C05C;" d="M185.38,114.76c-2.342,0.003-4.588-0.928-6.241-2.586l-8.828-8.828
		c-3.394-3.456-3.369-9.001,0.056-12.426s8.97-3.45,12.426-0.056l8.828,8.828c2.524,2.525,3.279,6.321,1.913,9.619
		C192.168,112.608,188.95,114.759,185.38,114.76z"/>
</g>
<g>
</g>
<g>
</g>
<g>
</g>
<g>
</g>
<g>
</g>
<g>
</g>
<g>
</g>
<g>
</g>
<g>
</g>
<g>
</g>
<g>
</g>
<g>
</g>
<g>
</g>
<g>
</g>
<g>
</g>
</svg>
