<?xml version="1.0" encoding="iso-8859-1"?>
<!-- Generator: Adobe Illustrator 19.0.0, SVG Export Plug-In . SVG Version: 6.00 Build 0)  -->
<svg version="1.1" id="Layer_1" xmlns="http://www.w3.org/2000/svg" xmlns:xlink="http://www.w3.org/1999/xlink" x="0px" y="0px"
	 viewBox="0 0 410.61 410.61" style="enable-background:new 0 0 410.61 410.61;" xml:space="preserve">
<g>
	<path style="fill:#DDB74B;" d="M358.12,56.665v32.02H52.49v-32.02c0-11.23,9.14-20.36,20.36-20.36h264.91
		C348.99,36.305,358.12,45.435,358.12,56.665z"/>
	<rect x="52.49" y="88.685" style="fill:#76CDCE;" width="305.63" height="148.31"/>
	<path style="fill:#05A4C9;" d="M30.49,114.495v75.5H10.649C4.768,189.995,0,185.227,0,179.346v-54.202
		c0-5.881,4.768-10.649,10.649-10.649C10.649,114.495,30.49,114.495,30.49,114.495z"/>
	<path style="fill:#05A4C9;" d="M410.61,125.144v54.202c0,5.881-4.768,10.649-10.649,10.649H380.12v-75.5h19.841
		C405.842,114.495,410.61,119.263,410.61,125.144z"/>
	<rect x="329.12" y="261.175" style="fill:#F7CF52;" width="29" height="28.5"/>
	<rect x="52.49" y="261.175" style="fill:#F7CF52;" width="29" height="28.5"/>
	<path style="fill:#FFFFFF;" d="M329.12,261.175v28.5H268.4c0-7.87,3.19-15,8.35-20.15c5.16-5.16,12.28-8.35,20.15-8.35H329.12z"/>
	<path style="fill:#FFFFFF;" d="M142.22,289.675H81.49v-28.5h32.23C129.46,261.175,142.22,273.935,142.22,289.675z"/>
	<path style="fill:#4D4D4D;" d="M264.48,350.035v4.53c0,11-8.92,19.92-19.92,19.92h-64.8c-11.01,0-19.92-8.92-19.92-19.92v-4.53
		H264.48z"/>
	<path style="fill:#666666;" d="M365.7,350.035v37.37c0,4.92-3.99,8.9-8.9,8.9h-34.1c-4.92,0-8.9-3.98-8.9-8.9v-37.37H365.7z"/>
	<path style="fill:#666666;" d="M96.81,350.035v37.37c0,4.92-3.98,8.9-8.89,8.9h-34.1c-4.92,0-8.9-3.98-8.9-8.9v-37.37H96.81z"/>
	<path style="fill:#CCCCCC;" d="M395.977,334.105L395.977,334.105c0,8.798-7.132,15.93-15.93,15.93h-56.406h-53.794H155.716H86.969
		H30.563c-8.798,0-15.93-7.132-15.93-15.93l0,0c0-8.798,7.132-15.93,15.93-15.93h349.483
		C388.845,318.175,395.977,325.307,395.977,334.105z"/>
	<path style="fill:#008DB3;" d="M380.12,189.995v128.18H30.49v-128.18v-75.5v-57.83c0-23.39,18.97-42.36,42.36-42.36h264.91
		c23.4,0,42.36,18.97,42.36,42.36v57.83V189.995z M358.12,289.675v-28.5h-29H296.9c-7.87,0-14.99,3.19-20.15,8.35
		c-5.16,5.15-8.35,12.28-8.35,20.15h60.72H358.12z M358.12,236.995V88.685v-32.02c0-11.23-9.13-20.36-20.36-20.36H72.85
		c-11.22,0-20.36,9.13-20.36,20.36v32.02v148.31H358.12z M81.49,289.675h60.73c0-15.74-12.76-28.5-28.5-28.5H81.49h-29v28.5H81.49z"
		/>
	<polygon style="fill:#96E0DE;" points="358.12,88.685 358.12,236.995 280.66,236.995 132.36,88.685 	"/>
	<path style="fill:#F7CF52;" d="M358.12,56.665v32.02H132.36l-52.38-52.38h257.78C348.99,36.305,358.12,45.435,358.12,56.665z"/>
</g>
<g>
</g>
<g>
</g>
<g>
</g>
<g>
</g>
<g>
</g>
<g>
</g>
<g>
</g>
<g>
</g>
<g>
</g>
<g>
</g>
<g>
</g>
<g>
</g>
<g>
</g>
<g>
</g>
<g>
</g>
</svg>
