<?xml version="1.0" encoding="iso-8859-1"?>
<!-- Generator: Adobe Illustrator 19.0.0, SVG Export Plug-In . SVG Version: 6.00 Build 0)  -->
<svg version="1.1" id="Capa_1" xmlns="http://www.w3.org/2000/svg" xmlns:xlink="http://www.w3.org/1999/xlink" x="0px" y="0px"
	 viewBox="0 0 512 512" style="enable-background:new 0 0 512 512;" xml:space="preserve">
<polygon style="fill:#664B34;" points="482,211 482,286 455.6,321.7 72.299,321.7 30,286 30,211 "/>
<polygon style="fill:#59422D;" points="455.6,321.7 256,321.7 256,211 482,211 482,286 "/>
<path style="fill:#FD3018;" d="M30,286v75h452v-75H30z"/>
<rect x="256" y="286" style="fill:#E61E14;" width="226" height="75"/>
<path style="fill:#6ECD24;" d="M189.699,211L316,337.301L442.301,211H189.699z"/>
<polygon style="fill:#66BD21;" points="442.301,211 316,337.301 256,277.301 256,211 "/>
<path style="fill:#FCBF29;" d="M0,331v15c0,57.9,47.1,105,105,105h302c57.9,0,105-47.1,105-105v-15H0z"/>
<path style="fill:#FEA832;" d="M512,331v15c0,57.9-47.1,105-105,105H256V331H512z"/>
<path style="fill:#FCBF29;" d="M347,61H165C74.099,61,0,135.099,0,226v15h512v-15C512,135.099,437.901,61,347,61z"/>
<path style="fill:#FEA832;" d="M512,226v15H256V61h91C437.901,61,512,135.099,512,226z"/>
<rect x="120" y="121" style="fill:#BF6015;" width="30" height="30"/>
<rect x="362" y="121" style="fill:#994C10;" width="30" height="30"/>
<rect x="241" y="121" style="fill:#BF6015;" width="30" height="30"/>
<rect x="301" y="151" style="fill:#994C10;" width="30" height="30"/>
<rect x="181" y="151" style="fill:#BF6015;" width="30" height="30"/>
<rect x="256" y="121" style="fill:#994C10;" width="15" height="30"/>
<g>
</g>
<g>
</g>
<g>
</g>
<g>
</g>
<g>
</g>
<g>
</g>
<g>
</g>
<g>
</g>
<g>
</g>
<g>
</g>
<g>
</g>
<g>
</g>
<g>
</g>
<g>
</g>
<g>
</g>
</svg>
