<?xml version="1.0" encoding="iso-8859-1"?>
<!-- Generator: Adobe Illustrator 19.0.0, SVG Export Plug-In . SVG Version: 6.00 Build 0)  -->
<svg version="1.1" id="Capa_1" xmlns="http://www.w3.org/2000/svg" xmlns:xlink="http://www.w3.org/1999/xlink" x="0px" y="0px"
	 viewBox="0 0 512 512" style="enable-background:new 0 0 512 512;" xml:space="preserve">
<rect x="183.518" y="82.833" style="fill:#47443B;" width="15.716" height="72.176"/>
<path style="fill:#FEE9B8;" d="M440.393,70.969c-4.34,0-7.858-3.518-7.858-7.858V9.095c0-4.34,3.518-7.858,7.858-7.858
	c4.34,0,7.858,3.518,7.858,7.858v54.016C448.251,67.451,444.732,70.969,440.393,70.969z"/>
<path style="fill:#E0C692;" d="M440.925,63.111V9.095c0-2.795,1.464-5.244,3.663-6.636c-1.214-0.769-2.651-1.222-4.195-1.222
	c-4.34,0-7.858,3.518-7.858,7.858v54.016c0,4.34,3.518,7.858,7.858,7.858c1.544,0,2.981-0.452,4.195-1.222
	C442.39,68.355,440.925,65.907,440.925,63.111z"/>
<polyline style="fill:#FEE9B8;" points="400.528,154.749 400.528,95.658 440.394,39.083 480.258,95.658 480.258,154.749 
	480.258,187.774 480.258,484.214 400.528,484.214 400.528,187.774 "/>
<polygon style="fill:#E0C692;" points="440.394,39.08 425.914,95.657 425.914,478.975 400.528,478.975 400.528,95.657 "/>
<path style="fill:#FEE9B8;" d="M322.756,297.594H59.996l-32.211,31.919c-4.931,4.886-7.704,11.54-7.704,18.481V512h39.916h262.76
	h39.916V347.993c0-6.941-2.773-13.595-7.704-18.481L322.756,297.594z"/>
<path style="fill:#E0C692;" d="M111.828,297.595l-24.171,39.551V512H20.08V347.993c0-6.942,2.774-13.596,7.705-18.482l32.213-31.917
	L111.828,297.595L111.828,297.595z"/>
<path style="fill:#EF9E00;" d="M343.324,248.744l-2.657,16.626c-5.485,18.769-17.912,32.224-17.912,32.224H59.996
	c0,0-12.427-13.455-17.912-32.224l-2.657-16.626c-0.086-8.227,1.628-16.797,6.256-25.453
	c19.968-37.109,145.693-91.358,145.693-91.358s0.086,0.086,0.343,0.172c7.371,3.17,125.981,55.278,145.35,91.186
	C341.696,231.947,343.41,240.517,343.324,248.744z"/>
<path style="fill:#D38802;" d="M39.427,248.744l2.657,16.626c5.485,18.769,17.912,32.224,17.912,32.224h70.276
	c-10.541-14.055-21.34-35.566-21.34-64.276c0-44.393,76.36-97.185,82.102-101.214c-7.371,3.17-125.981,55.278-145.35,91.186
	C41.056,231.947,39.342,240.517,39.427,248.744z"/>
<polyline style="fill:#47443B;" points="143.984,512 143.984,418.908 191.375,370.67 238.768,418.908 238.768,512 "/>
<path style="fill:#FCD441;" d="M215.067,74.362c-25.289,0-45.789-20.501-45.789-45.789c0-10.81,3.755-20.74,10.02-28.572
	C155.49,5.481,137.73,26.791,137.73,52.264c0,29.628,24.018,53.646,53.646,53.646c25.473,0,46.783-17.76,52.264-41.568
	C235.806,70.607,225.878,74.362,215.067,74.362z"/>
<path style="fill:#E8BC98;" d="M480.65,478.974h-80.514c-6.225,0-11.27,5.046-11.27,11.27V512h103.055v-21.756
	C491.921,484.02,486.875,478.974,480.65,478.974z"/>
<path style="fill:#D4A77D;" d="M415.925,478.974h-15.789c-6.225,0-11.27,5.046-11.27,11.27V512h27.059V478.974z"/>
<path style="fill:#E8BC98;" d="M485.094,154.749h-89.402c-3.77,0-6.826,3.056-6.826,6.826v19.373c0,3.77,3.056,6.826,6.826,6.826
	h89.402c3.77,0,6.826-3.056,6.826-6.826v-19.373C491.921,157.805,488.864,154.749,485.094,154.749z"/>
<path style="fill:#D4A77D;" d="M415.925,154.749h-20.234c-3.77,0-6.826,3.056-6.826,6.826v19.373c0,3.77,3.056,6.826,6.826,6.826
	h20.234V154.749z"/>
<g>
	<polygon style="fill:#47443B;" points="458.746,125.203 440.394,111.006 422.041,125.203 422.041,154.749 458.746,154.749 	"/>
	<polygon style="fill:#47443B;" points="324.698,366.336 297.797,345.526 270.896,366.336 270.896,409.644 324.698,409.644 	"/>
	<polygon style="fill:#47443B;" points="111.855,366.336 84.954,345.526 58.052,366.336 58.052,409.644 111.855,409.644 	"/>
</g>
<g>
</g>
<g>
</g>
<g>
</g>
<g>
</g>
<g>
</g>
<g>
</g>
<g>
</g>
<g>
</g>
<g>
</g>
<g>
</g>
<g>
</g>
<g>
</g>
<g>
</g>
<g>
</g>
<g>
</g>
</svg>
