<?xml version="1.0" encoding="iso-8859-1"?>
<!-- Generator: Adobe Illustrator 19.0.0, SVG Export Plug-In . SVG Version: 6.00 Build 0)  -->
<svg version="1.1" id="Capa_1" xmlns="http://www.w3.org/2000/svg" xmlns:xlink="http://www.w3.org/1999/xlink" x="0px" y="0px"
	 viewBox="0 0 58 58" style="enable-background:new 0 0 58 58;" xml:space="preserve">
<polygon style="fill:#38454F;" points="52.5,58 6.5,58 18.5,26 40.5,26 "/>
<line style="fill:none;stroke:#BDC3C7;stroke-width:2;stroke-miterlimit:10;" x1="4.5" y1="16" x2="4.5" y2="49"/>
<line style="fill:none;stroke:#BDC3C7;stroke-width:2;stroke-miterlimit:10;" x1="53.5" y1="16" x2="53.5" y2="49"/>
<path style="fill:#FFFFFF;" d="M29.5,56c-0.552,0-1-0.447-1-1v-3c0-0.553,0.448-1,1-1s1,0.447,1,1v3C30.5,55.553,30.052,56,29.5,56z
	"/>
<path style="fill:#FFFFFF;" d="M29.5,49c-0.552,0-1-0.447-1-1v-3c0-0.553,0.448-1,1-1s1,0.447,1,1v3C30.5,48.553,30.052,49,29.5,49z
	"/>
<path style="fill:#FFFFFF;" d="M29.5,42c-0.552,0-1-0.447-1-1v-2c0-0.553,0.448-1,1-1s1,0.447,1,1v2C30.5,41.553,30.052,42,29.5,42z
	"/>
<path style="fill:#FFFFFF;" d="M29.5,37c-0.552,0-1-0.447-1-1v-2c0-0.553,0.448-1,1-1s1,0.447,1,1v2C30.5,36.553,30.052,37,29.5,37z
	"/>
<path style="fill:#FFFFFF;" d="M29.5,32c-0.552,0-1-0.447-1-1v-2c0-0.553,0.448-1,1-1s1,0.447,1,1v2C30.5,31.553,30.052,32,29.5,32z
	"/>
<rect x="1.5" y="0" style="fill:#38454F;" width="11" height="8"/>
<rect x="1.5" y="8" style="fill:#E6E7E8;" width="11" height="8"/>
<rect x="12.5" y="8" style="fill:#38454F;" width="11" height="8"/>
<rect x="12.5" y="0" style="fill:#E6E7E8;" width="11" height="8"/>
<rect x="23.5" y="0" style="fill:#38454F;" width="11" height="8"/>
<rect x="23.5" y="8" style="fill:#E6E7E8;" width="11" height="8"/>
<rect x="45.5" y="0" style="fill:#38454F;" width="11" height="8"/>
<rect x="45.5" y="8" style="fill:#E6E7E8;" width="11" height="8"/>
<rect x="34.5" y="8" style="fill:#38454F;" width="11" height="8"/>
<rect x="34.5" y="0" style="fill:#E6E7E8;" width="11" height="8"/>
<g>
</g>
<g>
</g>
<g>
</g>
<g>
</g>
<g>
</g>
<g>
</g>
<g>
</g>
<g>
</g>
<g>
</g>
<g>
</g>
<g>
</g>
<g>
</g>
<g>
</g>
<g>
</g>
<g>
</g>
</svg>
