<?xml version="1.0" encoding="iso-8859-1"?>
<!-- Generator: Adobe Illustrator 19.0.0, SVG Export Plug-In . SVG Version: 6.00 Build 0)  -->
<svg version="1.1" id="Layer_1" xmlns="http://www.w3.org/2000/svg" xmlns:xlink="http://www.w3.org/1999/xlink" x="0px" y="0px"
	 viewBox="0 0 503.322 503.322" style="enable-background:new 0 0 503.322 503.322;" xml:space="preserve">
<g>
	<path style="fill:#CAD3DB;" d="M425.222,442.576c-4.799,0-8.678-3.879-8.678-8.678V147.525c0-4.799,3.879-8.678,8.678-8.678
		c4.799,0,8.678,3.879,8.678,8.678v286.373C433.9,438.697,430.021,442.576,425.222,442.576L425.222,442.576z"/>
	<path style="fill:#25B99A;" d="M347.12,303.729h-4.322c-7.723,0-14.518-5.103-16.67-12.514l-30.651-105.533
		c-5.528-12.635-18.015-20.801-31.805-20.801H100.805c-13.789,0-26.277,8.166-31.805,20.801L38.35,291.215
		c-2.152,7.411-8.947,12.514-16.67,12.514h-4.322c-9.589,0-17.356,7.767-17.356,17.356v95.458c0,9.589,7.767,17.356,17.356,17.356
		H347.12c9.589,0,17.356-7.767,17.356-17.356v-95.458C364.476,311.496,356.71,303.729,347.12,303.729"/>
	<g>
		<path style="fill:#485762;" d="M60.748,503.322H43.392c-9.589,0-17.356-7.767-17.356-17.356v-52.068h52.068v52.068
			C78.103,495.555,70.337,503.322,60.748,503.322"/>
		<path style="fill:#485762;" d="M321.086,503.322h-17.356c-9.589,0-17.356-7.767-17.356-17.356v-52.068h52.068v52.068
			C338.442,495.555,330.676,503.322,321.086,503.322"/>
	</g>
	<g>
		<path style="fill:#FFD06C;" d="M95.459,364.475c0,14.379-11.655,26.034-26.034,26.034s-26.034-11.655-26.034-26.034
			s11.655-26.034,26.034-26.034S95.459,350.095,95.459,364.475"/>
		<path style="fill:#FFD06C;" d="M321.086,364.475c0,14.379-11.655,26.034-26.034,26.034c-14.379,0-26.034-11.655-26.034-26.034
			s11.655-26.034,26.034-26.034C309.432,338.441,321.086,350.095,321.086,364.475"/>
	</g>
	<g>
		<path style="fill:#485762;" d="M199.595,390.508h-34.712c-4.799,0-8.678-3.879-8.678-8.678s3.879-8.678,8.678-8.678h34.712
			c4.799,0,8.678,3.879,8.678,8.678S204.394,390.508,199.595,390.508"/>
		<path style="fill:#485762;" d="M216.951,355.797h-69.424c-4.799,0-8.678-3.879-8.678-8.678c0-4.799,3.879-8.678,8.678-8.678
			h69.424c4.799,0,8.678,3.879,8.678,8.678C225.629,351.918,221.75,355.797,216.951,355.797"/>
	</g>
	<path style="fill:#D0E8F9;" d="M266.033,286.373H98.445c-5.814,0-9.98-5.606-8.313-11.169l20.827-69.424
		c1.102-3.671,4.478-6.187,8.313-6.187h125.935c3.836,0,7.211,2.517,8.313,6.187l20.827,69.424
		C276.013,280.767,271.848,286.373,266.033,286.373"/>
	<polygon style="fill:#485762;" points="373.151,503.322 477.286,503.322 477.286,468.61 373.151,468.61 	"/>
	<polygon style="fill:#95ACB9;" points="399.185,468.61 451.253,468.61 451.253,433.898 399.185,433.898 	"/>
	<polygon style="fill:#2080E0;" points="355.795,147.525 503.32,147.525 503.32,0 355.795,0 	"/>
	<g>
		<path style="fill:#FFFFFF;" d="M416.544,121.492c-4.799,0-8.678-3.879-8.678-8.678V34.712c0-4.799,3.879-8.678,8.678-8.678
			c4.799,0,8.678,3.879,8.678,8.678v78.102C425.222,117.612,421.343,121.492,416.544,121.492"/>
		<path style="fill:#FFFFFF;" d="M425.222,78.102h8.678c9.572,0,17.356-7.784,17.356-17.356S443.472,43.39,433.9,43.39h-8.678
			V78.102z M433.9,95.458h-17.356c-4.799,0-8.678-3.879-8.678-8.678V34.712c0-4.799,3.879-8.678,8.678-8.678H433.9
			c19.144,0,34.712,15.568,34.712,34.712S453.044,95.458,433.9,95.458L433.9,95.458z"/>
	</g>
</g>
<g>
</g>
<g>
</g>
<g>
</g>
<g>
</g>
<g>
</g>
<g>
</g>
<g>
</g>
<g>
</g>
<g>
</g>
<g>
</g>
<g>
</g>
<g>
</g>
<g>
</g>
<g>
</g>
<g>
</g>
</svg>
