<?xml version="1.0" encoding="iso-8859-1"?>
<!-- Generator: Adobe Illustrator 19.0.0, SVG Export Plug-In . SVG Version: 6.00 Build 0)  -->
<svg version="1.1" id="Capa_1" xmlns="http://www.w3.org/2000/svg" xmlns:xlink="http://www.w3.org/1999/xlink" x="0px" y="0px"
	 viewBox="0 0 511.996 511.996" style="enable-background:new 0 0 511.996 511.996;" xml:space="preserve">
<circle style="fill:#4398D1;" cx="260.193" cy="247.326" r="247.326"/>
<path style="fill:#3E8CC7;" d="M428.653,66.309c3.263,18.502,4.921,37.264,4.947,56.052
	c-0.009,177.806-143.684,322.192-321.489,323.078c109.518,81.635,264.474,59.029,346.109-50.481
	C533.562,293.884,520.823,152.31,428.653,66.309z"/>
<g>
	<polygon style="fill:#C4C4C4;" points="125.682,78.103 108.326,95.459 189.684,131.803 214.633,105.222 	"/>
	<polygon style="fill:#C4C4C4;" points="237.413,126.102 210.294,151.867 246.143,234.309 264.532,218.046 	"/>
</g>
<g>
	<polygon style="fill:#88B337;" points="307.923,242.987 307.923,312.412 342.635,312.412 342.635,416.549 386.026,416.549 
		420.738,381.837 420.738,347.125 455.451,295.056 420.738,295.056 394.704,242.987 	"/>
	<polygon style="fill:#88B337;" points="134.361,286.378 134.361,347.125 177.751,347.125 177.751,442.584 212.464,416.549 
		212.464,390.515 255.854,355.803 255.854,312.412 203.785,312.412 177.751,286.378 	"/>
	<path style="fill:#88B337;" d="M247.176,26.034l34.712-8.678V1.007C274.738,0.382,267.509,0,260.193,0
		c-30.261-0.009-60.27,5.545-88.517,16.393l49.465,26.998L247.176,26.034z"/>
	<path style="fill:#88B337;" d="M377.348,130.172h-52.069v60.747h34.712l17.356-26.034h52.069l34.712,60.747h42.384
		c-4.113-47.435-21.895-92.648-51.201-130.172H412.06L377.348,130.172z"/>
	<path style="fill:#88B337;" d="M47.579,208.275l26.034-26.034L47.579,138.85h-9.685c-15.846,32.465-24.351,68.019-24.915,104.137
		h34.6V208.275z"/>
</g>
<path style="fill:#CFCFCF;" d="M237.448,79.153l-77.053,77.053l-34.712-8.678l-17.356,17.356l43.391,26.034l26.034,43.391
	l17.356-17.356l-8.678-34.712l78.311-77.296c11.013-11.663,17.148-27.102,17.148-43.148v-1.05
	C265.218,60.747,249.233,67.368,237.448,79.153z"/>
<path style="fill:#FDB62F;" d="M160.299,473.573c-57.501,25.418-102.402,27.822-123.941,6.266
	c-21.539-21.556-18.398-65.259,4.252-118.743c24.203-53.535,56.278-103.148,95.173-147.181l-13.182-11.282
	c-36.491,41.473-67.36,87.579-91.814,137.114c-31.71,67.316-35.745,123.316-6.7,152.362c14.892,13.772,34.73,20.906,54.985,19.769
	c27.024,0,60.183-8.965,97.941-26.833c0.408-0.208,2.465-1.258,5.545-2.898C174.965,479.639,167.546,476.784,160.299,473.573z"/>
<g>
</g>
<g>
</g>
<g>
</g>
<g>
</g>
<g>
</g>
<g>
</g>
<g>
</g>
<g>
</g>
<g>
</g>
<g>
</g>
<g>
</g>
<g>
</g>
<g>
</g>
<g>
</g>
<g>
</g>
</svg>
