<?xml version="1.0" encoding="iso-8859-1"?>
<!-- Generator: Adobe Illustrator 19.0.0, SVG Export Plug-In . SVG Version: 6.00 Build 0)  -->
<svg version="1.1" id="Capa_1" xmlns="http://www.w3.org/2000/svg" xmlns:xlink="http://www.w3.org/1999/xlink" x="0px" y="0px"
	 viewBox="0 0 512 512" style="enable-background:new 0 0 512 512;" xml:space="preserve">
<g>
	<path style="fill:#BDC3C7;" d="M145.493,55.467h-0.427c0-28.277-22.923-51.2-51.2-51.2s-51.2,22.923-51.2,51.2
		c-18.851,0-34.133,15.282-34.133,34.133s15.282,34.133,34.133,34.133h56.32L145.493,55.467z"/>
	<rect x="136.533" y="337.067" style="fill:#804537;" width="34.133" height="162.133"/>
	<path style="fill:#71C285;" d="M244.433,265.44c13.332-13.138,20.814-31.091,20.757-49.809
		c0.536-37.518-29.436-68.372-66.954-68.923l-0.264,0.014c7.4-9.973,11.404-22.057,11.423-34.476
		c0.446-31.265-24.53-56.976-55.795-57.436c-31.265,0.46-56.241,26.171-55.795,57.436c0.019,12.418,4.023,24.503,11.423,34.476
		l-0.264-0.014c-37.518,0.551-67.49,31.405-66.954,68.923c-0.057,18.718,7.425,36.67,20.758,49.808
		c-32.671,11.182-54.519,42.02-54.234,76.551c-0.625,43.771,34.342,79.767,78.113,80.41c27.707-0.158,53.228-15.079,66.954-39.149
		c13.726,24.069,39.246,38.991,66.954,39.149c43.771-0.644,78.738-36.639,78.113-80.41
		C298.951,307.459,277.104,276.622,244.433,265.44z"/>
	<g>
		<path style="fill:#95A5A5;" d="M332.8,507.733c-2.263,0.001-4.434-0.898-6.035-2.499c-1.6-1.6-2.499-3.771-2.499-6.035V379.733
			c0-4.713,3.82-8.533,8.533-8.533s8.533,3.821,8.533,8.533V499.2c0.001,2.263-0.898,4.434-2.499,6.035
			C337.234,506.835,335.063,507.734,332.8,507.733z"/>
		<path style="fill:#95A5A5;" d="M486.4,507.733c-2.263,0.001-4.434-0.898-6.035-2.499c-1.6-1.6-2.499-3.771-2.499-6.035V379.733
			c0-4.713,3.82-8.533,8.533-8.533s8.533,3.821,8.533,8.533V499.2c0.001,2.263-0.898,4.434-2.499,6.035
			C490.834,506.835,488.663,507.734,486.4,507.733z"/>
	</g>
	<path style="fill:#BDC3C7;" d="M366.933,200.533c-18.851,0-34.133-15.282-34.133-34.133s15.282-34.133,34.133-34.133
		c0-28.277,22.923-51.2,51.2-51.2c28.277,0,51.2,22.923,51.2,51.2c18.851,0,34.133,15.282,34.133,34.133
		s-15.282,34.133-34.133,34.133H366.933z"/>
	<path style="fill:#805333;" d="M219.366,313.967c-1.6-1.601-3.77-2.5-6.033-2.5c-2.263,0-4.433,0.899-6.033,2.5l-45.166,45.166
		v-86.8l40.166-40.166c3.296-3.338,3.28-8.711-0.038-12.029c-3.317-3.317-8.69-3.334-12.029-0.038l-28.1,28.1v-39.133
		c0-4.713-3.821-8.533-8.533-8.533s-8.533,3.821-8.533,8.533V248.2l-28.1-28.1c-3.338-3.296-8.711-3.279-12.029,0.038
		c-3.317,3.317-3.334,8.691-0.038,12.029l40.166,40.167v86.8L99.9,313.966c-3.338-3.296-8.711-3.279-12.029,0.038
		c-3.317,3.317-3.334,8.691-0.038,12.029l59.728,59.728c3.34,3.324,8.738,3.324,12.078,0l59.727-59.728
		c1.601-1.6,2.5-3.77,2.5-6.033C221.866,317.737,220.967,315.567,219.366,313.967z"/>
	<path style="fill:#BDC3C7;" d="M503.467,507.733H8.533C3.821,507.733,0,503.913,0,499.2c0-4.713,3.821-8.533,8.533-8.533h494.933
		c4.713,0,8.533,3.821,8.533,8.533C512,503.913,508.18,507.733,503.467,507.733z"/>
	<g>
		<path style="fill:#804537;" d="M503.467,396.8H315.733c-4.713,0-8.533-3.82-8.533-8.533s3.821-8.533,8.533-8.533h187.733
			c4.713,0,8.533,3.821,8.533,8.533S508.18,396.8,503.467,396.8z"/>
		<path style="fill:#804537;" d="M503.467,439.467H315.733c-4.713,0-8.533-3.82-8.533-8.533s3.821-8.533,8.533-8.533h187.733
			c4.713,0,8.533,3.82,8.533,8.533S508.18,439.467,503.467,439.467z"/>
		<path style="fill:#804537;" d="M503.467,465.067H315.733c-4.713,0-8.533-3.82-8.533-8.533s3.821-8.533,8.533-8.533h187.733
			c4.713,0,8.533,3.82,8.533,8.533S508.18,465.067,503.467,465.067z"/>
	</g>
</g>
<g>
</g>
<g>
</g>
<g>
</g>
<g>
</g>
<g>
</g>
<g>
</g>
<g>
</g>
<g>
</g>
<g>
</g>
<g>
</g>
<g>
</g>
<g>
</g>
<g>
</g>
<g>
</g>
<g>
</g>
</svg>
