<?xml version="1.0" encoding="iso-8859-1"?>
<!-- Generator: Adobe Illustrator 19.0.0, SVG Export Plug-In . SVG Version: 6.00 Build 0)  -->
<svg version="1.1" id="Layer_1" xmlns="http://www.w3.org/2000/svg" xmlns:xlink="http://www.w3.org/1999/xlink" x="0px" y="0px"
	 viewBox="0 0 512 512" style="enable-background:new 0 0 512 512;" xml:space="preserve">
<g>
	<g>
		<path style="fill:#E0E2E3;" d="M409.6,183.467c-4.719,0-8.533-3.823-8.533-8.533V55.467c0-4.71,3.814-8.533,8.533-8.533
			c4.719,0,8.533,3.823,8.533,8.533v119.467C418.133,179.644,414.319,183.467,409.6,183.467"/>
		<path style="fill:#E0E2E3;" d="M102.4,183.467c-4.719,0-8.533-3.823-8.533-8.533V55.467c0-4.71,3.814-8.533,8.533-8.533
			c4.719,0,8.533,3.823,8.533,8.533v119.467C110.933,179.644,107.119,183.467,102.4,183.467"/>
		<path style="fill:#E0E2E3;" d="M25.6,465.067h460.8v-256H25.6V465.067z"/>
	</g>
	<g>
		<path style="fill:#B0B6BB;" d="M230.4,465.067h51.2v-85.333h-51.2V465.067z"/>
		<path style="fill:#B0B6BB;" d="M76.8,345.6h68.267V243.2H76.8V345.6z"/>
	</g>
	<path style="fill:#E0E2E3;" d="M102.4,345.6h17.067V243.2H102.4V345.6z"/>
	<g>
		<path style="fill:#B0B6BB;" d="M51.2,209.067h102.4v-34.133H51.2V209.067z"/>
		<path style="fill:#B0B6BB;" d="M358.4,209.067h102.4v-34.133H358.4V209.067z"/>
		<path style="fill:#B0B6BB;" d="M162.133,354.133h-102.4c-4.719,0-8.533-3.823-8.533-8.533c0-4.71,3.814-8.533,8.533-8.533h102.4
			c4.719,0,8.533,3.823,8.533,8.533C170.667,350.31,166.852,354.133,162.133,354.133"/>
		<path style="fill:#B0B6BB;" d="M221.867,345.6h68.267V243.2h-68.267V345.6z"/>
	</g>
	<path style="fill:#E0E2E3;" d="M247.467,345.6h17.067V243.2h-17.067V345.6z"/>
	<g>
		<path style="fill:#B0B6BB;" d="M307.2,354.133H204.8c-4.719,0-8.533-3.823-8.533-8.533c0-4.71,3.814-8.533,8.533-8.533h102.4
			c4.719,0,8.533,3.823,8.533,8.533C315.733,350.31,311.919,354.133,307.2,354.133"/>
		<path style="fill:#B0B6BB;" d="M366.933,345.6H435.2V243.2h-68.267V345.6z"/>
	</g>
	<path style="fill:#E0E2E3;" d="M392.533,345.6H409.6V243.2h-17.067V345.6z"/>
	<g>
		<path style="fill:#B0B6BB;" d="M452.267,354.133h-102.4c-4.719,0-8.533-3.823-8.533-8.533c0-4.71,3.814-8.533,8.533-8.533h102.4
			c4.719,0,8.533,3.823,8.533,8.533C460.8,350.31,456.986,354.133,452.267,354.133"/>
		<path style="fill:#B0B6BB;" d="M264.189,99.836c0.119-0.572,0.341-1.101,0.341-1.707V81.062c0-4.719-3.814-8.533-8.533-8.533
			c-4.71,0-8.533,3.814-8.533,8.533v17.067c0,0.606,0.23,1.135,0.35,1.707l-60.083,75.102v34.133h136.533v-34.133L264.189,99.836z"
			/>
		<path style="fill:#B0B6BB;" d="M76.8,430.933h68.267v-51.2H76.8V430.933z"/>
		<path style="fill:#B0B6BB;" d="M366.933,430.933H435.2v-51.2h-68.267V430.933z"/>
	</g>
	<g>
		<path style="fill:#E0E2E3;" d="M25.6,465.067H8.533c-4.719,0-8.533-3.823-8.533-8.533C0,451.823,3.814,448,8.533,448H25.6
			c4.719,0,8.533,3.823,8.533,8.533C34.133,461.244,30.319,465.067,25.6,465.067"/>
		<path style="fill:#E0E2E3;" d="M503.467,465.067H486.4c-4.719,0-8.533-3.823-8.533-8.533c0-4.71,3.814-8.533,8.533-8.533h17.067
			c4.719,0,8.533,3.823,8.533,8.533C512,461.244,508.186,465.067,503.467,465.067"/>
	</g>
	<g>
		<path style="fill:#DD342E;" d="M401.067,106.667h68.267V72.533h-68.267V106.667z"/>
		<path style="fill:#DD342E;" d="M93.867,106.667h68.267V72.533H93.867V106.667z"/>
	</g>
</g>
<g>
</g>
<g>
</g>
<g>
</g>
<g>
</g>
<g>
</g>
<g>
</g>
<g>
</g>
<g>
</g>
<g>
</g>
<g>
</g>
<g>
</g>
<g>
</g>
<g>
</g>
<g>
</g>
<g>
</g>
</svg>
