<?xml version="1.0" encoding="iso-8859-1"?>
<!-- Generator: Adobe Illustrator 19.0.0, SVG Export Plug-In . SVG Version: 6.00 Build 0)  -->
<svg version="1.1" id="Layer_1" xmlns="http://www.w3.org/2000/svg" xmlns:xlink="http://www.w3.org/1999/xlink" x="0px" y="0px"
	 viewBox="0 0 512 512" style="enable-background:new 0 0 512 512;" xml:space="preserve">
<g>
	<path style="fill:#BABABA;" d="M178.243,245.029c-4.267,0-7.726-3.459-7.726-7.726V71.069c0-4.268,3.46-7.726,7.726-7.726
		s7.726,3.459,7.726,7.726v166.235C185.969,241.571,182.51,245.029,178.243,245.029z"/>
	<path style="fill:#BABABA;" d="M333.755,245.029c-4.267,0-7.726-3.459-7.726-7.726V71.069c0-4.268,3.46-7.726,7.726-7.726
		s7.726,3.459,7.726,7.726v166.235C341.482,241.571,338.022,245.029,333.755,245.029z"/>
	<path style="fill:#BABABA;" d="M431.936,16.598c-4.55,0-343.79,0-351.871,0c-20.105,0-36.459,16.354-36.459,36.459v424.636h37.203
		V53.801c3.468,0,347.186,0,350.383,0v423.891h37.203V53.057C468.395,32.952,452.039,16.598,431.936,16.598z"/>
</g>
<path style="fill:#969DA1;" d="M99.981,16.598H80.065c-20.105,0-36.459,16.354-36.459,36.459v424.636h19.916V53.057
	C63.522,32.952,79.876,16.598,99.981,16.598z"/>
<path style="fill:#99654B;" d="M493.798,475.632c-10.688,0-473.029,0-475.593,0c-10.046,0-18.187,8.141-18.187,18.185
	C0.018,503.861,8.159,512,18.205,512c2.607,0,465.089,0,475.593,0c10.042,0,18.185-8.139,18.185-18.183
	C511.983,483.773,503.84,475.632,493.798,475.632z"/>
<path style="fill:#875E4C;" d="M493.798,493.816c-10.688,0-473.029,0-475.593,0c-6.729,0-12.59-3.661-15.734-9.092
	C-4.548,496.835,4.228,512,18.205,512c2.607,0,465.089,0,475.593,0c13.974,0,22.749-15.167,15.732-27.276
	C506.384,490.155,500.524,493.816,493.798,493.816z"/>
<g>
	<path style="fill:#6D6D6D;" d="M196.845,53.415c0,8.561-6.942,15.503-15.501,15.503h-6.199c-8.561,0-15.503-6.942-15.503-15.503
		V15.524c0-8.563,6.942-15.503,15.503-15.503h6.199c8.559,0,15.501,6.94,15.501,15.503V53.415z"/>
	<path style="fill:#6D6D6D;" d="M352.357,53.415c0,8.561-6.94,15.503-15.501,15.503h-6.201c-8.559,0-15.501-6.942-15.501-15.503
		V15.524c0-8.563,6.942-15.503,15.501-15.503h6.201c8.561,0,15.501,6.94,15.501,15.503V53.415z"/>
</g>
<g>
	<path style="fill:#545454;" d="M178.243,53.415V15.524c0-6.356,3.828-11.811,9.301-14.204c-1.899-0.831-3.994-1.299-6.2-1.299
		h-6.199c-8.561,0-15.503,6.94-15.503,15.503v37.891c0,8.561,6.942,15.503,15.503,15.503h6.199c2.206,0,4.301-0.468,6.2-1.299
		C182.071,65.224,178.243,59.77,178.243,53.415z"/>
	<path style="fill:#545454;" d="M333.755,53.415V15.524c0-6.357,3.829-11.812,9.301-14.204c-3.628-1.587-5.913-1.299-12.401-1.299
		c-8.559,0-15.501,6.94-15.501,15.503v37.891c0,8.561,6.942,15.503,15.501,15.503h6.201c2.206,0,4.301-0.468,6.2-1.299
		C337.584,65.225,333.755,59.77,333.755,53.415z"/>
</g>
<g>
	<path style="fill:#6D6D6D;" d="M181.344,232.667h-6.199c-12.809,0-23.229,10.421-23.229,23.229v15.947h15.453v-15.947
		c0-4.288,3.488-7.777,7.777-7.777h6.199c4.287,0,7.775,3.489,7.775,7.777v15.947h15.453v-15.947
		C204.571,243.088,194.152,232.667,181.344,232.667z"/>
	<path style="fill:#6D6D6D;" d="M336.856,232.667h-6.201c-12.808,0-23.227,10.421-23.227,23.229v15.947h15.453v-15.947
		c0-4.288,3.488-7.777,7.775-7.777h6.201c4.287,0,7.775,3.489,7.775,7.777v15.947h15.453v-15.947
		C360.083,243.088,349.664,232.667,336.856,232.667z"/>
</g>
<path style="fill:#67A1F6;" d="M368.026,270.813H143.975c-6.827,0-12.362,5.534-12.362,12.362v81.433
	c0,23.388,18.958,42.347,42.348,42.347h164.082c23.388,0,42.346-18.959,42.346-42.347v-81.433
	C380.388,276.347,374.853,270.813,368.026,270.813z"/>
<path style="fill:#4C86F5;" d="M151.915,364.608v-81.433c0-6.828,5.535-12.362,12.362-12.362h-20.303
	c-6.827,0-12.362,5.534-12.362,12.362v81.433c0,23.388,18.958,42.347,42.348,42.347h20.303
	C170.873,406.955,151.915,387.997,151.915,364.608z"/>
<g>
	<rect x="206.81" y="270.81" style="fill:#98ED9E;" width="15.453" height="89.93"/>
	<rect x="165.35" y="270.81" style="fill:#98ED9E;" width="15.453" height="89.93"/>
	<rect x="331.2" y="270.81" style="fill:#98ED9E;" width="15.453" height="89.93"/>
	<rect x="248.27" y="270.81" style="fill:#98ED9E;" width="15.453" height="89.93"/>
	<rect x="289.74" y="270.81" style="fill:#98ED9E;" width="15.453" height="89.93"/>
</g>
<path style="fill:#4A74BC;" d="M173.96,406.955h164.082c23.388,0,42.346-18.959,42.346-42.347v-5.31H131.613v5.31
	C131.613,387.997,150.57,406.955,173.96,406.955z"/>
<path style="fill:#3E649B;" d="M151.915,364.608v-5.31h-20.303v5.31c0,23.388,18.958,42.347,42.348,42.347h20.303
	C170.873,406.955,151.915,387.997,151.915,364.608z"/>
<g>
</g>
<g>
</g>
<g>
</g>
<g>
</g>
<g>
</g>
<g>
</g>
<g>
</g>
<g>
</g>
<g>
</g>
<g>
</g>
<g>
</g>
<g>
</g>
<g>
</g>
<g>
</g>
<g>
</g>
</svg>
