<?xml version="1.0" encoding="iso-8859-1"?>
<!-- Generator: Adobe Illustrator 19.0.0, SVG Export Plug-In . SVG Version: 6.00 Build 0)  -->
<svg version="1.1" id="Capa_1" xmlns="http://www.w3.org/2000/svg" xmlns:xlink="http://www.w3.org/1999/xlink" x="0px" y="0px"
	 viewBox="0 0 480 480" style="enable-background:new 0 0 480 480;" xml:space="preserve">
<g>
	<rect x="328.421" y="25.263" style="fill:#695A69;" width="37.895" height="37.895"/>
	<path style="fill:#F2D057;" d="M12.632,202.105V404.21h176.842V252.632h101.052V404.21h176.842V202.105H240H12.632z
		 M151.579,252.632v25.263v12.632v50.526v12.632h-12.632H75.789H63.158v-12.632v-50.526v-12.632v-25.263V240h12.632h63.158h12.632
		V252.632z M328.421,341.053v-50.526v-12.632v-25.263V240h12.632h63.158h12.632v12.632v25.263v12.632v50.526v12.632h-12.632h-63.158
		h-12.632V341.053z"/>
	<polygon style="fill:#BF515A;" points="416.842,63.158 366.316,63.158 328.421,63.158 240,63.158 63.158,63.158 0,202.105 
		12.632,202.105 240,202.105 467.368,202.105 480,202.105 	"/>
	<polygon style="fill:#95FFFF;" points="75.789,341.053 126.316,341.053 75.789,290.526 	"/>
	<polygon style="fill:#80D7F0;" points="126.316,341.053 138.947,341.053 138.947,290.526 75.789,290.526 	"/>
	<rect x="75.789" y="252.632" style="fill:#6EB1E2;" width="63.158" height="25.263"/>
	<path style="fill:#695A69;" d="M75.789,240H63.158v12.632v25.263v12.632v50.526v12.632h12.632h63.158h12.632v-12.632v-50.526
		v-12.632v-25.263V240h-12.632H75.789z M138.947,341.053h-12.632H75.789v-50.526h63.158V341.053z M138.947,277.895H75.789v-25.263
		h63.158V277.895z"/>
	<polygon style="fill:#95FFFF;" points="341.053,290.526 341.053,341.053 391.579,341.053 	"/>
	<polygon style="fill:#80D7F0;" points="404.211,341.053 404.211,290.526 341.053,290.526 391.579,341.053 	"/>
	<rect x="341.053" y="252.632" style="fill:#6EB1E2;" width="63.158" height="25.263"/>
	<path style="fill:#695A69;" d="M404.211,353.684h12.632v-12.632v-50.526v-12.632v-25.263V240h-12.632h-63.158h-12.632v12.632
		v25.263v12.632v50.526v12.632h12.632H404.211z M341.053,252.632h63.158v25.263h-63.158V252.632z M341.053,290.526h63.158v50.526
		h-12.632h-50.526V290.526z"/>
	<polygon style="fill:#944851;" points="290.526,252.632 189.474,252.632 189.474,404.21 189.474,454.737 290.526,454.737 
		290.526,404.21 	"/>
	<rect x="12.632" y="404.21" style="fill:#E9A868;" width="176.842" height="50.526"/>
	<rect x="290.526" y="404.21" style="fill:#E9A868;" width="176.842" height="50.526"/>
</g>
<g>
</g>
<g>
</g>
<g>
</g>
<g>
</g>
<g>
</g>
<g>
</g>
<g>
</g>
<g>
</g>
<g>
</g>
<g>
</g>
<g>
</g>
<g>
</g>
<g>
</g>
<g>
</g>
<g>
</g>
</svg>
