<?xml version="1.0" encoding="iso-8859-1"?>
<!-- Generator: Adobe Illustrator 19.0.0, SVG Export Plug-In . SVG Version: 6.00 Build 0)  -->
<svg version="1.1" id="Capa_1" xmlns="http://www.w3.org/2000/svg" xmlns:xlink="http://www.w3.org/1999/xlink" x="0px" y="0px"
	 viewBox="0 0 512 512" style="enable-background:new 0 0 512 512;" xml:space="preserve">
<g>
	<path style="fill:#9AA7B8;" d="M488.897,230.149h-28.81c-24.365,0-32.777,63.655-32.777,63.655l14.7,5.436l11.059-29.909h27.393
		c13.149,0,23.808-10.659,23.808-23.808C504.271,237.031,497.388,230.149,488.897,230.149z"/>
	<path style="fill:#9AA7B8;" d="M51.896,230.149h-28.81c-8.491,0-15.374,6.883-15.374,15.374c0,13.149,10.659,23.808,23.808,23.808
		h27.393l11.058,29.909l14.7-5.436C84.672,293.804,72.098,230.149,51.896,230.149z"/>
</g>
<rect x="136.098" y="141.365" style="fill:#384149;" width="239.794" height="62.691"/>
<path style="fill:#C0EAF9;" d="M434.664,296.521H77.319l29.153-87.531c4.712-14.179,17.983-23.74,32.925-23.74h233.19
	c14.942,0,28.212,9.561,32.925,23.74L434.664,296.521z"/>
<path style="fill:#A0D9F2;" d="M433.347,296.521H78.636l21.65-62.454c4.911-14.179,18.725-23.74,34.283-23.74h242.845
	c15.559,0,29.372,9.561,34.283,23.74L433.347,296.521z"/>
<path style="fill:#444D56;" d="M429.7,306.434l-31.621-94.972c-3.659-10.993-13.903-18.379-25.489-18.379H139.391
	c-11.586,0-21.83,7.385-25.489,18.379l-31.621,94.972l-14.871-4.952l31.621-94.972c5.795-17.406,22.014-29.101,40.36-29.101h233.199
	c18.346,0,34.565,11.695,40.36,29.101l31.621,94.972L429.7,306.434z"/>
<path style="fill:#616970;" d="M349.586,268.312H162.397c-6.559,0-12.603,3.556-15.788,9.289l-10.513,18.921l172.846,12.614
	l66.947-12.614l-10.513-18.921C362.189,271.867,356.145,268.312,349.586,268.312z"/>
<path style="fill:#C8E8EE;" d="M399.773,100.614H112.211c-5.572,0-10.09,4.517-10.09,10.09v39.378c0,5.572,4.517,10.09,10.09,10.09
	h287.562c5.572,0,10.09-4.517,10.09-10.09v-39.378C409.862,105.131,405.345,100.614,399.773,100.614z"/>
<path style="fill:#E93438;" d="M188.419,100.614h-76.209c-5.572,0-10.09,4.517-10.09,10.09v39.378c0,5.572,4.517,10.09,10.09,10.09
	h76.209V100.614z"/>
<path style="fill:#D32A32;" d="M126.503,150.08v-39.378c0-5.572,4.517-10.09,10.09-10.09h-24.381c-5.572,0-10.09,4.517-10.09,10.09
	v39.378c0,5.572,4.517,10.09,10.09,10.09h24.381C131.02,160.17,126.503,155.653,126.503,150.08z"/>
<path style="fill:#60D6FF;" d="M399.773,100.614h-76.209v59.556h76.209c5.572,0,10.09-4.517,10.09-10.09v-39.378
	C409.862,105.131,405.345,100.614,399.773,100.614z"/>
<path style="fill:#C8E8EE;" d="M255.992,65.089c-4.329,0-7.837-3.509-7.837-7.837V9.143c0-4.328,3.508-7.837,7.837-7.837
	c4.329,0,7.837,3.509,7.837,7.837v48.109C263.828,61.582,260.321,65.089,255.992,65.089z"/>
<path style="fill:#E93438;" d="M191.868,76.175c-3.231,0-6.255-2.012-7.391-5.233l-16.001-45.371
	c-1.439-4.081,0.703-8.557,4.785-9.997c4.079-1.439,8.557,0.702,9.997,4.785l16.001,45.371c1.439,4.081-0.703,8.557-4.785,9.997
	C193.613,76.03,192.732,76.175,191.868,76.175z"/>
<path style="fill:#60D6FF;" d="M320.114,76.175c-0.865,0-1.744-0.144-2.606-0.448c-4.081-1.44-6.223-5.916-4.785-9.998
	l16.002-45.371c1.44-4.082,5.915-6.223,9.997-4.785c4.081,1.44,6.223,5.915,4.785,9.998l-16.001,45.371
	C326.37,74.162,323.344,76.175,320.114,76.175z"/>
<g>
	<path style="fill:#2B2A32;" d="M29.782,427.557v67.527c0,8.621,6.989,15.61,15.61,15.61h60.203c8.621,0,15.61-6.989,15.61-15.61
		v-79.449"/>
	<path style="fill:#2B2A32;" d="M390.782,415.635v79.449c0,8.621,6.989,15.61,15.61,15.61h60.203c8.621,0,15.61-6.989,15.61-15.61
		v-79.449"/>
</g>
<path style="fill:#0D1B24;" d="M340.619,468.921H171.363c-12.121,0-21.946-9.826-21.946-21.946l0,0l140.604-18.803l72.545,18.803
	l0,0C362.566,459.096,352.74,468.921,340.619,468.921z"/>
<path style="fill:#444D56;" d="M466.693,296.522H45.29c-16.066,0-29.091,13.025-29.091,29.091v90.022h479.584v-90.022
	C495.783,309.546,482.76,296.522,466.693,296.522z"/>
<path style="fill:#333B42;" d="M76.636,296.522H45.29c-16.066,0-29.091,13.025-29.091,29.091v90.022h31.346v-90.022
	C47.545,309.546,60.57,296.522,76.636,296.522z"/>
<path style="fill:#616970;" d="M362.663,324.733H149.32c-6.871,0-12.441,5.57-12.441,12.441V412.5h238.225v-75.327
	C375.104,330.303,369.534,324.733,362.663,324.733z"/>
<path style="fill:#8492A0;" d="M512,405.89v30.459c0,0.784-0.084,1.536-0.251,2.267c-1.034,4.786-5.287,8.359-10.376,8.359H10.616
	C4.754,446.975,0,442.221,0,436.349V405.89c0-5.872,4.754-10.627,10.616-10.627h490.757C507.246,395.263,512,400.018,512,405.89z"/>
<g>
	<path style="fill:#9AA7B8;" d="M512,405.89v30.459c0,0.784-0.084,1.536-0.251,2.267H35.004c-5.872,0-10.627-4.754-10.627-10.627
		v-30.459c0-0.784,0.084-1.536,0.251-2.267h476.745C507.246,395.263,512,400.018,512,405.89z"/>
	<path style="fill:#9AA7B8;" d="M96.132,395.26H53.815v63.448c0,3.909,3.169,7.078,7.078,7.078h28.159
		c3.909,0,7.078-3.169,7.078-7.078V395.26H96.132z"/>
	<path style="fill:#9AA7B8;" d="M458.171,395.26h-42.316v63.448c0,3.909,3.169,7.078,7.078,7.078h28.159
		c3.909,0,7.078-3.169,7.078-7.078V395.26H458.171z"/>
</g>
<g>
	<path style="fill:#8492A0;" d="M83.619,465.784H60.892c-3.908,0-7.074-3.166-7.074-7.074v-63.446h22.716v63.446
		C76.535,462.618,79.701,465.784,83.619,465.784z"/>
	<path style="fill:#8492A0;" d="M445.655,465.784h-22.727c-3.908,0-7.074-3.166-7.074-7.074v-63.446h22.716v63.446
		C438.571,462.618,441.747,465.784,445.655,465.784z"/>
</g>
<g>
	<rect x="403.32" y="324.734" style="fill:#FEFFFF;" width="65.825" height="34.48"/>
	<rect x="42.841" y="324.734" style="fill:#FEFFFF;" width="65.825" height="34.48"/>
</g>
<g>
</g>
<g>
</g>
<g>
</g>
<g>
</g>
<g>
</g>
<g>
</g>
<g>
</g>
<g>
</g>
<g>
</g>
<g>
</g>
<g>
</g>
<g>
</g>
<g>
</g>
<g>
</g>
<g>
</g>
</svg>
