<?xml version="1.0" encoding="iso-8859-1"?>
<!-- Generator: Adobe Illustrator 19.0.0, SVG Export Plug-In . SVG Version: 6.00 Build 0)  -->
<svg version="1.1" id="Capa_1" xmlns="http://www.w3.org/2000/svg" xmlns:xlink="http://www.w3.org/1999/xlink" x="0px" y="0px"
	 viewBox="0 0 512 512" style="enable-background:new 0 0 512 512;" xml:space="preserve">
<path style="fill:#D23C69;" d="M256,16.516c-36.517,0-69.485-4.764-93.161-12.42V82.58h186.322V4.097
	C325.485,11.753,292.517,16.516,256,16.516z"/>
<path style="fill:#FF6991;" d="M499.497,171.835L462.031,53.193c-4.907-15.54-17.142-27.673-32.722-32.451L364.041,0.729
	c-8.834-2.709-18.131,2.376-20.659,11.262C332.553,50.05,297.532,77.922,256,77.922s-76.553-27.871-87.382-65.931
	C166.09,3.104,156.793-1.98,147.959,0.729L82.691,20.743c-15.58,4.778-27.815,16.911-32.722,32.451L12.503,171.835
	c-2.445,7.743,1.1,16.114,8.363,19.746l86.489,43.244v268.917c0,4.56,3.697,8.258,8.258,8.258h280.774
	c4.561,0,8.258-3.698,8.258-8.258V234.825l86.489-43.244C498.397,187.949,501.942,179.578,499.497,171.835z"/>
<g>
	<path style="fill:#FF507D;" d="M49.969,53.193L12.503,171.835c-2.445,7.743,1.101,16.114,8.363,19.745l86.489,43.244v-84.486
		c0-16.038-3.893-31.837-11.344-46.039L59.958,35.582C55.529,40.653,52.055,46.586,49.969,53.193z"/>
	<circle style="fill:#FF507D;" cx="206.45" cy="363.36" r="24.774"/>
	<circle style="fill:#FF507D;" cx="313.81" cy="412.9" r="16.516"/>
</g>
<path style="fill:#D23C69;" d="M107.208,147.919c-0.386-4.203-3.808-7.531-8.111-7.531c-4.561,0-8.258,3.697-8.258,8.258v24.848
	c0,3.99-4.199,6.586-7.768,4.801l-62.707-31.352l-5.036,15.95l66.381,33.189c5.596,2.798,9.13,8.517,9.13,14.773v15.713
	l16.516,8.258V150.34C107.355,149.528,107.228,148.729,107.208,147.919z"/>
<path style="fill:#FF507D;" d="M462.031,53.193l37.466,118.642c2.445,7.743-1.101,16.114-8.363,19.745l-86.489,43.244v-84.486
	c0-16.038,3.893-31.837,11.344-46.039l36.053-68.718C456.471,40.653,459.945,46.586,462.031,53.193z"/>
<path style="fill:#D23C69;" d="M404.792,147.919c0.386-4.203,3.808-7.531,8.111-7.531c4.561,0,8.258,3.697,8.258,8.258v24.848
	c0,3.99,4.199,6.586,7.768,4.801l62.707-31.352l5.036,15.95l-66.381,33.189c-5.596,2.798-9.13,8.517-9.13,14.773v15.713
	l-16.516,8.258V150.34C404.645,149.528,404.772,148.729,404.792,147.919z"/>
<g>
	<path style="fill:#FF507D;" d="M364.041,0.729c-8.834-2.709-18.131,2.376-20.659,11.262C332.553,50.05,297.532,77.922,256,77.922
		s-76.553-27.871-87.382-65.931C166.09,3.104,156.793-1.98,147.959,0.729l-2.489,0.763c6.846,55.006,53.669,97.605,110.53,97.605
		S359.684,56.498,366.53,1.492L364.041,0.729z"/>
	<path style="fill:#FF507D;" d="M322.064,495.484c-109.459,0-198.193-88.734-198.193-198.193V189.936
		c0-9.122-7.395-16.516-16.516-16.516v330.322c0,4.561,3.697,8.258,8.258,8.258h264.258c4.561,0,8.258-3.697,8.258-8.258l0,0
		c0-4.561-3.697-8.258-8.258-8.258H322.064z"/>
	<path style="fill:#FF507D;" d="M316.963,271.341c-4.321-6.66-10.331-11.135-16.931-13.448c-7.648-2.68-12.955-9.859-11.719-17.868
		c2.704-17.516-2.643-36.026-16.09-49.552c-21.9-22.029-58.986-22.366-81.265-0.721c-23.18,22.522-23.383,59.574-0.607,82.349
		c13.438,13.438,31.836,18.846,49.292,16.27c7.927-1.17,15.581,3.894,18.185,11.473c1.575,4.583,4.188,8.887,7.848,12.546
		c14.693,14.693,39.785,12.65,51.587-6.128C323.88,295.731,323.734,281.775,316.963,271.341z"/>
</g>
<path style="fill:#D23C69;" d="M305.351,260.359c-1.718-0.976-3.487-1.825-5.32-2.467c-7.648-2.68-12.955-9.859-11.719-17.868
	c0.864-5.597,0.814-11.285,0.032-16.89c-2.409-17.715-25.119-36.812-49.635-25.457c-16.672,7.722-14.452,25.806-33.806,31.742
	c-30.379,9.316-18.581,38.194-14.346,42.864c13.421,13.294,31.715,18.65,49.085,16.087c7.927-1.17,15.581,3.894,18.185,11.473
	c1.575,4.583,12.004,12.209,26.56,4.931C318.968,287.484,310.71,263.226,305.351,260.359z M268.129,237.936
	c-4.696,5.486-12.259,5.706-18.323,0.516c-6.064-5.19-9.513-13.782-4.817-19.269c4.696-5.486,14.238-6.308,20.301-1.118
	C271.354,223.254,272.825,232.449,268.129,237.936z"/>
<g>
</g>
<g>
</g>
<g>
</g>
<g>
</g>
<g>
</g>
<g>
</g>
<g>
</g>
<g>
</g>
<g>
</g>
<g>
</g>
<g>
</g>
<g>
</g>
<g>
</g>
<g>
</g>
<g>
</g>
</svg>
