<?xml version="1.0" encoding="iso-8859-1"?>
<!-- Generator: Adobe Illustrator 19.0.0, SVG Export Plug-In . SVG Version: 6.00 Build 0)  -->
<svg version="1.1" id="Layer_1" xmlns="http://www.w3.org/2000/svg" xmlns:xlink="http://www.w3.org/1999/xlink" x="0px" y="0px"
	 viewBox="0 0 512 512" style="enable-background:new 0 0 512 512;" xml:space="preserve">
<path style="fill:#FF7560;" d="M256,429.552c-32.937,48.797-90.349,76.333-150.502,70.064c-5.339-0.556-9.974-3.922-12.152-8.826
	c-24.551-55.246-16.093-118.334,20.157-164.724C56.897,309.835,12.956,263.764,0.331,204.645c-1.12-5.248,0.65-10.694,4.643-14.281
	c44.979-40.411,107.617-51.868,162.959-31.741c-2.048-58.829,28.208-114.837,80.557-145.108c4.646-2.687,10.375-2.687,15.021,0
	c52.349,30.271,82.605,86.279,80.557,145.108c55.342-20.128,117.98-8.672,162.959,31.74c3.992,3.587,5.763,9.033,4.643,14.281
	c-12.625,59.119-56.565,105.19-113.173,121.422c36.251,46.39,44.709,109.478,20.157,164.724c-2.179,4.904-6.813,8.27-12.152,8.826
	C346.128,505.908,288.819,478.175,256,429.552z"/>
<path style="fill:#FE5947;" d="M507.027,190.364c-44.978-40.411-107.617-51.868-162.959-31.74
	c2.048-58.829-28.208-114.838-80.557-145.108c-2.835-1.639-6.071-2.273-9.22-1.912l1.429,418.349c0.092-0.135,0.189-0.265,0.28-0.4
	c32.819,48.623,90.128,76.356,150.502,70.064c5.339-0.556,9.974-3.922,12.152-8.826c24.552-55.247,16.094-118.334-20.157-164.725
	c56.607-16.232,100.548-62.303,113.173-121.422C512.79,199.397,511.019,193.95,507.027,190.364z"/>
<g>
	<path style="fill:#FFA208;" d="M304.125,371.506l-29.359-40.392c-4.869-6.699-3.383-16.076,3.319-20.943
		c6.703-4.867,16.082-3.382,20.952,3.317l29.359,40.392c4.869,6.699,3.383,16.076-3.319,20.943S308.994,378.204,304.125,371.506z"/>
	<path style="fill:#FFA208;" d="M291.734,268.181c-2.561-7.875,1.752-16.334,9.63-18.893l47.505-15.429
		c7.878-2.561,16.341,1.751,18.901,9.626s-1.752,16.334-9.63,18.893l-47.505,15.429
		C302.758,280.366,294.295,276.057,291.734,268.181z"/>
</g>
<path style="fill:#FFBB54;" d="M256,242.23c-8.284,0-15-6.713-15-14.994v-49.928c0-8.281,6.716-14.994,15-14.994
	c8.284,0,15,6.713,15,14.994v49.928C271,235.517,264.284,242.23,256,242.23z"/>
<path style="fill:#FFA208;" d="M256,162.315c-0.403,0-0.799,0.029-1.194,0.06l0.273,79.808c0.306,0.019,0.61,0.047,0.922,0.047
	c8.284,0,15-6.713,15-14.994v-49.928C271,169.028,264.284,162.315,256,162.315z"/>
<g>
	<path style="fill:#FFBB54;" d="M186.923,374.823c-6.702-4.868-8.188-14.244-3.319-20.943l29.359-40.392
		c4.869-6.699,14.249-8.185,20.952-3.317c6.702,4.867,8.188,14.244,3.319,20.943l-29.359,40.392
		C203.004,378.207,193.622,379.689,186.923,374.823z"/>
	<path style="fill:#FFBB54;" d="M201.364,277.807l-47.504-15.428c-7.878-2.558-12.19-11.017-9.63-18.893
		c2.56-7.875,11.016-12.187,18.901-9.626l47.504,15.428c7.878,2.558,12.19,11.017,9.63,18.893
		C217.708,276.05,209.251,280.367,201.364,277.807z"/>
</g>
<path style="fill:#FE5947;" d="M398.497,326.067c7.816-2.241,15.379-5.071,22.663-8.405l-140.89-45.758l87.074-119.795
	c-7.853,1.582-15.635,3.736-23.276,6.515c0.283-8.122-0.072-16.186-0.994-24.141L256,254.278l-87.074-119.795
	c-0.922,7.954-1.277,16.018-0.994,24.14c-7.641-2.779-15.423-4.933-23.276-6.515l87.075,119.796L90.842,317.662
	c7.283,3.334,14.846,6.164,22.662,8.405c-5.005,6.405-9.46,13.137-13.391,20.114L241,300.423v148.075
	c5.423-5.894,10.453-12.209,15-18.946c4.55,6.742,9.573,13.072,15,18.968V300.423l140.888,45.758
	C407.957,339.204,403.502,332.471,398.497,326.067z"/>
<path style="fill:#ED433C;" d="M421.159,317.661L280.27,271.904l87.074-119.795c-7.853,1.582-15.635,3.736-23.276,6.515
	c0.283-8.122-0.072-16.186-0.994-24.141L256,254.278l-0.885-1.217l0.604,176.889c0.091-0.135,0.189-0.263,0.28-0.398
	c4.55,6.742,9.573,13.072,15,18.969V300.423l140.888,45.758c-3.932-6.977-8.386-13.709-13.391-20.114
	C406.313,323.825,413.876,320.996,421.159,317.661z"/>
<path style="fill:#FFD664;" d="M256,347.33c-37.26,0-67.573-30.3-67.573-67.544S218.74,212.243,256,212.243
	s67.573,30.3,67.573,67.543S293.26,347.33,256,347.33z"/>
<path style="fill:#FFBB54;" d="M256,212.243c-0.343,0-0.682,0.021-1.024,0.026l0.461,135.047c0.188,0.002,0.374,0.014,0.563,0.014
	c37.26,0,67.573-30.3,67.573-67.544C323.573,242.543,293.26,212.243,256,212.243z"/>
<g>
</g>
<g>
</g>
<g>
</g>
<g>
</g>
<g>
</g>
<g>
</g>
<g>
</g>
<g>
</g>
<g>
</g>
<g>
</g>
<g>
</g>
<g>
</g>
<g>
</g>
<g>
</g>
<g>
</g>
</svg>
