<?xml version="1.0" encoding="iso-8859-1"?>
<!-- Generator: Adobe Illustrator 19.0.0, SVG Export Plug-In . SVG Version: 6.00 Build 0)  -->
<svg version="1.1" id="Capa_1" xmlns="http://www.w3.org/2000/svg" xmlns:xlink="http://www.w3.org/1999/xlink" x="0px" y="0px"
	 viewBox="0 0 59.654 59.654" style="enable-background:new 0 0 59.654 59.654;" xml:space="preserve">
<ellipse style="fill:#546A79;stroke:#38454F;stroke-width:2;stroke-miterlimit:10;" cx="11.943" cy="35.904" rx="10.943" ry="10.974"/>
<path style="fill:#77909E;" d="M5.549,35.916c-0.052,0-0.105-0.004-0.159-0.013c-0.545-0.087-0.917-0.601-0.829-1.146
	c0.424-2.646,2.231-4.889,4.714-5.853c0.515-0.202,1.094,0.055,1.294,0.57c0.2,0.515-0.056,1.094-0.57,1.294
	c-1.796,0.697-3.156,2.387-3.463,4.305C6.457,35.566,6.032,35.916,5.549,35.916z"/>
<ellipse style="fill:#546A79;stroke:#38454F;stroke-width:2;stroke-miterlimit:10;" cx="47.711" cy="35.904" rx="10.943" ry="10.974"/>
<path style="fill:none;stroke:#38454F;stroke-width:2;stroke-linecap:round;stroke-miterlimit:10;" d="M43.315,22.353
	c4.629-2.026,8.805-0.92,12.003,1.446"/>
<line style="fill:none;stroke:#38454F;stroke-width:2;stroke-linecap:round;stroke-miterlimit:10;" x1="20.75" y1="13.745" x2="22.75" y2="13.745"/>
<path style="fill:#C03A2B;" d="M48.405,36.002c0.043-0.188,0.05-0.385-0.025-0.578l-6.08-15.68h0.45c0.552,0,1-0.448,1-1
	s-0.448-1-1-1h-1.226l-0.099-0.255c-0.018-0.046-0.053-0.078-0.077-0.12c-0.017-0.033-0.038-0.062-0.059-0.093
	c-0.062-0.085-0.131-0.156-0.214-0.217c-0.025-0.019-0.036-0.048-0.064-0.065c-0.019-0.012-0.041-0.012-0.061-0.022
	c-0.062-0.032-0.126-0.051-0.193-0.07c-0.06-0.017-0.117-0.035-0.178-0.04c-0.061-0.006-0.121,0.003-0.183,0.009
	c-0.07,0.007-0.137,0.014-0.203,0.036c-0.02,0.006-0.041,0.003-0.061,0.011c-0.038,0.015-0.064,0.044-0.099,0.063
	c-0.062,0.033-0.121,0.066-0.176,0.112c-0.053,0.044-0.094,0.095-0.136,0.148c-0.026,0.033-0.061,0.054-0.083,0.09l-0.249,0.412
	H22.779c-0.001,0-0.001,0-0.002,0H22.75c-0.059,0-0.109,0.024-0.165,0.033c-0.066,0.011-0.132,0.009-0.196,0.034l-8.031,3.113
	c-0.515,0.2-0.771,0.779-0.571,1.294c0.154,0.396,0.532,0.639,0.933,0.639c0.121,0,0.243-0.022,0.361-0.068l3.89-1.508l9.753,15.163
	c0.006,0.009,0.015,0.016,0.021,0.025c0.013,0.019,0.03,0.034,0.044,0.052c0.001,0.002,0.004,0.003,0.005,0.005
	c-0.016,0.072-0.044,0.14-0.044,0.217c0,0.552,0.448,1,1,1h18c0.552,0,1-0.448,1-1C48.75,36.446,48.613,36.186,48.405,36.002z
	 M20.874,20.545l2.064-0.8h15.24l-8.639,14.271L20.874,20.545z M30.83,35.745l9.466-15.637l6.064,15.637H30.83z"/>
<path style="fill:#77909E;" d="M55.174,35.916c-0.483,0-0.908-0.35-0.986-0.842c-0.308-1.918-1.666-3.608-3.463-4.305
	c-0.515-0.2-0.77-0.779-0.57-1.294c0.199-0.516,0.778-0.771,1.294-0.57c2.484,0.963,4.29,3.207,4.714,5.853
	c0.087,0.545-0.284,1.058-0.829,1.146C55.279,35.913,55.226,35.916,55.174,35.916z"/>
<path style="fill:#BDC3C7;" d="M20.794,11.776c-3.937,0-7.024,4.364-7.071,9.956l-2.981,13.964
	c-0.115,0.541,0.229,1.072,0.769,1.187c0.071,0.015,0.141,0.022,0.21,0.022c0.462,0,0.876-0.321,0.977-0.791l2.999-14.046
	c0.008-0.036-0.003-0.07,0.001-0.106c0.004-0.036,0.021-0.066,0.021-0.103c0-4.381,2.324-8.082,5.075-8.082c0.552,0,1-0.448,1-1
	S21.347,11.776,20.794,11.776z"/>
<line style="fill:none;stroke:#BDC3C7;stroke-width:2;stroke-linecap:round;stroke-miterlimit:10;" x1="40.75" y1="16.745" x2="40.75" y2="18.745"/>
<line style="fill:none;stroke:#CB8252;stroke-width:2;stroke-linecap:round;stroke-miterlimit:10;" x1="37.75" y1="15.745" x2="43.75" y2="15.745"/>
<g>
</g>
<g>
</g>
<g>
</g>
<g>
</g>
<g>
</g>
<g>
</g>
<g>
</g>
<g>
</g>
<g>
</g>
<g>
</g>
<g>
</g>
<g>
</g>
<g>
</g>
<g>
</g>
<g>
</g>
</svg>
