<?xml version="1.0" encoding="iso-8859-1"?>
<!-- Generator: Adobe Illustrator 19.0.0, SVG Export Plug-In . SVG Version: 6.00 Build 0)  -->
<svg version="1.1" id="Layer_1" xmlns="http://www.w3.org/2000/svg" xmlns:xlink="http://www.w3.org/1999/xlink" x="0px" y="0px"
	 viewBox="0 0 512 512" style="enable-background:new 0 0 512 512;" xml:space="preserve">
<path style="fill:#99774F;" d="M314.162,200.348h175.575c13.233,0,23.544,11.474,22.134,24.633l-28.621,267.13
	C482.038,503.422,472.491,512,461.116,512H314.162V200.348z"/>
<path style="fill:#FFC0CF;" d="M400.696,322.783L400.696,322.783V189.217h44.522c6.147,0,11.13,4.983,11.13,11.13v66.783
	C456.348,297.866,431.431,322.783,400.696,322.783z"/>
<path style="fill:#DBDBDB;" d="M356.174,512H44.522C19.933,512,0,492.067,0,467.478V22.261C0,9.966,9.966,0,22.261,0h356.174
	c12.295,0,22.261,9.966,22.261,22.261v445.217C400.696,492.067,380.762,512,356.174,512z"/>
<path style="fill:#E5E5E5;" d="M400.696,22.261v66.783H0V22.261C0,9.966,9.966,0,22.261,0h356.174
	C390.729,0,400.696,9.966,400.696,22.261z"/>
<path style="fill:#9B9B9B;" d="M150.261,122.435H0V44.522h150.261c21.515,0,38.957,17.441,38.957,38.957l0,0
	C189.217,104.993,171.776,122.435,150.261,122.435z M267.13,77.913L267.13,77.913c0-12.295-9.966-22.261-22.261-22.261l0,0
	c-12.295,0-22.261,9.966-22.261,22.261l0,0c0,12.295,9.966,22.261,22.261,22.261l0,0C257.164,100.174,267.13,90.208,267.13,77.913z
	 M345.043,77.913L345.043,77.913c0-12.295-9.966-22.261-22.261-22.261l0,0c-12.295,0-22.261,9.966-22.261,22.261l0,0
	c0,12.295,9.966,22.261,22.261,22.261l0,0C335.077,100.174,345.043,90.208,345.043,77.913z M356.174,311.652
	c0-86.061-69.766-155.826-155.826-155.826S44.522,225.592,44.522,311.652s69.766,155.826,155.826,155.826
	S356.174,397.713,356.174,311.652z"/>
<path style="fill:#C1C1C1;" d="M55.652,89.044H0V44.522h55.652h94.609c21.515,0,38.957,17.441,38.957,38.957l0,0
	c0,1.89-0.142,3.747-0.402,5.565h-38.555H55.652z"/>
<path style="fill:#A2CCDB;" d="M200.348,422.957c-61.471,0-111.304-49.833-111.304-111.304s49.833-111.304,111.304-111.304
	s111.304,49.833,111.304,111.304S261.819,422.957,200.348,422.957z"/>
<path style="fill:#B5E1F4;" d="M311.652,311.652c0,61.471-49.833,111.304-111.304,111.304c-15.831,0-30.887-3.312-44.522-9.271
	c39.308-17.177,66.783-56.393,66.783-102.034s-27.474-84.857-66.783-102.034c13.635-5.958,28.691-9.271,44.522-9.271
	C261.819,200.348,311.652,250.18,311.652,311.652z"/>
<path style="fill:#769CA5;" d="M275.478,311.652c0,4.61-3.738,8.348-8.348,8.348s-8.348-3.738-8.348-8.348
	c0-32.222-26.213-58.435-58.435-58.435c-4.61,0-8.348-3.738-8.348-8.348c0-4.61,3.738-8.348,8.348-8.348
	C241.775,236.522,275.478,270.225,275.478,311.652z M200.348,370.087c-32.222,0-58.435-26.213-58.435-58.435
	c0-4.61-3.738-8.348-8.348-8.348c-4.61,0-8.348,3.738-8.348,8.348c0,41.427,33.703,75.13,75.13,75.13
	c4.61,0,8.348-3.738,8.348-8.348S204.958,370.087,200.348,370.087z"/>
<path style="fill:#DBDBDB;" d="M244.87,89.044L244.87,89.044c-6.147,0-11.13-4.983-11.13-11.13l0,0c0-6.147,4.983-11.13,11.13-11.13
	l0,0c6.147,0,11.13,4.983,11.13,11.13l0,0C256,84.06,251.017,89.044,244.87,89.044z M333.913,77.913L333.913,77.913
	c0-6.147-4.983-11.13-11.13-11.13l0,0c-6.147,0-11.13,4.983-11.13,11.13l0,0c0,6.147,4.983,11.13,11.13,11.13l0,0
	C328.93,89.044,333.913,84.06,333.913,77.913z"/>
<path style="fill:#9B9B9B;" d="M512,503.652c0,4.61-3.738,8.348-8.348,8.348H8.348C3.738,512,0,508.262,0,503.652
	s3.738-8.348,8.348-8.348h495.304C508.262,495.304,512,499.042,512,503.652z"/>
<g>
</g>
<g>
</g>
<g>
</g>
<g>
</g>
<g>
</g>
<g>
</g>
<g>
</g>
<g>
</g>
<g>
</g>
<g>
</g>
<g>
</g>
<g>
</g>
<g>
</g>
<g>
</g>
<g>
</g>
</svg>
