<?xml version="1.0" encoding="iso-8859-1"?>
<!-- Generator: Adobe Illustrator 19.0.0, SVG Export Plug-In . SVG Version: 6.00 Build 0)  -->
<svg version="1.1" id="Layer_1" xmlns="http://www.w3.org/2000/svg" xmlns:xlink="http://www.w3.org/1999/xlink" x="0px" y="0px"
	 viewBox="0 0 512 512" style="enable-background:new 0 0 512 512;" xml:space="preserve">
<polygon style="fill:#FEAB75;" points="471.26,303.769 471.26,359.211 298.469,359.211 298.469,303.769 384.865,281.592 "/>
<path style="fill:#FEBB8E;" d="M471.26,292.004v11.765H298.469v-11.765c0-18.296,14.969-33.265,33.265-33.265h106.26
	C456.291,258.739,471.26,273.708,471.26,292.004z"/>
<rect x="145.757" y="303.767" style="fill:#FFCC3D;" width="101.37" height="53.258"/>
<polygon style="fill:#FFDD77;" points="247.13,93.921 247.13,303.769 145.759,303.769 145.759,71.744 "/>
<rect x="72.84" y="5.158" style="fill:#F9F0B5;" width="134.691" height="66.531"/>
<polygon style="fill:#FFBB02;" points="207.531,38.423 247.128,93.921 145.757,93.921 "/>
<g>
	<polygon style="fill:#FFDD77;" points="207.531,38.423 167.934,93.921 100.589,138.274 33.243,93.921 72.84,38.423 	"/>
	<rect x="33.245" y="303.767" style="fill:#FFDD77;" width="134.691" height="53.258"/>
</g>
<rect x="33.245" y="93.918" style="fill:#F9F0B5;" width="134.691" height="209.848"/>
<g>
	<path style="fill:#58AB5B;" d="M512,173.011c0-4.593-3.724-8.316-8.316-8.316c-37.304,0-72.374,14.527-98.752,40.904l11.761,11.761
		c23.236-23.236,54.13-36.033,86.991-36.033C508.278,181.327,512,177.604,512,173.011z"/>
	<path style="fill:#58AB5B;" d="M434.668,95.679c0-4.593-3.723-8.316-8.316-8.316c-4.593,0-8.316,3.723-8.316,8.316
		c0,32.861-12.797,63.754-36.033,86.991l11.762,11.761C420.141,168.053,434.669,132.983,434.668,95.679z"/>
</g>
<path style="fill:#84C688;" d="M483.04,116.324c-3.248-3.248-8.514-3.248-11.761,0l-77.812,77.812l11.761,11.761l77.812-77.812
	C486.288,124.836,486.288,119.571,483.04,116.324z"/>
<path style="fill:#FF7A2F;" d="M313.217,303.769l-101.98,83.241l-61.397-12.075c0,0,26.989-33.066,58.092-71.165l52.642-22.177
	L313.217,303.769z"/>
<path style="fill:#FF9B5F;" d="M370.622,211.325c12.53,12.519,12.53,32.833,0,45.363c-0.776,0.776-1.586,1.508-2.417,2.196
	l-54.987,44.886H207.932c42.302-51.816,92.2-112.947,92.211-112.947c0.676-0.843,1.408-1.652,2.184-2.428
	c12.53-12.53,32.844-12.53,45.374,0L370.622,211.325z"/>
<path style="fill:#F06B22;" d="M354.244,303.769l-101.98,83.241l-61.397-12.075c0,0,26.989-33.066,58.092-71.165l54.721-22.177
	L354.244,303.769z"/>
<path style="fill:#FF7A2F;" d="M411.649,211.325c12.53,12.519,12.53,32.833,0,45.363c-0.776,0.776-1.586,1.508-2.417,2.196
	l-54.987,44.886H248.959c42.302-51.816,92.2-112.947,92.211-112.947c0.676-0.843,1.408-1.652,2.184-2.428
	c12.53-12.53,32.844-12.53,45.374,0L411.649,211.325z"/>
<g>
	<path style="fill:#BF7447;" d="M8.316,295.453c-4.593,0-8.316,3.724-8.316,8.316v33.265l16.633,11.088v-44.354
		C16.633,299.176,12.909,295.453,8.316,295.453z"/>
	<path style="fill:#BF7447;" d="M496.207,295.453c4.593,0,8.316,3.724,8.316,8.316v33.265l-16.633,11.088v-44.354
		C487.89,299.176,491.614,295.453,496.207,295.453z"/>
	<polygon style="fill:#BF7447;" points="504.523,381.388 504.523,506.842 0,506.842 0,381.388 252.262,348.123 	"/>
</g>
<rect y="337.032" style="fill:#A0613C;" width="504.523" height="44.354"/>
<g>
</g>
<g>
</g>
<g>
</g>
<g>
</g>
<g>
</g>
<g>
</g>
<g>
</g>
<g>
</g>
<g>
</g>
<g>
</g>
<g>
</g>
<g>
</g>
<g>
</g>
<g>
</g>
<g>
</g>
</svg>
