<?xml version="1.0" encoding="iso-8859-1"?>
<!-- Generator: Adobe Illustrator 19.0.0, SVG Export Plug-In . SVG Version: 6.00 Build 0)  -->
<svg version="1.1" id="Layer_1" xmlns="http://www.w3.org/2000/svg" xmlns:xlink="http://www.w3.org/1999/xlink" x="0px" y="0px"
	 viewBox="0 0 512 512" style="enable-background:new 0 0 512 512;" xml:space="preserve">
<path style="fill:#AA8144;" d="M294.192,171.981c0.002-0.094,0.014-0.186,0.014-0.279v-27.156c0-21.129-17.14-38.319-38.209-38.319
	c-21.067,0-38.205,17.19-38.205,38.319v27.156c0,0.095,0.011,0.186,0.014,0.279c-108.516,5.642-195.546,96.417-195.546,206.594
	v72.208h231.775h3.929h231.775v-72.208C489.739,268.398,402.709,177.623,294.192,171.981z M257.965,171.701h-3.929h-13.981v-27.156
	c0-8.819,7.154-15.992,15.947-15.992c8.792,0,15.945,7.174,15.945,15.992v27.156H257.965z"/>
<path style="fill:#C6984F;" d="M44.22,285.997c34.021-67.629,103.987-114.295,184.304-114.295h25.51h3.929h25.51
	c80.317,0,150.283,46.667,184.304,114.295C421.712,345.029,344.051,383.803,256,383.803S90.288,345.029,44.22,285.997z
	 M500.87,428.456H11.13c-6.147,0-11.13,4.983-11.13,11.13v0.066c0,6.147,4.983,11.13,11.13,11.13H500.87
	c6.147,0,11.13-4.983,11.13-11.13v-0.066C512,433.439,507.017,428.456,500.87,428.456z"/>
<path style="fill:#E3D7B1;" d="M244.87,211.267c0,6.165-4.983,11.164-11.13,11.164c-81.534,0-149.993,66.356-155.853,151.066
	c-0.407,5.887-5.296,10.39-11.093,10.39c-0.259,0-0.52-0.009-0.782-0.027c-6.132-0.426-10.759-5.759-10.333-11.91
	c6.667-96.363,84.881-171.846,178.061-171.846C239.886,200.104,244.87,205.102,244.87,211.267z"/>
<path style="fill:#CEB896;" d="M512,161.028c0,18.376-14.906,33.328-33.228,33.328h-77.42c-6.048,0-10.968,4.933-10.968,10.998
	v22.163c0,6.165-4.983,11.163-11.13,11.163c-6.147,0-11.13-4.998-11.13-11.163v-22.163c0-18.375,14.907-33.325,33.229-33.325h77.42
	c6.047,0,10.967-4.935,10.967-11.001c0-6.065-4.92-10.998-10.967-10.998H378.347c-18.321,0-33.227-14.95-33.227-33.326
	s14.906-33.325,33.227-33.325h41.486c6.046,0,10.965-4.934,10.965-10.999c0-6.165,4.983-11.164,11.13-11.164
	s11.13,4.998,11.13,11.164c0,18.375-14.905,33.326-33.225,33.326h-41.486c-6.047,0-10.966,4.933-10.966,10.998
	s4.919,10.999,10.966,10.999h100.425C497.094,127.704,512,142.653,512,161.028z"/>
<g>
</g>
<g>
</g>
<g>
</g>
<g>
</g>
<g>
</g>
<g>
</g>
<g>
</g>
<g>
</g>
<g>
</g>
<g>
</g>
<g>
</g>
<g>
</g>
<g>
</g>
<g>
</g>
<g>
</g>
</svg>
