<?xml version="1.0" encoding="iso-8859-1"?>
<!-- Generator: Adobe Illustrator 19.0.0, SVG Export Plug-In . SVG Version: 6.00 Build 0)  -->
<svg version="1.1" id="Layer_1" xmlns="http://www.w3.org/2000/svg" xmlns:xlink="http://www.w3.org/1999/xlink" x="0px" y="0px"
	 viewBox="0 0 512 512" style="enable-background:new 0 0 512 512;" xml:space="preserve">
<path style="fill:#8BCBF1;" d="M317.994,44.948v194.38L256,284.278l-20.915,109.996L256,512h137.436v-69.729
	c0-24.117,8.56-47.452,24.156-65.848l48.691-57.436c15.596-18.396,24.156-41.731,24.156-65.848V44.948l-86.223-20.915
	L317.994,44.948z"/>
<path style="fill:#C7E5FF;" d="M21.56,284.278v10.78l0,0c0,59.631,34.122,111.288,83.903,136.524V512H256V284.278l-117.22-20.915
	L21.56,284.278z"/>
<g>
	<polygon style="fill:#288FD9;" points="317.994,239.33 169.777,239.33 148.862,263.363 169.777,284.278 317.994,284.278 	"/>
	<polygon style="fill:#288FD9;" points="490.44,0 404.217,0 383.302,22.475 404.217,44.948 490.44,44.948 	"/>
</g>
<rect x="21.56" y="239.334" style="fill:#8BCBF1;" width="148.219" height="44.952"/>
<rect x="317.994" style="fill:#55ACE8;" width="86.225" height="44.952"/>
<g>
</g>
<g>
</g>
<g>
</g>
<g>
</g>
<g>
</g>
<g>
</g>
<g>
</g>
<g>
</g>
<g>
</g>
<g>
</g>
<g>
</g>
<g>
</g>
<g>
</g>
<g>
</g>
<g>
</g>
</svg>
