<?xml version="1.0" encoding="iso-8859-1"?>
<!-- Generator: Adobe Illustrator 19.0.0, SVG Export Plug-In . SVG Version: 6.00 Build 0)  -->
<svg version="1.1" id="Layer_1" xmlns="http://www.w3.org/2000/svg" xmlns:xlink="http://www.w3.org/1999/xlink" x="0px" y="0px"
	 viewBox="0 0 511.673 511.673" style="enable-background:new 0 0 511.673 511.673;" xml:space="preserve">
<g>
	<path style="fill:#D98F7A;" d="M467.699,149.742l-0.168-0.856c-5.579-27.869-21.23-52.71-43.97-69.764
		C312.669,119.949,299.975,8.501,299.975,8.501c-28.337-11.335-59.939-11.335-88.276,0c0,0-12.685,111.448-123.586,70.621
		c-22.74,17.055-38.391,41.896-43.97,69.764l-0.168,0.856c58.65,58.65,58.65,170.867,0,229.517l0.168,0.856
		c5.579,27.869,21.23,52.71,43.97,69.764c0,0,123.039-43.034,167.724,61.793c44.694-104.828,167.724-61.793,167.724-61.793
		c22.74-17.055,38.391-41.896,43.97-69.764l0.168-0.856C409.048,320.609,409.048,208.393,467.699,149.742"/>
	<path style="fill:#BA705D;" d="M255.837,448.639c-27.683-27.93-65.695-42.823-111.148-42.823c-18.494,0-34.957,2.481-47.113,5.058
		c-6.056-6.78-10.911-14.539-14.354-22.952c52.78-68.838,52.78-177.999,0-246.846c3.337-8.148,7.998-15.678,13.78-22.298
		c12.482,3.081,24.488,4.643,35.858,4.643h0.018c65.342,0,96.971-48.287,108.782-86.908c4.652-0.803,9.393-1.201,14.177-1.201
		c4.785,0,9.516,0.397,14.177,1.201c11.802,38.621,43.432,86.916,108.791,86.908c11.379,0,23.384-1.562,35.858-4.652
		c5.791,6.63,10.452,14.159,13.789,22.307c-52.78,68.846-52.78,178.008,0,246.846c-3.443,8.413-8.298,16.172-14.354,22.952
		c-12.156-2.578-28.61-5.058-47.113-5.058C321.532,405.816,283.52,420.709,255.837,448.639"/>
	<g>
		<path style="fill:#F0EDE0;" d="M308.802,220.363H202.871c-4.873,0-8.828-3.955-8.828-8.828s3.955-8.828,8.828-8.828h105.931
			c4.873,0,8.828,3.955,8.828,8.828S313.675,220.363,308.802,220.363"/>
		<path style="fill:#F0EDE0;" d="M308.802,264.501H202.871c-4.873,0-8.828-3.955-8.828-8.828c0-4.873,3.955-8.828,8.828-8.828
			h105.931c4.873,0,8.828,3.955,8.828,8.828C317.63,260.546,313.675,264.501,308.802,264.501"/>
		<path style="fill:#F0EDE0;" d="M308.802,308.639H202.871c-4.873,0-8.828-3.955-8.828-8.828s3.955-8.828,8.828-8.828h105.931
			c4.873,0,8.828,3.955,8.828,8.828S313.675,308.639,308.802,308.639"/>
		<path style="fill:#F0EDE0;" d="M264.664,158.57c0,4.873-3.955,8.828-8.828,8.828s-8.828-3.955-8.828-8.828
			s3.955-8.828,8.828-8.828S264.664,153.697,264.664,158.57"/>
		<path style="fill:#F0EDE0;" d="M264.664,352.777c0,4.873-3.955,8.828-8.828,8.828s-8.828-3.955-8.828-8.828
			s3.955-8.828,8.828-8.828S264.664,347.904,264.664,352.777"/>
	</g>
</g>
<g>
</g>
<g>
</g>
<g>
</g>
<g>
</g>
<g>
</g>
<g>
</g>
<g>
</g>
<g>
</g>
<g>
</g>
<g>
</g>
<g>
</g>
<g>
</g>
<g>
</g>
<g>
</g>
<g>
</g>
</svg>
