<?xml version="1.0" encoding="iso-8859-1"?>
<!-- Generator: Adobe Illustrator 19.0.0, SVG Export Plug-In . SVG Version: 6.00 Build 0)  -->
<svg version="1.1" id="Capa_1" xmlns="http://www.w3.org/2000/svg" xmlns:xlink="http://www.w3.org/1999/xlink" x="0px" y="0px"
	 viewBox="0 0 512.007 512.007" style="enable-background:new 0 0 512.007 512.007;" xml:space="preserve">
<g transform="translate(-12 -12)">
	<g transform="matrix(0.70711 -0.70711 0.70711 0.70711 -16.983 41)">
		
			<ellipse transform="matrix(2.535182e-006 1 -1 2.535182e-006 403.0301 321.0293)" style="fill:#FCCC88;" cx="41" cy="362.03" rx="229.252" ry="280.196"/>
		<path style="fill:#F6AB27;" d="M41,187.244L41,187.244c19.501,0,35.31,15.809,35.31,35.31v278.934
			c0,19.501-15.809,35.31-35.31,35.31l0,0c-19.501,0-35.31-15.809-35.31-35.31V222.554C5.69,203.053,21.499,187.244,41,187.244z"/>
	</g>
	<g>
		<path style="fill:#F6AB27;" d="M292.694,66.759L292.694,66.759c13.789-13.789,36.146-13.789,49.936,0l126.617,126.617
			c13.789,13.789,13.789,36.146,0,49.936l0,0c-13.789,13.789-36.146,13.789-49.936,0L292.694,116.694
			C278.905,102.905,278.905,80.548,292.694,66.759L292.694,66.759z"/>
		<path style="fill:#F6AB27;" d="M66.628,292.83L66.628,292.83c13.789-13.789,36.146-13.789,49.935,0l126.617,126.617
			c13.789,13.789,13.789,36.146,0,49.935l0,0c-13.789,13.789-36.146,13.789-49.936,0L66.628,342.765
			C52.839,328.976,52.839,306.619,66.628,292.83L66.628,292.83z"/>
	</g>
	<g>
		<path style="fill:#D69564;" d="M232.693,109.107c-14.619-0.016-26.467-11.863-26.483-26.483c0-4.875,3.952-8.828,8.828-8.828
			s8.828,3.952,8.828,8.828c0.003,4.874,3.954,8.824,8.828,8.828c4.875,0,8.828,3.952,8.828,8.828S237.569,109.107,232.693,109.107
			L232.693,109.107z"/>
		<path style="fill:#D69564;" d="M82.624,215.038c-4.875,0-8.828-3.952-8.828-8.828s3.952-8.828,8.828-8.828
			c4.874-0.003,8.824-3.954,8.828-8.828c0-4.875,3.952-8.828,8.828-8.828s8.828,3.952,8.828,8.828
			C109.091,203.175,97.244,215.022,82.624,215.038z"/>
		<path style="fill:#D69564;" d="M329.797,462.211c-14.619-0.016-26.467-11.863-26.483-26.483c0-4.875,3.952-8.828,8.828-8.828
			s8.828,3.952,8.828,8.828c0.003,4.874,3.954,8.824,8.828,8.828c4.875,0,8.828,3.952,8.828,8.828S334.672,462.211,329.797,462.211
			L329.797,462.211z"/>
		<path style="fill:#D69564;" d="M444.555,320.969c-4.875,0-8.828-3.952-8.828-8.828s3.952-8.828,8.828-8.828
			c4.874-0.003,8.824-3.954,8.828-8.828c0-4.875,3.952-8.828,8.828-8.828s8.828,3.952,8.828,8.828
			C471.022,309.106,459.175,320.953,444.555,320.969L444.555,320.969z"/>
		<path style="fill:#D69564;" d="M435.728,109.107c-14.619-0.016-26.467-11.863-26.483-26.483c0-4.875,3.952-8.828,8.828-8.828
			s8.828,3.952,8.828,8.828c0.003,4.874,3.954,8.824,8.828,8.828c4.875,0,8.828,3.952,8.828,8.828S440.603,109.107,435.728,109.107
			L435.728,109.107z"/>
		<path style="fill:#D69564;" d="M303.314,197.383c-14.619-0.016-26.467-11.863-26.483-26.483c0-4.875,3.952-8.828,8.828-8.828
			s8.828,3.952,8.828,8.828c0.003,4.874,3.954,8.824,8.828,8.828c4.875,0,8.828,3.952,8.828,8.828S308.189,197.383,303.314,197.383
			L303.314,197.383z"/>
		<path style="fill:#D69564;" d="M356.279,268.004c-4.875,0-8.828-3.952-8.828-8.828s3.952-8.828,8.828-8.828
			c4.874-0.003,8.824-3.954,8.828-8.828c0-4.875,3.952-8.828,8.828-8.828s8.828,3.952,8.828,8.828
			C382.746,256.14,370.899,267.988,356.279,268.004L356.279,268.004z"/>
		<path style="fill:#D69564;" d="M144.417,276.831c-14.619-0.016-26.467-11.863-26.483-26.483c0-4.875,3.952-8.828,8.828-8.828
			c4.875,0,8.828,3.952,8.828,8.828c0.003,4.874,3.954,8.824,8.828,8.828c4.875,0,8.828,3.952,8.828,8.828
			S149.293,276.831,144.417,276.831z"/>
		<path style="fill:#D69564;" d="M223.866,365.107c-4.875,0-8.828-3.952-8.828-8.828s3.952-8.828,8.828-8.828
			c4.874-0.003,8.824-3.954,8.828-8.828c0-4.875,3.952-8.828,8.828-8.828s8.828,3.952,8.828,8.828
			C250.332,353.244,238.485,365.091,223.866,365.107L223.866,365.107z"/>
		<path style="fill:#D69564;" d="M73.797,409.245c-14.619-0.016-26.467-11.863-26.483-26.483c0-4.875,3.952-8.828,8.828-8.828
			s8.828,3.952,8.828,8.828c0.003,4.874,3.954,8.824,8.828,8.828c4.875,0,8.828,3.952,8.828,8.828S78.672,409.245,73.797,409.245z"
			/>
		<path style="fill:#D69564;" d="M109.107,471.038c-4.875,0-8.828-3.952-8.828-8.828s3.952-8.828,8.828-8.828
			c4.874-0.003,8.824-3.954,8.828-8.828c0-4.875,3.952-8.828,8.828-8.828c4.875,0,8.828,3.952,8.828,8.828
			C135.574,459.175,123.726,471.022,109.107,471.038z"/>
	</g>
</g>
<g>
</g>
<g>
</g>
<g>
</g>
<g>
</g>
<g>
</g>
<g>
</g>
<g>
</g>
<g>
</g>
<g>
</g>
<g>
</g>
<g>
</g>
<g>
</g>
<g>
</g>
<g>
</g>
<g>
</g>
</svg>
