<?xml version="1.0" encoding="iso-8859-1"?>
<!-- Generator: Adobe Illustrator 19.0.0, SVG Export Plug-In . SVG Version: 6.00 Build 0)  -->
<svg version="1.1" id="Capa_1" xmlns="http://www.w3.org/2000/svg" xmlns:xlink="http://www.w3.org/1999/xlink" x="0px" y="0px"
	 viewBox="0 0 512 512" style="enable-background:new 0 0 512 512;" xml:space="preserve">
<path style="fill:#E9E7EC;" d="M147.49,465.098c0,4.859-0.794,9.529-2.257,13.887c-5.799,17.189-22.058,29.571-41.2,29.571
	s-35.401-12.382-41.2-29.571c-1.473-4.357-2.267-9.028-2.267-13.887l39.225-21.191L147.49,465.098z"/>
<path style="fill:#C0C5CB;" d="M99.791,443.908l47.7,21.191c0,4.859-0.794,9.529-2.257,13.887H62.833
	c-1.473-4.357-2.267-9.028-2.267-13.887L99.791,443.908z"/>
<path style="fill:#EE0300;" d="M160.535,465.094c0-31.207-25.298-56.505-56.505-56.505s-56.505,25.298-56.505,56.505H160.535z"/>
<path style="fill:#FF5767;" d="M113.212,409.4c-2.996-0.49-6.048-0.811-9.182-0.811c-31.207,0-56.505,25.298-56.505,56.505h18.364
	C65.889,437.021,86.383,413.796,113.212,409.4z"/>
<path style="fill:#E9E7EC;" d="M367.743,465.098c0,4.859-0.794,9.529-2.267,13.887c-5.789,17.189-22.047,29.571-41.19,29.571
	s-35.401-12.382-41.2-29.571c-1.473-4.357-2.267-9.028-2.267-13.887l39.225-21.191L367.743,465.098z"/>
<path style="fill:#C0C5CB;" d="M367.743,465.098c0,4.859-0.794,9.529-2.267,13.887h-82.39c-1.473-4.357-2.267-9.028-2.267-13.887
	l39.225-21.191L367.743,465.098z"/>
<path style="fill:#EE0300;" d="M380.789,465.094c0-31.207-25.298-56.505-56.505-56.505s-56.505,25.298-56.505,56.505H380.789z"/>
<path style="fill:#FF5767;" d="M333.466,409.4c-2.996-0.49-6.048-0.811-9.181-0.811c-31.207,0-56.505,25.298-56.505,56.505h18.364
	C286.143,437.021,306.637,413.796,333.466,409.4z"/>
<path style="fill:#EE0300;" d="M100.021,297.512l-19.989-152.41l-4.315-32.925H28.769l5.757,32.925L65.779,323.95
	c2.223,12.72,13.267,22.001,26.18,22.001h14.414h276.062v-48.439H100.021z"/>
<path style="fill:#C0C5CB;" d="M357.848,413.814H62.142c-8.656,0-15.673-7.018-15.673-15.673l0,0
	c0-8.656,7.018-15.673,15.673-15.673h295.574l62.586-358.143c2.11-12.071,12.59-20.879,24.843-20.879h51.18
	c8.656,0,15.673,7.018,15.673,15.673l0,0c0,8.656-7.018,15.673-15.673,15.673h-46.032l-61.722,353.202
	C385.963,402.922,373.002,413.814,357.848,413.814z"/>
<g>
	<polygon style="fill:#EE0300;" points="180.714,112.181 188.561,345.957 143.171,345.957 122.733,112.181 	"/>
	<polygon style="fill:#EE0300;" points="252.979,112.181 310.971,112.181 290.533,345.957 245.132,345.957 	"/>
	<polygon style="fill:#EE0300;" points="404.953,112.177 399.196,145.101 364.098,345.952 327.338,345.952 353.68,145.101 
		357.996,112.177 	"/>
	<polygon style="fill:#EE0300;" points="180.714,112.181 188.561,345.957 143.171,345.957 122.733,112.181 	"/>
	<polygon style="fill:#EE0300;" points="310.971,112.181 290.533,345.957 245.132,345.957 252.979,112.181 	"/>
	<polygon style="fill:#EE0300;" points="188.565,345.952 143.175,345.952 125.61,145.101 122.737,112.177 180.718,112.177 
		181.826,145.101 	"/>
	<polygon style="fill:#EE0300;" points="310.975,112.177 308.102,145.101 290.537,345.952 245.136,345.952 251.876,145.101 
		252.983,112.177 	"/>
</g>
<g>
	<polygon style="fill:#C10202;" points="75.716,112.177 80.032,145.101 34.527,145.101 28.769,112.177 	"/>
	<polygon style="fill:#C10202;" points="180.718,112.177 181.826,145.101 125.61,145.101 122.737,112.177 	"/>
	<polygon style="fill:#C10202;" points="252.983,112.177 310.975,112.177 308.102,145.101 251.876,145.101 	"/>
	<polygon style="fill:#C10202;" points="404.953,112.177 399.196,145.101 353.68,145.101 357.996,112.177 	"/>
</g>
<path style="fill:#EE0300;" d="M19.585,73.011h392.21l-6.845,39.17H19.585C8.769,112.181,0,103.412,0,92.596l0,0
	C0,81.779,8.769,73.011,19.585,73.011z"/>
<g>
</g>
<g>
</g>
<g>
</g>
<g>
</g>
<g>
</g>
<g>
</g>
<g>
</g>
<g>
</g>
<g>
</g>
<g>
</g>
<g>
</g>
<g>
</g>
<g>
</g>
<g>
</g>
<g>
</g>
</svg>
