<?xml version="1.0" encoding="iso-8859-1"?>
<!-- Generator: Adobe Illustrator 19.0.0, SVG Export Plug-In . SVG Version: 6.00 Build 0)  -->
<svg version="1.1" id="Layer_1" xmlns="http://www.w3.org/2000/svg" xmlns:xlink="http://www.w3.org/1999/xlink" x="0px" y="0px"
	 viewBox="0 0 512.001 512.001" style="enable-background:new 0 0 512.001 512.001;" xml:space="preserve">
<rect x="144.191" y="423.663" style="fill:#A4A9AD;" width="223.625" height="16.618"/>
<polygon style="opacity:0.1;enable-background:new    ;" points="144.187,423.666 144.187,440.284 167.643,440.284 176.391,423.666 
	"/>
<polygon style="opacity:0.1;enable-background:new    ;" points="367.807,423.666 367.807,440.284 344.351,440.284 335.603,423.666 
	"/>
<rect x="106.113" y="470.848" style="fill:#A4A9AD;" width="299.781" height="16.618"/>
<polygon style="opacity:0.1;enable-background:new    ;" points="109.946,470.843 106.108,478.134 106.108,487.462 142.808,487.462 
	151.557,470.843 "/>
<polygon style="opacity:0.1;enable-background:new    ;" points="402.054,470.843 405.892,478.134 405.892,487.462 369.192,487.462 
	360.444,470.843 "/>
<path style="fill:#333E48;" d="M80.917,512c-3.164,0-4.548-2.291-3.073-5.09l80.942-153.765c1.473-2.8,4.971-3.885,7.771-2.412
	l22.401,11.793c2.8,1.473,3.885,4.97,2.412,7.772l-71.912,136.61c-1.473,2.8-5.269,5.092-8.433,5.092H80.917V512z"/>
<polygon style="opacity:0.1;enable-background:new    ;" points="161.464,348.054 126.026,415.374 167.638,415.374 194.046,365.207 
	"/>
<path style="fill:#333E48;" d="M431.085,512c3.164,0,4.548-2.291,3.073-5.09l-80.942-153.765c-1.473-2.8-4.97-3.885-7.771-2.412
	l-22.4,11.793c-2.801,1.473-3.886,4.97-2.412,7.772l71.911,136.612c1.475,2.797,5.269,5.09,8.433,5.09h30.107V512z"/>
<polygon style="opacity:0.1;enable-background:new    ;" points="350.537,348.054 385.975,415.374 344.362,415.374 317.955,365.207 
	"/>
<path style="fill:#FF5959;" d="M402.094,23.013C402.094,10.356,391.737,0,379.078,0H132.915c-12.657,0-23.013,10.356-23.013,23.013
	v348.636c0,12.658,10.356,23.014,23.013,23.014h246.164c12.659,0,23.014-10.356,23.014-23.014V23.013H402.094z"/>
<circle style="opacity:0.2;enable-background:new    ;" cx="166.825" cy="327.743" r="25.89"/>
<circle style="opacity:0.2;enable-background:new    ;" cx="345.171" cy="327.743" r="25.89"/>
<path style="fill:#FFFFFF;" d="M371.067,124.936c0-9.492-7.767-17.26-17.26-17.26H158.193c-9.492,0-17.26,7.767-17.26,17.26v121.216
	c0,9.493,7.767,17.261,17.26,17.261h195.613c9.492,0,17.26-7.767,17.26-17.261V124.936H371.067z"/>
<path style="fill:#A4A9AD;" d="M308.931,263.413c0-29.234-23.698-52.931-52.93-52.931c-29.234,0-52.93,23.699-52.93,52.931H308.931z
	"/>
<path style="opacity:0.2;enable-background:new    ;" d="M353.807,107.676H158.193c-9.492,0-17.26,7.767-17.26,17.26v28.63
	c0-9.492,7.767-17.26,17.26-17.26h195.613c9.492,0,17.26,7.767,17.26,17.26v-28.63C371.067,115.443,363.3,107.676,353.807,107.676z"
	/>
<g>
	<path style="fill:#333E48;" d="M353.807,271.722H158.193c-14.099,0-25.569-11.471-25.569-25.57V124.936
		c0-14.099,11.47-25.569,25.569-25.569h195.613c14.099,0,25.569,11.471,25.569,25.569v121.216
		C379.377,260.251,367.906,271.722,353.807,271.722z M158.193,115.985c-4.936,0-8.951,4.015-8.951,8.951v121.216
		c0,4.936,4.015,8.952,8.951,8.952h195.613c4.936,0,8.951-4.016,8.951-8.952V124.936c0-4.936-4.015-8.951-8.951-8.951H158.193
		V115.985z"/>
	<path style="fill:#333E48;" d="M371.067,51.776c0-9.492-7.767-17.26-17.26-17.26H158.193c-9.492,0-17.26,7.767-17.26,17.26v7.296
		c0,9.492,7.767,17.26,17.26,17.26h195.613c9.492,0,17.26-7.767,17.26-17.26v-7.296H371.067z"/>
</g>
<path style="opacity:0.2;enable-background:new    ;" d="M353.807,34.516H158.193c-9.492,0-17.26,7.767-17.26,17.26v7.296
	c0,0.98,0.102,1.935,0.26,2.873c1.38-8.136,8.485-14.388,16.999-14.388h195.613c8.513,0,15.62,6.253,16.999,14.388
	c0.158-0.937,0.26-1.892,0.26-2.873v-7.296C371.067,42.283,363.3,34.516,353.807,34.516z"/>
<g>
	<circle style="fill:#FFB819;" cx="166.825" cy="315.468" r="25.89"/>
	<circle style="fill:#FFB819;" cx="345.171" cy="315.468" r="25.89"/>
</g>
<path style="fill:#D1D3D3;" d="M306.853,394.662v-29.348c0-9.492-7.767-17.26-17.26-17.26h-67.189c-9.492,0-17.26,7.767-17.26,17.26
	v29.348H306.853z"/>
<g style="opacity:0.4;">
	<rect x="205.146" y="364.204" style="fill:#A4A9AD;" width="101.714" height="16.618"/>
</g>
<path style="fill:#FFFFFF;" d="M300.877,318.312h-89.76c-4.589,0-8.309-3.719-8.309-8.309s3.72-8.309,8.309-8.309h89.76
	c4.59,0,8.309,3.719,8.309,8.309S305.467,318.312,300.877,318.312z"/>
<g>
</g>
<g>
</g>
<g>
</g>
<g>
</g>
<g>
</g>
<g>
</g>
<g>
</g>
<g>
</g>
<g>
</g>
<g>
</g>
<g>
</g>
<g>
</g>
<g>
</g>
<g>
</g>
<g>
</g>
</svg>
