<?xml version="1.0" encoding="iso-8859-1"?>
<!-- Generator: Adobe Illustrator 19.0.0, SVG Export Plug-In . SVG Version: 6.00 Build 0)  -->
<svg version="1.1" id="Capa_1" xmlns="http://www.w3.org/2000/svg" xmlns:xlink="http://www.w3.org/1999/xlink" x="0px" y="0px"
	 viewBox="0 0 512 512" style="enable-background:new 0 0 512 512;" xml:space="preserve">
<path style="fill:#ACB3BA;" d="M333.867,0H178.133c-21.333,0-38.4,17.067-38.4,38.4v43.733h37.333V38.4c0,0,0-1.067,1.067-1.067
	h156.8c0,0,1.067,0,1.067,1.067v43.733h37.333V38.4C372.267,17.067,355.2,0,333.867,0z"/>
<rect y="243.2" style="fill:#FF7058;" width="512" height="244.267"/>
<path style="fill:#40596B;" d="M448,91.733H64c-35.2,0-64,28.8-64,64l0,0v86.4h512v-86.4l0,0C512,120.533,483.2,91.733,448,91.733z"
	/>
<rect y="212.267" style="fill:#FFD15C;" width="512" height="30.933"/>
<g>
	<polygon style="fill:#40596B;" points="72.533,512 0,512 0,487.467 83.2,487.467 	"/>
	<polygon style="fill:#40596B;" points="512,512 439.467,512 428.8,487.467 512,487.467 	"/>
</g>
<g>
	<rect x="131.2" y="76.8" style="fill:#CDD6E0;" width="54.4" height="16"/>
	<rect x="326.4" y="76.8" style="fill:#CDD6E0;" width="54.4" height="16"/>
</g>
<g>
	<rect x="71.467" y="202.667" style="fill:#40596B;" width="59.733" height="92.8"/>
	<rect x="380.8" y="202.667" style="fill:#40596B;" width="59.733" height="92.8"/>
</g>
<g>
	<circle style="fill:#CDD6E0;" cx="101.333" cy="260.267" r="17.067"/>
	<circle style="fill:#CDD6E0;" cx="410.667" cy="260.267" r="17.067"/>
</g>
<path style="fill:#F2F2F2;" d="M328.533,368h-144c-7.467-14.933-23.467-25.6-41.6-25.6s-34.133,10.667-41.6,25.6h38.4l7.467,21.333
	l-7.467,21.333h-38.4c7.467,14.933,23.467,25.6,41.6,25.6s34.133-10.667,41.6-25.6h144c7.467,14.933,23.467,25.6,41.6,25.6
	c18.133,0,34.133-10.667,41.6-25.6h-38.4l-7.467-21.333L373.333,368h38.4c-7.467-14.933-23.467-25.6-41.6-25.6
	C352,342.4,336,352,328.533,368z"/>
<g>
</g>
<g>
</g>
<g>
</g>
<g>
</g>
<g>
</g>
<g>
</g>
<g>
</g>
<g>
</g>
<g>
</g>
<g>
</g>
<g>
</g>
<g>
</g>
<g>
</g>
<g>
</g>
<g>
</g>
</svg>
