<?xml version="1.0" encoding="iso-8859-1"?>
<!-- Generator: Adobe Illustrator 19.0.0, SVG Export Plug-In . SVG Version: 6.00 Build 0)  -->
<svg version="1.1" id="Layer_1" xmlns="http://www.w3.org/2000/svg" xmlns:xlink="http://www.w3.org/1999/xlink" x="0px" y="0px"
	 viewBox="0 0 512 512" style="enable-background:new 0 0 512 512;" xml:space="preserve">
<rect x="294.528" y="90.869" style="fill:#B7B7B7;" width="67.586" height="28.994"/>
<path style="fill:#C2C3C4;" d="M362.114,119.859V90.865h-34.138c-3.028,9.45-5.555,19.123-7.536,28.994
	C320.439,119.859,362.114,119.859,362.114,119.859z"/>
<rect x="294.528" y="90.869" style="fill:#929596;" width="20.261" height="28.994"/>
<path style="fill:#545C60;" d="M382.153,46.75v31.481c0,7.544-6.114,13.662-13.66,13.662h-80.34c-7.544,0-13.66-6.117-13.66-13.662
	V16.757c0-7.545,6.115-13.661,13.66-13.661h80.34c7.546,0,13.66,6.116,13.66,13.661v5.267"/>
<path style="fill:#656D70;" d="M368.492,91.894c7.546,0,13.66-6.117,13.66-13.662c0-5.564,0-50.574,0-56.207
	c0-4.794,1.032-13.282-7.682-17.537c-20.638,25.694-36.67,55.244-46.829,87.405h40.851V91.894z"/>
<path style="fill:#3F484C;" d="M294.752,78.231V16.757c0-7.545,6.115-13.661,13.66-13.661h-20.261
	c-7.544,0-13.66,6.116-13.66,13.661v61.474c0,7.544,6.115,13.662,13.66,13.662h20.261C300.867,91.894,294.752,85.777,294.752,78.231
	z"/>
<path style="fill:#DBDADF;" d="M387.751,150.677v-18.186c0-7.544-6.117-13.663-13.663-13.663h-91.534
	c-7.543,0-13.663,6.118-13.663,13.663v18.186H387.751z"/>
<path style="fill:#E3E3E5;" d="M387.751,150.677v-18.186c0-7.544-6.117-13.663-13.663-13.663h-53.451
	c-2.131,10.409-3.647,21.04-4.542,31.848h71.657V150.677z"/>
<path style="fill:#C4C3C9;" d="M302.814,118.829h-20.261c-7.543,0-13.663,6.118-13.663,13.663v18.186h20.261v-18.186
	C289.152,124.947,295.271,118.829,302.814,118.829z"/>
<path style="fill:#B0DCF7;" d="M201.002,243.503v173.998h190.401v-0.75h64.24c0-7.502,0-164.391,0-173.249
	C444.512,243.503,213.804,243.503,201.002,243.503z"/>
<rect x="201.007" y="243.498" style="fill:#7AC1DD;" width="20.261" height="174"/>
<path style="fill:#B3E5BD;" d="M114.243,13.176c-48.231,0-40.909,0.001-47.935-0.002v117.992c21.31,0,26.664,0,47.934,0
	c6.984,0.002,12.644-5.661,12.642-12.641l-0.001-92.708C126.886,18.837,121.224,13.176,114.243,13.176z"/>
<path style="fill:#93CC9D;" d="M66.307,13.174v117.992c11.733,0,8.96,0,20.605,0V13.176C68.922,13.176,73.104,13.176,66.307,13.174z
	"/>
<rect x="66.305" y="65.234" style="fill:#C6F4CE;" width="60.579" height="15.453"/>
<rect x="66.305" y="65.234" style="fill:#A9E0B1;" width="20.605" height="15.453"/>
<rect x="66.305" y="35.472" style="fill:#C6F4CE;" width="60.579" height="15.454"/>
<rect x="66.305" y="35.472" style="fill:#AFE2B6;" width="20.605" height="15.454"/>
<rect x="66.305" y="94.993" style="fill:#C6F4CE;" width="60.579" height="15.453"/>
<rect x="66.305" y="94.993" style="fill:#A9E0B1;" width="20.605" height="15.453"/>
<path style="fill:#64B573;" d="M93.412,220.842c-12.126,0-21.953,9.834-21.953,21.958v246.213c0,12.128,9.827,21.955,21.953,21.954
	c12.128,0.001,21.956-9.828,21.956-21.954c0-6.782,0-240.505,0-246.215C115.368,230.674,105.54,220.844,93.412,220.842z"/>
<path style="fill:#5DA864;" d="M93.414,489.014V242.801c0-8.121,4.421-15.198,10.977-18.997
	c-14.626-8.471-32.932,2.125-32.932,18.997v246.213c0,16.893,18.323,27.454,32.932,18.995
	C97.834,504.213,93.414,497.137,93.414,489.014z"/>
<polyline style="fill:#B3E5BD;" points="115.368,275.517 71.458,275.517 71.458,457.774 115.368,457.772 "/>
<rect x="71.46" y="275.519" style="fill:#97D3A1;" width="21.955" height="182.258"/>
<path style="fill:#6DC180;" d="M97.361,222.248L67.34,159.77L67.338,13.174c-0.001-7.27-5.894-13.166-13.167-13.168
	c-7.273,0-13.17,5.898-13.168,13.17c0,161.309-0.557,151.44,1.297,155.3l31.493,65.537
	C78.023,225.583,87.356,220.425,97.361,222.248z"/>
<path style="fill:#52A35D;" d="M53.881,159.678V10.085c-0.001-3.747,1.572-7.119,4.082-9.517
	c-8.486-2.55-16.963,3.823-16.961,12.608c0,161.309-0.557,151.44,1.297,155.3l31.493,65.537c2.104-4.193,5.508-7.614,9.68-9.746
	C52.772,160.374,53.883,163.822,53.881,159.678z"/>
<path style="fill:#579ADF;" d="M175.287,105.081V49.006c0-28.246,10.286-39.874,16.905-44.435V4.569c0,0,3.812-2.86-1.29-3.614
	c-35.258-3.681-63.116,10.068-63.116,45.011v59.117c0,13.118,10.631,23.752,23.751,23.752
	C164.653,128.836,175.287,118.201,175.287,105.081z"/>
<path style="fill:#3481C6;" d="M151.653,105.083V45.967c0-22.947,13.696-41.064,40.106-44.845c-1.001-0.251-1.977-0.252-2.977-0.37
	c-49.215-4.267-58.438,25.278-60.165,36.498c-1.083,5.82-0.832,4.076-0.832,67.834c0,18.346,19.941,29.707,35.684,20.533
	C156.403,121.502,151.653,113.85,151.653,105.083z"/>
<path style="fill:#C5E7F9;" d="M455.643,409.96c0-31.542,0-158.514,0-166.458c-5.703,0-69.047,0-131.192,0
	C343.761,315.205,391.868,375.095,455.643,409.96z"/>
<path style="fill:#579ADF;" d="M471.076,232.756c0,8.524-6.912,15.434-15.433,15.434H201.002c-8.524,0-15.432-6.91-15.432-15.434
	v-67.675c0-8.524,6.908-15.434,15.432-15.434h254.64c8.521,0,15.433,6.91,15.433,15.434v67.675H471.076z"/>
<path style="fill:#6AADEA;" d="M455.643,149.647H316.187c-2.891,33.415,0.329,66.671,9.54,98.543h129.915
	c8.521,0,15.433-6.91,15.433-15.434v-67.675C471.076,156.557,464.164,149.647,455.643,149.647z"/>
<path style="fill:#579ADF;" d="M455.643,413.457H201.002c-8.524,0-15.432,6.911-15.432,15.433v67.677
	c0,8.523,6.908,15.433,15.432,15.433c8.918,0,244.891,0,254.64,0c8.521,0,15.433-6.91,15.433-15.433V428.89
	C471.076,420.367,464.164,413.457,455.643,413.457z"/>
<g>
	<path style="fill:#3481C6;" d="M205.831,232.756v-67.675c0-8.524,6.908-15.434,15.432-15.434h-20.261
		c-8.524,0-15.432,6.91-15.432,15.434v67.675c0,8.524,6.908,15.434,15.432,15.434h20.261
		C212.738,248.19,205.831,241.28,205.831,232.756z"/>
	<path style="fill:#3481C6;" d="M205.831,496.567V428.89c0-8.522,6.908-15.433,15.432-15.433h-20.261
		c-8.524,0-15.432,6.911-15.432,15.433v67.677c0,8.523,6.908,15.433,15.432,15.433h20.261
		C212.738,512,205.831,505.09,205.831,496.567z"/>
</g>
<g>
	<path style="fill:#F5F5F5;" d="M387.081,304.365H270.464c-4.268,0-7.728-3.459-7.728-7.727c0-4.268,3.459-7.728,7.728-7.728
		h116.617c4.266,0,7.728,3.459,7.728,7.728C394.808,300.907,391.347,304.365,387.081,304.365z"/>
	<path style="fill:#F5F5F5;" d="M386.181,338.55H269.566c-4.268,0-7.728-3.459-7.728-7.728c0-4.267,3.459-7.727,7.728-7.727h116.615
		c4.266,0,7.728,3.459,7.728,7.727C393.908,335.092,390.448,338.55,386.181,338.55z"/>
	<path style="fill:#F5F5F5;" d="M386.181,372.736H269.566c-4.268,0-7.728-3.459-7.728-7.727c0-4.267,3.459-7.727,7.728-7.727
		h116.615c4.266,0,7.728,3.458,7.728,7.727C393.908,369.277,390.448,372.736,386.181,372.736z"/>
</g>
<g>
</g>
<g>
</g>
<g>
</g>
<g>
</g>
<g>
</g>
<g>
</g>
<g>
</g>
<g>
</g>
<g>
</g>
<g>
</g>
<g>
</g>
<g>
</g>
<g>
</g>
<g>
</g>
<g>
</g>
</svg>
