<?xml version="1.0" encoding="iso-8859-1"?>
<!-- Generator: Adobe Illustrator 19.0.0, SVG Export Plug-In . SVG Version: 6.00 Build 0)  -->
<svg version="1.1" id="Capa_1" xmlns="http://www.w3.org/2000/svg" xmlns:xlink="http://www.w3.org/1999/xlink" x="0px" y="0px"
	 viewBox="0 0 58 58" style="enable-background:new 0 0 58 58;" xml:space="preserve">
<rect y="22.5" style="fill:#ECF0F1;" width="58" height="25"/>
<rect y="10.5" style="fill:#546A79;" width="58" height="12"/>
<path style="fill:#BDC3C7;" d="M19,33.5H3v-8h16V33.5z M5,31.5h12v-4H5V31.5z"/>
<path style="fill:#BDC3C7;" d="M25,38.5H10c-0.552,0-1-0.448-1-1s0.448-1,1-1h15c0.552,0,1,0.448,1,1S25.552,38.5,25,38.5z"/>
<path style="fill:#BDC3C7;" d="M23,43.5H7c-0.552,0-1-0.448-1-1s0.448-1,1-1h16c0.552,0,1,0.448,1,1S23.552,43.5,23,43.5z"/>
<path style="fill:#BDC3C7;" d="M49,44.5H39c-0.552,0-1-0.448-1-1s0.448-1,1-1h10c0.553,0,1,0.448,1,1S49.553,44.5,49,44.5z"/>
<path style="fill:#BDC3C7;" d="M31,47.5h-2v-1h2V47.5z M31,45.5h-2v-3h2V45.5z M31,41.5h-2v-3h2V41.5z M31,37.5h-2v-3h2V37.5z
	 M31,33.5h-2v-3h2V33.5z M31,29.5h-2v-3h2V29.5z M31,25.5h-2v-3h2V25.5z"/>
<path style="fill:#BDC3C7;" d="M39,40.5c-0.28,0-0.559-0.117-0.756-0.345c-0.361-0.417-0.316-1.049,0.101-1.411l15-13
	c0.417-0.36,1.049-0.318,1.411,0.101c0.361,0.417,0.316,1.049-0.101,1.411l-15,13C39.466,40.419,39.232,40.5,39,40.5z"/>
<path style="fill:#BDC3C7;" d="M38.999,40.5c-0.208,0-0.419-0.065-0.599-0.2l-4-3c-0.442-0.331-0.531-0.958-0.2-1.4
	c0.331-0.44,0.957-0.531,1.4-0.2l4,3c0.442,0.331,0.531,0.958,0.2,1.4C39.604,40.362,39.303,40.5,38.999,40.5z"/>
<path style="fill:#BDC3C7;" d="M49,39.5c-0.553,0-1-0.448-1-1v-8c0-0.552,0.447-1,1-1s1,0.448,1,1v8C50,39.052,49.553,39.5,49,39.5z
	"/>
<path style="fill:#BDC3C7;" d="M49,31.5h-9c-0.552,0-1-0.448-1-1s0.448-1,1-1h9c0.553,0,1,0.448,1,1S49.553,31.5,49,31.5z"/>
<g>
	<path style="fill:#FFFFFF;" d="M4,15.5h11c0.552,0,1-0.448,1-1s-0.448-1-1-1H4c-0.552,0-1,0.448-1,1S3.448,15.5,4,15.5z"/>
	<path style="fill:#FFFFFF;" d="M9,17.5H4c-0.552,0-1,0.448-1,1s0.448,1,1,1h5c0.552,0,1-0.448,1-1S9.552,17.5,9,17.5z"/>
	<path style="fill:#FFFFFF;" d="M30,17.5h-5c-0.552,0-1,0.448-1,1s0.448,1,1,1h5c0.552,0,1-0.448,1-1S30.552,17.5,30,17.5z"/>
	<path style="fill:#FFFFFF;" d="M21,17.5h-8c-0.552,0-1,0.448-1,1s0.448,1,1,1h8c0.552,0,1-0.448,1-1S21.552,17.5,21,17.5z"/>
	<path style="fill:#FFFFFF;" d="M34,13.5H19c-0.552,0-1,0.448-1,1s0.448,1,1,1h15c0.552,0,1-0.448,1-1S34.552,13.5,34,13.5z"/>
</g>
<g>
</g>
<g>
</g>
<g>
</g>
<g>
</g>
<g>
</g>
<g>
</g>
<g>
</g>
<g>
</g>
<g>
</g>
<g>
</g>
<g>
</g>
<g>
</g>
<g>
</g>
<g>
</g>
<g>
</g>
</svg>
