<?xml version="1.0" encoding="iso-8859-1"?>
<!-- Generator: Adobe Illustrator 19.0.0, SVG Export Plug-In . SVG Version: 6.00 Build 0)  -->
<svg version="1.1" id="Layer_1" xmlns="http://www.w3.org/2000/svg" xmlns:xlink="http://www.w3.org/1999/xlink" x="0px" y="0px"
	 viewBox="0 0 512 512" style="enable-background:new 0 0 512 512;" xml:space="preserve">
<rect x="37.569" y="218.427" style="fill:#485D6D;" width="446.718" height="70.673"/>
<rect x="188.053" y="218.427" style="fill:#C9D1E3;" width="127.826" height="70.673"/>
<polygon style="opacity:0.19;fill:#202121;enable-background:new    ;" points="486.604,218.432 173.555,218.432 39.88,218.432 
	39.88,244.981 39.88,289.105 173.555,289.105 173.555,244.981 486.604,244.981 "/>
<g>
	<path style="fill:#485D6D;" d="M43.8,218.432h-6.23C16.854,218.432,0,235.286,0,255.999c0,20.716,16.854,37.569,37.569,37.569h6.23
		c6.383,0,11.558-5.177,11.558-11.559v-52.018C55.358,223.607,50.183,218.432,43.8,218.432z"/>
	<path style="fill:#485D6D;" d="M474.431,218.432h-6.231c-6.382,0-11.556,5.174-11.556,11.559v52.018
		c0,6.383,5.174,11.559,11.556,11.559h6.231c20.715,0,37.569-16.853,37.569-37.569C512,235.286,495.146,218.432,474.431,218.432z"/>
</g>
<g style="opacity:0.19;">
	<path style="fill:#202121;" d="M43.8,218.432h-6.23C16.854,218.432,0,235.286,0,255.999c0,20.716,16.854,37.569,37.569,37.569h6.23
		c6.383,0,11.558-5.177,11.558-11.559v-52.018C55.358,223.607,50.183,218.432,43.8,218.432z"/>
	<path style="fill:#202121;" d="M474.431,218.432h-6.231c-6.382,0-11.556,5.174-11.556,11.559v52.018
		c0,6.383,5.174,11.559,11.556,11.559h6.231c20.715,0,37.569-16.853,37.569-37.569C512,235.286,495.146,218.432,474.431,218.432z"/>
</g>
<g>
	<path style="fill:#485D6D;" d="M87.341,134.819H46.111c-6.384,0-11.557,5.177-11.557,11.558v219.245
		c0,6.385,5.173,11.558,11.557,11.558h41.23c6.384,0,11.558-5.173,11.558-11.558V146.377
		C98.898,139.996,93.725,134.819,87.341,134.819z"/>
	<path style="fill:#485D6D;" d="M467.045,134.819h-41.231c-6.383,0-11.558,5.177-11.558,11.558v219.245
		c0,6.385,5.175,11.558,11.558,11.558h41.231c6.383,0,11.557-5.173,11.557-11.558V146.377
		C478.602,139.996,473.428,134.819,467.045,134.819z"/>
</g>
<g>
	<path style="opacity:0.19;fill:#202121;enable-background:new    ;" d="M455.677,170.264c0-6.384,5.174-11.558,11.558-11.558
		h11.368v-12.329c0-6.382-5.174-11.558-11.557-11.558h-41.231c-6.383,0-11.558,5.177-11.558,11.558v219.245
		c0,6.385,5.175,11.558,11.558,11.558h29.862V170.264z"/>
	<path style="opacity:0.19;fill:#202121;enable-background:new    ;" d="M54.202,169.491c0-6.38,5.174-11.556,11.558-11.556h33.139
		v-11.558c0-6.382-5.174-11.558-11.558-11.558h-41.23c-6.384,0-11.557,5.177-11.557,11.558v219.245
		c0,6.385,5.173,11.558,11.557,11.558h8.09V169.491H54.202z"/>
</g>
<g>
	<path style="fill:#485D6D;" d="M422.926,82.674h-47.587c-6.384,0-11.559,5.174-11.559,11.559v323.535
		c0,6.383,5.176,11.558,11.559,11.558h47.587c6.383,0,11.557-5.175,11.557-11.558V94.233
		C434.483,87.848,429.309,82.674,422.926,82.674z"/>
	<path style="fill:#485D6D;" d="M136.662,82.674H89.075c-6.384,0-11.558,5.174-11.558,11.559v323.535
		c0,6.383,5.174,11.558,11.558,11.558h47.587c6.382,0,11.557-5.175,11.557-11.558V94.233
		C148.219,87.848,143.044,82.674,136.662,82.674z"/>
</g>
<g>
	<path style="opacity:0.19;fill:#202121;enable-background:new    ;" d="M388.052,117.347c0-6.384,5.174-11.557,11.557-11.557
		h34.873V94.233c0-6.385-5.174-11.559-11.557-11.559h-47.587c-6.384,0-11.559,5.174-11.559,11.559v323.535
		c0,6.383,5.175,11.558,11.559,11.558h12.714L388.052,117.347L388.052,117.347z"/>
	<path style="opacity:0.19;fill:#202121;enable-background:new    ;" d="M101.789,117.347c0-6.384,5.173-11.557,11.557-11.557
		h34.873V94.233c0-6.385-5.175-11.559-11.557-11.559H89.075c-6.384,0-11.558,5.174-11.558,11.559v323.535
		c0,6.383,5.174,11.558,11.558,11.558h12.713V117.347H101.789z"/>
</g>
<g>
</g>
<g>
</g>
<g>
</g>
<g>
</g>
<g>
</g>
<g>
</g>
<g>
</g>
<g>
</g>
<g>
</g>
<g>
</g>
<g>
</g>
<g>
</g>
<g>
</g>
<g>
</g>
<g>
</g>
</svg>
