<?xml version="1.0" encoding="iso-8859-1"?>
<!-- Generator: Adobe Illustrator 19.0.0, SVG Export Plug-In . SVG Version: 6.00 Build 0)  -->
<svg version="1.1" id="Layer_1" xmlns="http://www.w3.org/2000/svg" xmlns:xlink="http://www.w3.org/1999/xlink" x="0px" y="0px"
	 viewBox="0 0 512 512" style="enable-background:new 0 0 512 512;" xml:space="preserve">
<path style="fill:#E4F2F1;" d="M340,100L340,100l-36.129,280H240l-20.386-88.34c-5.627-24.386-27.342-41.66-52.369-41.66l0,0
	c-22.403,0-42.457,13.897-50.323,34.874l-6.389,17.036C103.568,320.485,100,340.162,100,360l0,0c0,11.046-8.954,20-20,20l0,0
	c-25.088,0-46.275-18.628-49.485-43.51L0,100v-4.384c0-17.013,2.087-33.962,6.213-50.468l1.345-5.381C13.401,16.396,34.4,0,58.491,0
	h14.268c19.348,0,36.693,10.581,45.803,26.851C127.672,10.581,145.018,0,164.366,0h14.268c18.742,0,35.61,9.926,44.928,25.338
	C232.881,9.926,249.749,0,268.491,0h14.266c24.091,0,45.091,16.395,50.935,39.767l0.276,1.104C338.798,60.19,340.829,80.103,340,100
	z"/>
<path style="fill:#DAE8E7;" d="M340,100L340,100l-32.258,250h-74.665l-13.463-58.34c-5.627-24.386-27.342-41.66-52.368-41.66l0,0
	c-22.403,0-42.456,13.897-50.323,34.874l-6.389,17.036C103.568,320.485,100,340.162,100,360l0,0
	c0,10.305-7.796,18.784-17.812,19.875C74.474,363.566,70.09,344.872,70.09,325c0-63.513,46.372-101.802,100-115
	C250,190.333,318,108.333,293.787,40.87l-0.276-1.104c-4.764-19.052-19.599-33.464-37.97-38.143C259.702,0.565,264.043,0,268.491,0
	h14.264c24.091,0,45.092,16.395,50.937,39.767l0.276,1.104C338.798,60.19,340.829,80.103,340,100z"/>
<path style="fill:#FC7F59;" d="M512,318.25v77.5c0,8.56-6.94,15.5-15.5,15.5h-85.25v85.25c0,8.56-6.94,15.5-15.5,15.5H340
	c-8.56,0-15.5-6.94-15.5-15.5v-85.25h-85.25c-8.56,0-15.5-6.94-15.5-15.5V330c0-8.56,6.94-15.5,15.5-15.5h85.25v-97
	c0-8.56,6.94-15.5,15.5-15.5h55.75c8.56,0,15.5,6.94,15.5,15.5v85.25h85.25C505.06,302.75,512,309.69,512,318.25z"/>
<path style="fill:#FF9C6F;" d="M496.5,302.75h-85.25V217.5c0-8.56-6.94-15.5-15.5-15.5h-77.5c-8.56,0-15.5,6.94-15.5,15.5v85.25
	H217.5c-8.56,0-15.5,6.94-15.5,15.5v77.5c0,8.56,6.94,15.5,15.5,15.5h85.25v85.25c0,8.56,6.94,15.5,15.5,15.5h77.5
	c8.56,0,15.5-6.94,15.5-15.5v-85.25h85.25c8.56,0,15.5-6.94,15.5-15.5v-77.5C512,309.69,505.06,302.75,496.5,302.75z M482,381.25
	H381.25V482h-48.5V381.25H232v-48.5h100.75V232h48.5v100.75H482V381.25z"/>
<g>
</g>
<g>
</g>
<g>
</g>
<g>
</g>
<g>
</g>
<g>
</g>
<g>
</g>
<g>
</g>
<g>
</g>
<g>
</g>
<g>
</g>
<g>
</g>
<g>
</g>
<g>
</g>
<g>
</g>
</svg>
