<?xml version="1.0" encoding="iso-8859-1"?>
<!-- Generator: Adobe Illustrator 19.0.0, SVG Export Plug-In . SVG Version: 6.00 Build 0)  -->
<svg version="1.1" id="Capa_1" xmlns="http://www.w3.org/2000/svg" xmlns:xlink="http://www.w3.org/1999/xlink" x="0px" y="0px"
	 viewBox="0 0 512.001 512.001" style="enable-background:new 0 0 512.001 512.001;" xml:space="preserve">
<path style="fill:#FF44AF;" d="M256,59.009V7.5l58.456,23.853c1.726,0.704,1.726,3.099,0,3.804L256,59.009z"/>
<path style="fill:#686370;" d="M256,135.789c-4.143,0-7.5-3.358-7.5-7.5V7.5c0-4.142,3.357-7.5,7.5-7.5s7.5,3.358,7.5,7.5v120.789
	C263.5,132.431,260.143,135.789,256,135.789z"/>
<rect x="65.42" y="204.31" style="fill:#FF75C4;" width="381.17" height="291.9"/>
<rect x="328.11" y="204.31" style="fill:#FF119A;" width="118.47" height="291.9"/>
<rect x="416.42" y="204.31" style="fill:#D51E94;" width="30" height="291.9"/>
<rect x="183.89" y="204.31" style="fill:#FF44AF;" width="144.22" height="291.9"/>
<path style="fill:#686370;" d="M297.207,496.547h-82.414V378.076c0-22.758,18.449-41.207,41.207-41.207l0,0
	c22.758,0,41.207,18.449,41.207,41.207V496.547z"/>
<path style="fill:#56525B;" d="M256,336.869L256,336.869c-5.322,0-10.402,1.02-15.071,2.856c15.3,6.018,26.136,20.914,26.136,38.351
	v118.471h30.142V378.076C297.207,355.318,278.758,336.869,256,336.869z"/>
<path style="fill:#A96458;" d="M496.547,512H15.453C6.918,512,0,505.082,0,496.547l0,0c0-8.534,6.918-15.453,15.453-15.453h481.095
	c8.534,0,15.453,6.918,15.453,15.453l0,0C512,505.082,505.082,512,496.547,512z"/>
<path style="fill:#895C62;" d="M496.547,481.095h-30.905c8.534,0,15.453,6.919,15.453,15.453s-6.918,15.453-15.453,15.453h30.905
	c8.534,0,15.453-6.919,15.453-15.453C512,488.013,505.082,481.095,496.547,481.095z"/>
<path style="fill:#FFDC5A;" d="M481.88,219.43H30.11c0.28-0.37,0.62-0.69,1.01-0.94l0.51-0.27c0.01-0.01,0.03-0.02,0.05-0.02
	l205.39-109.17l15.53-8.26c2.13-1.12,4.67-1.12,6.8,0l221.14,117.54c0.07,0.03,0.14,0.07,0.21,0.12
	C481.19,218.68,481.58,219.02,481.88,219.43z"/>
<path style="fill:#FFC843;" d="M481.88,219.43h-37.1l-207.71-110.4l15.53-8.26c2.13-1.12,4.67-1.12,6.8,0l221.14,117.54
	c0.07,0.03,0.14,0.07,0.21,0.12C481.19,218.68,481.58,219.02,481.88,219.43z"/>
<path style="fill:#55A1FB;" d="M50.825,260.5h-0.359c-11.242,0-20.355-9.113-20.355-20.355V219.43h41.07v20.715
	C71.18,251.387,62.067,260.5,50.825,260.5z"/>
<path style="fill:#27EEFF;" d="M91.895,260.5h-0.359c-11.242,0-20.355-9.113-20.355-20.355V219.43h41.07v20.715
	C112.25,251.387,103.137,260.5,91.895,260.5z"/>
<path style="fill:#55A1FB;" d="M132.965,260.5h-0.359c-11.242,0-20.355-9.113-20.355-20.355V219.43h41.07v20.715
	C153.32,251.387,144.207,260.5,132.965,260.5z"/>
<path style="fill:#27EEFF;" d="M174.035,260.5h-0.359c-11.242,0-20.355-9.113-20.355-20.355V219.43h41.07v20.715
	C194.39,251.387,185.277,260.5,174.035,260.5z"/>
<path style="fill:#55A1FB;" d="M215.105,260.5h-0.359c-11.242,0-20.355-9.113-20.355-20.355V219.43h41.07v20.715
	C235.46,251.387,226.347,260.5,215.105,260.5z"/>
<path style="fill:#27EEFF;" d="M256.175,260.5h-0.359c-11.242,0-20.355-9.113-20.355-20.355V219.43h41.07v20.715
	C276.53,251.387,267.417,260.5,256.175,260.5z"/>
<path style="fill:#55A1FB;" d="M297.245,260.5h-0.359c-11.242,0-20.355-9.113-20.355-20.355V219.43h41.07v20.715
	C317.6,251.387,308.487,260.5,297.245,260.5z"/>
<path style="fill:#27EEFF;" d="M338.315,260.5h-0.359c-11.242,0-20.355-9.113-20.355-20.355V219.43h41.07v20.715
	C358.67,251.387,349.557,260.5,338.315,260.5z"/>
<path style="fill:#55A1FB;" d="M379.385,260.5h-0.359c-11.242,0-20.355-9.113-20.355-20.355V219.43h41.07v20.715
	C399.74,251.387,390.627,260.5,379.385,260.5z"/>
<path style="fill:#27EEFF;" d="M420.455,260.5h-0.359c-11.242,0-20.355-9.113-20.355-20.355V219.43h41.07v20.715
	C440.81,251.387,431.697,260.5,420.455,260.5z"/>
<path style="fill:#55A1FB;" d="M461.525,260.5h-0.359c-11.242,0-20.355-9.113-20.355-20.355V219.43h41.07v20.715
	C481.88,251.387,472.767,260.5,461.525,260.5z"/>
<g>
</g>
<g>
</g>
<g>
</g>
<g>
</g>
<g>
</g>
<g>
</g>
<g>
</g>
<g>
</g>
<g>
</g>
<g>
</g>
<g>
</g>
<g>
</g>
<g>
</g>
<g>
</g>
<g>
</g>
</svg>
