<?xml version="1.0" encoding="iso-8859-1"?>
<!-- Generator: Adobe Illustrator 19.0.0, SVG Export Plug-In . SVG Version: 6.00 Build 0)  -->
<svg version="1.1" id="Layer_1" xmlns="http://www.w3.org/2000/svg" xmlns:xlink="http://www.w3.org/1999/xlink" x="0px" y="0px"
	 viewBox="0 0 512 512" style="enable-background:new 0 0 512 512;" xml:space="preserve">
<path style="fill:#E1E0E4;" d="M352,112h-24V96c0-4.418-3.582-8-8-8H192c-4.418,0-8,3.582-8,8v16h-24c-39.701,0-72,32.299-72,72v256
	c0,39.701,32.299,72,72,72h192c39.701,0,72-32.299,72-72V184C424,144.299,391.701,112,352,112z"/>
<path style="fill:#D2D1D6;" d="M376,488H160c-26.51,0-48-21.49-48-48V176c0-26.51,21.49-48,48-48h40c4.418,0,8-3.582,8-8V88h-16
	c-4.418,0-8,3.582-8,8v16h-24c-39.765,0-72,32.236-72,72v256c0,39.764,32.235,72,72,72h192c25.964,0,48.758-13.817,61.426-34.482
	C402.52,484.167,389.708,488,376,488z"/>
<path style="fill:#878493;" d="M336,0H176c-13.233,0-24,10.767-24,24v56c0,13.233,10.767,24,24,24h160c13.233,0,24-10.767,24-24V24
	C360,10.767,349.233,0,336,0z"/>
<path style="fill:#787485;" d="M176,80V24c0-13.233,10.767-24,24-24h-24c-13.233,0-24,10.767-24,24v56c0,13.233,10.767,24,24,24h24
	C186.767,104,176,93.233,176,80z"/>
<g>
	<path style="fill:#696578;" d="M256,80c-4.418,0-8-3.582-8-8V32c0-4.418,3.582-8,8-8s8,3.582,8,8v40C264,76.418,260.418,80,256,80z
		"/>
	<path style="fill:#696578;" d="M288,80c-4.418,0-8-3.582-8-8V32c0-4.418,3.582-8,8-8s8,3.582,8,8v40C296,76.418,292.418,80,288,80z
		"/>
	<path style="fill:#696578;" d="M320,80c-4.418,0-8-3.582-8-8V32c0-4.418,3.582-8,8-8s8,3.582,8,8v40C328,76.418,324.418,80,320,80z
		"/>
	<path style="fill:#696578;" d="M224,80c-4.418,0-8-3.582-8-8V32c0-4.418,3.582-8,8-8s8,3.582,8,8v40C232,76.418,228.418,80,224,80z
		"/>
	<path style="fill:#696578;" d="M192,80c-4.418,0-8-3.582-8-8V32c0-4.418,3.582-8,8-8s8,3.582,8,8v40C200,76.418,196.418,80,192,80z
		"/>
</g>
<path style="fill:#38C7C2;" d="M416,192H96c-4.418,0-8,3.582-8,8v224c0,4.418,3.582,8,8,8h320c4.418,0,8-3.582,8-8V200
	C424,195.582,420.418,192,416,192z"/>
<path style="fill:#00B5B8;" d="M96,192c-4.418,0-8,3.582-8,8v224c0,4.418,3.582,8,8,8h16V192H96z"/>
<path style="fill:#F0F0F1;" d="M312,288h-32v-32c0-4.418-3.582-8-8-8h-32c-4.418,0-8,3.582-8,8v32h-32c-4.418,0-8,3.582-8,8v32
	c0,4.418,3.582,8,8,8h32v32c0,4.418,3.582,8,8,8h32c4.418,0,8-3.582,8-8v-32h32c4.418,0,8-3.582,8-8v-32
	C320,291.582,316.418,288,312,288z"/>
<g>
</g>
<g>
</g>
<g>
</g>
<g>
</g>
<g>
</g>
<g>
</g>
<g>
</g>
<g>
</g>
<g>
</g>
<g>
</g>
<g>
</g>
<g>
</g>
<g>
</g>
<g>
</g>
<g>
</g>
</svg>
