<?xml version="1.0" encoding="iso-8859-1"?>
<!-- Generator: Adobe Illustrator 19.0.0, SVG Export Plug-In . SVG Version: 6.00 Build 0)  -->
<svg version="1.1" id="Capa_1" xmlns="http://www.w3.org/2000/svg" xmlns:xlink="http://www.w3.org/1999/xlink" x="0px" y="0px"
	 viewBox="0 0 480 480" style="enable-background:new 0 0 480 480;" xml:space="preserve">
<path style="fill:#BD252A;" d="M432,400H48c-8.84,0-16,7.16-16,16v8c0,8.84,7.16,16,16,16h384c8.84,0,16-7.16,16-16v-8
	C448,407.16,440.84,400,432,400z"/>
<g style="opacity:0.5;">
	<path style="fill:#8E1C20;" d="M56,424v-8c0-8.84,7.16-16,16-16H48c-8.84,0-16,7.16-16,16v8c0,8.84,7.16,16,16,16h24
		C63.16,440,56,432.84,56,424z"/>
</g>
<g>
	<path style="fill:#FD3238;" d="M408.184,302.24L384,288l0,0l-21.664-63.176c-6.72-19.6-25.584-32.824-46.832-32.824H164.496
		c-21.248,0-40.12,13.224-46.84,32.824L96,288l0,0l-26.352,13.6C56.352,308.472,48,322.184,48,337.144V400h136h112h136v-61.176
		C432,322.992,422.664,308.648,408.184,302.24z"/>
	<rect x="376" y="272" style="fill:#FD3238;" width="40" height="16"/>
	<rect x="64" y="272" style="fill:#FD3238;" width="40" height="16"/>
</g>
<path style="fill:#C6D1D6;" d="M96,288l65.832,16h156.344L384,288l-21.664-63.176c-6.72-19.6-25.584-32.824-46.832-32.824H164.496
	c-21.248,0-40.12,13.224-46.84,32.824L96,288z"/>
<g style="opacity:0.5;">
	<path style="fill:#A0B2BA;" d="M141.664,224.824c6.72-19.6,25.584-32.824,46.84-32.824h-24c-21.248,0-40.12,13.224-46.84,32.824
		L96,288l65.832,16h24L120,288L141.664,224.824z"/>
</g>
<g style="opacity:0.5;">
	<path style="fill:#BE262A;" d="M93.648,301.608l18.504-9.552L96,288l-26.352,13.608C56.352,308.472,48,322.184,48,337.144V400h24
		v-62.856C72,322.184,80.352,308.472,93.648,301.608z"/>
</g>
<path style="fill:#5F1315;" d="M112,480H80c-8.84,0-16-7.16-16-16v-24h64v24C128,472.84,120.84,480,112,480z"/>
<path style="fill:#50595D;" d="M112,480H80c-8.84,0-16-7.16-16-16v-24h64v24C128,472.84,120.84,480,112,480z"/>
<g style="opacity:0.5;">
	<path style="fill:#414547;" d="M80,464v-24H64v24c0,8.84,7.16,16,16,16h16C87.16,480,80,472.84,80,464z"/>
</g>
<path style="fill:#50595D;" d="M400,480h-32c-8.84,0-16-7.16-16-16v-24h64v24C416,472.84,408.84,480,400,480z"/>
<g>
	<path style="fill:#FDD38D;" d="M376,368h-72v-16c0-8.84,7.16-16,16-16h80v8C400,357.256,389.256,368,376,368z"/>
	<path style="fill:#FDD38D;" d="M104,368h72v-16c0-8.84-7.16-16-16-16H80v8C80,357.256,90.744,368,104,368z"/>
</g>
<g>
	<circle style="fill:#FCB641;" cx="116" cy="420" r="20"/>
	<circle style="fill:#FCB641;" cx="356" cy="420" r="20"/>
</g>
<rect x="184" y="400" style="fill:#FDC567;" width="112" height="56"/>
<g>
	<rect x="200" y="328" style="fill:#BE262A;" width="80" height="16"/>
	<rect x="200" y="360" style="fill:#BE262A;" width="80" height="16"/>
</g>
<rect x="216" y="216" style="fill:#A0B2BA;" width="48" height="16"/>
<g>
	<rect x="232" y="24" style="fill:#82CAE9;" width="16" height="80"/>
	<rect x="232" y="120" style="fill:#82CAE9;" width="16" height="16"/>
	<rect x="232" y="152" style="fill:#82CAE9;" width="16" height="16"/>
	<rect x="144" y="24" style="fill:#82CAE9;" width="16" height="80"/>
	<rect x="144" y="120" style="fill:#82CAE9;" width="16" height="16"/>
	<rect x="144" y="152" style="fill:#82CAE9;" width="16" height="16"/>
	<rect x="64" y="24" style="fill:#82CAE9;" width="16" height="80"/>
	<rect x="64" y="120" style="fill:#82CAE9;" width="16" height="16"/>
	<rect x="184" y="16" style="fill:#82CAE9;" width="16" height="48"/>
	<rect x="184" y="80" style="fill:#82CAE9;" width="16" height="16"/>
	<rect x="184" y="112" style="fill:#82CAE9;" width="16" height="16"/>
	<rect x="184" y="144" style="fill:#82CAE9;" width="16" height="16"/>
	<rect x="104" y="16" style="fill:#82CAE9;" width="16" height="48"/>
	<rect x="104" y="80" style="fill:#82CAE9;" width="16" height="16"/>
	<rect x="104" y="112" style="fill:#82CAE9;" width="16" height="16"/>
	<rect x="104" y="144" style="fill:#82CAE9;" width="16" height="16"/>
	<rect x="104" y="176" style="fill:#82CAE9;" width="16" height="16"/>
	<rect x="280" y="16" style="fill:#82CAE9;" width="16" height="48"/>
	<rect x="280" y="80" style="fill:#82CAE9;" width="16" height="16"/>
	<rect x="280" y="112" style="fill:#82CAE9;" width="16" height="16"/>
	<rect x="280" y="144" style="fill:#82CAE9;" width="16" height="16"/>
	<rect x="320" y="24" style="fill:#82CAE9;" width="16" height="80"/>
	<rect x="320" y="120" style="fill:#82CAE9;" width="16" height="16"/>
	<rect x="320" y="152" style="fill:#82CAE9;" width="16" height="16"/>
	<rect x="360" y="16" style="fill:#82CAE9;" width="16" height="48"/>
	<rect x="360" y="80" style="fill:#82CAE9;" width="16" height="16"/>
	<rect x="360" y="112" style="fill:#82CAE9;" width="16" height="16"/>
	<rect x="360" y="144" style="fill:#82CAE9;" width="16" height="16"/>
	<rect x="400" y="24" style="fill:#82CAE9;" width="16" height="80"/>
	<rect x="400" y="120" style="fill:#82CAE9;" width="16" height="16"/>
</g>
<path style="fill:#2EA6DB;" d="M416,32H64c-4.416,0-8-3.584-8-8V0h368v24C424,28.416,420.416,32,416,32z"/>
<g style="opacity:0.5;">
	<path style="fill:#237DA4;" d="M80,24V0H56v24c0,4.416,3.584,8,8,8h24C83.584,32,80,28.416,80,24z"/>
</g>
<g>
	<polygon style="fill:#ABDBF1;" points="432,224 424,224 424,216 408,216 408,224 400,224 400,240 408,240 408,248 424,248 424,240 
		432,240 	"/>
	<circle style="fill:#ABDBF1;" cx="20" cy="244" r="20"/>
	<circle style="fill:#ABDBF1;" cx="460" cy="172" r="20"/>
</g>
<g>
</g>
<g>
</g>
<g>
</g>
<g>
</g>
<g>
</g>
<g>
</g>
<g>
</g>
<g>
</g>
<g>
</g>
<g>
</g>
<g>
</g>
<g>
</g>
<g>
</g>
<g>
</g>
<g>
</g>
</svg>
