<?xml version="1.0" encoding="iso-8859-1"?>
<!-- Generator: Adobe Illustrator 19.0.0, SVG Export Plug-In . SVG Version: 6.00 Build 0)  -->
<svg version="1.1" id="Capa_1" xmlns="http://www.w3.org/2000/svg" xmlns:xlink="http://www.w3.org/1999/xlink" x="0px" y="0px"
	 viewBox="0 0 59 59" style="enable-background:new 0 0 59 59;" xml:space="preserve">
<rect x="0.5" y="48" style="fill:#ECF0F1;" width="58" height="11"/>
<rect x="16.5" style="fill:#556080;" width="26" height="48"/>
<polygon style="fill:#8697CB;" points="0.5,3 0.5,19 0.5,37 0.5,48 16.5,48 16.5,37 16.5,19 16.5,3 "/>
<polygon style="fill:#8697CB;" points="42.5,3 42.5,19 42.5,37 42.5,48 58.5,48 58.5,37 58.5,19 58.5,3 "/>
<rect x="20.5" y="5" style="fill:#FFFFFF;" width="7" height="5"/>
<rect x="31.5" y="5" style="fill:#FFFFFF;" width="7" height="5"/>
<rect x="46.5" y="9" style="fill:#FFFFFF;" width="8" height="5"/>
<rect x="46.5" y="18" style="fill:#FFFFFF;" width="8" height="5"/>
<rect x="4.5" y="9" style="fill:#FFFFFF;" width="8" height="5"/>
<rect x="4.5" y="18" style="fill:#FFFFFF;" width="8" height="5"/>
<rect x="20.5" y="14" style="fill:#FFFFFF;" width="7" height="5"/>
<rect x="31.5" y="14" style="fill:#FFFFFF;" width="7" height="5"/>
<rect x="20.5" y="23" style="fill:#FFFFFF;" width="7" height="5"/>
<rect x="31.5" y="23" style="fill:#FFFFFF;" width="7" height="5"/>
<polygon style="fill:#ED7161;" points="38.5,59 20.5,59 22.5,48 36.5,48 "/>
<rect x="21.5" y="34" style="fill:#D0E8F9;" width="16" height="14"/>
<path style="fill:#3D324C;" d="M37.5,33h-16c-0.552,0-1,0.448-1,1v14h18V34C38.5,33.448,38.052,33,37.5,33z"/>
<rect x="22.5" y="35" style="fill:#D0E8F9;" width="14" height="13"/>
<rect x="28.5" y="35" style="fill:#3D324C;" width="2" height="13"/>
<circle style="fill:#A4E869;" cx="8.5" cy="37" r="8"/>
<circle style="fill:#A4E869;" cx="50.5" cy="37" r="8"/>
<g>
	<path style="fill:#7F6E5D;" d="M10.793,37.293L8.5,39.586l-2.293-2.293c-0.391-0.391-1.023-0.391-1.414,0s-0.391,1.023,0,1.414
		L7.5,41.414V58c0,0.552,0.448,1,1,1s1-0.448,1-1V41.414l2.707-2.707c0.391-0.391,0.391-1.023,0-1.414S11.184,36.902,10.793,37.293z
		"/>
	<path style="fill:#7F6E5D;" d="M54.207,37.293c-0.391-0.391-1.023-0.391-1.414,0L50.5,39.586l-2.293-2.293
		c-0.391-0.391-1.023-0.391-1.414,0s-0.391,1.023,0,1.414l2.707,2.707V58c0,0.552,0.448,1,1,1s1-0.448,1-1V41.414l2.707-2.707
		C54.598,38.316,54.598,37.684,54.207,37.293z"/>
</g>
<g>
</g>
<g>
</g>
<g>
</g>
<g>
</g>
<g>
</g>
<g>
</g>
<g>
</g>
<g>
</g>
<g>
</g>
<g>
</g>
<g>
</g>
<g>
</g>
<g>
</g>
<g>
</g>
<g>
</g>
</svg>
