<?xml version="1.0" encoding="iso-8859-1"?>
<!-- Generator: Adobe Illustrator 19.0.0, SVG Export Plug-In . SVG Version: 6.00 Build 0)  -->
<svg version="1.1" id="Layer_1" xmlns="http://www.w3.org/2000/svg" xmlns:xlink="http://www.w3.org/1999/xlink" x="0px" y="0px"
	 viewBox="0 0 512 512" style="enable-background:new 0 0 512 512;" xml:space="preserve">
<g>
	<rect x="35.653" y="400.997" style="fill:#415E72;" width="68.968" height="25.717"/>
	<rect x="407.379" y="400.997" style="fill:#415E72;" width="68.968" height="25.717"/>
</g>
<path style="fill:#FEC95B;" d="M38.575,326.184V138.975c0-29.652,24.037-53.689,53.689-53.689h327.473
	c29.652,0,53.689,24.037,53.689,53.689v187.208"/>
<g>
	<rect x="38.575" y="256.9" style="fill:#EAAE44;" width="434.849" height="69.284"/>
	<path style="fill:#EAAE44;" d="M121.491,85.287H92.264c-29.652,0-53.689,24.037-53.689,53.689v187.208h29.227V138.975
		C67.803,109.324,91.84,85.287,121.491,85.287z"/>
</g>
<rect x="63.12" y="339.896" style="fill:#AD653D;" width="385.765" height="62.27"/>
<rect x="63.12" y="339.896" style="fill:#995431;" width="385.765" height="31.135"/>
<path style="fill:#FEC95B;" d="M38.575,198.768L38.575,198.768C17.271,198.768,0,216.039,0,237.344v164.822h77.151V237.344
	C77.151,216.039,59.879,198.768,38.575,198.768z"/>
<path style="fill:#EAAE44;" d="M45.005,199.312c-2.092-0.351-4.237-0.544-6.429-0.544l0,0C17.271,198.768,0,216.038,0,237.344
	v164.822h12.858V237.344C12.858,218.23,26.762,202.374,45.005,199.312z"/>
<g>
	<path style="fill:#FEC95B;" d="M473.425,198.768L473.425,198.768c-21.304,0-38.575,17.271-38.575,38.575v164.822H512V237.344
		C512,216.039,494.729,198.768,473.425,198.768z"/>
	<path style="fill:#FEC95B;" d="M77.151,315.406c0-24.39,19.773-44.163,44.163-44.163h269.373c24.39,0,44.163,19.773,44.163,44.163
		v36.495H77.151V315.406z"/>
</g>
<g>
	<path style="fill:#EAAE44;" d="M479.854,199.312c-2.092-0.351-4.237-0.544-6.429-0.544l0,0c-21.304,0-38.575,17.27-38.575,38.575
		v164.822h12.858V237.344C447.708,218.23,461.611,202.374,479.854,199.312z"/>
	<path style="fill:#EAAE44;" d="M161.058,271.243h-39.744c-24.39,0-44.163,19.773-44.163,44.163v36.495h39.744v-36.495
		C116.895,291.016,136.668,271.243,161.058,271.243z"/>
</g>
<g>
	<path style="fill:#AD653D;" d="M147.648,159.273c-2.511-2.51-6.581-2.51-9.092,0l-5.785,5.785l-5.785-5.785
		c-2.511-2.51-6.581-2.51-9.092,0c-2.511,2.511-2.511,6.581,0,9.092l5.785,5.785l-5.785,5.785c-2.511,2.511-2.511,6.581,0,9.092
		c1.255,1.255,2.9,1.883,4.546,1.883c1.646,0,3.291-0.628,4.546-1.883l5.785-5.785l5.785,5.785c1.255,1.255,2.9,1.883,4.546,1.883
		s3.291-0.628,4.546-1.883c2.511-2.511,2.511-6.581,0-9.092l-5.785-5.785l5.785-5.785
		C150.159,165.855,150.159,161.784,147.648,159.273z"/>
	<path style="fill:#AD653D;" d="M388.323,174.151l5.785-5.785c2.511-2.511,2.511-6.581,0-9.092c-2.511-2.51-6.581-2.51-9.092,0
		l-5.785,5.785l-5.785-5.785c-2.511-2.51-6.581-2.51-9.092,0c-2.511,2.511-2.511,6.581,0,9.092l5.785,5.785l-5.785,5.785
		c-2.511,2.511-2.511,6.581,0,9.092c1.255,1.255,2.9,1.883,4.546,1.883s3.291-0.628,4.546-1.883l5.785-5.785l5.785,5.785
		c1.255,1.255,2.9,1.883,4.546,1.883s3.291-0.628,4.546-1.883c2.511-2.511,2.511-6.581,0-9.092L388.323,174.151z"/>
	<path style="fill:#AD653D;" d="M270.878,159.273c-2.511-2.51-6.581-2.51-9.092,0L256,165.059l-5.785-5.785
		c-2.511-2.51-6.581-2.51-9.092,0c-2.511,2.511-2.511,6.581,0,9.092l5.785,5.785l-5.785,5.785c-2.511,2.511-2.511,6.581,0,9.092
		c1.255,1.255,2.9,1.883,4.546,1.883c1.646,0,3.291-0.628,4.546-1.883l5.785-5.784l5.785,5.785c1.255,1.255,2.9,1.883,4.546,1.883
		c1.646,0,3.291-0.628,4.546-1.883c2.511-2.511,2.511-6.581,0-9.092l-5.785-5.785l5.785-5.785
		C273.389,165.855,273.389,161.784,270.878,159.273z"/>
</g>
<g>
</g>
<g>
</g>
<g>
</g>
<g>
</g>
<g>
</g>
<g>
</g>
<g>
</g>
<g>
</g>
<g>
</g>
<g>
</g>
<g>
</g>
<g>
</g>
<g>
</g>
<g>
</g>
<g>
</g>
</svg>
