<?xml version="1.0" encoding="iso-8859-1"?>
<!-- Generator: Adobe Illustrator 19.0.0, SVG Export Plug-In . SVG Version: 6.00 Build 0)  -->
<svg version="1.1" id="Layer_1" xmlns="http://www.w3.org/2000/svg" xmlns:xlink="http://www.w3.org/1999/xlink" x="0px" y="0px"
	 viewBox="0 0 512.159 512.159" style="enable-background:new 0 0 512.159 512.159;" xml:space="preserve">
<g>
	<path style="fill:#F9EBB0;" d="M256.079,459.034l-7.186-8.995c-18.167-22.696-43.758-29.44-72.263-35.143H44.217V0h132.414
		c34.127,0,79.448,18.838,79.448,52.966V459.034z"/>
	<path style="fill:#D1BF86;" d="M256.079,459.034l7.186-8.995c18.167-22.696,43.758-29.44,72.263-35.143h132.414V0H317.873
		c-34.127,0-61.793,27.666-61.793,61.793V459.034z"/>
	<path style="fill:#D25627;" d="M0.079,26.483v432.552h176.552c28.504,5.703,54.095,21.433,72.263,44.138l7.186,8.987l7.186-8.987
		c18.167-22.705,43.758-38.435,72.263-44.138h176.552V26.483h-44.138v388.414H335.528c-28.504,5.703-54.095,12.447-72.263,35.151
		l-7.186,8.987l-7.186-8.987c-18.167-22.705-43.758-29.449-72.263-35.151H44.217V26.483H0.079z"/>
	<g>
		<path style="fill:#D1BF86;" d="M123.666,88.276h-35.31c-4.882,0-8.828-3.955-8.828-8.828c0-4.873,3.946-8.828,8.828-8.828h35.31
			c4.882,0,8.828,3.955,8.828,8.828C132.493,84.321,128.547,88.276,123.666,88.276"/>
		<path style="fill:#D1BF86;" d="M211.942,88.276h-52.966c-4.882,0-8.828-3.955-8.828-8.828c0-4.873,3.946-8.828,8.828-8.828h52.966
			c4.882,0,8.828,3.955,8.828,8.828C220.769,84.321,216.823,88.276,211.942,88.276"/>
		<path style="fill:#D1BF86;" d="M211.942,176.552h-52.966c-4.882,0-8.828-3.955-8.828-8.828s3.946-8.828,8.828-8.828h52.966
			c4.882,0,8.828,3.955,8.828,8.828S216.823,176.552,211.942,176.552"/>
		<path style="fill:#D1BF86;" d="M158.976,132.414H88.355c-4.882,0-8.828-3.955-8.828-8.828s3.946-8.828,8.828-8.828h70.621
			c4.882,0,8.828,3.955,8.828,8.828S163.858,132.414,158.976,132.414"/>
		<path style="fill:#D1BF86;" d="M123.666,176.552h-35.31c-4.882,0-8.828-3.955-8.828-8.828s3.946-8.828,8.828-8.828h35.31
			c4.882,0,8.828,3.955,8.828,8.828S128.547,176.552,123.666,176.552"/>
		<path style="fill:#D1BF86;" d="M211.942,220.69H88.355c-4.882,0-8.828-3.955-8.828-8.828c0-4.873,3.946-8.828,8.828-8.828h123.586
			c4.882,0,8.828,3.955,8.828,8.828C220.769,216.735,216.823,220.69,211.942,220.69"/>
		<path style="fill:#D1BF86;" d="M158.976,344.276H88.355c-4.882,0-8.828-3.955-8.828-8.828s3.946-8.828,8.828-8.828h70.621
			c4.882,0,8.828,3.955,8.828,8.828S163.858,344.276,158.976,344.276"/>
		<path style="fill:#D1BF86;" d="M158.976,300.138H88.355c-4.882,0-8.828-3.955-8.828-8.828c0-4.873,3.946-8.828,8.828-8.828h70.621
			c4.882,0,8.828,3.955,8.828,8.828C167.804,296.183,163.858,300.138,158.976,300.138"/>
		<path style="fill:#D1BF86;" d="M211.942,132.414h-17.655c-4.882,0-8.828-3.955-8.828-8.828s3.946-8.828,8.828-8.828h17.655
			c4.882,0,8.828,3.955,8.828,8.828S216.823,132.414,211.942,132.414"/>
	</g>
	<g>
		<path style="fill:#F9EBB0;" d="M423.804,308.966h-70.621c-4.882,0-8.828-3.955-8.828-8.828c0-4.873,3.946-8.828,8.828-8.828
			h70.621c4.882,0,8.828,3.955,8.828,8.828C432.631,305.011,428.685,308.966,423.804,308.966"/>
		<path style="fill:#F9EBB0;" d="M317.873,308.966h-17.655c-4.882,0-8.828-3.955-8.828-8.828c0-4.873,3.946-8.828,8.828-8.828
			h17.655c4.882,0,8.828,3.955,8.828,8.828C326.7,305.011,322.754,308.966,317.873,308.966"/>
		<path style="fill:#F9EBB0;" d="M370.838,353.103h-70.621c-4.882,0-8.828-3.955-8.828-8.828c0-4.873,3.946-8.828,8.828-8.828
			h70.621c4.882,0,8.828,3.955,8.828,8.828C379.666,349.149,375.72,353.103,370.838,353.103"/>
	</g>
	<g>
		<path style="fill:#D1BF86;" d="M211.942,300.138h-17.655c-4.882,0-8.828-3.955-8.828-8.828c0-4.873,3.946-8.828,8.828-8.828
			h17.655c4.882,0,8.828,3.955,8.828,8.828C220.769,296.183,216.823,300.138,211.942,300.138"/>
		<path style="fill:#D1BF86;" d="M123.666,256h-35.31c-4.882,0-8.828-3.955-8.828-8.828c0-4.873,3.946-8.828,8.828-8.828h35.31
			c4.882,0,8.828,3.955,8.828,8.828C132.493,252.045,128.547,256,123.666,256"/>
		<path style="fill:#D1BF86;" d="M211.942,256h-52.966c-4.882,0-8.828-3.955-8.828-8.828c0-4.873,3.946-8.828,8.828-8.828h52.966
			c4.882,0,8.828,3.955,8.828,8.828C220.769,252.045,216.823,256,211.942,256"/>
		<path style="fill:#D1BF86;" d="M211.942,335.448c0,4.873-3.946,8.828-8.828,8.828s-8.828-3.955-8.828-8.828
			s3.946-8.828,8.828-8.828S211.942,330.575,211.942,335.448"/>
	</g>
	<g>
		<path style="fill:#F9EBB0;" d="M414.967,273.651c-4.643,0-8.545-3.637-8.801-8.342c-0.044-0.662-4.255-67.028-48.207-89.741
			c-52.983-27.383-57.565-101.341-57.732-104.474c-0.256-4.864,3.478-9.013,8.333-9.287c4.732-0.212,9.031,3.46,9.295,8.333
			c0.044,0.662,4.255,67.028,48.207,89.741c52.983,27.383,57.556,101.341,57.732,104.474c0.256,4.864-3.478,9.013-8.333,9.287
			C415.294,273.651,415.135,273.651,414.967,273.651"/>
		<path style="fill:#F9EBB0;" d="M309.054,273.651c-0.168,0-0.327,0-0.494-0.009c-4.855-0.274-8.589-4.423-8.333-9.287
			c0.177-3.134,4.749-77.091,57.732-104.474c43.953-22.713,48.163-89.079,48.207-89.741c0.265-4.873,4.449-8.563,9.295-8.333
			c4.855,0.274,8.589,4.423,8.333,9.287c-0.168,3.134-4.749,77.091-57.732,104.474c-43.953,22.713-48.163,89.079-48.207,89.741
			C317.599,270.014,313.697,273.651,309.054,273.651"/>
		<path style="fill:#F9EBB0;" d="M396.933,141.241h-69.835c-4.882,0-8.828-3.955-8.828-8.828c0-4.873,3.946-8.828,8.828-8.828
			h69.835c4.882,0,8.828,3.955,8.828,8.828C405.761,137.287,401.815,141.241,396.933,141.241"/>
		<path style="fill:#F9EBB0;" d="M410.571,105.931h-97.112c-4.882,0-8.828-3.955-8.828-8.828s3.946-8.828,8.828-8.828h97.112
			c4.882,0,8.828,3.955,8.828,8.828S415.453,105.931,410.571,105.931"/>
		<path style="fill:#F9EBB0;" d="M396.924,211.862h-69.835c-4.882,0-8.828-3.955-8.828-8.828c0-4.873,3.946-8.828,8.828-8.828
			h69.835c4.882,0,8.828,3.955,8.828,8.828C405.752,207.907,401.806,211.862,396.924,211.862"/>
		<path style="fill:#F9EBB0;" d="M410.571,247.172h-97.112c-4.882,0-8.828-3.955-8.828-8.828c0-4.873,3.946-8.828,8.828-8.828
			h97.112c4.882,0,8.828,3.955,8.828,8.828C419.399,243.218,415.453,247.172,410.571,247.172"/>
	</g>
</g>
<g>
</g>
<g>
</g>
<g>
</g>
<g>
</g>
<g>
</g>
<g>
</g>
<g>
</g>
<g>
</g>
<g>
</g>
<g>
</g>
<g>
</g>
<g>
</g>
<g>
</g>
<g>
</g>
<g>
</g>
</svg>
