<?xml version="1.0" encoding="iso-8859-1"?>
<!-- Generator: Adobe Illustrator 19.0.0, SVG Export Plug-In . SVG Version: 6.00 Build 0)  -->
<svg version="1.1" id="Layer_1" xmlns="http://www.w3.org/2000/svg" xmlns:xlink="http://www.w3.org/1999/xlink" x="0px" y="0px"
	 viewBox="0 0 512 512" style="enable-background:new 0 0 512 512;" xml:space="preserve">
<g transform="translate(0 -1)">
	<g>
		<path style="fill:#556080;" d="M59.733,227.135h-25.6c-4.719,0-8.533-3.814-8.533-8.533c0-4.719,3.814-8.533,8.533-8.533h25.6
			c4.719,0,8.533,3.814,8.533,8.533C68.267,223.32,64.452,227.135,59.733,227.135"/>
		<path style="fill:#556080;" d="M153.6,227.135H128c-4.719,0-8.533-3.814-8.533-8.533c0-4.719,3.814-8.533,8.533-8.533h25.6
			c4.719,0,8.533,3.814,8.533,8.533C162.133,223.32,158.319,227.135,153.6,227.135"/>
	</g>
	<g>
		<polygon style="fill:#28BAE8;" points="247.467,397.799 384,397.799 384,252.732 247.467,252.732 		"/>
		<polygon style="fill:#28BAE8;" points="452.267,397.799 486.4,397.799 486.4,252.732 452.267,252.732 		"/>
	</g>
	<polygon style="fill:#556080;" points="8.533,158.865 503.467,158.865 503.467,107.665 8.533,107.665 	"/>
	<g>
		<polygon style="fill:#2D3751;" points="59.733,397.799 128,397.799 128,158.865 59.733,158.865 		"/>
		<polygon style="fill:#2D3751;" points="384,397.799 452.267,397.799 452.267,158.865 384,158.865 		"/>
	</g>
	<g>
		<path style="fill:#556080;" d="M213.333,397.801h-51.2v-73.54c0-6.511,5.282-11.793,11.793-11.793h27.614
			c6.511,0,11.793,5.282,11.793,11.793V397.801z"/>
		<path style="fill:#556080;" d="M349.867,397.801h-51.2v-73.54c0-6.511,5.282-11.793,11.793-11.793h27.614
			c6.511,0,11.793,5.282,11.793,11.793V397.801z"/>
	</g>
	<g>
		<polygon style="fill:#4482C3;" points="230.4,252.732 384,252.732 384,218.599 230.4,218.599 		"/>
		<polygon style="fill:#4482C3;" points="452.267,252.732 503.467,252.732 503.467,218.599 452.267,218.599 		"/>
	</g>
	<path style="fill:#556080;" d="M503.467,406.335H8.533c-4.719,0-8.533-3.814-8.533-8.533s3.814-8.533,8.533-8.533h494.933
		c4.719,0,8.533,3.814,8.533,8.533S508.186,406.335,503.467,406.335"/>
</g>
<g>
</g>
<g>
</g>
<g>
</g>
<g>
</g>
<g>
</g>
<g>
</g>
<g>
</g>
<g>
</g>
<g>
</g>
<g>
</g>
<g>
</g>
<g>
</g>
<g>
</g>
<g>
</g>
<g>
</g>
</svg>
