<?xml version="1.0" encoding="iso-8859-1"?>
<!-- Generator: Adobe Illustrator 19.0.0, SVG Export Plug-In . SVG Version: 6.00 Build 0)  -->
<svg version="1.1" id="Capa_1" xmlns="http://www.w3.org/2000/svg" xmlns:xlink="http://www.w3.org/1999/xlink" x="0px" y="0px"
	 viewBox="0 0 464.007 464.007" style="enable-background:new 0 0 464.007 464.007;" xml:space="preserve">
<g>
	<path style="fill:#29485A;" d="M40.003,120.007h-16v288h16h48v-288H40.003z"/>
	<path style="fill:#29485A;" d="M40.003,432.007h-16v32h16h48v-32H40.003z"/>
	<path style="fill:#29485A;" d="M74.867,15.751C72.892,5.332,62.845-1.512,52.427,0.463c-7.753,1.47-13.818,7.534-15.288,15.288
		L24.003,88.007h64L74.867,15.751z"/>
</g>
<g>
	<path style="fill:#CCCCCC;" d="M40.003,88.007h-16v32h16h48v-32H40.003z"/>
	<path style="fill:#CCCCCC;" d="M40.003,408.007h-16v24h16h48v-24H40.003z"/>
</g>
<g>
	<path style="fill:#1F3644;" d="M24.003,120.007h16v288h-16V120.007z"/>
	<path style="fill:#1F3644;" d="M24.003,432.007h16v32h-16V432.007z"/>
	<path style="fill:#1F3644;" d="M53.139,15.751c1.135-6.134,5.19-11.329,10.864-13.92c-9.494-4.491-20.83-0.435-25.321,9.059
		c-0.73,1.544-1.249,3.179-1.543,4.861L24.003,88.007h16L53.139,15.751z"/>
</g>
<g>
	<path style="fill:#999999;" d="M24.003,88.007h16v32h-16V88.007z"/>
	<path style="fill:#999999;" d="M24.003,408.007h16v24h-16V408.007z"/>
</g>
<g>
	<path style="fill:#6B6D95;" d="M104.003,120.007h-16v288h16h48v-288H104.003z"/>
	<path style="fill:#6B6D95;" d="M104.003,432.007h-16v32h16h48v-32H104.003z"/>
	<path style="fill:#6B6D95;" d="M138.867,15.751c-1.975-10.418-12.022-17.263-22.44-15.288c-7.753,1.47-13.818,7.534-15.288,15.288
		L88.003,88.007h64L138.867,15.751z"/>
</g>
<g>
	<path style="fill:#CCCCCC;" d="M104.003,88.007h-16v32h16h48v-32H104.003z"/>
	<path style="fill:#CCCCCC;" d="M104.003,408.007h-16v24h16h48v-24H104.003z"/>
</g>
<g>
	<path style="fill:#505270;" d="M88.003,120.007h16v288h-16V120.007z"/>
	<path style="fill:#505270;" d="M88.003,432.007h16v32h-16V432.007z"/>
	<path style="fill:#505270;" d="M117.139,15.751c1.135-6.134,5.19-11.329,10.864-13.92c-9.494-4.491-20.83-0.435-25.321,9.059
		c-0.73,1.544-1.249,3.179-1.543,4.861L88.003,88.007h16L117.139,15.751z"/>
</g>
<g>
	<path style="fill:#999999;" d="M88.003,88.007h16v32h-16V88.007z"/>
	<path style="fill:#999999;" d="M88.003,408.007h16v24h-16V408.007z"/>
</g>
<g>
	<path style="fill:#55D08F;" d="M168.003,120.007h-16v288h16h48v-288H168.003z"/>
	<path style="fill:#55D08F;" d="M168.003,432.007h-16v32h16h48v-32H168.003z"/>
	<path style="fill:#55D08F;" d="M202.867,15.751c-1.975-10.418-12.022-17.263-22.44-15.288c-7.753,1.47-13.818,7.534-15.288,15.288
		l-13.136,72.256h64L202.867,15.751z"/>
</g>
<g>
	<path style="fill:#CCCCCC;" d="M168.003,88.007h-16v32h16h48v-32H168.003z"/>
	<path style="fill:#CCCCCC;" d="M168.003,408.007h-16v24h16h48v-24H168.003z"/>
</g>
<g>
	<path style="fill:#409C6B;" d="M152.003,120.007h16v288h-16V120.007z"/>
	<path style="fill:#409C6B;" d="M152.003,432.007h16v32h-16V432.007z"/>
	<path style="fill:#409C6B;" d="M181.139,15.751c1.135-6.134,5.19-11.329,10.864-13.92c-9.494-4.491-20.83-0.435-25.321,9.059
		c-0.73,1.544-1.249,3.179-1.543,4.861l-13.136,72.256h16L181.139,15.751z"/>
</g>
<g>
	<path style="fill:#999999;" d="M152.003,88.007h16v32h-16V88.007z"/>
	<path style="fill:#999999;" d="M152.003,408.007h16v24h-16V408.007z"/>
</g>
<g>
	<path style="fill:#FFBC44;" d="M232.003,120.007h-16v288h16h48v-288H232.003z"/>
	<path style="fill:#FFBC44;" d="M232.003,432.007h-16v32h16h48v-32H232.003z"/>
	<path style="fill:#FFBC44;" d="M266.867,15.751c-1.975-10.418-12.022-17.263-22.44-15.288c-7.753,1.47-13.818,7.534-15.288,15.288
		l-13.136,72.256h64L266.867,15.751z"/>
</g>
<g>
	<path style="fill:#CCCCCC;" d="M232.003,88.007h-16v32h16h48v-32H232.003z"/>
	<path style="fill:#CCCCCC;" d="M232.003,408.007h-16v24h16h48v-24H232.003z"/>
</g>
<g>
	<path style="fill:#BF8D33;" d="M216.003,120.007h16v288h-16V120.007z"/>
	<path style="fill:#BF8D33;" d="M216.003,432.007h16v32h-16V432.007z"/>
	<path style="fill:#BF8D33;" d="M245.139,15.751c1.135-6.134,5.19-11.329,10.864-13.92c-9.494-4.491-20.83-0.435-25.321,9.059
		c-0.73,1.544-1.249,3.179-1.543,4.861l-13.136,72.256h16L245.139,15.751z"/>
</g>
<g>
	<path style="fill:#999999;" d="M216.003,88.007h16v32h-16V88.007z"/>
	<path style="fill:#999999;" d="M216.003,408.007h16v24h-16V408.007z"/>
</g>
<g>
	<path style="fill:#754C24;" d="M296.003,120.007h-16v288h16h48v-288H296.003z"/>
	<path style="fill:#754C24;" d="M296.003,432.007h-16v32h16h48v-32H296.003z"/>
	<path style="fill:#754C24;" d="M330.867,15.751c-1.975-10.418-12.022-17.263-22.44-15.288c-7.753,1.47-13.818,7.534-15.288,15.288
		l-13.136,72.256h64L330.867,15.751z"/>
</g>
<g>
	<path style="fill:#CCCCCC;" d="M296.003,88.007h-16v32h16h48v-32H296.003z"/>
	<path style="fill:#CCCCCC;" d="M296.003,408.007h-16v24h16h48v-24H296.003z"/>
</g>
<g>
	<path style="fill:#58391B;" d="M280.003,120.007h16v288h-16V120.007z"/>
	<path style="fill:#58391B;" d="M280.003,432.007h16v32h-16V432.007z"/>
	<path style="fill:#58391B;" d="M309.139,15.751c1.135-6.134,5.19-11.329,10.864-13.92c-9.494-4.491-20.83-0.435-25.321,9.059
		c-0.73,1.544-1.249,3.179-1.543,4.861l-13.136,72.256h16L309.139,15.751z"/>
</g>
<g>
	<path style="fill:#999999;" d="M280.003,88.007h16v32h-16V88.007z"/>
	<path style="fill:#999999;" d="M280.003,408.007h16v24h-16V408.007z"/>
</g>
<path style="fill:#FF902A;" d="M8.003,144.007v320h352v-320H8.003z M320.003,264.007h-280v-64h280V264.007z"/>
<g>
	<path style="fill:#D93447;" d="M408.003,120.007h-16v288h16h48v-288H408.003z"/>
	<path style="fill:#D93447;" d="M408.003,432.007h-16v32h16h48v-32H408.003z"/>
</g>
<path style="fill:#FF3D53;" d="M442.867,15.751c-1.975-10.418-12.022-17.263-22.44-15.288c-7.753,1.47-13.818,7.534-15.288,15.288
	l-13.136,72.256h64L442.867,15.751z"/>
<g>
	<path style="fill:#CCCCCC;" d="M408.003,88.007h-16v32h16h48v-32H408.003z"/>
	<path style="fill:#CCCCCC;" d="M408.003,408.007h-16v24h16h48v-24H408.003z"/>
</g>
<g>
	<path style="fill:#BF1528;" d="M392.003,120.007h16v288h-16V120.007z"/>
	<path style="fill:#BF1528;" d="M392.003,432.007h16v32h-16V432.007z"/>
	<path style="fill:#BF1528;" d="M421.139,15.751c1.135-6.134,5.19-11.329,10.864-13.92c-9.494-4.491-20.83-0.435-25.321,9.059
		c-0.73,1.544-1.249,3.179-1.543,4.861l-13.136,72.256h16L421.139,15.751z"/>
</g>
<g>
	<path style="fill:#999999;" d="M392.003,88.007h16v32h-16V88.007z"/>
	<path style="fill:#999999;" d="M392.003,408.007h16v24h-16V408.007z"/>
</g>
<g>
</g>
<g>
</g>
<g>
</g>
<g>
</g>
<g>
</g>
<g>
</g>
<g>
</g>
<g>
</g>
<g>
</g>
<g>
</g>
<g>
</g>
<g>
</g>
<g>
</g>
<g>
</g>
<g>
</g>
</svg>
