<?xml version="1.0" encoding="iso-8859-1"?>
<!-- Generator: Adobe Illustrator 19.0.0, SVG Export Plug-In . SVG Version: 6.00 Build 0)  -->
<svg version="1.1" id="Layer_1" xmlns="http://www.w3.org/2000/svg" xmlns:xlink="http://www.w3.org/1999/xlink" x="0px" y="0px"
	 viewBox="0 0 306.359 306.359" style="enable-background:new 0 0 306.359 306.359;" xml:space="preserve">
<g>
	<path style="fill:#E4E7E7;" d="M306.235,205.601v23.917c0,8.024-8.789,14.534-17.167,14.534H15.157
		C6.788,244.052,0,237.542,0,229.518v-23.917L306.235,205.601L306.235,205.601z"/>
	<path style="fill:#324D5B;" d="M15.157,14.424h276.036c8.368,0,15.166,6.52,15.166,14.563v176.681
		c-0.182-0.057-306.378-0.019-306.359,0V28.978C0,20.935,6.788,14.424,15.157,14.424z"/>
	<path style="fill:#576E78;" d="M287.22,33.65v153.194c-0.594-0.019-267.927,0.153-268.042,0V33.65
		C19.178,33.65,287.287,33.717,287.22,33.65z"/>
	<path style="fill:#CFD3D5;" d="M105.474,281.202h95.603v10.733h-95.603V281.202z"/>
	
		<linearGradient id="SVGID_1_" gradientUnits="userSpaceOnUse" x1="202.7405" y1="-815.793" x2="202.7405" y2="-778.634" gradientTransform="matrix(1 0 0 -1 -49.47 -534.591)">
		<stop  offset="0" style="stop-color:#E9EBEB"/>
		<stop  offset="1" style="stop-color:#D7D9D9"/>
	</linearGradient>
	<path style="fill:url(#SVGID_1_);" d="M181.64,244.043h-56.73c0.096,19.302-9.603,37.121-19.436,37.121l0.019,0.038h95.564
		l0.01-0.038C191.253,281.164,181.544,263.345,181.64,244.043z"/>
</g>
<g>
</g>
<g>
</g>
<g>
</g>
<g>
</g>
<g>
</g>
<g>
</g>
<g>
</g>
<g>
</g>
<g>
</g>
<g>
</g>
<g>
</g>
<g>
</g>
<g>
</g>
<g>
</g>
<g>
</g>
</svg>
