<?xml version="1.0" encoding="iso-8859-1"?>
<!-- Generator: Adobe Illustrator 19.0.0, SVG Export Plug-In . SVG Version: 6.00 Build 0)  -->
<svg version="1.1" id="Capa_1" xmlns="http://www.w3.org/2000/svg" xmlns:xlink="http://www.w3.org/1999/xlink" x="0px" y="0px"
	 viewBox="0 0 512 512" style="enable-background:new 0 0 512 512;" xml:space="preserve">
<rect x="360.136" y="225.627" style="fill:#AE7A7B;" width="130.169" height="260.339"/>
<polygon style="fill:#825154;" points="362.305,234.305 489.489,234.305 507.661,199.593 362.305,199.593 "/>
<rect x="21.695" y="225.627" style="fill:#AE7A7B;" width="130.169" height="260.339"/>
<polygon style="fill:#825154;" points="160.542,234.305 21.695,234.305 4.339,199.593 160.542,199.593 "/>
<rect x="143.186" y="104.136" style="fill:#9D6566;" width="225.627" height="381.831"/>
<g>
	<path style="fill:#AFB6BB;" d="M256,86.78c-4.79,0-8.678-3.888-8.678-8.678V8.678C247.322,3.888,251.21,0,256,0
		c4.79,0,8.678,3.888,8.678,8.678v69.424C264.678,82.892,260.79,86.78,256,86.78z"/>
	<path style="fill:#AFB6BB;" d="M290.712,86.78c-4.79,0-8.678-3.888-8.678-8.678V43.39c0-4.79,3.888-8.678,8.678-8.678
		s8.678,3.888,8.678,8.678v34.712C299.39,82.892,295.502,86.78,290.712,86.78z"/>
	<path style="fill:#AFB6BB;" d="M221.288,86.78c-4.79,0-8.678-3.888-8.678-8.678V43.39c0-4.79,3.888-8.678,8.678-8.678
		s8.678,3.888,8.678,8.678v34.712C229.966,82.892,226.078,86.78,221.288,86.78z"/>
</g>
<g>
	<polygon style="fill:#825154;" points="368.814,112.814 143.186,112.814 125.831,78.102 386.169,78.102 	"/>
	<rect x="4.339" y="477.288" style="fill:#825154;" width="503.322" height="34.712"/>
</g>
<circle style="fill:#FFFFFF;" cx="256" cy="216.949" r="60.746"/>
<g>
	<path style="fill:#7B93BA;" d="M256,225.627c-4.79,0-8.678-3.888-8.678-8.678v-26.034c0-4.79,3.888-8.678,8.678-8.678
		c4.79,0,8.678,3.888,8.678,8.678v26.034C264.678,221.739,260.79,225.627,256,225.627z"/>
	<path style="fill:#7B93BA;" d="M273.356,225.627H256c-4.79,0-8.678-3.888-8.678-8.678s3.888-8.678,8.678-8.678h17.356
		c4.79,0,8.678,3.888,8.678,8.678S278.146,225.627,273.356,225.627z"/>
</g>
<rect x="203.932" y="373.153" style="fill:#F6D295;" width="104.136" height="104.136"/>
<rect x="186.576" y="347.119" style="fill:#CCA46A;" width="138.847" height="26.034"/>
<path style="fill:#F6D295;" d="M256,312.407c-23.96,0-43.39,15.542-43.39,34.712h86.78C299.39,327.949,279.969,312.407,256,312.407z
	"/>
<path style="fill:#CCA46A;" d="M273.356,433.898H256c-4.79,0-8.678-3.888-8.678-8.678s3.888-8.678,8.678-8.678h17.356
	c4.79,0,8.678,3.888,8.678,8.678S278.146,433.898,273.356,433.898z"/>
<rect x="56.407" y="269.017" style="fill:#99B0DD;" width="52.068" height="173.559"/>
<g>
	<rect x="56.407" y="303.729" style="fill:#7B93BA;" width="52.068" height="17.356"/>
	<rect x="56.407" y="390.508" style="fill:#7B93BA;" width="52.068" height="17.356"/>
	<rect x="56.407" y="347.119" style="fill:#7B93BA;" width="52.068" height="17.356"/>
</g>
<rect x="403.525" y="269.017" style="fill:#99B0DD;" width="52.068" height="173.559"/>
<g>
	<rect x="403.525" y="303.729" style="fill:#7B93BA;" width="52.068" height="17.356"/>
	<rect x="403.525" y="390.508" style="fill:#7B93BA;" width="52.068" height="17.356"/>
	<rect x="403.525" y="347.119" style="fill:#7B93BA;" width="52.068" height="17.356"/>
</g>
<g>
</g>
<g>
</g>
<g>
</g>
<g>
</g>
<g>
</g>
<g>
</g>
<g>
</g>
<g>
</g>
<g>
</g>
<g>
</g>
<g>
</g>
<g>
</g>
<g>
</g>
<g>
</g>
<g>
</g>
</svg>
