<?xml version="1.0" encoding="iso-8859-1"?>
<!-- Generator: Adobe Illustrator 19.0.0, SVG Export Plug-In . SVG Version: 6.00 Build 0)  -->
<svg version="1.1" id="Capa_1" xmlns="http://www.w3.org/2000/svg" xmlns:xlink="http://www.w3.org/1999/xlink" x="0px" y="0px"
	 viewBox="0 0 512 512" style="enable-background:new 0 0 512 512;" xml:space="preserve">
<g>
	<polygon style="fill:#FDD7AD;" points="298.667,76.8 110.933,76.8 17.067,204.8 17.067,503.467 204.8,503.467 204.8,494.933 
		392.533,494.933 392.533,204.8 	"/>
	<g>
		<rect x="204.8" y="204.8" style="fill:#CBB292;" width="187.733" height="290.133"/>
		<path style="fill:#CBB292;" d="M290.133,85.333c-2.263,0.001-4.434-0.898-6.035-2.499s-2.499-3.771-2.499-6.035V8.533
			c0-4.713,3.821-8.533,8.533-8.533c4.713,0,8.533,3.821,8.533,8.533V76.8c0.001,2.263-0.898,4.434-2.499,6.035
			C294.568,84.435,292.397,85.334,290.133,85.333z"/>
		<path style="fill:#CBB292;" d="M314.125,33.112c-10.22-0.255-20.167-3.353-28.725-8.946c-3.887-2.622-4.93-7.889-2.336-11.795
			c2.594-3.906,7.853-4.987,11.778-2.422c0.817,0.533,20.075,12.933,31.925,1.083c3.337-3.303,8.716-3.29,12.036,0.03
			c3.32,3.32,3.334,8.699,0.03,12.036C332.313,29.676,323.384,33.294,314.125,33.112z"/>
		<path style="fill:#CBB292;" d="M119.467,85.333c-2.263,0.001-4.434-0.898-6.035-2.499s-2.499-3.771-2.499-6.035V8.533
			c0-4.713,3.82-8.533,8.533-8.533C124.179,0,128,3.821,128,8.533V76.8c0.001,2.263-0.898,4.434-2.499,6.035
			C123.901,84.435,121.73,85.334,119.467,85.333z"/>
		<path style="fill:#CBB292;" d="M143.458,33.112c-10.22-0.255-20.167-3.353-28.725-8.946c-3.887-2.622-4.93-7.889-2.336-11.795
			c2.594-3.906,7.853-4.987,11.778-2.422c0.817,0.533,20.075,12.933,31.925,1.083c2.152-2.174,5.302-3.029,8.258-2.243
			c2.956,0.787,5.264,3.095,6.051,6.051c0.787,2.956-0.069,6.106-2.243,8.258C161.646,29.676,152.717,33.294,143.458,33.112z"/>
	</g>
	<path style="fill:#D1D4D1;" d="M358.4,204.8h110.933c18.851,0,34.133-15.282,34.133-34.133s-15.282-34.133-34.133-34.133
		c0-28.277-22.923-51.2-51.2-51.2c-28.277,0-51.2,22.923-51.2,51.2c-7.105,0.015-14.028,2.253-19.797,6.4L358.4,204.8z"/>
	<rect x="204.8" y="332.8" style="fill:#A5A5A4;" width="110.933" height="170.667"/>
	<rect x="315.733" y="332.8" style="fill:#5E5F62;" width="187.733" height="170.667"/>
	<polygon style="fill:#7F6E5D;" points="392.533,204.8 204.8,204.8 110.933,76.8 298.667,76.8 	"/>
	<circle style="fill:#FFFFFF;" cx="110.933" cy="204.8" r="42.667"/>
	<path style="fill:#AF8066;" d="M59.733,409.6h102.4c4.713,0,8.533,3.82,8.533,8.533v85.333H51.2v-85.333
		C51.2,413.421,55.021,409.6,59.733,409.6z"/>
	<g>
		<path style="fill:#84B5CB;" d="M59.733,281.6h25.6c4.713,0,8.533,3.821,8.533,8.533V307.2c0,4.713-3.82,8.533-8.533,8.533h-25.6
			c-4.713,0-8.533-3.82-8.533-8.533v-17.067C51.2,285.421,55.021,281.6,59.733,281.6z"/>
		<path style="fill:#84B5CB;" d="M136.533,281.6h25.6c4.713,0,8.533,3.821,8.533,8.533V307.2c0,4.713-3.821,8.533-8.533,8.533h-25.6
			c-4.713,0-8.533-3.82-8.533-8.533v-17.067C128,285.421,131.821,281.6,136.533,281.6z"/>
	</g>
	<g>
		<path style="fill:#547580;" d="M247.467,247.467h25.6c4.713,0,8.533,3.821,8.533,8.533v17.067c0,4.713-3.82,8.533-8.533,8.533
			h-25.6c-4.713,0-8.533-3.82-8.533-8.533V256C238.933,251.287,242.754,247.467,247.467,247.467z"/>
		<path style="fill:#547580;" d="M324.267,247.467h25.6c4.713,0,8.533,3.821,8.533,8.533v17.067c0,4.713-3.821,8.533-8.533,8.533
			h-25.6c-4.713,0-8.533-3.82-8.533-8.533V256C315.733,251.287,319.554,247.467,324.267,247.467z"/>
	</g>
	<g>
		<path style="fill:#84B5CB;" d="M59.733,341.333h25.6c4.713,0,8.533,3.821,8.533,8.533v17.067c0,4.713-3.82,8.533-8.533,8.533
			h-25.6c-4.713,0-8.533-3.82-8.533-8.533v-17.067C51.2,345.154,55.021,341.333,59.733,341.333z"/>
		<path style="fill:#84B5CB;" d="M136.533,341.333h25.6c4.713,0,8.533,3.821,8.533,8.533v17.067c0,4.713-3.821,8.533-8.533,8.533
			h-25.6c-4.713,0-8.533-3.82-8.533-8.533v-17.067C128,345.154,131.821,341.333,136.533,341.333z"/>
		<path style="fill:#84B5CB;" d="M358.4,375.467H384c4.713,0,8.533,3.821,8.533,8.533v68.267c0,4.713-3.82,8.533-8.533,8.533h-25.6
			c-4.713,0-8.533-3.82-8.533-8.533V384C349.867,379.287,353.687,375.467,358.4,375.467z"/>
		<path style="fill:#84B5CB;" d="M435.2,375.467h25.6c4.713,0,8.533,3.821,8.533,8.533v68.267c0,4.713-3.82,8.533-8.533,8.533h-25.6
			c-4.713,0-8.533-3.82-8.533-8.533V384C426.667,379.287,430.487,375.467,435.2,375.467z"/>
	</g>
	<path style="fill:#AF8066;" d="M247.467,409.6h25.6c4.713,0,8.533,3.82,8.533,8.533v85.333h-42.667v-85.333
		C238.933,413.421,242.754,409.6,247.467,409.6z"/>
	<path style="fill:#BDC3C7;" d="M503.467,512H8.533C3.821,512,0,508.18,0,503.467c0-4.713,3.821-8.533,8.533-8.533h494.933
		c4.713,0,8.533,3.821,8.533,8.533C512,508.18,508.18,512,503.467,512z"/>
</g>
<g>
</g>
<g>
</g>
<g>
</g>
<g>
</g>
<g>
</g>
<g>
</g>
<g>
</g>
<g>
</g>
<g>
</g>
<g>
</g>
<g>
</g>
<g>
</g>
<g>
</g>
<g>
</g>
<g>
</g>
</svg>
