<?xml version="1.0" encoding="iso-8859-1"?>
<!-- Generator: Adobe Illustrator 19.0.0, SVG Export Plug-In . SVG Version: 6.00 Build 0)  -->
<svg version="1.1" id="Layer_1" xmlns="http://www.w3.org/2000/svg" xmlns:xlink="http://www.w3.org/1999/xlink" x="0px" y="0px"
	 viewBox="0 0 460 460" style="enable-background:new 0 0 460 460;" xml:space="preserve">
<g id="XMLID_1606_">
	<path id="XMLID_1292_" style="fill:#E5D1B7;" d="M275,60L275,60v120H45v-60c0-33.137,26.863-60,60-60h50c33.137,0,60-26.863,60-60
		l0,0l0,0C248.137,0,275,26.863,275,60z"/>
	<path id="XMLID_1291_" style="fill:#D8C4AB;" d="M325,100L325,100v120H95v-60c0-33.137,26.863-60,60-60h50
		c33.137,0,60-26.863,60-60l0,0l0,0C298.137,40,325,66.863,325,100z"/>
	<path id="XMLID_1231_" style="fill:#5C676B;" d="M433.033,211.967L433.033,211.967c-23.832-23.832-59.711-28.269-88.033-13.318V160
		c0-11.046-8.954-20-20-20H35c-11.046,0-20,8.954-20,20v240c0,33.137,26.863,60,60,60h210c33.137,0,60-26.863,60-60v-2.033
		c8.871-3.66,17.185-9.085,24.393-16.294l63.64-63.64C462.322,288.744,462.322,241.256,433.033,211.967z M404.749,289.749
		L345,349.498v-98.995l10.251-10.251c13.668-13.668,35.829-13.668,49.498,0l0,0C418.417,253.92,418.417,276.08,404.749,289.749z"/>
	<path id="XMLID_515_" style="fill:#768184;" d="M355,160L355,160c0,11.046-8.954,20-20,20H175c-16.569,0-30,13.431-30,30v155
		c0,24.853-20.147,45-45,45l0,0c-24.853,0-45-20.147-45-45V210c0-16.569-13.431-30-30-30l0,0c-11.046,0-20-8.954-20-20l0,0
		c0-11.046,8.954-20,20-20h310C346.046,140,355,148.954,355,160z"/>
</g>
<g>
</g>
<g>
</g>
<g>
</g>
<g>
</g>
<g>
</g>
<g>
</g>
<g>
</g>
<g>
</g>
<g>
</g>
<g>
</g>
<g>
</g>
<g>
</g>
<g>
</g>
<g>
</g>
<g>
</g>
</svg>
