<?xml version="1.0" encoding="iso-8859-1"?>
<!-- Generator: Adobe Illustrator 19.0.0, SVG Export Plug-In . SVG Version: 6.00 Build 0)  -->
<svg version="1.1" id="Layer_1" xmlns="http://www.w3.org/2000/svg" xmlns:xlink="http://www.w3.org/1999/xlink" x="0px" y="0px"
	 viewBox="0 0 512.002 512.002" style="enable-background:new 0 0 512.002 512.002;" xml:space="preserve">
<path style="fill:#FE9901;" d="M510.086,421.222c-11.634-50.224-18.596-101.417-18.596-152.971v-97.085V58.546
	c0-25.65-20.793-46.443-46.443-46.443H341.651c-6.501,0-11.771,5.271-11.771,11.771v0.953c0,6.501,5.271,11.771,11.771,11.771
	h93.407c4.496,0,8.415,3.464,8.55,7.958c0.139,4.649-3.588,8.461-8.206,8.461h-93.751c-6.501,0-11.771,5.271-11.771,11.771l0,0
	c0,6.501,5.271,11.771,11.771,11.771h93.407c4.496,0,8.415,3.464,8.55,7.958c0.139,4.649-3.588,8.461-8.206,8.461h-93.751
	c-6.501,0-11.771,5.271-11.771,11.771l0,0c0,6.501,5.271,11.771,11.771,11.771h93.407c4.496,0,8.415,3.464,8.55,7.958
	c0.139,4.649-3.588,8.461-8.206,8.461h-93.751c-6.501,0-11.771,5.271-11.771,11.771l0,0c0,6.501,5.271,11.771,11.771,11.771h93.407
	c4.496,0,8.415,3.464,8.55,7.958c0.139,4.649-3.588,8.461-8.206,8.461h-93.751c-6.501,0-11.771,5.271-11.771,11.771l0,0
	c0,6.501,5.271,11.771,11.771,11.771h93.407c4.496,0,8.415,3.464,8.55,7.958c0.139,4.649-3.588,8.461-8.206,8.461h-93.751
	c-6.501,0-11.771,5.271-11.771,11.771l0,0c0,6.501,5.271,11.771,11.771,11.771h93.407c4.496,0,8.415,3.464,8.55,7.958
	c0.139,4.649-3.588,8.461-8.206,8.461h-93.751c-6.501,0-11.771,5.271-11.771,11.772v1.473c0,6.501,5.271,11.772,11.771,11.772
	h104.415c-1.207,46.457-7.886,98.049-18.381,143.376c-1.243,5.371-1.913,11.08-1.913,16.997c0,20.711,8.205,38.859,20.511,48.991
	v0.405h0.499c6.465,5.162,14.023,8.135,22.105,8.135s15.64-2.974,22.105-8.135h0.499v-0.405
	c12.306-10.131,20.511-28.279,20.511-48.991C512,432.304,511.331,426.595,510.086,421.222z"/>
<path style="fill:#EA8500;" d="M510.086,421.222c-11.634-50.224-18.596-101.417-18.596-152.971v-97.085V58.546
	c0-25.65-20.793-46.443-46.443-46.443H420.28c25.65,0,46.443,20.793,46.443,46.443v112.62v97.085
	c0,51.554,6.963,102.747,18.596,152.971c1.245,5.373,1.914,11.083,1.914,17.002c0,20.711-8.205,38.859-20.511,48.991v0.405h-0.499
	c-3.02,2.411-6.282,4.338-9.721,5.715c3.922,1.57,8.077,2.421,12.383,2.421c8.082,0,15.64-2.974,22.105-8.135h0.499v-0.405
	c12.306-10.131,20.511-28.279,20.511-48.991C512,432.304,511.331,426.595,510.086,421.222z"/>
<path style="fill:#37CC8F;" d="M0.044,427.069c-1.402,40.198,30.769,73.225,70.652,73.225c32.832,0,60.429-22.383,68.383-52.72
	l0.022,0.124l28.74-122.307l33.611-12.772l49.112-269.21c1.943-10.65-0.696-21.491-7.033-29.976
	c-2.127-2.847-6.611-2.023-7.662,1.373l-99.88,322.688l0,0c-10.512,11.184-24.419,18.587-39.566,21.061L85.19,360.39l0.005,0.004
	c-6.384-1.331-13.081-1.812-19.972-1.286C30.12,361.789,1.272,391.883,0.044,427.069z M30.43,429.598
	c0-22.239,18.028-40.267,40.268-40.267s40.267,18.028,40.267,40.267c0,22.238-18.028,40.267-40.267,40.267
	S30.43,451.836,30.43,429.598z"/>
<g>
	<path style="fill:#2AA86F;" d="M59.611,360.397l-0.005-0.004l8.857-1.447c-1.075,0.034-2.153,0.082-3.238,0.165
		c-2.456,0.187-4.879,0.523-7.266,0.971C58.511,360.183,59.064,360.282,59.611,360.397z"/>
	<path style="fill:#2AA86F;" d="M235.872,14.807l-13.816,44.635l-46.187,253.177l-33.611,12.772l-28.741,122.308l-0.022-0.124
		c-6.893,26.289-28.541,46.593-55.561,51.548c4.142,0.755,8.403,1.172,12.763,1.172c32.832,0,60.429-22.383,68.383-52.72
		l0.022,0.124l28.74-122.307l33.611-12.772l49.112-269.21c1.943-10.65-0.696-21.491-7.033-29.976
		C241.407,10.587,236.922,11.412,235.872,14.807z"/>
</g>
<path style="fill:#37CC8F;" d="M280.138,359.11c-6.893-0.525-13.589-0.045-19.972,1.286l0.005-0.004l-11.233-1.835
	c-15.147-2.474-29.054-9.878-39.566-21.061l0,0L109.508,14.859c-1.057-3.417-5.575-4.249-7.712-1.38
	c-6.313,8.479-8.94,19.301-7,29.932l49.112,269.21l33.611,12.772l28.741,122.306l0.022-0.124
	c7.953,30.336,35.552,52.72,68.383,52.72c39.885,0,72.054-33.028,70.652-73.225C344.091,391.883,315.243,361.789,280.138,359.11z
	 M274.666,469.865c-22.239,0-40.267-18.028-40.267-40.267c0-22.238,18.028-40.267,40.267-40.267s40.268,18.028,40.268,40.267
	C314.933,451.836,296.905,469.865,274.666,469.865z"/>
<g>
	<path style="fill:#2AA86F;" d="M98.179,61.955l85.287,275.541l0,0c10.512,11.184,24.419,18.587,39.566,21.061l11.233,1.835
		l-0.005,0.004c5.495-1.146,11.222-1.657,17.106-1.443l-2.428-0.396c-15.147-2.474-29.054-9.878-39.566-21.061l0,0L109.492,14.807
		c-1.051-3.395-5.535-4.22-7.662-1.373c-6.337,8.485-8.976,19.327-7.033,29.976L98.179,61.955z"/>
	<path style="fill:#2AA86F;" d="M345.319,427.069c-1.227-35.185-30.076-65.28-65.181-67.958c-6.36-0.485-12.55-0.104-18.484,1.003
		c31.663,6.021,56.62,34.287,57.76,66.957c1.247,35.745-24.061,65.798-57.725,72.022c4.209,0.782,8.543,1.203,12.978,1.203
		C314.55,500.294,346.721,467.266,345.319,427.069z"/>
</g>
<g>
</g>
<g>
</g>
<g>
</g>
<g>
</g>
<g>
</g>
<g>
</g>
<g>
</g>
<g>
</g>
<g>
</g>
<g>
</g>
<g>
</g>
<g>
</g>
<g>
</g>
<g>
</g>
<g>
</g>
</svg>
