<?xml version="1.0" encoding="iso-8859-1"?>
<!-- Generator: Adobe Illustrator 19.0.0, SVG Export Plug-In . SVG Version: 6.00 Build 0)  -->
<svg version="1.1" id="Layer_1" xmlns="http://www.w3.org/2000/svg" xmlns:xlink="http://www.w3.org/1999/xlink" x="0px" y="0px"
	 viewBox="0 0 512 512" style="enable-background:new 0 0 512 512;" xml:space="preserve">
<g transform="translate(0 -1)">
	<polygon style="fill:#464F5D;" points="141.241,513 370.759,513 370.759,1 141.241,1 	"/>
	<path style="fill:#FFFFFF;" d="M256,112.614c-4.873,0-8.828-3.946-8.828-8.828V69.739c0-4.882,3.955-8.828,8.828-8.828
		c4.873,0,8.828,3.946,8.828,8.828v34.048C264.828,108.668,260.873,112.614,256,112.614 M256,197.739
		c-4.873,0-8.828-3.955-8.828-8.828v-34.057c0-4.882,3.955-8.828,8.828-8.828c4.873,0,8.828,3.946,8.828,8.828v34.057
		C264.828,193.784,260.873,197.739,256,197.739 M256,282.854c-4.873,0-8.828-3.946-8.828-8.828v-34.039
		c0-4.882,3.955-8.828,8.828-8.828c4.873,0,8.828,3.946,8.828,8.828v34.039C264.828,278.908,260.873,282.854,256,282.854
		 M256,367.987c-4.873,0-8.828-3.955-8.828-8.828v-34.057c0-4.873,3.955-8.828,8.828-8.828c4.873,0,8.828,3.955,8.828,8.828v34.057
		C264.828,364.033,260.873,367.987,256,367.987 M256,453.103c-4.873,0-8.828-3.946-8.828-8.828v-34.048
		c0-4.882,3.955-8.828,8.828-8.828c4.873,0,8.828,3.946,8.828,8.828v34.048C264.828,449.157,260.873,453.103,256,453.103"/>
</g>
<g>
</g>
<g>
</g>
<g>
</g>
<g>
</g>
<g>
</g>
<g>
</g>
<g>
</g>
<g>
</g>
<g>
</g>
<g>
</g>
<g>
</g>
<g>
</g>
<g>
</g>
<g>
</g>
<g>
</g>
</svg>
