<?xml version="1.0" encoding="iso-8859-1"?>
<!-- Generator: Adobe Illustrator 19.0.0, SVG Export Plug-In . SVG Version: 6.00 Build 0)  -->
<svg version="1.1" id="Capa_1" xmlns="http://www.w3.org/2000/svg" xmlns:xlink="http://www.w3.org/1999/xlink" x="0px" y="0px"
	 viewBox="0 0 512 512" style="enable-background:new 0 0 512 512;" xml:space="preserve">
<path style="fill:#B66652;" d="M73.183,425.485L73.183,425.485c12.825,0,23.22-10.396,23.22-23.22v-46.317H49.963v46.317
	C49.963,415.089,60.358,425.485,73.183,425.485z"/>
<path style="fill:#A05A4B;" d="M73.183,425.485c12.824,0,23.22-10.397,23.22-23.22v-46.317H73.224l-0.006,46.356
	c0,0-0.011,0.002-0.035,0.002c-8.587,0-16.077,4.673-20.082,11.61C57.122,420.832,64.607,425.485,73.183,425.485z"/>
<path style="fill:#B66652;" d="M415.595,355.948v46.317c0,12.825,10.397,23.22,23.22,23.22l0,0c12.824,0,23.22-10.396,23.22-23.22
	v-46.317H415.595z"/>
<path style="fill:#A05A4B;" d="M438.816,425.485c12.824,0,23.22-10.397,23.22-23.22v-46.317h-23.179l-0.006,46.356
	c0,0-0.011,0.002-0.035,0.002c-8.587,0-16.077,4.673-20.082,11.61C422.754,420.832,430.24,425.485,438.816,425.485z"/>
<path style="fill:#B66652;" d="M337.893,86.515H174.105c-62.667,0-115.583,46.87-122.776,109.122
	c-0.902,7.811-1.366,15.753-1.366,23.801v41.207h412.073v-41.207c0-8.049-0.464-15.991-1.366-23.801
	C453.476,133.385,400.56,86.515,337.893,86.515z"/>
<path style="fill:#A05A4B;" d="M460.669,195.637c-7.193-62.252-60.109-109.122-122.776-109.122l0,0l0,0
	c0,12.299,8.692,22.798,20.73,25.318c41.506,8.691,73.995,42.974,79.02,86.465c0.805,6.966,1.214,14.078,1.214,21.14v41.207h23.179
	v-41.207C462.036,211.389,461.573,203.447,460.669,195.637z"/>
<path style="fill:#81493B;" d="M415.595,260.646v-46.358c-0.142-4.468-0.47-8.933-0.977-13.329
	c-4.485-38.815-37.47-68.086-76.726-68.086H174.106c-39.255,0-72.24,29.271-76.726,68.086c-0.507,4.397-0.835,8.862-0.977,13.329
	v46.358H415.595z"/>
<g>
	<path style="fill:#E9E3D5;" d="M239.682,223.051c-2.683-23.219-22.47-40.728-46.024-40.728h-19.552
		c-23.554,0-43.341,17.509-46.023,40.721c-0.392,3.395-0.652,6.86-0.774,10.305v14.936h113.146v-14.936
		C240.334,229.904,240.074,226.439,239.682,223.051z"/>
	<path style="fill:#E9E3D5;" d="M383.917,223.051c-2.683-23.219-22.47-40.728-46.024-40.728h-19.552
		c-23.554,0-43.341,17.509-46.023,40.721c-0.393,3.395-0.652,6.86-0.774,10.305v14.936H384.69v-14.936
		C384.568,229.904,384.309,226.439,383.917,223.051z"/>
</g>
<g>
	<path style="fill:#D3CDBF;" d="M193.658,182.323v1.649c0,10.371,5.267,19.859,13.67,25.939c2.561,1.853,4.726,4.218,6.338,6.952
		h-84.433c-2.376,9.234-1.923,21.2-1.923,31.422h113.146c0-5.885,0.402-24.444-1.924-31.422
		C233.362,196.791,215.068,182.323,193.658,182.323z"/>
	<path style="fill:#D3CDBF;" d="M382.766,216.863c-5.168-20.072-23.462-34.54-44.873-34.54v1.649
		c0,10.371,5.267,19.859,13.67,25.939c2.561,1.853,4.727,4.218,6.338,6.952h-84.433c-2.376,9.234-1.923,21.2-1.923,31.422H384.69
		C384.69,244.697,385.057,223.736,382.766,216.863z"/>
</g>
<path style="fill:#E9E3D5;" d="M462.036,241.189c-8.435-1.638,20.266-1.147-400.225-1.147c-4.054,0-8.012,0.402-11.848,1.147
	C21.496,246.718,0,271.77,0,301.853v15.463c0,8.534,6.919,15.453,15.453,15.453h481.095c8.534,0,15.453-6.919,15.453-15.453v-15.463
	C512,271.768,490.503,246.717,462.036,241.189z"/>
<g>
	<path style="fill:#D3CDBF;" d="M488.821,309.59H0v7.726c0,8.534,6.919,15.453,15.453,15.453l240.547,23.179l240.548-23.179
		c8.534,0,15.453-6.919,15.453-15.453v-15.463c0-8.199-1.607-16.02-4.507-23.179l0,0c-10.312,0-18.672,8.36-18.672,18.672V309.59z"
		/>
	<path style="fill:#D3CDBF;" d="M462.017,279.253H49.963c-4.268,0-7.726-3.458-7.726-7.726c0-4.268,3.458-7.726,7.726-7.726h412.054
		c4.268,0,7.726,3.458,7.726,7.726C469.743,275.794,466.285,279.253,462.017,279.253z"/>
</g>
<path style="fill:#B66652;" d="M15.453,379.127h481.095c8.534,0,15.453-6.919,15.453-15.453v-15.453
	c0-8.534-6.919-15.453-15.453-15.453H15.453C6.919,332.769,0,339.687,0,348.221v15.453C0,372.208,6.919,379.127,15.453,379.127z"/>
<path style="fill:#A05A4B;" d="M496.547,332.769h-7.726v23.179H0v7.726c0,8.534,6.919,15.453,15.453,15.453h481.095
	c8.534,0,15.453-6.919,15.453-15.453v-15.453C512,339.686,505.081,332.769,496.547,332.769z"/>
<g>
</g>
<g>
</g>
<g>
</g>
<g>
</g>
<g>
</g>
<g>
</g>
<g>
</g>
<g>
</g>
<g>
</g>
<g>
</g>
<g>
</g>
<g>
</g>
<g>
</g>
<g>
</g>
<g>
</g>
</svg>
