<?xml version="1.0" encoding="iso-8859-1"?>
<!-- Generator: Adobe Illustrator 19.0.0, SVG Export Plug-In . SVG Version: 6.00 Build 0)  -->
<svg version="1.1" id="Layer_1" xmlns="http://www.w3.org/2000/svg" xmlns:xlink="http://www.w3.org/1999/xlink" x="0px" y="0px"
	 viewBox="0 0 512 512" style="enable-background:new 0 0 512 512;" xml:space="preserve">
<g>
	<polygon style="fill:#992C13;" points="4.412,512 304.55,512 304.55,476.69 4.412,476.69 	"/>
	<polygon style="fill:#C6421E;" points="22.067,476.69 286.894,476.69 286.894,0 22.067,0 	"/>
	<polygon style="fill:#FFFFFF;" points="66.205,167.724 242.756,167.724 242.756,44.138 66.205,44.138 	"/>
	<polygon style="fill:#992C13;" points="66.205,414.897 242.756,414.897 242.756,238.345 66.205,238.345 	"/>
	<path style="fill:#CDCED1;" d="M384.002,98.142L384.002,98.142c0,4.237,2.975,7.68,7.044,8.828
		c28.381,8.015,63.576,60.31,63.576,87.234v209.893c0,23.04-16.799,43.652-39.724,45.895c-26.306,2.569-48.552-18.132-48.552-43.926
		V238.342c0-43.802-35.646-79.448-79.448-79.448v35.31c24.338,0,44.138,19.8,44.138,44.138v164.917
		c0,42.275,31.823,79.245,74.002,82.079c46.257,3.099,84.895-33.66,84.895-79.272V194.204h17.655
		c0-45.312-66.101-98.066-113.284-105.128C388.857,88.256,384.002,92.634,384.002,98.142"/>
	<g>
		<path style="fill:#C6421E;" d="M198.623,291.31h-88.276c-4.873,0-8.828-3.955-8.828-8.828c0-4.873,3.955-8.828,8.828-8.828h88.276
			c4.873,0,8.828,3.955,8.828,8.828C207.45,287.356,203.496,291.31,198.623,291.31"/>
		<path style="fill:#C6421E;" d="M198.623,335.448h-88.276c-4.873,0-8.828-3.955-8.828-8.828c0-4.873,3.955-8.828,8.828-8.828
			h88.276c4.873,0,8.828,3.955,8.828,8.828C207.45,331.493,203.496,335.448,198.623,335.448"/>
		<path style="fill:#C6421E;" d="M198.623,379.586h-88.276c-4.873,0-8.828-3.955-8.828-8.828c0-4.873,3.955-8.828,8.828-8.828
			h88.276c4.873,0,8.828,3.955,8.828,8.828C207.45,375.631,203.496,379.586,198.623,379.586"/>
	</g>
</g>
<g>
</g>
<g>
</g>
<g>
</g>
<g>
</g>
<g>
</g>
<g>
</g>
<g>
</g>
<g>
</g>
<g>
</g>
<g>
</g>
<g>
</g>
<g>
</g>
<g>
</g>
<g>
</g>
<g>
</g>
</svg>
