<?xml version="1.0" encoding="iso-8859-1"?>
<!-- Generator: Adobe Illustrator 19.0.0, SVG Export Plug-In . SVG Version: 6.00 Build 0)  -->
<svg version="1.1" id="Layer_1" xmlns="http://www.w3.org/2000/svg" xmlns:xlink="http://www.w3.org/1999/xlink" x="0px" y="0px"
	 viewBox="0 0 503.322 503.322" style="enable-background:new 0 0 503.322 503.322;" xml:space="preserve">
<g>
	<g>
		<path style="fill:#FAC176;" d="M138.847,164.881c-4.79,0-8.678-3.879-8.678-8.678V95.458c0-4.799,3.888-8.678,8.678-8.678
			c4.79,0,8.678,3.879,8.678,8.678v60.746C147.525,161.002,143.638,164.881,138.847,164.881"/>
		<path style="fill:#FAC176;" d="M251.661,164.881c-4.79,0-8.678-3.879-8.678-8.678V95.458c0-4.799,3.888-8.678,8.678-8.678
			s8.678,3.879,8.678,8.678v60.746C260.339,161.002,256.451,164.881,251.661,164.881"/>
		<path style="fill:#FAC176;" d="M364.475,164.881c-4.79,0-8.678-3.879-8.678-8.678V95.458c0-4.799,3.888-8.678,8.678-8.678
			c4.79,0,8.678,3.879,8.678,8.678v60.746C373.153,161.002,369.265,164.881,364.475,164.881"/>
	</g>
	<path style="fill:#C36866;" d="M407.864,373.153c34.833,0,26.034-34.712,69.424-34.712c9.546,0,17.356-7.81,17.356-17.356v-17.391
		c0-9.563-7.758-17.321-17.33-17.321h-0.026H26.008c-9.572,0-17.33,7.758-17.33,17.321v17.391c0,9.546,7.81,17.356,17.356,17.356
		H43.39c21.33,0,52.068,15.933,52.068,34.712v8.678c0,8.652,8.704,17.356,17.356,17.356c8.678,0,17.356-8.678,17.356-17.356v-8.678
		c0-25.201,17.356-34.712,43.39-34.712c43.39,0,43.268,34.712,78.102,34.712s34.712-34.712,78.102-34.712
		S373.04,373.153,407.864,373.153"/>
	<path style="fill:#EEBDA2;" d="M407.869,373.153L407.869,373.153L407.869,373.153L407.869,373.153
		c-34.833,0-34.712-34.712-78.102-34.712s-43.277,34.712-78.102,34.712c-34.833,0-34.712-34.712-78.102-34.712
		c-26.034,0-43.39,9.511-43.39,34.712v8.678c0,8.678-8.678,17.356-17.356,17.356c-8.661,0-17.356-8.704-17.356-17.356v-8.678
		c0-18.779-30.737-34.712-52.068-34.712v86.78h416.542v-84.254C435.708,348.889,437.027,373.153,407.869,373.153"/>
	<path style="fill:#BDC3C7;" d="M485.966,477.288H17.356C7.775,477.288,0,469.513,0,459.932V425.22h503.322v34.712
		C503.322,469.513,495.547,477.288,485.966,477.288"/>
	<path style="fill:#C36866;" d="M416.542,208.271L416.542,208.271c9.58,0,17.356-7.775,17.356-17.356v-17.356
		c0-9.58-7.775-17.356-17.356-17.356H86.78c-9.58,0-17.356,7.775-17.356,17.356v17.356c0,9.58,7.775,17.356,17.356,17.356
		c30.989,0,27.188,34.712,52.068,34.712c24.88,0,21.079-34.712,52.068-34.712s35.866,34.712,60.746,34.712
		s29.757-34.712,60.746-34.712c24.88,0,21.079,34.712,52.068,34.712S391.663,208.271,416.542,208.271"/>
	<path style="fill:#EEBDA2;" d="M364.475,242.983c-30.989,0-27.188-34.712-52.068-34.712c-30.989,0-35.866,34.712-60.746,34.712
		s-29.757-34.712-60.746-34.712s-27.188,34.712-52.068,34.712c-18.814,0-21.252-19.829-34.712-29.505v72.895h295.051v-69.441
		C390.465,227.224,385.38,242.983,364.475,242.983"/>
	<g>
		<path style="fill:#F29C1F;" d="M138.847,26.034l-18.927,34.712c-7.532,14.206,1.076,32.942,16.505,34.582
			c0.798,0.087,1.605,0.13,2.421,0.13c0.816,0,1.623-0.043,2.421-0.13c15.429-1.64,24.038-20.376,16.505-34.582L138.847,26.034z"/>
		<path style="fill:#F29C1F;" d="M251.661,26.034l-18.927,34.712c-7.532,14.206,1.076,32.942,16.505,34.582
			c0.798,0.087,1.605,0.13,2.421,0.13c0.816,0,1.623-0.043,2.421-0.13c15.429-1.64,24.038-20.376,16.506-34.582L251.661,26.034z"/>
		<path style="fill:#F29C1F;" d="M364.475,26.034l-18.927,34.712c-7.532,14.206,1.076,32.942,16.506,34.582
			c0.798,0.087,1.605,0.13,2.421,0.13s1.623-0.043,2.421-0.13c15.429-1.64,24.038-20.376,16.505-34.582L364.475,26.034z"/>
	</g>
</g>
<g>
</g>
<g>
</g>
<g>
</g>
<g>
</g>
<g>
</g>
<g>
</g>
<g>
</g>
<g>
</g>
<g>
</g>
<g>
</g>
<g>
</g>
<g>
</g>
<g>
</g>
<g>
</g>
<g>
</g>
</svg>
